<svg width="384" height="314" viewBox="0 0 384 314" fill="none" xmlns="http://www.w3.org/2000/svg">
<g clip-path="url(#clip0_104_94)">
<rect x="2" y="2" width="380" height="310" rx="10" fill="#111111"/>
<path fill-rule="evenodd" clip-rule="evenodd" d="M285.604 447.22V447.155H285.538C284.345 446.1 281.363 437.327 277.586 424.135L276.791 421.364C275.665 417.341 274.472 412.921 273.213 408.304V408.238C271.49 401.774 269.701 394.849 267.912 387.593L264.798 374.929C264.798 374.929 264.466 373.279 264.003 370.245C263.472 367.211 262.81 362.726 261.684 357.12C260.623 351.513 259.497 344.719 257.84 337.068C256.25 329.35 254.527 320.578 252.407 311.211C250.286 301.845 248.033 291.688 245.648 280.936C245.384 280.012 245.118 279.023 244.919 278.1V278.034L244.522 276.451C244.124 274.802 243.726 273.086 243.329 271.438V271.305H243.263L242.931 269.723C241.209 262.467 239.552 255.014 237.697 247.428C237.167 245.383 236.637 243.338 236.107 241.294V241.096L235.709 239.711V239.513L235.312 238.062V237.93L234.914 236.413V236.347L234.516 234.764C232.727 227.245 230.938 219.527 229.083 211.81C227.625 205.742 226.035 199.674 224.445 193.539C223.849 190.901 223.186 188.196 222.589 185.557V185.492C222.191 183.777 221.794 182.062 221.396 180.347L220.204 175.136C218.68 169.002 217.222 162.802 215.698 156.734L213.114 147.037C212.517 144.465 211.06 139.716 209.668 136.154C204.036 121.709 195.024 109.638 185.483 100.14C175.809 90.6417 165.605 83.3864 155.931 77.1861C146.323 71.0515 137.046 66.039 128.498 61.4875C112.927 53.3081 99.807 46.6467 90.133 41.4356V41.3698C89.1388 40.9081 88.2117 40.3806 87.3503 39.8524C78.0734 34.7077 72.5736 31.6079 71.9115 31.2119C72.1101 31.5414 72.9715 32.7286 74.5614 34.9715C76.4835 37.3458 79.1998 41.0396 83.0433 45.3273C86.886 49.5485 91.5909 54.8912 97.2892 60.3661C103.054 65.9068 109.68 71.9749 116.903 78.3075C124.059 84.5736 131.745 91.3672 139.961 98.5567L140.823 99.3486C145.395 103.636 150.033 108.055 154.34 112.672V112.87H154.539L154.738 113.068V113.266H154.937L155.135 113.53V113.662H155.334L155.533 113.926V114.057H155.665L155.997 114.387V114.453H156.063L156.394 114.783V114.849C156.791 115.244 157.189 115.706 157.587 116.168V116.432H157.786L157.984 116.63V116.828H158.184L158.382 117.026V117.224H158.515L158.78 117.487V117.619H158.846L159.177 117.949V118.015C159.707 118.609 160.237 119.268 160.768 119.862V119.994H160.834L161.165 120.39C161.496 120.785 161.761 121.181 162.093 121.577C162.756 122.368 163.352 123.16 163.948 123.951C164.611 124.875 165.273 125.798 165.936 126.722V126.787C166.466 127.513 166.996 128.305 167.526 129.096V129.163H167.593C167.858 129.492 168.056 129.888 168.321 130.283V130.35C168.719 130.943 169.117 131.603 169.514 132.262V132.328H169.58C170.707 134.175 171.767 136.088 172.695 138.067V138.265H172.827L173.092 138.858V139.056H173.225L173.49 139.716V139.848H173.556L173.887 140.573V140.639H173.954C174.219 141.233 174.484 141.893 174.682 142.486V142.618H174.749C175.014 143.278 175.279 143.871 175.477 144.531V144.597H175.544L175.875 145.652V145.784H175.942C176.074 146.114 176.207 146.51 176.339 146.839V147.037C176.472 147.433 176.604 147.829 176.737 148.225C177.465 150.599 177.863 151.918 178.658 155.48L180.514 164.451C181.706 170.849 183.296 177.181 184.688 183.579C186.543 192.22 188.663 200.794 191.049 209.238C185.086 204.488 178.989 200.399 172.96 197.431L111.602 166.43L110.873 166.034C109.68 165.44 108.487 164.781 107.295 164.121V164.055H107.228C105.572 163.065 103.849 162.01 102.126 160.889H102.06L100.933 160.097H100.868L99.7406 159.306C98.8135 158.646 97.8856 157.986 96.9578 157.327H96.8914C95.8314 156.536 94.7715 155.744 93.7108 154.952C93.0487 154.425 92.3858 153.897 91.723 153.369C90.133 152.116 88.5431 150.731 86.9524 149.412C82.314 145.388 77.742 140.969 73.3686 136.286C72.1765 134.967 70.9835 133.713 69.7908 132.328C68.2668 130.613 66.8753 128.965 65.4176 127.183H65.3513C62.3033 123.424 59.3878 119.598 56.6711 115.706V115.64H56.6048C55.2796 113.662 53.9543 111.749 52.6292 109.77V109.704C50.9726 107.066 49.3823 104.428 47.8583 101.789V101.723C46.8644 100.008 45.9368 98.293 45.0754 96.5783L44.6778 95.7864L44.2802 94.9952C43.4188 93.2798 42.6237 91.5651 41.8948 89.8505C40.8346 87.4754 39.907 85.1011 39.1118 82.7267V82.6602H39.0456C38.8468 81.9348 38.5817 81.2093 38.3167 80.4839L5.1198 -23.3369C4.85476 -24.1284 4.58971 -24.854 4.39093 -25.6455V-25.7115C4.2584 -26.1732 4.12589 -26.635 3.99336 -27.0967V-27.2945H3.9271C3.79458 -27.7562 3.72831 -28.152 3.5958 -28.6137V-28.8776H3.52954C3.39701 -29.4052 3.33075 -29.8669 3.19822 -30.3946V-30.4606C3.0657 -31.1202 2.93318 -31.7798 2.80066 -32.3734V-32.4394C2.66814 -33.2969 2.53561 -34.0884 2.40309 -34.9459V-36.0012H2.27057C1.80674 -40.2226 1.93926 -43.9164 2.66814 -47.1484H2.80066V-47.7421C2.86692 -48.0719 2.99945 -48.4017 3.0657 -48.7314H3.19822V-49.1932C3.52953 -50.1166 3.86084 -51.0401 4.32467 -51.8975H4.39093V-52.0954C4.52345 -52.2933 4.58971 -52.4912 4.72224 -52.6891H4.7885V-52.821C4.98728 -53.2167 5.25233 -53.5466 5.45111 -53.8763H5.58363V-54.0742C6.04746 -54.7338 6.51129 -55.3275 7.04138 -55.8551H7.1739V-56.053L7.43895 -56.2509H7.57147V-56.4488L7.83652 -56.6467H7.96904V-56.7786L8.30031 -57.1084H8.36659V-57.1743C8.89672 -57.5701 9.42677 -57.8999 9.9569 -58.2956C10.4207 -58.5595 10.8845 -58.8233 11.3483 -59.0872H11.5471V-59.1531C11.8122 -59.285 12.011 -59.351 12.2097 -59.4829H12.3423V-59.5489C12.6736 -59.6148 12.9387 -59.7468 13.2699 -59.8787H13.6013V-59.9446C14.4627 -60.2744 15.3241 -60.4723 16.318 -60.6702H17.1794V-60.8021C18.2395 -60.934 19.366 -61 20.4924 -61C22.5465 -61 24.7994 -60.8021 27.1185 -60.2744H27.3836C27.9799 -60.1425 28.5101 -60.0106 29.1064 -59.8787C30.0341 -59.6148 30.9617 -59.351 31.8894 -59.0872H31.9557C32.3532 -58.9552 32.7508 -58.8233 33.1483 -58.6914H33.2146C33.5459 -58.5595 33.9434 -58.4276 34.341 -58.2956C35.6662 -57.8339 36.9252 -57.3062 38.3167 -56.7126V-56.6467H38.3829C39.3769 -56.2509 40.3708 -55.7892 41.431 -55.3275L66.6103 -43.1909L209.403 25.5391L216.957 29.1671C218.15 29.6946 219.409 30.3543 220.601 31.014V31.0797H220.668L221.396 31.4757C222.059 31.8716 222.722 32.2669 223.384 32.6629C226.631 34.642 229.878 36.8841 232.926 39.3907C233.92 40.1826 234.847 40.9081 235.709 41.7658H235.775C239.419 44.9314 242.865 48.3614 246.112 52.0551V52.1209C246.907 53.0443 247.702 53.9678 248.498 54.8912C249.028 55.5509 249.558 56.2106 250.088 56.8703H250.154C251.347 58.387 252.54 59.9701 253.666 61.619H253.732C255.389 63.9276 256.979 66.3685 258.503 68.7428V68.8086C258.9 69.4683 259.298 70.0623 259.696 70.722V70.7877C260.226 71.7111 260.756 72.5688 261.286 73.4923V73.558C262.876 76.3941 264.334 79.2309 265.659 82.1985V82.265H265.726L266.056 83.0562C266.454 83.9796 266.852 84.9031 267.249 85.8265V85.8923C267.514 86.4862 267.779 87.1459 268.045 87.8056V87.8714C268.773 89.6525 269.436 91.4994 270.033 93.2798V93.412H270.098L270.43 94.5334V94.5992H270.496C270.894 95.9186 271.291 97.2373 271.623 98.5567C271.755 99.0842 271.888 99.5459 272.02 100.074V100.14H272.086C272.153 100.667 272.285 101.196 272.418 101.657V101.723C272.882 103.701 273.279 105.68 273.61 107.593V107.725C274.008 109.836 274.273 111.947 274.405 113.992V114.453H274.472C274.538 115.311 274.605 116.168 274.605 116.96L278.381 205.742L286.134 386.076C286.2 388.319 286.333 390.495 286.399 392.671V392.804C286.531 397.157 286.664 401.444 286.796 405.468V405.863C287.194 420.836 287.194 433.237 286.796 440.427V440.625C286.664 442.537 286.531 444.055 286.399 445.175V445.308C286.266 445.967 286.2 446.429 286.068 446.759H286.001V447.022C285.935 447.22 285.803 447.287 285.736 447.287C285.67 447.287 285.67 447.287 285.604 447.22ZM605.248 6.87268C596.899 6.87268 586.761 9.90702 575.165 16.3046L382.279 123.357C342.191 145.52 309.988 201.322 310.717 247.297L315.355 558.759C316.084 604.666 318.27 642 320.325 642C322.379 641.802 330.926 604.666 339.474 559.418L354.317 480.464C354.317 480.464 354.714 478.354 355.377 474.462L360.147 449.134C360.744 446.033 361.473 442.867 362.335 439.701C362.4 439.635 362.4 439.569 362.4 439.503C362.865 437.195 363.461 434.82 363.924 432.379C366.045 422.552 368.364 411.47 371.346 399.531C374.063 387.527 377.044 374.599 380.689 361.077C384.002 347.424 387.779 333.11 391.953 318.401C395.995 303.626 400.302 288.455 404.874 273.086C406.133 269.327 407.259 265.501 408.452 261.609L409.38 258.707L410.572 255.146L412.494 249.341C414.151 245.185 416.205 240.041 418.193 236.017C420.18 231.795 422.235 227.706 424.554 223.749C433.366 207.787 444.167 193.803 455.299 180.941C466.431 168.144 478.159 156.668 489.622 146.048C501.152 135.56 512.416 125.798 523.151 116.762C533.752 107.791 543.824 99.2822 552.968 91.4329C562.046 83.5179 570.196 76.1304 577.021 69.2703C583.779 62.3452 589.61 56.1449 593.785 50.472C597.959 44.8656 601.074 40.1826 602.863 36.8184C604.718 33.3883 605.712 31.5414 605.712 31.5414C605.712 31.5414 605.513 33.6521 605.116 37.5438C604.453 41.4356 603.459 47.2399 600.941 54.3637C598.423 61.3553 594.845 69.7985 589.677 78.9007C584.641 87.9371 578.147 97.7655 570.593 107.857C555.619 128.107 536.27 149.742 516.591 172.564C506.718 183.909 496.845 195.65 487.635 207.72C478.424 219.857 469.81 232.324 462.985 245.185C461.263 248.352 459.738 251.584 458.214 254.816C456.691 258.18 455.763 260.554 454.437 263.984L452.384 269.723L451.588 271.965L450.594 274.868C449.335 278.825 448.077 282.65 446.817 286.476C441.583 301.779 436.481 316.95 430.915 331.395C429.854 334.034 428.794 336.737 427.734 339.311C434.294 333.836 440.92 328.955 447.679 325.063L505.26 291.688C544.818 268.667 586.628 213.459 598.158 168.936L627.048 56.8703C635.265 25.2096 625.789 6.87268 605.314 6.87268H605.248Z" fill="white" fill-opacity="0.02"/>
</g>
<rect x="1.25" y="1.25" width="381.5" height="311.5" rx="10.75" stroke="url(#paint0_linear_104_94)" stroke-width="1.5"/>
<defs>
<linearGradient id="paint0_linear_104_94" x1="382" y1="157" x2="1.99999" y2="157" gradientUnits="userSpaceOnUse">
<stop stop-color="#AD8153"/>
<stop offset="0.25" stop-color="#E2B36C"/>
<stop offset="0.5" stop-color="#FDECD6"/>
<stop offset="0.75" stop-color="#DCAC64"/>
<stop offset="1" stop-color="#AF8352"/>
</linearGradient>
<clipPath id="clip0_104_94">
<rect x="2" y="2" width="380" height="310" rx="10" fill="white"/>
</clipPath>
</defs>
</svg>
