<svg width="569" height="775" viewBox="0 0 569 775" fill="none" xmlns="http://www.w3.org/2000/svg">
<path fill-rule="evenodd" clip-rule="evenodd" d="M467.856 764.985V764.877H467.747C465.779 763.144 460.86 748.73 454.629 727.057L453.318 722.504C451.459 715.894 449.492 708.633 447.415 701.047V700.939C444.572 690.319 441.622 678.94 438.67 667.019L433.533 646.213C433.533 646.213 432.986 643.503 432.221 638.518C431.346 633.533 430.254 626.164 428.395 616.953C426.646 607.741 424.787 596.58 422.055 584.009C419.432 571.329 416.59 556.917 413.091 541.528C409.593 526.139 405.877 509.451 401.942 491.786C401.505 490.269 401.067 488.644 400.739 487.127V487.019L400.084 484.418C399.428 481.709 398.772 478.89 398.116 476.181V475.964H398.007L397.46 473.364C394.618 461.443 391.886 449.197 388.824 436.735C387.95 433.375 387.076 430.015 386.201 426.657V426.332L385.545 424.056V423.731L384.89 421.347V421.13L384.234 418.637V418.529L383.577 415.928C380.627 403.574 377.675 390.894 374.614 378.215C372.209 368.246 369.586 358.276 366.963 348.197C365.979 343.863 364.886 339.419 363.902 335.084V334.976C363.246 332.159 362.591 329.34 361.934 326.523L359.966 317.962C357.453 307.884 355.048 297.697 352.534 287.727L348.271 271.797C347.287 267.571 344.882 259.768 342.586 253.916C333.296 230.183 318.429 210.351 302.688 194.746C286.729 179.141 269.896 167.221 253.937 157.034C238.086 146.955 222.782 138.72 208.682 131.242C182.993 117.803 161.35 106.859 145.391 98.2974V98.1894C143.751 97.4308 142.222 96.5641 140.801 95.6964C125.497 87.2439 116.424 82.151 115.332 81.5004C115.659 82.0418 117.08 83.9923 119.703 87.6772C122.874 91.5781 127.355 97.6468 133.696 104.691C140.035 111.627 147.796 120.404 157.197 129.4C166.707 138.503 177.638 148.472 189.553 158.876C201.359 169.171 214.038 180.333 227.592 192.145L229.013 193.446C236.556 200.49 244.208 207.75 251.313 215.336V215.661H251.64L251.969 215.987V216.312H252.297L252.624 216.745V216.962H252.953L253.28 217.396V217.612H253.498L254.045 218.154V218.262H254.155L254.702 218.804V218.913C255.357 219.562 256.013 220.321 256.669 221.079V221.513H256.997L257.324 221.838V222.163H257.653L257.981 222.489V222.814H258.2L258.637 223.247V223.464H258.745L259.292 224.006V224.114C260.167 225.09 261.041 226.174 261.916 227.148V227.365H262.025L262.571 228.016C263.118 228.665 263.555 229.316 264.102 229.966C265.195 231.266 266.179 232.568 267.163 233.867C268.256 235.385 269.349 236.902 270.442 238.419V238.527C271.317 239.719 272.191 241.02 273.065 242.32V242.429H273.175C273.612 242.971 273.94 243.621 274.377 244.27V244.38C275.033 245.354 275.689 246.438 276.345 247.522V247.63H276.454C278.312 250.664 280.061 253.808 281.592 257.058V257.384H281.811L282.248 258.358V258.684H282.466L282.903 259.768V259.985H283.013L283.559 261.177V261.285H283.669C284.106 262.26 284.543 263.344 284.871 264.319V264.536H284.98C285.418 265.62 285.855 266.595 286.182 267.679V267.787H286.292L286.839 269.521V269.737H286.948C287.166 270.28 287.385 270.93 287.603 271.472V271.797C287.822 272.447 288.04 273.097 288.26 273.747C289.461 277.648 290.118 279.816 291.429 285.668L294.49 300.406C296.458 310.918 299.081 321.321 301.377 331.833C304.438 346.029 307.935 360.117 311.87 373.989C302.033 366.186 291.976 359.468 282.029 354.591L180.808 303.658L179.606 303.007C177.638 302.031 175.67 300.949 173.703 299.865V299.755H173.593C170.86 298.13 168.018 296.397 165.176 294.555H165.067L163.209 293.253H163.1L161.241 291.953C159.711 290.87 158.181 289.786 156.65 288.702H156.541C154.792 287.402 153.043 286.102 151.294 284.801C150.201 283.934 149.108 283.068 148.014 282.2C145.391 280.141 142.769 277.866 140.144 275.698C132.493 269.088 124.95 261.827 117.735 254.132C115.769 251.966 113.801 249.906 111.833 247.63C109.319 244.813 107.024 242.104 104.619 239.178H104.509C99.4812 233.001 94.6716 226.715 90.1899 220.321V220.213H90.0805C87.8943 216.962 85.7081 213.819 83.522 210.568V210.459C80.7892 206.125 78.1658 201.791 75.6516 197.455V197.347C74.012 194.529 72.4816 191.712 71.0606 188.895L70.4048 187.594L69.7489 186.294C68.3279 183.475 67.0162 180.658 65.8137 177.841C64.0648 173.939 62.5344 170.038 61.2227 166.137V166.028H61.1134C60.7854 164.836 60.3482 163.644 59.911 162.452L5.14668 -8.12115C4.70945 -9.42156 4.2722 -10.6136 3.94427 -11.9141V-12.0225C3.72565 -12.7811 3.50704 -13.5397 3.28841 -14.2982V-14.6233H3.1791C2.96048 -15.3819 2.85117 -16.0321 2.63256 -16.7907V-17.2242H2.52325C2.30462 -18.0911 2.19531 -18.8497 1.97669 -19.7166V-19.825C1.75807 -20.9088 1.53946 -21.9924 1.32083 -22.9678V-23.0761C1.10221 -24.4849 0.883588 -25.7853 0.664966 -27.1941V-28.9281H0.446355C-0.318824 -35.8636 -0.100201 -41.9324 1.10221 -47.2425H1.32083V-48.2178C1.43014 -48.7596 1.64877 -49.3015 1.75807 -49.8433H1.97669V-50.6019C2.52325 -52.119 3.06979 -53.6362 3.83496 -55.045H3.94427V-55.3702C4.16289 -55.6952 4.2722 -56.0204 4.49082 -56.3455H4.60014V-56.5622C4.92806 -57.2124 5.3653 -57.7543 5.69324 -58.2961H5.91185V-58.6212C6.67703 -59.7049 7.44219 -60.6802 8.31667 -61.5472H8.53529V-61.8723L8.97253 -62.1974H9.19115V-62.5225L9.6284 -62.8476H9.84701V-63.0644L10.3935 -63.6062H10.5029V-63.7146C11.3774 -64.3648 12.2518 -64.9066 13.1263 -65.5569C13.8915 -65.9903 14.6566 -66.4238 15.4218 -66.8573H15.7497V-66.9657C16.187 -67.1824 16.5149 -67.2908 16.8428 -67.5075H17.0615V-67.6159C17.608 -67.7242 18.0453 -67.941 18.5918 -68.1577H19.1384V-68.2661C20.5594 -68.8079 21.9805 -69.133 23.6201 -69.4582H25.0411V-69.6749C26.7901 -69.8916 28.6484 -70 30.5066 -70C33.8952 -70 37.6117 -69.6749 41.4376 -68.8079H41.8748C42.8586 -68.5912 43.7331 -68.3745 44.7169 -68.1577C46.2473 -67.7242 47.7775 -67.2908 49.3079 -66.8573H49.4173C50.0731 -66.6406 50.729 -66.4238 51.3848 -66.2071H51.4942C52.0407 -65.9903 52.6965 -65.7736 53.3523 -65.5569C55.5386 -64.7983 57.6154 -63.9313 59.911 -62.956V-62.8476H60.0202C61.66 -62.1974 63.2996 -61.4388 65.0485 -60.6802L106.586 -40.7403L342.149 72.1801L354.611 78.1408C356.579 79.0074 358.655 80.0913 360.623 81.1751V81.2832H360.732L361.934 81.9337C363.028 82.5843 364.121 83.2337 365.213 83.8842C370.57 87.1358 375.927 90.8195 380.954 94.9378C382.593 96.2389 384.124 97.4308 385.545 98.8399H385.655C391.666 104.041 397.351 109.676 402.707 115.745V115.853C404.019 117.37 405.33 118.887 406.643 120.404C407.517 121.488 408.391 122.572 409.266 123.656H409.375C411.343 126.148 413.311 128.749 415.169 131.458H415.277C418.011 135.251 420.634 139.261 423.148 143.162V143.27C423.803 144.354 424.46 145.33 425.116 146.414V146.522C425.99 148.039 426.865 149.448 427.739 150.965V151.073C430.363 155.733 432.767 160.394 434.954 165.269V165.378H435.063L435.609 166.678C436.265 168.196 436.922 169.713 437.577 171.23V171.338C438.014 172.314 438.451 173.398 438.889 174.482V174.59C440.091 177.516 441.185 180.55 442.169 183.475V183.693H442.277L442.824 185.535V185.643H442.933C443.59 187.811 444.245 189.977 444.791 192.145C445.011 193.012 445.229 193.77 445.448 194.638V194.746H445.556C445.666 195.613 445.885 196.481 446.103 197.239V197.347C446.869 200.598 447.524 203.849 448.071 206.992V207.209C448.727 210.677 449.164 214.144 449.382 217.504V218.262H449.492C449.601 219.672 449.711 221.079 449.711 222.381L455.941 368.246L468.73 664.527C468.839 668.212 469.059 671.788 469.167 675.364V675.581C469.386 682.733 469.605 689.777 469.823 696.388V697.037C470.48 721.637 470.48 742.011 469.823 753.823V754.149C469.605 757.291 469.386 759.784 469.167 761.625V761.843C468.949 762.926 468.839 763.685 468.621 764.226H468.512V764.66C468.402 764.985 468.184 765.094 468.075 765.094C467.965 765.094 467.965 765.094 467.856 764.985ZM995.168 41.512C981.395 41.512 964.67 46.4973 945.54 57.0083L627.339 232.892C561.207 269.304 508.082 360.985 509.285 436.519L516.937 948.238C518.138 1023.66 521.745 1085 525.134 1085C528.523 1084.67 542.624 1023.66 556.724 949.322L581.211 819.603C581.211 819.603 581.866 816.136 582.959 809.742L590.829 768.129C591.813 763.034 593.016 757.833 594.437 752.631C594.546 752.523 594.546 752.414 594.546 752.306C595.311 748.513 596.295 744.612 597.06 740.602C600.558 724.456 604.384 706.25 609.303 686.634C613.785 666.911 618.703 645.671 624.716 623.455C630.181 601.023 636.412 577.507 643.298 553.34C649.966 529.065 657.071 504.141 664.613 478.89C666.691 472.714 668.549 466.428 670.517 460.034L672.047 455.266L674.014 449.415L677.185 439.877C679.917 433.05 683.306 424.597 686.585 417.987C689.865 411.051 693.253 404.333 697.079 397.831C711.617 371.605 729.434 348.63 747.799 327.499C766.163 306.475 785.511 287.619 804.422 270.172C823.442 252.94 842.024 236.902 859.732 222.055C877.222 207.317 893.837 193.337 908.922 180.441C923.897 167.437 937.343 155.3 948.601 144.029C959.75 132.651 969.37 122.464 976.257 113.144C983.143 103.933 988.281 96.2389 991.232 90.7115C994.292 85.0761 995.933 82.0418 995.933 82.0418C995.933 82.0418 995.605 85.5094 994.949 91.9034C993.855 98.2974 992.216 107.834 988.063 119.538C983.908 131.025 978.006 144.897 969.48 159.851C961.171 174.698 950.459 190.845 937.998 207.425C913.294 240.695 881.375 276.24 848.911 313.735C832.623 332.375 816.337 351.665 801.142 371.496C785.948 391.437 771.738 411.918 760.479 433.05C757.637 438.252 755.122 443.562 752.608 448.872C750.095 454.399 748.564 458.3 746.377 463.936L742.989 473.364L741.677 477.048L740.038 481.817C737.961 488.319 735.884 494.603 733.807 500.889C725.171 526.031 716.755 550.956 707.573 574.688C705.823 579.024 704.075 583.466 702.326 587.694C713.148 578.699 724.079 570.68 735.228 564.286L830.218 509.451C895.476 471.63 964.451 380.924 983.471 307.776L1031.13 123.656C1044.68 71.6388 1029.05 41.512 995.276 41.512H995.168Z" fill="white" fill-opacity="0.02"/>
</svg>
