<svg width="26" height="26" viewBox="0 0 26 26" fill="none" xmlns="http://www.w3.org/2000/svg">
<path d="M13.8338 3.60877C12.9292 3.3451 12.0601 3.70615 11.2264 4.23206C10.3891 4.76025 9.37291 5.5978 8.1015 6.6457L6.97463 7.57443C6.75854 7.75253 6.67117 7.82425 6.58457 7.88878C5.85129 8.43521 4.97191 8.75089 4.05852 8.79559C3.95065 8.80087 3.83761 8.8011 3.55758 8.8011L3.51254 8.80109C3.27116 8.80102 3.08517 8.80097 2.91889 8.81957C1.53587 8.97433 0.444244 10.066 0.28949 11.449C0.270883 11.6153 0.270936 11.8012 0.271004 12.0426V13.375C0.270936 13.6164 0.270883 13.8024 0.28949 13.9687C0.444243 15.3517 1.53587 16.4433 2.91889 16.5981C3.08518 16.6167 3.27117 16.6166 3.51256 16.6166L3.55758 16.6166C3.8376 16.6166 3.95065 16.6168 4.05852 16.6221C4.97191 16.6668 5.85129 16.9825 6.58457 17.5289C6.67117 17.5934 6.75854 17.6651 6.97463 17.8432L8.10148 18.772C9.37291 19.8199 10.3891 20.6574 11.2264 21.1856C12.0601 21.7115 12.9292 22.0726 13.8338 21.8089C14.1341 21.7214 14.4186 21.5872 14.6771 21.4111C15.4559 20.8807 15.7301 19.9804 15.8545 19.0026C15.9794 18.0205 15.9794 16.7037 15.9793 15.0561V10.3616C15.9794 8.714 15.9794 7.39712 15.8545 6.41508C15.7301 5.43726 15.4559 4.53693 14.6771 4.00654C14.4186 3.83051 14.1341 3.69628 13.8338 3.60877Z" fill="white"/>
<path d="M21.158 4.55098C20.8407 4.23368 20.3263 4.23368 20.009 4.55098C19.6917 4.86828 19.6917 5.38272 20.009 5.70002L20.7673 6.45836C21.4268 7.11779 21.7181 7.41025 21.9372 7.67248C24.3736 10.5881 24.3736 14.8296 21.9372 17.7452C21.7181 18.0074 21.4268 18.2999 20.7673 18.9593L20.009 19.7176C19.6917 20.0349 19.6917 20.5494 20.009 20.8667C20.3263 21.184 20.8407 21.184 21.158 20.8667L21.955 20.0697C22.5655 19.4593 22.9124 19.1124 23.1841 18.7872C26.1246 15.2684 26.1246 10.1493 23.1841 6.63048C22.9124 6.30528 22.5655 5.95838 21.955 5.34789L21.158 4.55098Z" fill="white"/>
<path d="M18.9914 7.80098C18.6741 7.48368 18.1596 7.48368 17.8423 7.80098C17.525 8.11828 17.525 8.63272 17.8423 8.95002L18.2757 9.38336C18.3425 9.4502 18.3698 9.47756 18.3918 9.50015C20.1281 11.2869 20.1281 14.1307 18.3918 15.9175C18.3698 15.9401 18.3425 15.9675 18.2757 16.0343L17.8423 16.4676C17.525 16.7849 17.525 17.2994 17.8423 17.6167C18.1596 17.934 18.6741 17.934 18.9914 17.6167L19.4305 17.1776C19.4897 17.1183 19.5261 17.082 19.5572 17.05C21.9063 14.6326 21.9063 10.7851 19.5572 8.36768C19.5261 8.33566 19.4899 8.29947 19.4305 8.24007L18.9914 7.80098Z" fill="white"/>
</svg>
