<svg width="26" height="26" viewBox="0 0 26 26" fill="none" xmlns="http://www.w3.org/2000/svg">
<path d="M11.2264 4.23206C12.0601 3.70615 12.9292 3.3451 13.8338 3.60877C14.1341 3.69628 14.4186 3.83051 14.6771 4.00654C15.4559 4.53693 15.7301 5.43726 15.8545 6.41508C15.9253 6.97155 15.9559 7.63554 15.9692 8.4063L20.6167 3.75879C20.934 3.44149 21.4484 3.44149 21.7657 3.75879C22.083 4.07609 22.083 4.59054 21.7657 4.90784L4.43249 22.2412C4.11519 22.5585 3.60075 22.5585 3.28344 22.2412C2.96614 21.9239 2.96614 21.4094 3.28344 21.0921L6.73162 17.6439C6.67164 17.5954 6.62801 17.5613 6.58457 17.5289C5.85129 16.9825 4.97191 16.6668 4.05852 16.6221C3.95065 16.6168 3.8376 16.6166 3.55758 16.6166L3.51256 16.6166C3.27117 16.6166 3.08518 16.6167 2.91889 16.5981C1.53587 16.4433 0.444243 15.3517 0.28949 13.9687C0.270883 13.8024 0.270936 13.6164 0.271004 13.375V12.0426C0.270936 11.8012 0.270883 11.6153 0.28949 11.449C0.444244 10.066 1.53587 8.97433 2.91889 8.81957C3.08517 8.80097 3.27115 8.80102 3.51251 8.80109L3.55758 8.8011C3.83761 8.8011 3.95065 8.80087 4.05852 8.79559C4.97191 8.75089 5.85129 8.43521 6.58457 7.88878C6.67117 7.82425 6.75854 7.75253 6.97463 7.57443L8.1015 6.6457C9.37291 5.5978 10.3891 4.76025 11.2264 4.23206Z" fill="white"/>
<path d="M14.4272 14.4131C15 13.8403 15.9793 14.246 15.9793 15.0561C15.9794 16.7037 15.9794 18.0205 15.8545 19.0026C15.7301 19.9804 15.4559 20.8807 14.6771 21.4111C14.4186 21.5872 14.1341 21.7214 13.8338 21.8089C12.9292 22.0726 12.0601 21.7115 11.2264 21.1856C11.1851 21.1595 11.1433 21.1327 11.1011 21.1052C10.2005 20.517 9.75018 20.2229 9.69692 19.7098C9.64366 19.1966 10.0565 18.7838 10.8822 17.9581L14.4272 14.4131Z" fill="white"/>
<path d="M19.3247 9.51556C19.0366 9.80366 19.0082 10.2553 19.1933 10.6183C20.0655 12.3292 19.7983 14.4701 18.3918 15.9175C18.3698 15.9401 18.3425 15.9675 18.2757 16.0343L17.8423 16.4676C17.525 16.7849 17.525 17.2994 17.8423 17.6167C18.1596 17.934 18.6741 17.934 18.9914 17.6167L19.4319 17.1762C19.4903 17.1178 19.5263 17.0817 19.5572 17.05C21.5296 15.0202 21.8459 11.9822 20.506 9.6291C20.2602 9.19735 19.676 9.16425 19.3247 9.51556Z" fill="white"/>
<path d="M21.9372 7.67248C21.7432 7.4403 21.742 7.09829 21.9559 6.88434L22.2321 6.60816C22.5 6.3402 22.9411 6.33969 23.1841 6.63048C26.1246 10.1493 26.1246 15.2684 23.1841 18.7872C22.9124 19.1124 22.5655 19.4593 21.955 20.0697L21.158 20.8667C20.8407 21.184 20.3263 21.184 20.009 20.8667C19.6917 20.5494 19.6917 20.0349 20.009 19.7176L20.7673 18.9593C21.4268 18.2999 21.7181 18.0074 21.9372 17.7452C24.3736 14.8296 24.3736 10.5881 21.9372 7.67248Z" fill="white"/>
</svg>
