<svg width="60" height="60" viewBox="0 0 60 60" fill="none" xmlns="http://www.w3.org/2000/svg">
<path d="M30 60.0001C46.5685 60.0001 60 46.5686 60 30C60 13.4315 46.5685 0 30 0C13.4314 0 0 13.4315 0 30C0 46.5686 13.4314 60.0001 30 60.0001Z" fill="#1F1F1F"/>
<path d="M27.9772 13.0412C25.4807 13.1445 22.9262 13.4736 20.1072 14.048C18.1719 14.4481 17.172 14.9966 15.8754 16.3906C14.6755 17.6684 14.3594 18.4106 13.8563 21.1146C12.8628 26.3872 12.7338 31.5436 13.4692 36.5902C13.6628 37.939 14.0176 39.8751 14.2369 40.7399C14.4949 41.8047 15.0174 42.7276 15.8754 43.644C17.172 45.025 18.159 45.5736 20.1072 45.9737C23.6487 46.7094 26.4161 46.9998 29.9447 46.9998C32.9057 47.0063 34.9183 46.8449 37.6212 46.3996C41.0338 45.8382 41.9949 45.5155 43.169 44.5604C44.4011 43.5601 45.2849 42.3403 45.6784 41.1142C46.0074 40.0945 46.6202 36.4418 46.8137 34.3702C47.0653 31.7307 47.0589 28.2716 46.8137 25.6256C46.6331 23.7218 46.1622 20.8048 45.788 19.3012C45.5107 18.1912 44.9881 17.2747 44.085 16.3261C42.8529 15.0289 41.8724 14.4675 40.2338 14.1125C36.0279 13.2155 32.1638 12.8734 27.9772 13.0412ZM27.3257 19.953C27.7772 20.1208 28.2223 20.5467 28.4481 21.0307L28.6223 21.3986V24.2059V27.0132L28.4546 27.3681C28.2481 27.8069 27.8482 28.2135 27.4095 28.4265L27.0805 28.5943H24.2099H21.3328L20.9974 28.4329C20.5394 28.2264 20.1136 27.7747 19.9523 27.3294C19.8233 26.9938 19.8169 26.8454 19.8169 24.2059C19.8169 21.5341 19.8233 21.4244 19.9523 21.063C20.133 20.5854 20.5716 20.1401 21.049 19.9594C21.3844 19.8304 21.5199 19.8239 24.1841 19.8239C26.8483 19.8174 26.9902 19.8239 27.3257 19.953ZM38.9566 19.953C39.4468 20.1401 39.879 20.5725 40.0661 21.063C40.1951 21.4244 40.2016 21.5341 40.2016 24.2059C40.2016 26.8454 40.1951 26.9938 40.0661 27.3294C39.9049 27.7747 39.4791 28.2264 39.0211 28.4329L38.6856 28.5943H35.815H32.9444L32.6218 28.4394C32.1961 28.2393 31.7703 27.8069 31.5639 27.3681L31.3962 27.0132V24.2059V21.3986L31.5703 21.0307C31.7897 20.5596 32.2412 20.1208 32.6734 19.953C32.9895 19.8304 33.1637 19.8239 35.7957 19.8239C38.4921 19.8174 38.5953 19.8239 38.9566 19.953ZM27.3966 31.5887C27.8159 31.7823 28.2481 32.2147 28.4546 32.66L28.6223 33.015V35.8223V38.6296L28.4481 38.9974C28.2223 39.4814 27.7772 39.9074 27.3257 40.0752C26.9902 40.2042 26.8419 40.2107 24.2035 40.2107C21.5328 40.2107 21.4231 40.2042 21.0619 40.0752C20.5716 39.888 20.1394 39.4556 19.9523 38.9651C19.8233 38.6037 19.8169 38.494 19.8169 35.8223C19.8169 33.1828 19.8233 33.0343 19.9523 32.6987C20.1136 32.2534 20.5394 31.8017 20.9974 31.5952L21.3328 31.4338H24.2035H27.0741L27.3966 31.5887ZM36.5891 31.6404C36.8278 31.7823 37.002 31.9566 37.1374 32.1695C37.3245 32.4793 37.331 32.518 37.3503 33.3828L37.3761 34.2734H38.0986C39.2533 34.2734 39.7178 34.4799 40.0403 35.1446C40.3951 35.861 40.1435 36.7193 39.4662 37.1452C39.1566 37.3324 39.1178 37.3388 38.2599 37.3582L37.3697 37.3776L37.3503 38.2682C37.331 39.1265 37.3245 39.1652 37.1374 39.475C36.7117 40.1526 35.8537 40.4043 35.1377 40.0493C34.4732 39.7267 34.2668 39.262 34.2668 38.1068V37.384L33.3766 37.3582C32.5122 37.3388 32.4735 37.3324 32.1638 37.1452C31.0091 36.4289 31.2542 34.7058 32.5573 34.3444C32.6992 34.3057 33.1444 34.2734 33.5443 34.2734H34.2668V33.5442C34.2668 33.1505 34.2991 32.7052 34.3378 32.5697C34.4474 32.1695 34.7184 31.8275 35.0667 31.621C35.3376 31.4661 35.4731 31.4338 35.815 31.4338C36.1827 31.4338 36.2924 31.4661 36.5891 31.6404Z" fill="url(#paint0_linear_1273_764)"/>
<defs>
<linearGradient id="paint0_linear_1273_764" x1="47" y1="30" x2="13" y2="30" gradientUnits="userSpaceOnUse">
<stop stop-color="#AD8153"/>
<stop offset="0.25" stop-color="#E2B36C"/>
<stop offset="0.5" stop-color="#FDECD6"/>
<stop offset="0.75" stop-color="#DCAC64"/>
<stop offset="1" stop-color="#AF8352"/>
</linearGradient>
</defs>
</svg>
