<svg width="171" height="50" viewBox="0 0 171 50" fill="none" xmlns="http://www.w3.org/2000/svg">
<rect x="0.25" y="0.000488281" width="170" height="50" rx="8" fill="white"/>
<path d="M42.3259 23.6248C42.289 19.438 45.6865 17.4012 45.8418 17.3063C43.9177 14.4446 40.9354 14.0536 39.8874 14.0224C37.3826 13.7535 34.9529 15.5514 33.6769 15.5514C32.3755 15.5514 30.4106 14.0484 28.293 14.0926C25.5679 14.1354 23.0185 15.7449 21.6203 18.2442C18.7348 23.3403 20.8868 30.8291 23.6514 34.9483C25.0343 36.9657 26.6503 39.2182 28.7654 39.139C30.8347 39.0519 31.6077 37.7932 34.1048 37.7932C36.579 37.7932 37.3049 39.139 39.462 39.0883C41.6829 39.0519 43.0811 37.0618 44.4156 35.0263C46.0137 32.714 46.6555 30.4368 46.681 30.3199C46.6288 30.3017 42.368 28.6429 42.3259 23.6248Z" fill="black"/>
<path d="M38.251 11.3127C39.364 9.89284 40.1255 7.9612 39.9141 6.00098C38.3032 6.07372 36.2887 7.13762 35.1286 8.52627C34.1023 9.74995 33.1854 11.7556 33.4223 13.6418C35.2318 13.7795 37.0897 12.7104 38.251 11.3127Z" fill="black"/>
<path d="M72.2721 38.8479H69.3802L67.796 33.77H62.2898L60.7808 38.8479H57.9653L63.4206 21.5605H66.79L72.2721 38.8479ZM67.3185 31.6396L65.8859 27.1255C65.7344 26.6644 65.4504 25.5784 65.0315 23.8689H64.9805C64.8137 24.6042 64.545 25.6901 64.1757 27.1255L62.7686 31.6396H67.3185Z" fill="black"/>
<path d="M86.3008 32.4637C86.3008 34.5837 85.7392 36.2595 84.6161 37.4896C83.6101 38.5847 82.3608 39.1316 80.8697 39.1316C79.2601 39.1316 78.1038 38.5418 77.3996 37.3623H77.3487V43.9289H74.6338V30.4879C74.6338 29.1551 74.5994 27.7873 74.5332 26.3843H76.9208L77.0724 28.3601H77.1233C78.0287 26.8715 79.4027 26.1284 81.2466 26.1284C82.6881 26.1284 83.8915 26.7091 84.8542 27.8717C85.8194 29.0356 86.3008 30.5659 86.3008 32.4637ZM83.5349 32.5651C83.5349 31.3518 83.2675 30.3515 82.7301 29.5643C82.1431 28.7433 81.3549 28.3329 80.3667 28.3329C79.6969 28.3329 79.0882 28.5615 78.5444 29.0122C77.9994 29.4669 77.6429 30.0606 77.476 30.7958C77.392 31.1387 77.35 31.4193 77.35 31.6402V33.7186C77.35 34.6253 77.6225 35.3904 78.1675 36.0153C78.7125 36.6401 79.4205 36.9518 80.2916 36.9518C81.3141 36.9518 82.11 36.5492 82.6792 35.7464C83.2497 34.9423 83.5349 33.8823 83.5349 32.5651Z" fill="black"/>
<path d="M100.359 32.4637C100.359 34.5837 99.797 36.2595 98.6726 37.4896C97.6679 38.5847 96.4187 39.1316 94.9275 39.1316C93.3179 39.1316 92.1616 38.5418 91.4587 37.3623H91.4078V43.9289H88.6929V30.4879C88.6929 29.1551 88.6585 27.7873 88.5923 26.3843H90.9799L91.1315 28.3601H91.1824C92.0865 26.8715 93.4605 26.1284 95.3057 26.1284C96.7459 26.1284 97.9493 26.7091 98.9145 27.8717C99.876 29.0356 100.359 30.5659 100.359 32.4637ZM97.5927 32.5651C97.5927 31.3518 97.324 30.3515 96.7867 29.5643C96.1996 28.7433 95.4139 28.3329 94.4245 28.3329C93.7534 28.3329 93.146 28.5615 92.601 29.0122C92.056 29.4669 91.7007 30.0606 91.5339 30.7958C91.4511 31.1387 91.4078 31.4193 91.4078 31.6402V33.7186C91.4078 34.6253 91.6803 35.3904 92.2228 36.0153C92.7678 36.6388 93.4758 36.9518 94.3494 36.9518C95.3719 36.9518 96.1678 36.5492 96.737 35.7464C97.3075 34.9423 97.5927 33.8823 97.5927 32.5651Z" fill="black"/>
<path d="M116.071 34.0003C116.071 35.4708 115.571 36.6672 114.566 37.5908C113.462 38.6002 111.925 39.1042 109.95 39.1042C108.127 39.1042 106.665 38.7457 105.558 38.0273L106.187 35.7189C107.379 36.4542 108.687 36.8231 110.112 36.8231C111.134 36.8231 111.93 36.5867 112.502 36.1164C113.071 35.6462 113.355 35.0149 113.355 34.2277C113.355 33.5262 113.121 32.9351 112.651 32.4558C112.184 31.9765 111.403 31.5309 110.313 31.1191C107.346 29.9903 105.864 28.3366 105.864 26.1621C105.864 24.7409 106.383 23.5757 107.424 22.669C108.46 21.761 109.843 21.3076 111.572 21.3076C113.115 21.3076 114.396 21.5817 115.418 22.1286L114.739 24.3863C113.784 23.8563 112.704 23.5913 111.496 23.5913C110.541 23.5913 109.795 23.8316 109.26 24.3097C108.808 24.737 108.581 25.2579 108.581 25.875C108.581 26.5583 108.84 27.1233 109.359 27.5676C109.811 27.9781 110.633 28.4224 111.825 28.9017C113.283 29.5005 114.354 30.2007 115.042 31.0035C115.729 31.8037 116.071 32.8052 116.071 34.0003Z" fill="black"/>
<path d="M125.049 28.4617H122.056V34.5139C122.056 36.0532 122.583 36.8222 123.64 36.8222C124.126 36.8222 124.528 36.7794 124.846 36.6936L124.921 38.7967C124.387 39.0007 123.682 39.1033 122.81 39.1033C121.738 39.1033 120.9 38.7695 120.295 38.1031C119.693 37.4354 119.39 36.3156 119.39 34.7425V28.4591H117.607V26.3807H119.39V24.0983L122.056 23.2773V26.3807H125.049V28.4617Z" fill="black"/>
<path d="M138.55 32.5136C138.55 34.4296 138.012 36.0028 136.94 37.2329C135.816 38.4995 134.323 39.1308 132.463 39.1308C130.67 39.1308 129.242 38.5242 128.178 37.3109C127.113 36.0976 126.581 34.566 126.581 32.7201C126.581 30.7885 127.129 29.2063 128.228 27.9761C129.324 26.7446 130.804 26.1289 132.664 26.1289C134.457 26.1289 135.9 26.7355 136.989 27.9501C138.03 29.1283 138.55 30.6495 138.55 32.5136ZM135.733 32.6032C135.733 31.4536 135.492 30.4676 135.005 29.6454C134.435 28.6503 133.622 28.1541 132.567 28.1541C131.476 28.1541 130.647 28.6516 130.078 29.6454C129.59 30.4689 129.349 31.4705 129.349 32.6552C129.349 33.8048 129.59 34.7908 130.078 35.6117C130.665 36.6068 131.485 37.103 132.543 37.103C133.58 37.103 134.393 36.5964 134.98 35.5858C135.481 34.7479 135.733 33.7516 135.733 32.6032Z" fill="black"/>
<path d="M147.375 28.82C147.106 28.7693 146.819 28.7433 146.519 28.7433C145.564 28.7433 144.825 29.111 144.306 29.8475C143.854 30.497 143.627 31.318 143.627 32.3092V38.8497H140.913L140.939 30.31C140.939 28.8732 140.904 27.5651 140.837 26.3856H143.202L143.301 28.7706H143.376C143.663 27.9509 144.115 27.291 144.734 26.7961C145.338 26.3506 145.992 26.1284 146.696 26.1284C146.947 26.1284 147.173 26.1466 147.375 26.1791V28.82Z" fill="black"/>
<path d="M159.514 32.0267C159.514 32.5229 159.483 32.9412 159.415 33.2829H151.27C151.302 34.5143 151.696 35.4561 152.452 36.1056C153.138 36.6863 154.026 36.9773 155.116 36.9773C156.322 36.9773 157.422 36.7811 158.412 36.3875L158.837 38.3101C157.681 38.8245 156.316 39.0804 154.74 39.0804C152.846 39.0804 151.358 38.5114 150.276 37.3748C149.196 36.2381 148.655 34.7118 148.655 32.797C148.655 30.9174 149.158 29.352 150.165 28.1037C151.219 26.7709 152.644 26.1045 154.437 26.1045C156.198 26.1045 157.532 26.7709 158.437 28.1037C159.154 29.1624 159.514 30.4718 159.514 32.0267ZM156.926 31.3084C156.943 30.4874 156.766 29.7781 156.398 29.1793C155.928 28.409 155.206 28.0244 154.235 28.0244C153.347 28.0244 152.625 28.3999 152.074 29.1533C151.622 29.7521 151.353 30.4705 151.27 31.3071H156.926V31.3084Z" fill="black"/>
<path d="M66.4258 10.9252C66.4258 12.4542 65.9763 13.6051 65.0786 14.378C64.247 15.0912 63.0653 15.4484 61.5347 15.4484C60.7757 15.4484 60.1263 15.4146 59.5825 15.3471V6.99307C60.2918 6.87616 61.0559 6.81641 61.881 6.81641C63.3391 6.81641 64.438 7.13986 65.1792 7.78677C66.0094 8.51812 66.4258 9.56383 66.4258 10.9252ZM65.0187 10.9629C65.0187 9.97173 64.7615 9.2118 64.247 8.6818C63.7326 8.1531 62.9813 7.8881 61.9918 7.8881C61.5716 7.8881 61.2138 7.91668 60.9171 7.97643V14.3273C61.0813 14.3533 61.3818 14.365 61.8186 14.365C62.8399 14.365 63.6281 14.0753 64.1834 13.496C64.7386 12.9166 65.0187 12.0722 65.0187 10.9629Z" fill="black"/>
<path d="M73.8842 12.2608C73.8842 13.2026 73.6206 13.9742 73.0934 14.5796C72.5408 15.2018 71.8086 15.5123 70.8943 15.5123C70.0131 15.5123 69.3114 15.2148 68.788 14.6173C68.2659 14.021 68.0049 13.2689 68.0049 12.3622C68.0049 11.4139 68.2736 10.6358 68.8135 10.0317C69.3534 9.42767 70.0793 9.125 70.9936 9.125C71.8748 9.125 72.5828 9.42248 73.1189 10.0187C73.6283 10.5981 73.8842 11.3463 73.8842 12.2608ZM72.5 12.305C72.5 11.7399 72.3803 11.2554 72.1422 10.8514C71.862 10.363 71.4635 10.1187 70.9452 10.1187C70.4091 10.1187 70.0016 10.363 69.7214 10.8514C69.482 11.2554 69.3636 11.7477 69.3636 12.3297C69.3636 12.8948 69.4833 13.3793 69.7214 13.7833C70.0105 14.2717 70.4129 14.5159 70.9325 14.5159C71.4418 14.5159 71.8417 14.2678 72.1295 13.7703C72.3765 13.3585 72.5 12.8701 72.5 12.305Z" fill="black"/>
<path d="M83.8883 9.24854L82.01 15.3721H80.7875L80.0095 12.713C79.8121 12.0492 79.6517 11.3893 79.5269 10.7346H79.5027C79.3868 11.4075 79.2263 12.0661 79.0201 12.713L78.1936 15.3721H76.9571L75.1909 9.24854H76.5624L77.2411 12.1596C77.4054 12.8481 77.5404 13.5041 77.6486 14.1251H77.6728C77.7721 13.6132 77.9364 12.9611 78.1681 12.1726L79.0201 9.24983H80.1075L80.9238 12.1103C81.1212 12.8078 81.2816 13.4794 81.4051 14.1264H81.4421C81.5325 13.4963 81.6687 12.8247 81.8496 12.1103L82.578 9.24983H83.8883V9.24854Z" fill="black"/>
<path d="M90.8086 15.3723H89.4741V11.8649C89.4741 10.7842 89.0717 10.2438 88.2643 10.2438C87.8683 10.2438 87.5487 10.3919 87.3004 10.6893C87.0546 10.9868 86.9298 11.3375 86.9298 11.7389V15.371H85.5953V10.9985C85.5953 10.4607 85.5787 9.87745 85.5469 9.24612H86.7197L86.7821 10.2035H86.819C86.9744 9.90603 87.2061 9.66051 87.5105 9.46436C87.8721 9.23573 88.2771 9.12012 88.7202 9.12012C89.2805 9.12012 89.7466 9.30458 90.1171 9.6748C90.5781 10.1282 90.8086 10.8049 90.8086 11.7039V15.3723Z" fill="black"/>
<path d="M94.4875 15.3728H93.1543V6.43945H94.4875V15.3728Z" fill="black"/>
<path d="M102.348 12.2608C102.348 13.2026 102.084 13.9742 101.557 14.5796C101.005 15.2018 100.271 15.5123 99.3581 15.5123C98.4756 15.5123 97.774 15.2148 97.2519 14.6173C96.7298 14.021 96.4688 13.2689 96.4688 12.3622C96.4688 11.4139 96.7374 10.6358 97.2774 10.0317C97.8173 9.42767 98.5431 9.125 99.4562 9.125C100.339 9.125 101.045 9.42248 101.583 10.0187C102.092 10.5981 102.348 11.3463 102.348 12.2608ZM100.963 12.305C100.963 11.7399 100.843 11.2554 100.605 10.8514C100.326 10.363 99.9261 10.1187 99.409 10.1187C98.8717 10.1187 98.4642 10.363 98.1853 10.8514C97.9459 11.2554 97.8275 11.7477 97.8275 12.3297C97.8275 12.8948 97.9472 13.3793 98.1853 13.7833C98.4744 14.2717 98.8768 14.5159 99.3963 14.5159C99.9057 14.5159 100.304 14.2678 100.592 13.7703C100.84 13.3585 100.963 12.8701 100.963 12.305Z" fill="black"/>
<path d="M108.802 15.3733H107.604L107.505 14.6679H107.468C107.058 15.2304 106.473 15.5123 105.714 15.5123C105.147 15.5123 104.689 15.3265 104.344 14.9576C104.031 14.6224 103.874 14.2055 103.874 13.7105C103.874 12.9623 104.18 12.392 104.795 11.9971C105.408 11.6022 106.272 11.4087 107.384 11.4178V11.3035C107.384 10.4968 106.968 10.0941 106.137 10.0941C105.545 10.0941 105.023 10.2461 104.572 10.5474L104.301 9.6537C104.858 9.30167 105.547 9.125 106.36 9.125C107.929 9.125 108.716 9.96936 108.716 11.6581V13.9132C108.716 14.525 108.745 15.0122 108.802 15.3733ZM107.417 13.2689V12.3245C105.945 12.2985 105.209 12.7103 105.209 13.5586C105.209 13.8781 105.293 14.1171 105.465 14.2769C105.636 14.4367 105.855 14.5159 106.116 14.5159C106.409 14.5159 106.683 14.4211 106.933 14.2327C107.184 14.0431 107.338 13.8028 107.395 13.5079C107.409 13.4416 107.417 13.3611 107.417 13.2689Z" fill="black"/>
<path d="M116.387 15.3728H115.203L115.14 14.3895H115.103C114.725 15.1377 114.081 15.5118 113.176 15.5118C112.452 15.5118 111.85 15.2221 111.372 14.6428C110.895 14.0634 110.657 13.3113 110.657 12.3877C110.657 11.3965 110.915 10.5937 111.435 9.98058C111.938 9.40901 112.554 9.12323 113.288 9.12323C114.094 9.12323 114.658 9.39992 114.979 9.9546H115.004V6.43945H116.34V13.7231C116.34 14.3193 116.355 14.8688 116.387 15.3728ZM115.004 12.7904V11.7693C115.004 11.5927 114.991 11.4498 114.967 11.3407C114.892 11.0133 114.73 10.7379 114.485 10.5158C114.236 10.2936 113.937 10.1819 113.592 10.1819C113.094 10.1819 112.704 10.3833 112.418 10.7873C112.134 11.1913 111.99 11.707 111.99 12.337C111.99 12.9423 112.126 13.4334 112.4 13.8114C112.689 14.2141 113.079 14.4154 113.566 14.4154C114.005 14.4154 114.355 14.2479 114.621 13.9114C114.878 13.6009 115.004 13.2268 115.004 12.7904Z" fill="black"/>
<path d="M127.797 12.2608C127.797 13.2026 127.534 13.9742 127.007 14.5796C126.454 15.2018 125.723 15.5123 124.807 15.5123C123.927 15.5123 123.226 15.2148 122.701 14.6173C122.179 14.021 121.918 13.2689 121.918 12.3622C121.918 11.4139 122.187 10.6358 122.727 10.0317C123.267 9.42767 123.992 9.125 124.908 9.125C125.788 9.125 126.497 9.42248 127.032 10.0187C127.541 10.5981 127.797 11.3463 127.797 12.2608ZM126.414 12.305C126.414 11.7399 126.295 11.2554 126.057 10.8514C125.775 10.363 125.378 10.1187 124.858 10.1187C124.323 10.1187 123.916 10.363 123.635 10.8514C123.395 11.2554 123.277 11.7477 123.277 12.3297C123.277 12.8948 123.396 13.3793 123.635 13.7833C123.924 14.2717 124.326 14.5159 124.846 14.5159C125.355 14.5159 125.756 14.2678 126.044 13.7703C126.29 13.3585 126.414 12.8701 126.414 12.305Z" fill="black"/>
<path d="M134.979 15.3723H133.645V11.8649C133.645 10.7842 133.243 10.2438 132.434 10.2438C132.038 10.2438 131.719 10.3919 131.472 10.6893C131.225 10.9868 131.101 11.3375 131.101 11.7389V15.371H129.765V10.9985C129.765 10.4607 129.75 9.87745 129.718 9.24612H130.89L130.952 10.2035H130.989C131.146 9.90603 131.378 9.66051 131.681 9.46436C132.044 9.23573 132.447 9.12012 132.892 9.12012C133.451 9.12012 133.917 9.30458 134.287 9.6748C134.749 10.1282 134.979 10.8049 134.979 11.7039V15.3723Z" fill="black"/>
<path d="M143.956 10.2684H142.486V13.2432C142.486 13.9992 142.747 14.3772 143.264 14.3772C143.504 14.3772 143.702 14.3564 143.859 14.3136L143.893 15.3463C143.63 15.4476 143.283 15.4983 142.857 15.4983C142.33 15.4983 141.92 15.3346 141.623 15.0072C141.325 14.6799 141.177 14.1291 141.177 13.3562V10.2684H140.3V9.24868H141.177V8.12633L142.485 7.72363V9.24738H143.954V10.2684H143.956Z" fill="black"/>
<path d="M151.025 15.3728H149.689V11.8914C149.689 10.7938 149.287 10.2443 148.481 10.2443C147.862 10.2443 147.439 10.5625 147.207 11.1991C147.168 11.3329 147.145 11.4965 147.145 11.6888V15.3715H145.812V6.43945H147.145V10.13H147.17C147.59 9.45838 148.193 9.12323 148.973 9.12323C149.526 9.12323 149.983 9.30769 150.346 9.67791C150.798 10.1391 151.025 10.8249 151.025 11.7317V15.3728Z" fill="black"/>
<path d="M158.309 12.0223C158.309 12.2665 158.291 12.4717 158.259 12.6393H154.257C154.275 13.2447 154.466 13.7058 154.836 14.0254C155.175 14.3111 155.612 14.454 156.147 14.454C156.739 14.454 157.279 14.3579 157.765 14.1644L157.974 15.11C157.405 15.3621 156.735 15.4881 155.96 15.4881C155.03 15.4881 154.298 15.2088 153.768 14.6502C153.236 14.0916 152.972 13.3421 152.972 12.4016C152.972 11.478 153.218 10.709 153.713 10.0958C154.23 9.44112 154.929 9.11377 155.812 9.11377C156.675 9.11377 157.331 9.44112 157.774 10.0958C158.132 10.6154 158.309 11.2584 158.309 12.0223ZM157.036 11.6702C157.046 11.2662 156.958 10.9181 156.777 10.6245C156.545 10.2465 156.193 10.0569 155.715 10.0569C155.28 10.0569 154.924 10.2413 154.653 10.6115C154.431 10.9064 154.3 11.2585 154.257 11.6702H157.036Z" fill="black"/>
</svg>
