<svg width="300" height="251" viewBox="0 0 300 251" fill="none" xmlns="http://www.w3.org/2000/svg">
<g clip-path="url(#clip0_73_140)">
<rect y="0.895264" width="300" height="250" rx="15" fill="#0C0C0C"/>
<path fill-rule="evenodd" clip-rule="evenodd" d="M253.789 977.718V977.595H253.665C251.42 975.617 245.807 959.17 238.698 934.437L237.202 929.242C235.082 921.699 232.837 913.414 230.468 904.757V904.634C227.224 892.515 223.858 879.53 220.49 865.926L214.629 842.184C214.629 842.184 214.005 839.092 213.133 833.403C212.134 827.715 210.888 819.306 208.768 808.795C206.771 798.283 204.651 785.546 201.534 771.201C198.541 756.732 195.299 740.286 191.307 722.725C187.316 705.165 183.076 686.122 178.587 665.964C178.088 664.233 177.588 662.378 177.214 660.647V660.524L176.467 657.555C175.718 654.464 174.969 651.248 174.222 648.157V647.909H174.097L173.473 644.942C170.23 631.338 167.113 617.365 163.62 603.143C162.623 599.309 161.625 595.476 160.628 591.643V591.272L159.879 588.675V588.304L159.131 585.584V585.336L158.382 582.491V582.368L157.634 579.4C154.267 565.303 150.9 550.833 147.407 536.365C144.663 524.989 141.671 513.612 138.678 502.111C137.556 497.165 136.308 492.094 135.186 487.147V487.023C134.437 483.809 133.689 480.593 132.94 477.378L130.695 467.608C127.828 456.108 125.084 444.484 122.215 433.107L117.351 414.928C116.229 410.106 113.485 401.201 110.866 394.524C100.266 367.441 83.304 344.811 65.3448 327.004C47.1368 309.197 27.9313 295.594 9.72326 283.97C-8.36104 272.468 -25.8216 263.071 -41.9095 254.538C-71.2179 239.203 -95.911 226.714 -114.119 216.944V216.82C-115.99 215.955 -117.735 214.966 -119.357 213.976C-136.817 204.33 -147.169 198.519 -148.415 197.776C-148.041 198.394 -146.42 200.62 -143.427 204.825C-139.81 209.276 -134.697 216.201 -127.463 224.24C-120.23 232.154 -111.375 242.171 -100.65 252.435C-89.7996 262.823 -77.328 274.2 -63.7338 286.072C-50.2647 297.82 -35.7981 310.557 -20.3339 324.036L-18.7126 325.52C-10.1074 333.558 -1.3771 341.843 6.72938 350.5V350.871H7.10311L7.47818 351.242V351.613H7.85192L8.22565 352.108V352.355H8.60072L8.97446 352.85V353.096H9.22315L9.84697 353.716V353.839H9.97198L10.5957 354.457V354.581C11.3432 355.322 12.092 356.188 12.8408 357.054V357.548H13.2146L13.5883 357.919V358.29H13.9634L14.3371 358.662V359.033H14.5872L15.0859 359.527V359.775H15.2096L15.8334 360.393V360.516C16.8309 361.63 17.8284 362.866 18.8273 363.979V364.227H18.9509L19.5747 364.969C20.1985 365.71 20.6973 366.452 21.321 367.195C22.5686 368.678 23.6911 370.163 24.8137 371.646C26.0599 373.377 27.3075 375.109 28.555 376.84V376.963C29.5525 378.323 30.5501 379.808 31.5476 381.292V381.416H31.6726C32.1714 382.034 32.5451 382.776 33.0439 383.517V383.642C33.7927 384.754 34.5415 385.991 35.2889 387.228V387.351H35.414C37.534 390.814 39.529 394.401 41.2754 398.11V398.481H41.5254L42.0242 399.593V399.965H42.2729L42.7716 401.201V401.449H42.8967L43.5204 402.809V402.933H43.6454C44.1442 404.046 44.643 405.283 45.0167 406.395V406.643H45.1417C45.6405 407.88 46.1392 408.992 46.513 410.229V410.352H46.638L47.2618 412.331V412.578H47.3868C47.6355 413.197 47.8856 413.939 48.1343 414.557V414.928C48.3843 415.671 48.633 416.412 48.8831 417.154C50.2543 421.606 51.0031 424.079 52.4994 430.757L55.9921 447.575C58.2371 459.571 61.2297 471.442 63.8485 483.438C67.3411 499.637 71.3312 515.713 75.8214 531.543C64.5973 522.638 53.1232 514.972 41.7741 509.407L-73.7117 451.285L-75.0829 450.543C-77.328 449.43 -79.5731 448.194 -81.8181 446.957V446.833H-81.9432C-85.0607 444.978 -88.3033 443 -91.5459 440.898H-91.6709L-93.791 439.413H-93.9147L-96.0361 437.93C-97.781 436.693 -99.5274 435.456 -101.274 434.219H-101.399C-103.394 432.736 -105.389 431.252 -107.385 429.768C-108.631 428.779 -109.879 427.79 -111.126 426.8C-114.119 424.45 -117.112 421.854 -120.105 419.38C-128.836 411.837 -137.441 403.552 -145.672 394.771C-147.916 392.298 -150.162 389.948 -152.406 387.351C-155.275 384.136 -157.894 381.045 -160.638 377.706H-160.762C-166.499 370.657 -171.987 363.484 -177.1 356.188V356.065H-177.225C-179.719 352.355 -182.213 348.768 -184.708 345.059V344.934C-187.826 339.989 -190.819 335.043 -193.687 330.095V329.972C-195.558 326.756 -197.304 323.541 -198.925 320.327L-199.673 318.842L-200.422 317.358C-202.043 314.142 -203.539 310.928 -204.911 307.713C-206.907 303.26 -208.653 298.809 -210.149 294.357V294.233H-210.274C-210.648 292.873 -211.147 291.512 -211.646 290.152L-274.128 95.5068C-274.627 94.0229 -275.126 92.6626 -275.5 91.1786V91.0549C-275.749 90.1892 -275.999 89.3236 -276.248 88.458V88.087H-276.373C-276.622 87.2214 -276.747 86.4794 -276.996 85.6138V85.1191H-277.121C-277.371 84.1299 -277.495 83.2642 -277.745 82.2749V82.1512C-277.994 80.9145 -278.244 79.678 -278.493 78.565V78.4413C-278.742 76.8337 -278.992 75.3497 -279.241 73.7421V71.7635H-279.491C-280.364 63.8491 -280.114 56.924 -278.742 50.8645H-278.493V49.7515C-278.368 49.1332 -278.119 48.5149 -277.994 47.8966H-277.745V47.031C-277.121 45.2997 -276.498 43.5684 -275.625 41.9608H-275.5V41.5897C-275.25 41.2188 -275.126 40.8478 -274.876 40.4767H-274.752V40.2295C-274.377 39.4875 -273.879 38.8691 -273.504 38.2508H-273.255V37.8799C-272.382 36.6432 -271.509 35.5303 -270.511 34.541H-270.262V34.17L-269.763 33.799H-269.514V33.428L-269.015 33.057H-268.765V32.8097L-268.142 32.1914H-268.017V32.0677C-267.019 31.3257 -266.022 30.7074 -265.024 29.9654C-264.151 29.4708 -263.278 28.9761 -262.405 28.4815H-262.031V28.3578C-261.532 28.1105 -261.158 27.9868 -260.784 27.7395H-260.534V27.6159C-259.911 27.4922 -259.412 27.2449 -258.788 26.9975H-258.164V26.8739C-256.543 26.2556 -254.922 25.8846 -253.051 25.5136H-251.43V25.2663C-249.434 25.0189 -247.314 24.8953 -245.194 24.8953C-241.328 24.8953 -237.088 25.2663 -232.723 26.2556H-232.224C-231.101 26.5029 -230.104 26.7502 -228.981 26.9975C-227.235 27.4922 -225.489 27.9868 -223.743 28.4815H-223.619C-222.87 28.7288 -222.122 28.9761 -221.374 29.2235H-221.249C-220.625 29.4708 -219.877 29.7181 -219.129 29.9654C-216.635 30.8311 -214.265 31.8204 -211.646 32.9333V33.057H-211.521C-209.65 33.799 -207.78 34.6646 -205.784 35.5303L-158.393 58.2842L110.367 187.141L124.585 193.943C126.83 194.931 129.199 196.168 131.444 197.405V197.528H131.569L132.94 198.271C134.188 199.013 135.436 199.754 136.682 200.496C142.793 204.207 148.905 208.411 154.641 213.11C156.511 214.595 158.257 215.955 159.879 217.563H160.004C166.863 223.498 173.348 229.928 179.459 236.854V236.977C180.956 238.708 182.452 240.439 183.949 242.171C184.947 243.408 185.944 244.644 186.942 245.881H187.067C189.312 248.725 191.557 251.693 193.677 254.784H193.801C196.92 259.112 199.912 263.689 202.781 268.14V268.263C203.529 269.5 204.277 270.614 205.026 271.851V271.974C206.024 273.705 207.021 275.313 208.019 277.044V277.168C211.013 282.485 213.755 287.803 216.25 293.367V293.492H216.375L216.998 294.975C217.747 296.706 218.495 298.438 219.243 300.169V300.292C219.742 301.406 220.24 302.643 220.74 303.879V304.003C222.112 307.342 223.359 310.805 224.482 314.142V314.39H224.606L225.229 316.493V316.616H225.354C226.103 319.09 226.851 321.562 227.474 324.036C227.724 325.025 227.973 325.89 228.223 326.881V327.004H228.347C228.472 327.993 228.722 328.983 228.971 329.849V329.972C229.844 333.681 230.592 337.392 231.216 340.977V341.225C231.965 345.182 232.463 349.139 232.712 352.973V353.839H232.837C232.962 355.447 233.087 357.054 233.087 358.538L240.195 524.989L254.786 863.083C254.911 867.288 255.161 871.368 255.285 875.449V875.696C255.535 883.858 255.785 891.896 256.034 899.44V900.181C256.783 928.253 256.783 951.502 256.034 964.981V965.352C255.785 968.938 255.535 971.783 255.285 973.884V974.132C255.036 975.369 254.911 976.234 254.663 976.852H254.538V977.347C254.413 977.718 254.164 977.843 254.039 977.843C253.914 977.843 253.914 977.842 253.789 977.718ZM855.413 152.144C839.699 152.144 820.617 157.833 798.792 169.828L435.748 370.533C360.296 412.084 299.684 516.703 301.057 602.897L309.787 1186.83C311.158 1272.9 315.273 1342.9 319.139 1342.9C323.006 1342.52 339.094 1272.9 355.182 1188.07L383.119 1040.04C383.119 1040.04 383.866 1036.09 385.114 1028.79L394.093 981.305C395.215 975.492 396.588 969.557 398.209 963.621C398.333 963.498 398.333 963.373 398.333 963.25C399.207 958.922 400.329 954.47 401.202 949.894C405.193 931.469 409.558 910.693 415.17 888.31C420.284 865.803 425.895 841.565 432.755 816.215C438.99 790.617 446.099 763.782 453.956 736.204C461.563 708.504 469.67 680.062 478.275 651.248C480.645 644.2 482.765 637.027 485.01 629.73L486.757 624.29L489.001 617.613L492.618 606.729C495.736 598.938 499.602 589.293 503.343 581.75C507.085 573.834 510.951 566.168 515.316 558.749C531.903 528.822 552.231 502.605 573.184 478.492C594.136 454.5 616.21 432.984 637.786 413.074C659.487 393.411 680.687 375.109 700.892 358.167C720.846 341.349 739.803 325.396 757.013 310.68C774.099 295.841 789.439 281.99 802.284 269.129C815.005 256.146 825.98 244.521 833.838 233.885C841.694 223.374 847.556 214.595 850.923 208.287C854.415 201.857 856.286 198.394 856.286 198.394C856.286 198.394 855.912 202.351 855.163 209.647C853.916 216.944 852.046 227.826 847.307 241.182C842.567 254.29 835.833 270.119 826.105 287.184C816.626 304.126 804.404 322.552 790.187 341.472C762.002 379.437 725.585 419.999 688.545 462.785C669.962 484.055 651.38 506.068 634.045 528.698C616.709 551.452 600.496 574.825 587.651 598.938C584.408 604.874 581.539 610.934 578.671 616.993C575.803 623.301 574.057 627.752 571.562 634.183L567.696 644.942L566.199 649.146L564.329 654.587C561.959 662.007 559.59 669.179 557.22 676.352C547.367 705.041 537.764 733.484 527.289 760.566C525.293 765.513 523.298 770.582 521.303 775.406C533.649 765.142 546.121 755.991 558.841 748.695L667.218 686.122C741.673 642.963 820.367 539.457 842.068 455.985L896.445 245.881C911.909 186.523 894.075 152.144 855.537 152.144H855.413Z" fill="white" fill-opacity="0.02"/>
</g>
<defs>
<clipPath id="clip0_73_140">
<rect y="0.895264" width="300" height="250" rx="15" fill="white"/>
</clipPath>
</defs>
</svg>
