<svg width="801" height="586" viewBox="0 0 801 586" fill="none" xmlns="http://www.w3.org/2000/svg">
<g clip-path="url(#clip0_48_227)">
<rect x="0.796875" width="800" height="586" rx="20" fill="#0C0C0C"/>
<path fill-rule="evenodd" clip-rule="evenodd" d="M368.492 459.583V459.514H368.422C367.161 458.396 364.008 449.099 360.015 435.119L359.174 432.182C357.983 427.919 356.722 423.235 355.391 418.342V418.273C353.569 411.422 351.678 404.083 349.786 396.393L346.494 382.973C346.494 382.973 346.143 381.225 345.653 378.009C345.092 374.794 344.392 370.041 343.201 364.1C342.079 358.158 340.888 350.958 339.137 342.85C337.456 334.671 335.634 325.375 333.392 315.449C331.15 305.522 328.768 294.758 326.246 283.364C325.966 282.386 325.685 281.337 325.475 280.359V280.289L325.055 278.611C324.635 276.864 324.214 275.046 323.794 273.299V273.159H323.724L323.374 271.482C321.552 263.792 319.801 255.894 317.839 247.855C317.278 245.688 316.718 243.521 316.158 241.354V241.145L315.737 239.677V239.467L315.317 237.929V237.789L314.896 236.181V236.111L314.476 234.434C312.585 226.465 310.693 218.287 308.731 210.109C307.19 203.678 305.508 197.247 303.827 190.746C303.197 187.95 302.496 185.084 301.865 182.288V182.218C301.445 180.401 301.025 178.583 300.604 176.766L299.343 171.244C297.732 164.743 296.191 158.172 294.579 151.742L291.847 141.466C291.216 138.74 289.675 133.707 288.204 129.933C282.249 114.624 272.72 101.833 262.632 91.767C252.403 81.7014 241.614 74.0126 231.386 67.4418C221.227 60.9407 211.418 55.6288 202.381 50.8054C185.916 42.1373 172.045 35.0779 161.816 29.5555V29.4858C160.765 28.9965 159.785 28.4375 158.874 27.8777C149.065 22.4257 143.25 19.1407 142.55 18.721C142.76 19.0702 143.671 20.3283 145.352 22.7052C147.384 25.2214 150.256 29.1358 154.32 33.6797C158.383 38.1532 163.357 43.815 169.383 49.617C175.478 55.4887 182.484 61.9193 190.12 68.6302C197.687 75.2707 205.814 82.4702 214.501 90.0893L215.412 90.9285C220.246 95.4716 225.15 100.155 229.704 105.048V105.258H229.914L230.125 105.468V105.677H230.334L230.544 105.957V106.097H230.755L230.965 106.376V106.516H231.105L231.455 106.866V106.935H231.525L231.876 107.285V107.355C232.296 107.774 232.716 108.263 233.137 108.753V109.032H233.347L233.557 109.242V109.452H233.768L233.978 109.661V109.871H234.118L234.398 110.151V110.291H234.468L234.818 110.64V110.71C235.379 111.339 235.939 112.038 236.5 112.667V112.807H236.569L236.92 113.227C237.27 113.646 237.55 114.065 237.901 114.485C238.602 115.323 239.232 116.163 239.863 117.001C240.563 117.98 241.264 118.958 241.965 119.937V120.007C242.525 120.775 243.085 121.615 243.646 122.453V122.524H243.716C243.996 122.873 244.206 123.292 244.486 123.711V123.782C244.907 124.41 245.328 125.109 245.747 125.809V125.878H245.818C247.009 127.836 248.129 129.863 249.11 131.96V132.17H249.251L249.531 132.798V133.008H249.671L249.951 133.707V133.847H250.021L250.372 134.616V134.686H250.442C250.722 135.315 251.002 136.014 251.212 136.643V136.783H251.282C251.563 137.482 251.843 138.111 252.053 138.81V138.88H252.123L252.473 139.998V140.138H252.544C252.683 140.488 252.824 140.907 252.963 141.257V141.466C253.104 141.886 253.244 142.305 253.384 142.724C254.154 145.241 254.575 146.639 255.416 150.413L257.378 159.92C258.639 166.7 260.32 173.411 261.791 180.191C263.753 189.348 265.995 198.435 268.517 207.383C262.212 202.349 255.766 198.016 249.391 194.87L184.515 162.017L183.745 161.598C182.484 160.968 181.223 160.27 179.961 159.571V159.5H179.891C178.14 158.452 176.318 157.334 174.497 156.146H174.427L173.236 155.306H173.166L171.974 154.468C170.994 153.769 170.013 153.07 169.032 152.37H168.962C167.841 151.532 166.72 150.693 165.599 149.854C164.899 149.295 164.198 148.736 163.497 148.177C161.816 146.849 160.135 145.381 158.453 143.983C153.549 139.719 148.715 135.036 144.091 130.072C142.83 128.675 141.569 127.346 140.308 125.878C138.696 124.061 137.225 122.314 135.684 120.426H135.614C132.391 116.442 129.308 112.388 126.436 108.263V108.194H126.366C124.965 106.097 123.563 104.069 122.162 101.973V101.902C120.411 99.1066 118.729 96.3109 117.118 93.5144V93.4447C116.067 91.6269 115.086 89.8098 114.175 87.9927L113.755 87.1534L113.335 86.3149C112.424 84.4971 111.583 82.68 110.813 80.8629C109.692 78.3459 108.711 75.8297 107.87 73.3135V73.2431H107.8C107.59 72.4742 107.31 71.7055 107.029 70.9367L71.9295 -39.0868C71.6493 -39.9256 71.369 -40.6945 71.1588 -41.5333V-41.6032C71.0187 -42.0926 70.8786 -42.5819 70.7385 -43.0712V-43.2808H70.6684C70.5283 -43.7701 70.4582 -44.1895 70.3181 -44.6788V-44.9585H70.2481C70.108 -45.5176 70.0379 -46.0069 69.8978 -46.5661V-46.6361C69.7577 -47.3351 69.6175 -48.0341 69.4774 -48.6632V-48.7331C69.3373 -49.6418 69.1972 -50.4806 69.0571 -51.3893V-52.5077H68.9169C68.4265 -56.9813 68.5666 -60.8958 69.3373 -64.3209H69.4774V-64.95C69.5475 -65.2995 69.6876 -65.649 69.7577 -65.9985H69.8978V-66.4878C70.2481 -67.4664 70.5984 -68.445 71.0888 -69.3537H71.1588V-69.5634C71.299 -69.7731 71.369 -69.9828 71.5091 -70.1926H71.5792V-70.3323C71.7894 -70.7517 72.0696 -71.1013 72.2798 -71.4508H72.4199V-71.6604C72.9103 -72.3595 73.4008 -72.9886 73.9612 -73.5478H74.1014V-73.7575L74.3816 -73.9672H74.5217V-74.1769L74.802 -74.3866H74.9421V-74.5264L75.2923 -74.8759H75.3624V-74.9458C75.9229 -75.3652 76.4834 -75.7147 77.0439 -76.1341C77.5343 -76.4137 78.0247 -76.6933 78.5151 -76.9729H78.7253V-77.0428C79.0055 -77.1826 79.2157 -77.2525 79.4259 -77.3923H79.566V-77.4622C79.9163 -77.5321 80.1966 -77.6719 80.5468 -77.8117H80.8972V-77.8816C81.808 -78.2311 82.7187 -78.4408 83.7696 -78.6505H84.6804V-78.7903C85.8013 -78.9301 86.9924 -79 88.1833 -79C90.3552 -79 92.7372 -78.7903 95.1893 -78.2311H95.4696C96.1001 -78.0913 96.6606 -77.9515 97.2911 -77.8117C98.272 -77.5321 99.2528 -77.2525 100.234 -76.9729H100.304C100.724 -76.8331 101.144 -76.6933 101.565 -76.5535H101.635C101.985 -76.4137 102.405 -76.2739 102.826 -76.1341C104.227 -75.6448 105.558 -75.0856 107.029 -74.4565V-74.3866H107.099C108.15 -73.9672 109.201 -73.4779 110.322 -72.9886L136.945 -60.1269L287.923 12.7093L295.911 16.554C297.172 17.113 298.502 17.8121 299.764 18.5112V18.5809H299.834L300.604 19.0005C301.305 19.4202 302.006 19.839 302.706 20.2587C306.139 22.356 309.572 24.7321 312.795 27.3884C313.845 28.2277 314.826 28.9965 315.737 29.9054H315.807C319.66 33.2601 323.303 36.8951 326.737 40.8095V40.8792C327.577 41.8578 328.418 42.8364 329.259 43.815C329.819 44.5141 330.38 45.2132 330.94 45.9124H331.01C332.271 47.5197 333.533 49.1974 334.724 50.9448H334.793C336.545 53.3913 338.226 55.978 339.838 58.4942V58.5639C340.258 59.263 340.678 59.8924 341.099 60.5916V60.6612C341.659 61.6398 342.22 62.5488 342.78 63.5274V63.5971C344.462 66.6026 346.003 69.6089 347.404 72.7538V72.8242H347.475L347.824 73.6627C348.245 74.6413 348.665 75.6199 349.085 76.5985V76.6682C349.366 77.2976 349.646 77.9967 349.927 78.6959V78.7655C350.697 80.6531 351.398 82.6103 352.028 84.4971V84.6372H352.098L352.448 85.8256V85.8953H352.519C352.939 87.2936 353.359 88.691 353.71 90.0893C353.85 90.6483 353.99 91.1376 354.13 91.6973V91.767H354.2C354.27 92.326 354.41 92.8857 354.55 93.375V93.4447C355.041 95.5413 355.461 97.6387 355.811 99.6656V99.8057C356.232 102.042 356.512 104.279 356.652 106.446V106.935H356.722C356.792 107.844 356.863 108.753 356.863 109.592L360.855 203.678L369.052 394.786C369.123 397.163 369.263 399.469 369.332 401.776V401.916C369.473 406.529 369.613 411.072 369.753 415.337V415.756C370.174 431.623 370.174 444.765 369.753 452.384V452.594C369.613 454.621 369.473 456.229 369.332 457.416V457.556C369.193 458.256 369.123 458.745 368.983 459.094H368.913V459.374C368.842 459.583 368.703 459.654 368.632 459.654C368.562 459.654 368.562 459.654 368.492 459.583ZM706.46 -7.07234C697.633 -7.07234 686.913 -3.85671 674.653 2.92313L470.709 116.372C428.323 139.858 394.274 198.995 395.045 247.715L399.949 577.786C400.72 626.436 403.031 666 405.203 666C407.375 665.79 416.413 626.436 425.45 578.485L441.144 494.813C441.144 494.813 441.564 492.577 442.265 488.452L447.309 461.611C447.94 458.325 448.711 454.971 449.621 451.615C449.691 451.545 449.691 451.475 449.691 451.405C450.182 448.959 450.812 446.443 451.303 443.856C453.545 433.441 455.997 421.698 459.149 409.045C462.022 396.324 465.174 382.623 469.028 368.294C472.531 353.824 476.524 338.656 480.938 323.068C485.211 307.41 489.765 291.333 494.599 275.046C495.931 271.062 497.122 267.007 498.383 262.883L499.364 259.808L500.624 256.034L502.657 249.882C504.408 245.478 506.58 240.026 508.682 235.762C510.783 231.288 512.955 226.955 515.408 222.761C524.725 205.845 536.145 191.026 547.915 177.396C559.685 163.834 572.086 151.672 584.206 140.418C596.397 129.303 608.306 118.958 619.656 109.382C630.866 99.8754 641.515 90.8581 651.183 82.5399C660.781 74.152 669.399 66.3231 676.615 59.0532C683.76 51.7143 689.926 45.1436 694.34 39.1318C698.754 33.1904 702.046 28.2277 703.938 24.6624C705.899 21.0275 706.951 19.0702 706.951 19.0702C706.951 19.0702 706.741 21.307 706.32 25.4312C705.619 29.5555 704.569 35.7066 701.906 43.256C699.244 50.6653 695.461 59.6129 689.996 69.2589C684.671 78.8352 677.806 89.2508 669.819 99.9451C653.986 121.405 633.528 144.333 612.72 168.518C602.281 180.54 591.843 192.983 582.104 205.775C572.366 218.637 563.258 231.848 556.042 245.478C554.221 248.833 552.609 252.259 550.997 255.684C549.387 259.249 548.406 261.765 547.004 265.4L544.833 271.482L543.991 273.858L542.941 276.934C541.609 281.128 540.279 285.181 538.947 289.236C533.412 305.453 528.018 321.53 522.133 336.838C521.012 339.634 519.891 342.5 518.77 345.227C525.706 339.425 532.712 334.252 539.858 330.128L600.74 294.758C642.565 270.363 686.773 211.856 698.964 164.674L729.51 45.9124C738.197 12.3601 728.179 -7.07234 706.53 -7.07234H706.46Z" fill="white" fill-opacity="0.01"/>
</g>
<defs>
<clipPath id="clip0_48_227">
<rect x="0.796875" width="800" height="586" rx="20" fill="white"/>
</clipPath>
</defs>
</svg>
