<svg width="591" height="470" viewBox="0 0 591 470" fill="none" xmlns="http://www.w3.org/2000/svg">
<rect width="591" height="470" rx="20" fill="#0C0C0C"/>
<path fill-rule="evenodd" clip-rule="evenodd" d="M276.994 327.739V327.7H276.956C276.249 327.076 274.483 321.885 272.245 314.078L271.774 312.439C271.107 310.058 270.4 307.443 269.655 304.711V304.672C268.634 300.847 267.575 296.748 266.515 292.454L264.67 284.961C264.67 284.961 264.474 283.985 264.199 282.189C263.885 280.394 263.493 277.74 262.825 274.422C262.197 271.104 261.53 267.084 260.549 262.556C259.607 257.989 258.586 252.799 257.33 247.256C256.074 241.713 254.74 235.703 253.327 229.34C253.17 228.794 253.012 228.209 252.895 227.662V227.623L252.66 226.686C252.424 225.711 252.188 224.696 251.953 223.72V223.642H251.914L251.717 222.705C250.697 218.411 249.716 214.001 248.616 209.512C248.303 208.302 247.989 207.092 247.675 205.882V205.765L247.439 204.946V204.829L247.204 203.97V203.892L246.968 202.994V202.955L246.732 202.018C245.673 197.569 244.613 193.002 243.514 188.435C242.65 184.844 241.709 181.253 240.767 177.623C240.413 176.062 240.021 174.462 239.668 172.9V172.861C239.432 171.847 239.197 170.832 238.961 169.817L238.254 166.733C237.352 163.104 236.488 159.435 235.585 155.844L234.055 150.106C233.701 148.584 232.838 145.773 232.014 143.666C228.678 135.118 223.339 127.975 217.687 122.354C211.957 116.734 205.912 112.441 200.182 108.772C194.49 105.141 188.995 102.175 183.932 99.482C174.708 94.6418 166.937 90.6999 161.206 87.6162V87.5773C160.617 87.3041 160.068 86.9919 159.558 86.6794C154.063 83.635 150.805 81.8007 150.413 81.5664C150.53 81.7614 151.04 82.4639 151.982 83.7911C153.121 85.1961 154.73 87.3819 157.007 89.9191C159.283 92.4171 162.07 95.5786 165.445 98.8184C168.86 102.097 172.785 105.688 177.063 109.435C181.302 113.143 185.855 117.163 190.722 121.418L191.233 121.886C193.941 124.423 196.688 127.038 199.24 129.77V129.888H199.357L199.475 130.005V130.122H199.593L199.711 130.278V130.356H199.829L199.946 130.512V130.59H200.025L200.221 130.785V130.824H200.26L200.457 131.019V131.059C200.692 131.293 200.927 131.566 201.163 131.839V131.995H201.281L201.398 132.112V132.229H201.516L201.634 132.347V132.464H201.713L201.87 132.62V132.698H201.909L202.105 132.893V132.932C202.419 133.283 202.733 133.674 203.047 134.025V134.103H203.086L203.282 134.337C203.479 134.571 203.636 134.806 203.832 135.04C204.225 135.508 204.578 135.977 204.931 136.445C205.323 136.991 205.716 137.538 206.109 138.084V138.123C206.423 138.552 206.737 139.021 207.051 139.489V139.529H207.09C207.247 139.724 207.364 139.958 207.521 140.192V140.231C207.757 140.582 207.993 140.973 208.228 141.363V141.402H208.267C208.935 142.495 209.562 143.627 210.112 144.798V144.915H210.191L210.348 145.266V145.383H210.426L210.583 145.773V145.852H210.622L210.819 146.281V146.32H210.858C211.015 146.671 211.172 147.062 211.29 147.413V147.491H211.329C211.486 147.881 211.643 148.232 211.76 148.623V148.662H211.8L211.996 149.286V149.364H212.035C212.114 149.56 212.192 149.794 212.271 149.989V150.106C212.349 150.34 212.428 150.574 212.506 150.809C212.938 152.214 213.174 152.994 213.644 155.102L214.744 160.41C215.45 164.197 216.392 167.943 217.216 171.73C218.315 176.843 219.571 181.917 220.984 186.913C217.452 184.102 213.841 181.683 210.269 179.926L173.923 161.581L173.492 161.347C172.785 160.996 172.079 160.606 171.372 160.215V160.176H171.333C170.351 159.591 169.331 158.966 168.31 158.303H168.271L167.604 157.834H167.565L166.897 157.366C166.348 156.976 165.798 156.585 165.249 156.195H165.21C164.582 155.727 163.954 155.258 163.325 154.79C162.933 154.478 162.541 154.165 162.148 153.853C161.206 153.112 160.264 152.292 159.322 151.511C156.575 149.13 153.866 146.515 151.276 143.744C150.57 142.963 149.863 142.222 149.156 141.402C148.254 140.387 147.429 139.411 146.566 138.357H146.527C144.721 136.133 142.994 133.869 141.385 131.566V131.527H141.346C140.561 130.356 139.775 129.224 138.991 128.053V128.014C138.009 126.453 137.067 124.892 136.164 123.33V123.291C135.576 122.276 135.026 121.262 134.516 120.247L134.28 119.778L134.045 119.31C133.535 118.295 133.064 117.28 132.632 116.266C132.004 114.86 131.454 113.455 130.983 112.05V112.011H130.944C130.826 111.582 130.669 111.152 130.512 110.723L110.848 49.2871C110.691 48.8187 110.534 48.3894 110.416 47.921V47.8819C110.338 47.6087 110.259 47.3355 110.181 47.0623V46.9452H110.142C110.063 46.672 110.024 46.4378 109.945 46.1646V46.0084H109.906C109.828 45.6962 109.788 45.423 109.71 45.1107V45.0717C109.631 44.6813 109.553 44.2911 109.474 43.9398V43.9007C109.396 43.3933 109.317 42.9249 109.239 42.4175V41.793H109.16C108.886 39.295 108.964 37.1092 109.396 35.1967H109.474V34.8454C109.514 34.6502 109.592 34.4551 109.631 34.2599H109.71V33.9867C109.906 33.4402 110.102 32.8938 110.377 32.3864H110.416V32.2693C110.495 32.1522 110.534 32.0351 110.613 31.918H110.652V31.8399C110.77 31.6058 110.927 31.4106 111.044 31.2154H111.123V31.0983C111.398 30.708 111.672 30.3567 111.986 30.0445H112.065V29.9274L112.222 29.8103H112.3V29.6932L112.457 29.5761H112.536V29.498L112.732 29.3029H112.771V29.2638C113.085 29.0297 113.399 28.8345 113.713 28.6003C113.988 28.4442 114.263 28.288 114.538 28.1319H114.655V28.0929C114.812 28.0148 114.93 27.9758 115.048 27.8977H115.126V27.8587C115.323 27.8197 115.48 27.7416 115.676 27.6635H115.872V27.6245C116.382 27.4293 116.893 27.3123 117.481 27.1952H117.992V27.1171C118.62 27.039 119.287 27 119.954 27C121.171 27 122.505 27.1171 123.879 27.4293H124.036C124.389 27.5074 124.703 27.5855 125.057 27.6635C125.606 27.8197 126.156 27.9758 126.705 28.1319H126.744C126.98 28.21 127.215 28.288 127.451 28.3661H127.49C127.686 28.4442 127.922 28.5222 128.157 28.6003C128.942 28.8735 129.688 29.1858 130.512 29.5371V29.5761H130.552C131.14 29.8103 131.729 30.0835 132.357 30.3567L147.272 37.5385L231.857 78.2095L236.331 80.3563C237.038 80.6685 237.783 81.0589 238.49 81.4492V81.4881H238.529L238.961 81.7225C239.354 81.9568 239.746 82.1907 240.138 82.425C242.062 83.5961 243.985 84.9229 245.791 86.4062C246.379 86.8748 246.929 87.3041 247.439 87.8116H247.478C249.637 89.6848 251.678 91.7146 253.601 93.9003V93.9393C254.072 94.4857 254.543 95.0321 255.015 95.5786C255.328 95.969 255.642 96.3593 255.956 96.7497H255.996C256.702 97.6472 257.409 98.584 258.076 99.5598H258.115C259.097 100.926 260.038 102.37 260.941 103.775V103.814C261.177 104.205 261.412 104.556 261.648 104.946V104.985C261.962 105.532 262.276 106.039 262.59 106.586V106.625C263.532 108.303 264.395 109.982 265.18 111.738V111.777H265.22L265.416 112.245C265.651 112.792 265.887 113.338 266.122 113.885V113.923C266.279 114.275 266.436 114.665 266.593 115.056V115.095C267.025 116.149 267.418 117.241 267.771 118.295V118.373H267.81L268.006 119.037V119.076H268.046C268.281 119.857 268.516 120.637 268.713 121.418C268.791 121.73 268.87 122.003 268.948 122.316V122.354H268.987C269.027 122.667 269.105 122.979 269.184 123.252V123.291C269.459 124.462 269.694 125.633 269.89 126.765V126.843C270.126 128.092 270.283 129.341 270.361 130.551V130.824H270.4C270.44 131.332 270.479 131.839 270.479 132.308L272.716 184.844L277.308 291.557C277.348 292.884 277.426 294.172 277.465 295.46V295.538C277.544 298.114 277.623 300.651 277.701 303.032V303.266C277.937 312.127 277.937 319.465 277.701 323.719V323.836C277.623 324.968 277.544 325.866 277.465 326.529V326.607C277.387 326.998 277.348 327.271 277.269 327.466H277.23V327.622C277.191 327.739 277.113 327.778 277.073 327.778C277.034 327.778 277.034 327.778 276.994 327.739ZM466.338 67.1636C461.393 67.1636 455.387 68.9592 448.518 72.745L334.261 136.093C310.514 149.208 291.439 182.229 291.871 209.434L294.618 393.742C295.05 420.908 296.345 443 297.562 443C298.778 442.883 303.842 420.908 308.905 394.132L317.697 347.411C317.697 347.411 317.933 346.162 318.325 343.859L321.151 328.871C321.504 327.037 321.936 325.163 322.447 323.29C322.485 323.251 322.485 323.212 322.485 323.173C322.761 321.807 323.114 320.401 323.388 318.957C324.645 313.142 326.018 306.584 327.784 299.519C329.394 292.416 331.16 284.765 333.319 276.764C335.281 268.684 337.519 260.215 339.991 251.51C342.385 242.767 344.937 233.79 347.645 224.696C348.391 222.471 349.058 220.207 349.765 217.904L350.314 216.187L351.02 214.079L352.159 210.644C353.14 208.185 354.357 205.141 355.534 202.76C356.712 200.262 357.929 197.842 359.303 195.5C364.523 186.054 370.92 177.779 377.515 170.169C384.109 162.596 391.056 155.805 397.846 149.521C404.676 143.314 411.348 137.538 417.707 132.19C423.987 126.882 429.953 121.847 435.37 117.202C440.747 112.518 445.575 108.147 449.617 104.087C453.621 99.9895 457.075 96.3204 459.548 92.9635C462.021 89.6459 463.865 86.8748 464.925 84.884C466.024 82.8543 466.613 81.7614 466.613 81.7614C466.613 81.7614 466.495 83.0103 466.26 85.3133C465.867 87.6162 465.278 91.0509 463.787 95.2665C462.295 99.4037 460.176 104.4 457.114 109.786C454.131 115.134 450.285 120.949 445.81 126.921C436.94 138.904 425.478 151.706 413.821 165.211C407.973 171.925 402.125 178.872 396.669 186.015C391.213 193.197 386.11 200.574 382.068 208.185C381.047 210.059 380.144 211.971 379.241 213.884C378.339 215.875 377.789 217.28 377.004 219.309L375.788 222.705L375.316 224.032L374.728 225.75C373.982 228.091 373.236 230.355 372.491 232.619C369.39 241.674 366.367 250.652 363.071 259.2C362.442 260.761 361.815 262.361 361.187 263.884C365.072 260.644 368.997 257.756 373.001 255.453L407.109 235.703C430.542 222.08 455.309 189.411 462.138 163.065L479.252 96.7497C484.118 78.0145 478.506 67.1636 466.377 67.1636H466.338Z" fill="white" fill-opacity="0.01"/>
</svg>
