<svg width="1160" height="225" viewBox="0 0 1160 225" fill="none" xmlns="http://www.w3.org/2000/svg">
<g clip-path="url(#clip0_48_258)">
<rect width="1160" height="225" rx="20" fill="#0C0C0C"/>
<path fill-rule="evenodd" clip-rule="evenodd" d="M685.789 929.823V929.699H685.665C683.42 927.721 677.807 911.274 670.698 886.542L669.202 881.347C667.082 873.804 664.837 865.518 662.468 856.862V856.739C659.224 844.62 655.858 831.635 652.49 818.031L646.629 794.289C646.629 794.289 646.005 791.196 645.133 785.508C644.134 779.82 642.888 771.411 640.768 760.9C638.771 750.388 636.651 737.651 633.534 723.306C630.541 708.837 627.299 692.391 623.307 674.83C619.316 657.269 615.076 638.226 610.587 618.069C610.088 616.337 609.588 614.483 609.214 612.752V612.628L608.467 609.66C607.718 606.569 606.969 603.353 606.222 600.261V600.013H606.097L605.473 597.047C602.23 583.443 599.113 569.469 595.62 555.248C594.623 551.414 593.625 547.58 592.628 543.748V543.377L591.879 540.78V540.409L591.131 537.688V537.44L590.382 534.596V534.472L589.634 531.504C586.267 517.407 582.9 502.938 579.407 488.47C576.663 477.093 573.671 465.717 570.678 454.215C569.556 449.269 568.308 444.199 567.186 439.251V439.128C566.437 435.914 565.689 432.697 564.94 429.483L562.695 419.713C559.828 408.213 557.084 396.588 554.215 385.212L549.351 367.033C548.229 362.21 545.485 353.306 542.866 346.629C532.266 319.546 515.304 296.916 497.345 279.109C479.137 261.301 459.931 247.699 441.723 236.074C423.639 224.573 406.178 215.176 390.09 206.642C360.782 191.307 336.089 178.818 317.881 169.048V168.925C316.01 168.06 314.265 167.071 312.643 166.08C295.183 156.435 284.831 150.623 283.585 149.881C283.959 150.499 285.58 152.725 288.573 156.929C292.19 161.381 297.303 168.306 304.537 176.345C311.77 184.259 320.625 194.275 331.35 204.54C342.2 214.928 354.672 226.304 368.266 238.177C381.735 249.925 396.202 262.661 411.666 276.14L413.287 277.625C421.893 285.663 430.623 293.948 438.729 302.604V302.975H439.103L439.478 303.347V303.718H439.852L440.226 304.212V304.46H440.601L440.974 304.955V305.201H441.223L441.847 305.82V305.944H441.972L442.596 306.561V306.686C443.343 307.427 444.092 308.293 444.841 309.158V309.653H445.215L445.588 310.024V310.395H445.963L446.337 310.766V311.137H446.587L447.086 311.632V311.88H447.21L447.833 312.498V312.621C448.831 313.734 449.828 314.971 450.827 316.083V316.331H450.951L451.575 317.074C452.199 317.815 452.697 318.557 453.321 319.299C454.569 320.783 455.691 322.268 456.814 323.751C458.06 325.482 459.307 327.213 460.555 328.945V329.068C461.553 330.428 462.55 331.913 463.548 333.396V333.521H463.673C464.171 334.139 464.545 334.881 465.044 335.622V335.747C465.793 336.859 466.541 338.096 467.289 339.333V339.456H467.414C469.534 342.918 471.529 346.506 473.275 350.215V350.586H473.525L474.024 351.698V352.069H474.273L474.772 353.306V353.554H474.897L475.52 354.914V355.037H475.645C476.144 356.151 476.643 357.388 477.017 358.5V358.748H477.142C477.641 359.985 478.139 361.097 478.513 362.334V362.457H478.638L479.262 364.436V364.683H479.387C479.636 365.302 479.886 366.044 480.134 366.662V367.033C480.384 367.775 480.633 368.517 480.883 369.259C482.254 373.71 483.003 376.184 484.499 382.861L487.992 399.68C490.237 411.675 493.23 423.547 495.849 435.542C499.341 451.742 503.331 467.818 507.821 483.647C496.597 474.743 485.123 467.077 473.774 461.512L358.288 403.39L356.917 402.648C354.672 401.534 352.427 400.299 350.182 399.062V398.937H350.057C346.939 397.083 343.697 395.105 340.454 393.003H340.329L338.209 391.518H338.085L335.964 390.034C334.219 388.798 332.473 387.561 330.726 386.324H330.601C328.606 384.84 326.611 383.357 324.615 381.872C323.369 380.883 322.121 379.895 320.874 378.904C317.881 376.555 314.888 373.958 311.895 371.485C303.164 363.942 294.559 355.656 286.328 346.875C284.084 344.403 281.838 342.053 279.594 339.456C276.725 336.241 274.106 333.15 271.362 329.81H271.238C265.501 322.762 260.013 315.589 254.9 308.293V308.169H254.775C252.281 304.46 249.787 300.873 247.292 297.164V297.039C244.174 292.093 241.181 287.147 238.313 282.2V282.077C236.442 278.861 234.696 275.646 233.075 272.431L232.327 270.947L231.578 269.463C229.957 266.247 228.461 263.033 227.089 259.818C225.093 255.365 223.347 250.914 221.851 246.462V246.337H221.726C221.352 244.977 220.853 243.617 220.354 242.257L157.872 47.6115C157.373 46.1276 156.874 44.7674 156.5 43.2833V43.1596C156.251 42.294 156.001 41.4283 155.752 40.5627V40.1918H155.627C155.378 39.3261 155.253 38.5842 155.004 37.7185V37.2238H154.879C154.629 36.2346 154.505 35.369 154.255 34.3796V34.256C154.006 33.0193 153.756 31.7827 153.507 30.6697V30.546C153.258 28.9384 153.008 27.4545 152.759 25.8469V23.8682H152.509C151.636 15.9539 151.886 9.02871 153.258 2.9692H153.507V1.85619C153.632 1.23791 153.881 0.619633 154.006 0.00135381H154.255V-0.864291C154.879 -2.59558 155.502 -4.32687 156.375 -5.93448H156.5V-6.30552C156.75 -6.67644 156.874 -7.04748 157.124 -7.41853H157.248V-7.66577C157.623 -8.40773 158.121 -9.02614 158.496 -9.64442H158.745V-10.0154C159.618 -11.252 160.491 -12.365 161.489 -13.3543H161.738V-13.7253L162.237 -14.0963H162.486V-14.4673L162.985 -14.8382H163.235V-15.0856L163.858 -15.7039H163.983V-15.8275C164.981 -16.5695 165.978 -17.1878 166.976 -17.9298C167.849 -18.4245 168.722 -18.9191 169.595 -19.4138H169.969V-19.5374C170.468 -19.7848 170.842 -19.9084 171.216 -20.1558H171.466V-20.2794C172.089 -20.4031 172.588 -20.6504 173.212 -20.8977H173.836V-21.0214C175.457 -21.6397 177.078 -22.0107 178.949 -22.3817H180.57V-22.629C182.566 -22.8763 184.686 -23 186.806 -23C190.672 -23 194.912 -22.629 199.277 -21.6397H199.776C200.899 -21.3924 201.896 -21.1451 203.019 -20.8977C204.765 -20.4031 206.511 -19.9084 208.257 -19.4138H208.381C209.13 -19.1665 209.878 -18.9191 210.626 -18.6718H210.751C211.375 -18.4245 212.123 -18.1771 212.871 -17.9298C215.365 -17.0642 217.735 -16.0749 220.354 -14.9619V-14.8382H220.479C222.35 -14.0963 224.22 -13.2306 226.216 -12.365L273.607 10.389L542.367 139.245L556.585 146.047C558.83 147.036 561.199 148.273 563.444 149.51V149.633H563.569L564.94 150.375C566.188 151.118 567.436 151.859 568.682 152.601C574.793 156.312 580.905 160.515 586.641 165.215C588.511 166.699 590.257 168.06 591.879 169.668H592.004C598.863 175.602 605.348 182.033 611.459 188.958V189.082C612.956 190.813 614.452 192.544 615.949 194.275C616.947 195.512 617.944 196.749 618.942 197.986H619.067C621.312 200.829 623.557 203.798 625.677 206.889H625.801C628.92 211.217 631.912 215.793 634.781 220.245V220.368C635.529 221.605 636.277 222.718 637.026 223.955V224.079C638.024 225.81 639.021 227.418 640.019 229.149V229.272C643.013 234.59 645.755 239.908 648.25 245.472V245.596H648.375L648.998 247.08C649.747 248.811 650.495 250.542 651.243 252.274V252.397C651.742 253.51 652.24 254.747 652.74 255.984V256.107C654.112 259.447 655.359 262.909 656.482 266.247V266.495H656.606L657.229 268.598V268.721H657.354C658.103 271.195 658.851 273.667 659.474 276.14C659.724 277.129 659.973 277.995 660.223 278.985V279.109H660.347C660.472 280.098 660.722 281.088 660.971 281.953V282.077C661.844 285.786 662.592 289.496 663.216 293.082V293.33C663.965 297.287 664.463 301.244 664.712 305.078V305.944H664.837C664.962 307.552 665.087 309.158 665.087 310.643L672.195 477.093L686.786 815.188C686.911 819.393 687.161 823.473 687.285 827.553V827.801C687.535 835.963 687.785 844.001 688.034 851.545V852.286C688.783 880.358 688.783 903.607 688.034 917.086V917.457C687.785 921.043 687.535 923.888 687.285 925.989V926.237C687.036 927.474 686.911 928.339 686.663 928.957H686.538V929.451C686.413 929.823 686.164 929.947 686.039 929.947C685.914 929.947 685.914 929.947 685.789 929.823ZM1287.41 104.249C1271.7 104.249 1252.62 109.938 1230.79 121.932L867.748 322.637C792.296 364.188 731.684 468.808 733.057 555.001L741.787 1138.94C743.158 1225.01 747.273 1295 751.139 1295C755.006 1294.63 771.094 1225.01 787.182 1140.17L815.119 992.149C815.119 992.149 815.866 988.192 817.114 980.896L826.093 933.41C827.215 927.597 828.588 921.662 830.209 915.726C830.333 915.602 830.333 915.478 830.333 915.355C831.207 911.026 832.329 906.575 833.202 901.999C837.193 883.574 841.558 862.798 847.17 840.415C852.284 817.908 857.895 793.67 864.755 768.32C870.99 742.721 878.099 715.887 885.956 688.309C893.563 660.609 901.67 632.167 910.275 603.353C912.645 596.304 914.765 589.131 917.01 581.835L918.757 576.395L921.001 569.717L924.618 558.834C927.736 551.043 931.602 541.398 935.343 533.855C939.085 525.939 942.951 518.273 947.316 510.853C963.903 480.927 984.231 454.71 1005.18 430.596C1026.14 406.605 1048.21 385.088 1069.79 365.179C1091.49 345.515 1112.69 327.213 1132.89 310.272C1152.85 293.453 1171.8 277.501 1189.01 262.785C1206.1 247.945 1221.44 234.095 1234.28 221.234C1247 208.25 1257.98 196.626 1265.84 185.99C1273.69 175.479 1279.56 166.699 1282.92 160.392C1286.41 153.961 1288.29 150.499 1288.29 150.499C1288.29 150.499 1287.91 154.456 1287.16 161.752C1285.92 169.048 1284.05 179.931 1279.31 193.286C1274.57 206.394 1267.83 222.224 1258.11 239.289C1248.63 256.231 1236.4 274.657 1222.19 293.577C1194 331.542 1157.58 372.104 1120.54 414.89C1101.96 436.16 1083.38 458.172 1066.04 480.802C1048.71 503.557 1032.5 526.93 1019.65 551.043C1016.41 556.979 1013.54 563.039 1010.67 569.098C1007.8 575.406 1006.06 579.857 1003.56 586.288L999.696 597.047L998.199 601.25L996.329 606.692C993.959 614.112 991.59 621.283 989.22 628.456C979.367 657.146 969.764 685.589 959.289 712.67C957.293 717.618 955.298 722.687 953.303 727.511C965.649 717.247 978.121 708.096 990.841 700.799L1099.22 638.226C1173.67 595.067 1252.37 491.561 1274.07 408.09L1328.44 197.986C1343.91 138.628 1326.07 104.249 1287.54 104.249H1287.41Z" fill="white" fill-opacity="0.02"/>
</g>
<defs>
<clipPath id="clip0_48_258">
<rect width="1160" height="225" rx="20" fill="white"/>
</clipPath>
</defs>
</svg>
