<svg width="320" height="908" viewBox="0 0 320 908" fill="none" xmlns="http://www.w3.org/2000/svg">
<g clip-path="url(#clip0_73_464)">
<rect width="320" height="908" fill="#0C0C0C"/>
<path fill-rule="evenodd" clip-rule="evenodd" d="M324.183 622.536V622.465H324.112C322.825 621.33 319.605 611.896 315.528 597.71L314.669 594.73C313.453 590.403 312.165 585.651 310.807 580.686V580.615C308.946 573.663 307.015 566.215 305.083 558.412L301.721 544.794C301.721 544.794 301.363 543.02 300.863 539.757C300.29 536.494 299.575 531.671 298.359 525.642C297.214 519.612 295.998 512.307 294.21 504.078C292.493 495.779 290.633 486.346 288.344 476.273C286.054 466.2 283.622 455.277 281.047 443.715C280.761 442.722 280.474 441.658 280.26 440.665V440.594L279.831 438.892C279.402 437.118 278.972 435.274 278.543 433.5V433.358H278.472L278.114 431.656C276.254 423.853 274.466 415.838 272.462 407.681C271.89 405.482 271.318 403.283 270.746 401.085V400.872L270.316 399.382V399.169L269.887 397.609V397.467L269.458 395.835V395.764L269.028 394.062C267.098 385.976 265.166 377.676 263.162 369.377C261.589 362.852 259.872 356.326 258.155 349.729C257.512 346.892 256.796 343.984 256.152 341.146V341.075C255.723 339.231 255.294 337.386 254.864 335.542L253.577 329.938C251.932 323.342 250.358 316.674 248.712 310.149L245.922 299.722C245.278 296.955 243.705 291.848 242.202 288.018C236.122 272.483 226.393 259.503 216.091 249.288C205.647 239.074 194.631 231.272 184.186 224.604C173.813 218.007 163.798 212.617 154.57 207.722C137.758 198.926 123.594 191.762 113.15 186.158V186.088C112.077 185.591 111.076 185.024 110.146 184.456C100.13 178.923 94.1926 175.59 93.4777 175.164C93.6921 175.518 94.6221 176.795 96.3386 179.207C98.4137 181.76 101.346 185.732 105.496 190.343C109.644 194.883 114.724 200.628 120.876 206.516C127.1 212.474 134.253 219 142.051 225.81C149.777 232.549 158.075 239.854 166.946 247.586L167.876 248.438C172.812 253.048 177.819 257.8 182.469 262.765V262.978H182.684L182.899 263.191V263.404H183.113L183.327 263.688V263.83H183.543L183.757 264.114V264.255H183.9L184.257 264.61V264.681H184.329L184.687 265.035V265.107C185.116 265.532 185.545 266.028 185.975 266.525V266.808H186.189L186.403 267.021V267.234H186.619L186.833 267.447V267.66H186.976L187.262 267.944V268.086H187.333L187.691 268.44V268.511C188.263 269.15 188.836 269.859 189.409 270.497V270.639H189.479L189.837 271.065C190.195 271.49 190.481 271.916 190.839 272.342C191.555 273.193 192.198 274.044 192.842 274.895C193.557 275.888 194.273 276.881 194.988 277.874V277.945C195.561 278.725 196.133 279.577 196.705 280.428V280.499H196.777C197.063 280.853 197.277 281.279 197.563 281.704V281.776C197.993 282.414 198.422 283.123 198.851 283.833V283.903H198.923C200.139 285.889 201.283 287.947 202.285 290.075V290.287H202.428L202.714 290.925V291.138H202.857L203.143 291.848V291.99H203.215L203.573 292.77V292.841H203.644C203.93 293.48 204.217 294.189 204.431 294.827V294.969H204.503C204.789 295.679 205.075 296.317 205.289 297.026V297.097H205.361L205.719 298.232V298.373H205.79C205.933 298.729 206.076 299.154 206.219 299.509V299.722C206.363 300.147 206.505 300.572 206.649 300.998C207.435 303.552 207.865 304.971 208.723 308.801L210.726 318.448C212.014 325.328 213.731 332.137 215.233 339.018C217.236 348.31 219.525 357.531 222.101 366.611C215.662 361.504 209.081 357.106 202.571 353.914L136.328 320.576L135.541 320.15C134.253 319.511 132.966 318.803 131.678 318.093V318.022H131.606C129.818 316.958 127.958 315.823 126.098 314.618H126.026L124.81 313.766H124.739L123.522 312.915C122.522 312.206 121.52 311.496 120.518 310.787H120.446C119.302 309.936 118.158 309.085 117.013 308.233C116.298 307.666 115.582 307.099 114.867 306.531C113.15 305.183 111.433 303.694 109.716 302.275C104.708 297.948 99.7724 293.196 95.0508 288.159C93.7638 286.741 92.4758 285.393 91.1882 283.903C89.5428 282.059 88.0406 280.286 86.4668 278.371H86.3952C83.1045 274.328 79.9569 270.213 77.0239 266.028V265.958H76.9523C75.5216 263.83 74.0908 261.772 72.6601 259.645V259.573C70.8717 256.736 69.1548 253.899 67.5095 251.062V250.991C66.4364 249.146 65.4349 247.302 64.5049 245.458L64.0757 244.607L63.6465 243.756C62.7165 241.911 61.8581 240.067 61.0712 238.223C59.9266 235.669 58.925 233.116 58.0666 230.562V230.491H57.995C57.7804 229.711 57.4943 228.931 57.2082 228.15L21.3682 116.503C21.0821 115.651 20.7959 114.871 20.5813 114.02V113.949C20.4382 113.452 20.2951 112.956 20.1521 112.459V112.247H20.0805C19.9375 111.75 19.8659 111.324 19.7229 110.828V110.544H19.6513C19.5082 109.977 19.4367 109.48 19.2936 108.913V108.842C19.1505 108.132 19.0075 107.423 18.8644 106.785V106.714C18.7213 105.792 18.5783 104.941 18.4352 104.018V102.883H18.2921C17.7913 98.3438 17.9344 94.3716 18.7213 90.8958H18.8644V90.2574C18.9359 89.9028 19.079 89.5481 19.1505 89.1935H19.2936V88.697C19.6513 87.7039 20.009 86.7108 20.5097 85.7887H20.5813V85.5759C20.7244 85.3631 20.7959 85.1503 20.939 84.9375H21.0105V84.7957C21.2251 84.3701 21.5113 84.0154 21.7259 83.6607H21.869V83.4479C22.3697 82.7386 22.8705 82.1002 23.4428 81.5327H23.5858V81.3199L23.872 81.1071H24.0151V80.8944L24.3012 80.6816H24.4443V80.5397L24.8019 80.185H24.8735V80.1141C25.4458 79.6885 26.0181 79.3338 26.5904 78.9082C27.0912 78.6245 27.5919 78.3408 28.0926 78.057H28.3072V77.9861C28.5934 77.8442 28.808 77.7733 29.0226 77.6314H29.1657V77.5605C29.5234 77.4896 29.8096 77.3477 30.1672 77.2059H30.5249V77.1349C31.4549 76.7803 32.3849 76.5675 33.4579 76.3547H34.3879V76.2128C35.5325 76.0709 36.7486 76 37.9647 76C40.1824 76 42.6146 76.2128 45.1184 76.7803H45.4046C46.0484 76.9221 46.6207 77.064 47.2645 77.2059C48.2661 77.4896 49.2675 77.7733 50.2691 78.057H50.3407C50.7699 78.1989 51.1991 78.3408 51.6283 78.4826H51.6998C52.0575 78.6245 52.4867 78.7664 52.9159 78.9082C54.3467 79.4048 55.7059 79.9722 57.2082 80.6106V80.6816H57.2797C58.3528 81.1071 59.4258 81.6037 60.5704 82.1002L87.7544 95.1518L241.916 169.063L250.072 172.965C251.36 173.532 252.718 174.242 254.006 174.951V175.022H254.078L254.864 175.448C255.58 175.873 256.296 176.298 257.01 176.724C260.516 178.853 264.021 181.264 267.312 183.959C268.385 184.811 269.386 185.591 270.316 186.513H270.388C274.322 189.918 278.042 193.606 281.548 197.578V197.649C282.406 198.642 283.264 199.635 284.123 200.628C284.695 201.338 285.268 202.047 285.84 202.757H285.912C287.199 204.388 288.487 206.09 289.703 207.863H289.774C291.563 210.346 293.28 212.971 294.925 215.524V215.595C295.354 216.304 295.784 216.943 296.213 217.653V217.723C296.785 218.716 297.357 219.639 297.93 220.632V220.703C299.647 223.752 301.22 226.803 302.651 229.994V230.066H302.723L303.08 230.917C303.509 231.91 303.939 232.903 304.368 233.896V233.967C304.654 234.605 304.94 235.315 305.227 236.024V236.095C306.013 238.01 306.729 239.997 307.373 241.911V242.053H307.444L307.802 243.259V243.33H307.873C308.303 244.749 308.732 246.167 309.089 247.586C309.233 248.153 309.375 248.65 309.519 249.218V249.288H309.59C309.662 249.856 309.805 250.424 309.948 250.92V250.991C310.449 253.118 310.878 255.247 311.235 257.304V257.446C311.665 259.716 311.951 261.985 312.094 264.184V264.681H312.165C312.237 265.603 312.309 266.525 312.309 267.376L316.386 362.852L324.756 556.781C324.827 559.193 324.971 561.534 325.042 563.874V564.016C325.185 568.698 325.329 573.308 325.471 577.636V578.061C325.901 594.163 325.901 607.498 325.471 615.23V615.443C325.329 617.5 325.185 619.131 325.042 620.337V620.479C324.899 621.188 324.827 621.685 324.685 622.039H324.613V622.323C324.541 622.536 324.399 622.607 324.327 622.607C324.255 622.607 324.255 622.607 324.183 622.536ZM669.278 148.99C660.264 148.99 649.319 152.253 636.799 159.133L428.556 274.256C385.276 298.09 350.509 358.099 351.296 407.539L356.304 742.483C357.091 791.852 359.451 832 361.669 832C363.887 831.787 373.115 791.852 382.343 743.193L398.368 658.286C398.368 658.286 398.796 656.016 399.512 651.831L404.662 624.593C405.306 621.259 406.094 617.855 407.024 614.45C407.095 614.379 407.095 614.307 407.095 614.237C407.596 611.754 408.24 609.201 408.74 606.576C411.03 596.007 413.533 584.091 416.752 571.252C419.686 558.342 422.904 544.439 426.839 529.898C430.416 515.215 434.494 499.823 439 484.004C443.364 468.115 448.014 451.801 452.95 435.274C454.309 431.231 455.525 427.116 456.813 422.931L457.815 419.811L459.102 415.98L461.177 409.738C462.965 405.269 465.183 399.736 467.329 395.41C469.475 390.87 471.693 386.472 474.197 382.216C483.711 365.051 495.371 350.013 507.39 336.181C519.408 322.42 532.07 310.078 544.446 298.658C556.893 287.379 569.054 276.881 580.643 267.163C592.089 257.516 602.963 248.366 612.835 239.925C622.635 231.413 631.435 223.469 638.803 216.092C646.099 208.644 652.395 201.977 656.902 195.876C661.408 189.847 664.77 184.811 666.702 181.193C668.705 177.504 669.778 175.518 669.778 175.518C669.778 175.518 669.564 177.788 669.134 181.973C668.419 186.158 667.346 192.4 664.628 200.061C661.909 207.58 658.046 216.66 652.466 226.448C647.029 236.166 640.019 246.735 631.863 257.587C615.697 279.364 594.807 302.63 573.561 327.172C562.902 339.373 552.243 351.999 542.3 364.979C532.356 378.031 523.056 391.438 515.688 405.269C513.828 408.674 512.182 412.15 510.537 415.625C508.892 419.243 507.89 421.797 506.459 425.485L504.242 431.656L503.383 434.068L502.31 437.189C500.951 441.445 499.592 445.559 498.233 449.673C492.581 466.129 487.073 482.444 481.064 497.978C479.919 500.816 478.775 503.723 477.63 506.49C484.713 500.603 491.866 495.354 499.163 491.169L561.328 455.277C604.036 430.521 649.175 371.15 661.623 323.271L692.813 202.757C701.684 168.709 691.454 148.99 669.349 148.99H669.278Z" fill="white" fill-opacity="0.02"/>
</g>
<defs>
<clipPath id="clip0_73_464">
<rect width="320" height="908" fill="white"/>
</clipPath>
</defs>
</svg>
