<svg width="1318" height="480" viewBox="0 0 1318 480" fill="none" xmlns="http://www.w3.org/2000/svg">
<g clip-path="url(#clip0_16_173)">
<rect width="1318" height="480" rx="20" fill="#0C0C0C"/>
<path fill-rule="evenodd" clip-rule="evenodd" d="M951.789 397.823V397.699H951.665C949.42 395.721 943.807 379.274 936.698 354.542L935.202 349.347C933.082 341.804 930.837 333.518 928.468 324.862V324.739C925.224 312.62 921.858 299.635 918.49 286.031L912.629 262.289C912.629 262.289 912.005 259.196 911.133 253.508C910.134 247.82 908.888 239.411 906.768 228.9C904.771 218.388 902.651 205.651 899.534 191.306C896.541 176.837 893.299 160.391 889.307 142.83C885.316 125.269 881.076 106.226 876.587 86.0687C876.088 84.3374 875.588 82.4829 875.214 80.7516V80.6282L874.467 77.6602C873.718 74.5688 872.969 71.3528 872.222 68.2614V68.0135H872.097L871.473 65.0467C868.23 51.4429 865.113 37.4693 861.62 23.2478C860.623 19.4141 859.625 15.5803 858.628 11.7479V11.3767L857.879 8.77981V8.40862L857.131 5.6884V5.4405L856.382 2.5957V2.47237L855.634 -0.495707C852.267 -14.5926 848.9 -29.062 845.407 -43.53C842.663 -54.9067 839.671 -66.2834 836.678 -77.7847C835.556 -82.7307 834.308 -87.8012 833.186 -92.7485V-92.8718C832.437 -96.0865 831.689 -99.3025 830.94 -102.517L828.695 -112.287C825.828 -123.787 823.084 -135.412 820.215 -146.788L815.351 -164.967C814.229 -169.79 811.485 -178.694 808.866 -185.371C798.266 -212.454 781.304 -235.084 763.345 -252.891C745.137 -270.699 725.931 -284.301 707.723 -295.926C689.639 -307.427 672.178 -316.824 656.09 -325.358C626.782 -340.693 602.089 -353.182 583.881 -362.952V-363.075C582.01 -363.94 580.265 -364.929 578.643 -365.92C561.183 -375.565 550.831 -381.377 549.585 -382.119C549.959 -381.501 551.58 -379.275 554.573 -375.071C558.19 -370.619 563.303 -363.694 570.537 -355.655C577.77 -347.741 586.625 -337.725 597.35 -327.46C608.2 -317.072 620.672 -305.696 634.266 -293.823C647.735 -282.075 662.202 -269.339 677.666 -255.86L679.287 -254.375C687.893 -246.337 696.623 -238.052 704.729 -229.396V-229.025H705.103L705.478 -228.653V-228.282H705.852L706.226 -227.788V-227.54H706.601L706.974 -227.045V-226.799H707.223L707.847 -226.18V-226.056H707.972L708.596 -225.439V-225.314C709.343 -224.573 710.092 -223.707 710.841 -222.842V-222.347H711.215L711.588 -221.976V-221.605H711.963L712.337 -221.234V-220.863H712.587L713.086 -220.368V-220.12H713.21L713.833 -219.502V-219.379C714.831 -218.266 715.828 -217.029 716.827 -215.917V-215.669H716.951L717.575 -214.926C718.199 -214.185 718.697 -213.443 719.321 -212.701C720.569 -211.217 721.691 -209.732 722.814 -208.249C724.06 -206.518 725.307 -204.787 726.555 -203.055V-202.932C727.553 -201.572 728.55 -200.087 729.548 -198.604V-198.479H729.673C730.171 -197.861 730.545 -197.119 731.044 -196.378V-196.253C731.793 -195.141 732.541 -193.904 733.289 -192.667V-192.544H733.414C735.534 -189.082 737.529 -185.494 739.275 -181.785V-181.414H739.525L740.024 -180.302V-179.931H740.273L740.772 -178.694V-178.446H740.897L741.52 -177.086V-176.963H741.645C742.144 -175.849 742.643 -174.612 743.017 -173.5V-173.252H743.142C743.641 -172.015 744.139 -170.903 744.513 -169.666V-169.543H744.638L745.262 -167.564V-167.317H745.387C745.636 -166.698 745.886 -165.956 746.134 -165.338V-164.967C746.384 -164.225 746.633 -163.483 746.883 -162.741C748.254 -158.29 749.003 -155.816 750.499 -149.139L753.992 -132.32C756.237 -120.325 759.23 -108.453 761.849 -96.4577C765.341 -80.2583 769.331 -64.1822 773.821 -48.3527C762.597 -57.2571 751.123 -64.9233 739.774 -70.4884L624.288 -128.61L622.917 -129.352C620.672 -130.466 618.427 -131.701 616.182 -132.938V-133.063H616.057C612.939 -134.917 609.697 -136.895 606.454 -138.997H606.329L604.209 -140.482H604.085L601.964 -141.966C600.219 -143.202 598.473 -144.439 596.726 -145.676H596.601C594.606 -147.16 592.611 -148.643 590.615 -150.128C589.369 -151.117 588.121 -152.105 586.874 -153.096C583.881 -155.445 580.888 -158.042 577.895 -160.515C569.164 -168.058 560.559 -176.344 552.328 -185.125C550.084 -187.597 547.838 -189.947 545.594 -192.544C542.725 -195.759 540.106 -198.85 537.362 -202.19H537.238C531.501 -209.238 526.013 -216.411 520.9 -223.707V-223.831H520.775C518.281 -227.54 515.787 -231.127 513.292 -234.836V-234.961C510.174 -239.907 507.181 -244.853 504.313 -249.8V-249.923C502.442 -253.139 500.696 -256.354 499.075 -259.569L498.327 -261.053L497.578 -262.537C495.957 -265.753 494.461 -268.967 493.089 -272.182C491.093 -276.635 489.347 -281.086 487.851 -285.538V-285.663H487.726C487.352 -287.023 486.853 -288.383 486.354 -289.743L423.872 -484.388C423.373 -485.872 422.874 -487.233 422.5 -488.717V-488.84C422.251 -489.706 422.001 -490.572 421.752 -491.437V-491.808H421.627C421.378 -492.674 421.253 -493.416 421.004 -494.281V-494.776H420.879C420.629 -495.765 420.505 -496.631 420.255 -497.62V-497.744C420.006 -498.981 419.756 -500.217 419.507 -501.33V-501.454C419.258 -503.062 419.008 -504.546 418.759 -506.153V-508.132H418.509C417.636 -516.046 417.886 -522.971 419.258 -529.031H419.507V-530.144C419.632 -530.762 419.881 -531.38 420.006 -531.999H420.255V-532.864C420.879 -534.596 421.502 -536.327 422.375 -537.934H422.5V-538.306C422.75 -538.676 422.874 -539.047 423.124 -539.419H423.248V-539.666C423.623 -540.408 424.121 -541.026 424.496 -541.644H424.745V-542.015C425.618 -543.252 426.491 -544.365 427.489 -545.354H427.738V-545.725L428.237 -546.096H428.486V-546.467L428.985 -546.838H429.235V-547.086L429.858 -547.704H429.983V-547.828C430.981 -548.57 431.978 -549.188 432.976 -549.93C433.849 -550.424 434.722 -550.919 435.595 -551.414H435.969V-551.537C436.468 -551.785 436.842 -551.908 437.216 -552.156H437.466V-552.279C438.089 -552.403 438.588 -552.65 439.212 -552.898H439.836V-553.021C441.457 -553.64 443.078 -554.011 444.949 -554.382H446.57V-554.629C448.566 -554.876 450.686 -555 452.806 -555C456.672 -555 460.912 -554.629 465.277 -553.64H465.776C466.899 -553.392 467.896 -553.145 469.019 -552.898C470.765 -552.403 472.511 -551.908 474.257 -551.414H474.381C475.13 -551.166 475.878 -550.919 476.626 -550.672H476.751C477.375 -550.424 478.123 -550.177 478.871 -549.93C481.365 -549.064 483.735 -548.075 486.354 -546.962V-546.838H486.479C488.35 -546.096 490.22 -545.231 492.216 -544.365L539.607 -521.611L808.367 -392.755L822.585 -385.953C824.83 -384.964 827.199 -383.727 829.444 -382.49V-382.367H829.569L830.94 -381.625C832.188 -380.882 833.436 -380.141 834.682 -379.399C840.793 -375.688 846.905 -371.485 852.641 -366.785C854.511 -365.301 856.257 -363.94 857.879 -362.332H858.004C864.863 -356.398 871.348 -349.967 877.459 -343.042V-342.918C878.956 -341.187 880.452 -339.456 881.949 -337.725C882.947 -336.488 883.944 -335.251 884.942 -334.014H885.067C887.312 -331.171 889.557 -328.202 891.677 -325.111H891.801C894.92 -320.783 897.912 -316.207 900.781 -311.755V-311.632C901.529 -310.395 902.277 -309.282 903.026 -308.045V-307.921C904.024 -306.19 905.021 -304.582 906.019 -302.851V-302.728C909.013 -297.41 911.755 -292.092 914.25 -286.528V-286.404H914.375L914.998 -284.92C915.747 -283.189 916.495 -281.458 917.243 -279.726V-279.603C917.742 -278.49 918.24 -277.253 918.74 -276.016V-275.893C920.112 -272.553 921.359 -269.091 922.482 -265.753V-265.505H922.606L923.229 -263.402V-263.279H923.354C924.103 -260.805 924.851 -258.333 925.474 -255.86C925.724 -254.871 925.973 -254.005 926.223 -253.015V-252.891H926.347C926.472 -251.902 926.722 -250.912 926.971 -250.047V-249.923C927.844 -246.214 928.592 -242.504 929.216 -238.918V-238.67C929.965 -234.713 930.463 -230.756 930.712 -226.922V-226.056H930.837C930.962 -224.448 931.087 -222.842 931.087 -221.357L938.195 -54.9067L952.786 283.188C952.911 287.393 953.161 291.473 953.285 295.553V295.801C953.535 303.963 953.785 312.001 954.034 319.545V320.286C954.783 348.358 954.783 371.607 954.034 385.086V385.457C953.785 389.043 953.535 391.888 953.285 393.989V394.237C953.036 395.474 952.911 396.339 952.663 396.957H952.538V397.451C952.413 397.823 952.164 397.947 952.039 397.947C951.914 397.947 951.914 397.947 951.789 397.823ZM1553.41 -427.751C1537.7 -427.751 1518.62 -422.062 1496.79 -410.068L1133.75 -209.363C1058.3 -167.812 997.684 -63.192 999.057 23.0013L1007.79 606.937C1009.16 693.006 1013.27 763 1017.14 763C1021.01 762.629 1037.09 693.006 1053.18 608.174L1081.12 460.149C1081.12 460.149 1081.87 456.192 1083.11 448.896L1092.09 401.41C1093.22 395.597 1094.59 389.662 1096.21 383.726C1096.33 383.602 1096.33 383.478 1096.33 383.355C1097.21 379.026 1098.33 374.575 1099.2 369.999C1103.19 351.574 1107.56 330.798 1113.17 308.415C1118.28 285.908 1123.9 261.67 1130.76 236.32C1136.99 210.721 1144.1 183.887 1151.96 156.309C1159.56 128.609 1167.67 100.167 1176.28 71.3527C1178.65 64.3043 1180.77 57.1313 1183.01 49.8349L1184.76 44.3945L1187 37.7172L1190.62 26.8337C1193.74 19.0429 1197.6 9.39754 1201.34 1.85463C1205.08 -6.06078 1208.95 -13.727 1213.32 -21.1466C1229.9 -51.073 1250.23 -77.2902 1271.18 -101.404C1292.14 -125.395 1314.21 -146.912 1335.79 -166.821C1357.49 -186.485 1378.69 -204.787 1398.89 -221.728C1418.85 -238.547 1437.8 -254.499 1455.01 -269.215C1472.1 -284.055 1487.44 -297.905 1500.28 -310.766C1513 -323.75 1523.98 -335.374 1531.84 -346.01C1539.69 -356.521 1545.56 -365.301 1548.92 -371.608C1552.41 -378.039 1554.29 -381.501 1554.29 -381.501C1554.29 -381.501 1553.91 -377.544 1553.16 -370.248C1551.92 -362.952 1550.05 -352.069 1545.31 -338.714C1540.57 -325.606 1533.83 -309.776 1524.11 -292.711C1514.63 -275.769 1502.4 -257.343 1488.19 -238.423C1460 -200.458 1423.58 -159.896 1386.54 -117.11C1367.96 -95.8399 1349.38 -73.8276 1332.04 -51.1976C1314.71 -28.4429 1298.5 -5.0705 1285.65 19.0429C1282.41 24.9792 1279.54 31.0386 1276.67 37.0981C1273.8 43.4056 1272.06 47.8571 1269.56 54.2878L1265.7 65.0467L1264.2 69.2503L1262.33 74.692C1259.96 82.1117 1257.59 89.2834 1255.22 96.4564C1245.37 125.146 1235.76 153.589 1225.29 180.67C1223.29 185.618 1221.3 190.687 1219.3 195.511C1231.65 185.247 1244.12 176.096 1256.84 168.799L1365.22 106.226C1439.67 63.0675 1518.37 -40.4387 1540.07 -123.91L1594.44 -334.014C1609.91 -393.372 1592.07 -427.751 1553.54 -427.751H1553.41Z" fill="white" fill-opacity="0.02"/>
</g>
<defs>
<clipPath id="clip0_16_173">
<rect width="1318" height="480" rx="20" fill="white"/>
</clipPath>
</defs>
</svg>
