<svg width="649" height="265" viewBox="0 0 649 265" fill="none" xmlns="http://www.w3.org/2000/svg">
<g clip-path="url(#clip0_16_131)">
<rect width="649" height="265" rx="20" fill="#0C0C0C"/>
<path fill-rule="evenodd" clip-rule="evenodd" d="M282.789 965.823V965.699H282.665C280.42 963.721 274.807 947.274 267.698 922.542L266.202 917.347C264.082 909.804 261.837 901.518 259.468 892.862V892.739C256.224 880.62 252.858 867.635 249.49 854.031L243.629 830.289C243.629 830.289 243.005 827.196 242.133 821.508C241.134 815.82 239.888 807.411 237.768 796.9C235.771 786.388 233.651 773.651 230.534 759.306C227.541 744.837 224.299 728.391 220.307 710.83C216.316 693.269 212.076 674.226 207.587 654.069C207.088 652.337 206.588 650.483 206.214 648.752V648.628L205.467 645.66C204.718 642.569 203.969 639.353 203.222 636.261V636.013H203.097L202.473 633.047C199.23 619.443 196.113 605.469 192.62 591.248C191.623 587.414 190.625 583.58 189.628 579.748V579.377L188.879 576.78V576.409L188.131 573.688V573.44L187.382 570.596V570.472L186.634 567.504C183.267 553.407 179.9 538.938 176.407 524.47C173.663 513.093 170.671 501.717 167.678 490.215C166.556 485.269 165.308 480.199 164.186 475.251V475.128C163.437 471.914 162.689 468.697 161.94 465.483L159.695 455.713C156.828 444.213 154.084 432.588 151.215 421.212L146.351 403.033C145.229 398.21 142.485 389.306 139.866 382.629C129.266 355.546 112.304 332.916 94.3448 315.109C76.1368 297.301 56.9313 283.699 38.7233 272.074C20.639 260.573 3.17843 251.176 -12.9095 242.642C-42.2179 227.307 -66.911 214.818 -85.119 205.048V204.925C-86.9904 204.06 -88.7354 203.071 -90.3567 202.08C-107.817 192.435 -118.169 186.623 -119.415 185.881C-119.041 186.499 -117.42 188.725 -114.427 192.929C-110.81 197.381 -105.697 204.306 -98.4631 212.345C-91.2305 220.259 -82.3752 230.275 -71.6499 240.54C-60.7996 250.928 -48.328 262.304 -34.7338 274.177C-21.2647 285.925 -6.79807 298.661 8.66609 312.14L10.2874 313.625C18.8926 321.663 27.6229 329.948 35.7294 338.604V338.975H36.1031L36.4782 339.347V339.718H36.8519L37.2257 340.212V340.46H37.6007L37.9745 340.955V341.201H38.2232L38.847 341.82V341.944H38.972L39.5957 342.561V342.686C40.3432 343.427 41.092 344.293 41.8408 345.158V345.653H42.2146L42.5883 346.024V346.395H42.9634L43.3371 346.766V347.137H43.5872L44.0859 347.632V347.88H44.2096L44.8334 348.498V348.621C45.8309 349.734 46.8284 350.971 47.8273 352.083V352.331H47.9509L48.5747 353.074C49.1985 353.815 49.6973 354.557 50.321 355.299C51.5686 356.783 52.6911 358.268 53.8137 359.751C55.0599 361.482 56.3075 363.213 57.555 364.945V365.068C58.5525 366.428 59.5501 367.913 60.5476 369.396V369.521H60.6726C61.1714 370.139 61.5451 370.881 62.0439 371.622V371.747C62.7927 372.859 63.5415 374.096 64.2889 375.333V375.456H64.414C66.534 378.918 68.529 382.506 70.2754 386.215V386.586H70.5254L71.0242 387.698V388.069H71.2729L71.7716 389.306V389.554H71.8967L72.5204 390.914V391.037H72.6454C73.1442 392.151 73.643 393.388 74.0167 394.5V394.748H74.1417C74.6405 395.985 75.1392 397.097 75.513 398.334V398.457H75.638L76.2618 400.436V400.683H76.3868C76.6355 401.302 76.8856 402.044 77.1343 402.662V403.033C77.3843 403.775 77.633 404.517 77.8831 405.259C79.2543 409.71 80.0031 412.184 81.4994 418.861L84.9921 435.68C87.2371 447.675 90.2297 459.547 92.8485 471.542C96.3411 487.742 100.331 503.818 104.821 519.647C93.5973 510.743 82.1232 503.077 70.7741 497.512L-44.7117 439.39L-46.0829 438.648C-48.328 437.534 -50.5731 436.299 -52.8181 435.062V434.937H-52.9432C-56.0607 433.083 -59.3033 431.105 -62.5459 429.003H-62.6709L-64.791 427.518H-64.9147L-67.0361 426.034C-68.781 424.798 -70.5274 423.561 -72.2737 422.324H-72.3987C-74.3937 420.84 -76.3888 419.357 -78.3851 417.872C-79.6314 416.883 -80.8789 415.895 -82.1265 414.904C-85.119 412.555 -88.1116 409.958 -91.1055 407.485C-99.8357 399.942 -108.441 391.656 -116.672 382.875C-118.916 380.403 -121.162 378.053 -123.406 375.456C-126.275 372.241 -128.894 369.15 -131.638 365.81H-131.762C-137.499 358.762 -142.987 351.589 -148.1 344.293V344.169H-148.225C-150.719 340.46 -153.213 336.873 -155.708 333.164V333.039C-158.826 328.093 -161.819 323.147 -164.687 318.2V318.077C-166.558 314.861 -168.304 311.646 -169.925 308.431L-170.673 306.947L-171.422 305.463C-173.043 302.247 -174.539 299.033 -175.911 295.818C-177.907 291.365 -179.653 286.914 -181.149 282.462V282.337H-181.274C-181.648 280.977 -182.147 279.617 -182.646 278.257L-245.128 83.6115C-245.627 82.1276 -246.126 80.7674 -246.5 79.2833V79.1596C-246.749 78.294 -246.999 77.4283 -247.248 76.5627V76.1918H-247.373C-247.622 75.3261 -247.747 74.5842 -247.996 73.7185V73.2238H-248.121C-248.371 72.2346 -248.495 71.369 -248.745 70.3796V70.256C-248.994 69.0193 -249.244 67.7827 -249.493 66.6697V66.546C-249.742 64.9384 -249.992 63.4545 -250.241 61.8469V59.8682H-250.491C-251.364 51.9539 -251.114 45.0287 -249.742 38.9692H-249.493V37.8562C-249.368 37.2379 -249.119 36.6196 -248.994 36.0014H-248.745V35.1357C-248.121 33.4044 -247.498 31.6731 -246.625 30.0655H-246.5V29.6945C-246.25 29.3236 -246.126 28.9525 -245.876 28.5815H-245.752V28.3342C-245.377 27.5923 -244.879 26.9739 -244.504 26.3556H-244.255V25.9846C-243.382 24.748 -242.509 23.635 -241.511 22.6457H-241.262V22.2747L-240.763 21.9037H-240.514V21.5327L-240.015 21.1618H-239.765V20.9144L-239.142 20.2961H-239.017V20.1725C-238.019 19.4305 -237.022 18.8122 -236.024 18.0702C-235.151 17.5755 -234.278 17.0809 -233.405 16.5862H-233.031V16.4626C-232.532 16.2152 -232.158 16.0916 -231.784 15.8442H-231.534V15.7206C-230.911 15.5969 -230.412 15.3496 -229.788 15.1023H-229.164V14.9786C-227.543 14.3603 -225.922 13.9893 -224.051 13.6183H-222.43V13.371C-220.434 13.1237 -218.314 13 -216.194 13C-212.328 13 -208.088 13.371 -203.723 14.3603H-203.224C-202.101 14.6076 -201.104 14.8549 -199.981 15.1023C-198.235 15.5969 -196.489 16.0916 -194.743 16.5862H-194.619C-193.87 16.8335 -193.122 17.0809 -192.374 17.3282H-192.249C-191.625 17.5755 -190.877 17.8229 -190.129 18.0702C-187.635 18.9358 -185.265 19.9251 -182.646 21.0381V21.1618H-182.521C-180.65 21.9037 -178.78 22.7694 -176.784 23.635L-129.393 46.389L139.367 175.245L153.585 182.047C155.83 183.036 158.199 184.273 160.444 185.51V185.633H160.569L161.94 186.375C163.188 187.118 164.436 187.859 165.682 188.601C171.793 192.312 177.905 196.515 183.641 201.215C185.511 202.699 187.257 204.06 188.879 205.668H189.004C195.863 211.602 202.348 218.033 208.459 224.958V225.082C209.956 226.813 211.452 228.544 212.949 230.275C213.947 231.512 214.944 232.749 215.942 233.986H216.067C218.312 236.829 220.557 239.798 222.677 242.889H222.801C225.92 247.217 228.912 251.793 231.781 256.245V256.368C232.529 257.605 233.277 258.718 234.026 259.955V260.079C235.024 261.81 236.021 263.418 237.019 265.149V265.272C240.013 270.59 242.755 275.908 245.25 281.472V281.596H245.375L245.998 283.08C246.747 284.811 247.495 286.542 248.243 288.274V288.397C248.742 289.51 249.24 290.747 249.74 291.984V292.107C251.112 295.447 252.359 298.909 253.482 302.247V302.495H253.606L254.229 304.598V304.721H254.354C255.103 307.195 255.851 309.667 256.474 312.14C256.724 313.129 256.973 313.995 257.223 314.985V315.109H257.347C257.472 316.098 257.722 317.088 257.971 317.953V318.077C258.844 321.786 259.592 325.496 260.216 329.082V329.33C260.965 333.287 261.463 337.244 261.712 341.078V341.944H261.837C261.962 343.552 262.087 345.158 262.087 346.643L269.195 513.093L283.786 851.188C283.911 855.393 284.161 859.473 284.285 863.553V863.801C284.535 871.963 284.785 880.001 285.034 887.545V888.286C285.783 916.358 285.783 939.607 285.034 953.086V953.457C284.785 957.043 284.535 959.888 284.285 961.989V962.237C284.036 963.474 283.911 964.339 283.663 964.957H283.538V965.451C283.413 965.823 283.164 965.947 283.039 965.947C282.914 965.947 282.914 965.947 282.789 965.823ZM884.413 140.249C868.699 140.249 849.617 145.938 827.792 157.932L464.748 358.637C389.296 400.188 328.684 504.808 330.057 591.001L338.787 1174.94C340.158 1261.01 344.273 1331 348.139 1331C352.006 1330.63 368.094 1261.01 384.182 1176.17L412.119 1028.15C412.119 1028.15 412.866 1024.19 414.114 1016.9L423.093 969.41C424.215 963.597 425.588 957.662 427.209 951.726C427.333 951.602 427.333 951.478 427.333 951.355C428.207 947.026 429.329 942.575 430.202 937.999C434.193 919.574 438.558 898.798 444.17 876.415C449.284 853.908 454.895 829.67 461.755 804.32C467.99 778.721 475.099 751.887 482.956 724.309C490.563 696.609 498.67 668.167 507.275 639.353C509.645 632.304 511.765 625.131 514.01 617.835L515.757 612.395L518.001 605.717L521.618 594.834C524.736 587.043 528.602 577.398 532.343 569.855C536.085 561.939 539.951 554.273 544.316 546.853C560.903 516.927 581.231 490.71 602.184 466.596C623.136 442.605 645.21 421.088 666.786 401.179C688.487 381.515 709.687 363.213 729.892 346.272C749.846 329.453 768.803 313.501 786.013 298.785C803.099 283.945 818.439 270.095 831.284 257.234C844.005 244.25 854.98 232.626 862.838 221.99C870.694 211.479 876.556 202.699 879.923 196.392C883.415 189.961 885.286 186.499 885.286 186.499C885.286 186.499 884.912 190.456 884.163 197.752C882.916 205.048 881.046 215.931 876.307 229.286C871.567 242.394 864.833 258.224 855.105 275.289C845.626 292.231 833.404 310.657 819.187 329.577C791.002 367.542 754.585 408.104 717.545 450.89C698.962 472.16 680.38 494.172 663.045 516.802C645.709 539.557 629.496 562.93 616.651 587.043C613.408 592.979 610.539 599.039 607.671 605.098C604.803 611.406 603.057 615.857 600.562 622.288L596.696 633.047L595.199 637.25L593.329 642.692C590.959 650.112 588.59 657.283 586.22 664.456C576.367 693.146 566.764 721.589 556.289 748.67C554.293 753.618 552.298 758.687 550.303 763.511C562.649 753.247 575.121 744.096 587.841 736.799L696.218 674.226C770.673 631.067 849.367 527.561 871.068 444.09L925.445 233.986C940.909 174.628 923.075 140.249 884.537 140.249H884.413Z" fill="white" fill-opacity="0.02"/>
</g>
<defs>
<clipPath id="clip0_16_131">
<rect width="649" height="265" rx="20" fill="white"/>
</clipPath>
</defs>
</svg>
