<svg width="570" height="265" viewBox="0 0 570 265" fill="none" xmlns="http://www.w3.org/2000/svg">
<g clip-path="url(#clip0_48_283)">
<rect width="570" height="265" rx="20" fill="#0C0C0C"/>
<path fill-rule="evenodd" clip-rule="evenodd" d="M685.789 399.823V399.699H685.665C683.42 397.722 677.807 381.274 670.698 356.542L669.202 351.347C667.082 343.804 664.837 335.518 662.468 326.862V326.739C659.224 314.62 655.858 301.635 652.49 288.031L646.629 264.289C646.629 264.289 646.005 261.196 645.133 255.508C644.134 249.82 642.888 241.411 640.768 230.9C638.771 220.388 636.651 207.651 633.534 193.306C630.541 178.837 627.299 162.391 623.307 144.83C619.316 127.269 615.076 108.227 610.587 88.0688C610.088 86.3375 609.588 84.4829 609.214 82.7516V82.6283L608.467 79.6602C607.718 76.5688 606.969 73.3528 606.222 70.2614V70.0135H606.097L605.473 67.0467C602.23 53.443 599.113 39.4694 595.62 25.2479C594.623 21.4141 593.625 17.5803 592.628 13.7479V13.3768L591.879 10.7798V10.4087L591.131 7.68844V7.44052L590.382 4.59572V4.4724L589.634 1.50432C586.267 -12.5926 582.9 -27.0619 579.407 -41.53C576.663 -52.9067 573.671 -64.2834 570.678 -75.7846C569.556 -80.7306 568.308 -85.8012 567.186 -90.7485V-90.8718C566.437 -94.0865 565.689 -97.3025 564.94 -100.517L562.695 -110.287C559.828 -121.787 557.084 -133.412 554.215 -144.788L549.351 -162.967C548.229 -167.79 545.485 -176.694 542.866 -183.371C532.266 -210.454 515.304 -233.084 497.345 -250.891C479.137 -268.699 459.931 -282.301 441.723 -293.926C423.639 -305.427 406.178 -314.824 390.09 -323.358C360.782 -338.693 336.089 -351.182 317.881 -360.952V-361.075C316.01 -361.94 314.265 -362.929 312.643 -363.92C295.183 -373.565 284.831 -379.377 283.585 -380.119C283.959 -379.501 285.58 -377.275 288.573 -373.071C292.19 -368.619 297.303 -361.694 304.537 -353.655C311.77 -345.741 320.625 -335.725 331.35 -325.46C342.2 -315.072 354.672 -303.696 368.266 -291.823C381.735 -280.075 396.202 -267.339 411.666 -253.86L413.287 -252.375C421.893 -244.337 430.623 -236.052 438.729 -227.396V-227.025H439.103L439.478 -226.653V-226.282H439.852L440.226 -225.788V-225.54H440.601L440.974 -225.045V-224.799H441.223L441.847 -224.18V-224.056H441.972L442.596 -223.439V-223.314C443.343 -222.573 444.092 -221.707 444.841 -220.842V-220.347H445.215L445.588 -219.976V-219.605H445.963L446.337 -219.234V-218.863H446.587L447.086 -218.368V-218.12H447.21L447.833 -217.502V-217.379C448.831 -216.266 449.828 -215.029 450.827 -213.917V-213.669H450.951L451.575 -212.926C452.199 -212.185 452.697 -211.443 453.321 -210.701C454.569 -209.217 455.691 -207.732 456.814 -206.249C458.06 -204.518 459.307 -202.786 460.555 -201.055V-200.932C461.553 -199.572 462.55 -198.087 463.548 -196.604V-196.479H463.673C464.171 -195.861 464.545 -195.119 465.044 -194.378V-194.253C465.793 -193.141 466.541 -191.904 467.289 -190.667V-190.544H467.414C469.534 -187.082 471.529 -183.494 473.275 -179.785V-179.414H473.525L474.024 -178.302V-177.931H474.273L474.772 -176.694V-176.446H474.897L475.52 -175.086V-174.963H475.645C476.144 -173.849 476.643 -172.612 477.017 -171.5V-171.252H477.142C477.64 -170.015 478.139 -168.903 478.513 -167.666V-167.543H478.638L479.262 -165.564V-165.317H479.387C479.636 -164.698 479.886 -163.956 480.134 -163.338V-162.967C480.384 -162.224 480.633 -161.483 480.883 -160.741C482.254 -156.29 483.003 -153.816 484.499 -147.139L487.992 -130.32C490.237 -118.325 493.23 -106.453 495.848 -94.4576C499.341 -78.2583 503.331 -62.1822 507.821 -46.3527C496.597 -55.2571 485.123 -62.9233 473.774 -68.4883L358.288 -126.61L356.917 -127.352C354.672 -128.466 352.427 -129.701 350.182 -130.938V-131.063H350.057C346.939 -132.917 343.697 -134.895 340.454 -136.997H340.329L338.209 -138.482H338.085L335.964 -139.966C334.219 -141.202 332.473 -142.439 330.726 -143.676H330.601C328.606 -145.159 326.611 -146.643 324.615 -148.128C323.369 -149.117 322.121 -150.105 320.874 -151.096C317.881 -153.445 314.888 -156.042 311.895 -158.515C303.164 -166.058 294.559 -174.343 286.328 -183.125C284.084 -185.597 281.838 -187.947 279.593 -190.544C276.725 -193.759 274.106 -196.85 271.362 -200.19H271.238C265.501 -207.238 260.013 -214.411 254.9 -221.707V-221.831H254.775C252.281 -225.54 249.787 -229.127 247.292 -232.836V-232.961C244.175 -237.907 241.181 -242.853 238.313 -247.8V-247.923C236.442 -251.139 234.696 -254.354 233.075 -257.569L232.327 -259.053L231.578 -260.537C229.957 -263.753 228.461 -266.967 227.089 -270.182C225.093 -274.635 223.347 -279.086 221.851 -283.538V-283.663H221.726C221.352 -285.023 220.853 -286.383 220.354 -287.743L157.872 -482.388C157.373 -483.872 156.874 -485.233 156.5 -486.717V-486.84C156.251 -487.706 156.001 -488.572 155.752 -489.437V-489.808H155.627C155.378 -490.674 155.253 -491.416 155.004 -492.281V-492.776H154.879C154.629 -493.765 154.505 -494.631 154.255 -495.62V-495.744C154.006 -496.981 153.756 -498.217 153.507 -499.33V-499.454C153.258 -501.062 153.008 -502.546 152.759 -504.153V-506.132H152.509C151.636 -514.046 151.886 -520.971 153.258 -527.031H153.507V-528.144C153.632 -528.762 153.881 -529.38 154.006 -529.999H154.255V-530.864C154.879 -532.596 155.502 -534.327 156.375 -535.934H156.5V-536.306C156.75 -536.676 156.874 -537.047 157.124 -537.419H157.248V-537.666C157.623 -538.408 158.121 -539.026 158.496 -539.644H158.745V-540.015C159.618 -541.252 160.491 -542.365 161.489 -543.354H161.738V-543.725L162.237 -544.096H162.486V-544.467L162.985 -544.838H163.235V-545.086L163.858 -545.704H163.983V-545.828C164.981 -546.57 165.978 -547.188 166.976 -547.93C167.849 -548.424 168.722 -548.919 169.595 -549.414H169.969V-549.537C170.468 -549.785 170.842 -549.908 171.216 -550.156H171.466V-550.279C172.089 -550.403 172.588 -550.65 173.212 -550.898H173.836V-551.021C175.457 -551.64 177.078 -552.011 178.949 -552.382H180.57V-552.629C182.566 -552.876 184.686 -553 186.806 -553C190.672 -553 194.912 -552.629 199.277 -551.64H199.776C200.899 -551.392 201.896 -551.145 203.019 -550.898C204.765 -550.403 206.511 -549.908 208.257 -549.414H208.381C209.13 -549.166 209.878 -548.919 210.626 -548.672H210.751C211.375 -548.424 212.123 -548.177 212.871 -547.93C215.365 -547.064 217.735 -546.075 220.354 -544.962V-544.838H220.479C222.35 -544.096 224.22 -543.231 226.216 -542.365L273.607 -519.611L542.367 -390.755L556.585 -383.953C558.83 -382.964 561.199 -381.727 563.444 -380.49V-380.367H563.569L564.94 -379.625C566.188 -378.882 567.436 -378.141 568.682 -377.399C574.793 -373.688 580.905 -369.485 586.641 -364.785C588.511 -363.301 590.257 -361.94 591.879 -360.332H592.004C598.863 -354.398 605.348 -347.967 611.459 -341.042V-340.918C612.956 -339.187 614.452 -337.456 615.949 -335.725C616.947 -334.488 617.944 -333.251 618.942 -332.014H619.067C621.312 -329.171 623.557 -326.202 625.677 -323.111H625.801C628.92 -318.783 631.912 -314.207 634.781 -309.755V-309.632C635.529 -308.395 636.277 -307.282 637.026 -306.045V-305.921C638.024 -304.19 639.021 -302.582 640.019 -300.851V-300.728C643.013 -295.41 645.755 -290.092 648.25 -284.528V-284.404H648.375L648.998 -282.92C649.747 -281.189 650.495 -279.458 651.243 -277.726V-277.603C651.742 -276.49 652.24 -275.253 652.74 -274.016V-273.893C654.112 -270.553 655.359 -267.091 656.482 -263.753V-263.505H656.606L657.229 -261.402V-261.279H657.354C658.103 -258.805 658.851 -256.333 659.474 -253.86C659.724 -252.871 659.973 -252.005 660.223 -251.015V-250.891H660.347C660.472 -249.902 660.722 -248.912 660.971 -248.047V-247.923C661.844 -244.214 662.592 -240.504 663.216 -236.918V-236.67C663.965 -232.713 664.463 -228.756 664.712 -224.922V-224.056H664.837C664.962 -222.448 665.087 -220.842 665.087 -219.357L672.195 -52.9067L686.786 285.188C686.911 289.393 687.161 293.473 687.285 297.553V297.801C687.535 305.963 687.785 314.001 688.034 321.545V322.286C688.783 350.358 688.783 373.607 688.034 387.086V387.457C687.785 391.043 687.535 393.888 687.285 395.989V396.237C687.036 397.474 686.911 398.339 686.663 398.957H686.538V399.451C686.413 399.823 686.164 399.947 686.039 399.947C685.914 399.947 685.914 399.947 685.789 399.823ZM1287.41 -425.751C1271.7 -425.751 1252.62 -420.062 1230.79 -408.068L867.748 -207.363C792.296 -165.812 731.684 -61.1919 733.057 25.0013L741.787 608.938C743.158 695.006 747.273 765 751.139 765C755.006 764.629 771.094 695.006 787.182 610.174L815.119 462.149C815.119 462.149 815.866 458.192 817.114 450.896L826.093 403.41C827.215 397.597 828.588 391.662 830.209 385.726C830.333 385.602 830.333 385.478 830.333 385.355C831.207 381.026 832.329 376.575 833.202 371.999C837.193 353.574 841.558 332.798 847.17 310.415C852.284 287.908 857.895 263.67 864.755 238.32C870.99 212.722 878.099 185.887 885.956 158.309C893.564 130.609 901.67 102.167 910.275 73.3528C912.645 66.3043 914.765 59.1313 917.01 51.835L918.757 46.3945L921.001 39.7173L924.618 28.8338C927.736 21.043 931.602 11.3976 935.343 3.85465C939.085 -4.06076 942.951 -11.7269 947.316 -19.1466C963.903 -49.0729 984.231 -75.2902 1005.18 -99.4036C1026.14 -123.395 1048.21 -144.912 1069.79 -164.821C1091.49 -184.485 1112.69 -202.786 1132.89 -219.728C1152.85 -236.547 1171.8 -252.499 1189.01 -267.215C1206.1 -282.055 1221.44 -295.905 1234.28 -308.766C1247 -321.75 1257.98 -333.374 1265.84 -344.01C1273.69 -354.521 1279.56 -363.301 1282.92 -369.608C1286.41 -376.039 1288.29 -379.501 1288.29 -379.501C1288.29 -379.501 1287.91 -375.544 1287.16 -368.248C1285.92 -360.952 1284.05 -350.069 1279.31 -336.714C1274.57 -323.606 1267.83 -307.776 1258.11 -290.711C1248.63 -273.769 1236.4 -255.343 1222.19 -236.423C1194 -198.458 1157.58 -157.896 1120.54 -115.11C1101.96 -93.8399 1083.38 -71.8276 1066.04 -49.1976C1048.71 -26.4429 1032.5 -3.07045 1019.65 21.043C1016.41 26.9792 1013.54 33.0387 1010.67 39.0982C1007.8 45.4056 1006.06 49.8571 1003.56 56.2878L999.696 67.0467L998.199 71.2504L996.329 76.6921C993.959 84.1117 991.59 91.2834 989.22 98.4565C979.367 127.146 969.764 155.589 959.289 182.671C957.293 187.618 955.298 192.687 953.303 197.511C965.649 187.247 978.121 178.096 990.841 170.799L1099.22 108.226C1173.67 65.0675 1252.37 -38.4387 1274.07 -121.91L1328.44 -332.014C1343.91 -391.372 1326.07 -425.751 1287.54 -425.751H1287.41Z" fill="white" fill-opacity="0.02"/>
</g>
<defs>
<clipPath id="clip0_48_283">
<rect width="570" height="265" rx="20" fill="white"/>
</clipPath>
</defs>
</svg>
