<svg width="570" height="265" viewBox="0 0 570 265" fill="none" xmlns="http://www.w3.org/2000/svg">
<g clip-path="url(#clip0_48_267)">
<rect width="570" height="265" rx="20" fill="#0C0C0C"/>
<path fill-rule="evenodd" clip-rule="evenodd" d="M685.789 684.823V684.699H685.665C683.42 682.721 677.807 666.274 670.698 641.542L669.202 636.347C667.082 628.804 664.837 620.518 662.468 611.862V611.739C659.224 599.62 655.858 586.635 652.49 573.031L646.629 549.289C646.629 549.289 646.005 546.196 645.133 540.508C644.134 534.82 642.888 526.411 640.768 515.9C638.771 505.388 636.651 492.651 633.534 478.306C630.541 463.837 627.299 447.391 623.307 429.83C619.316 412.269 615.076 393.226 610.587 373.069C610.088 371.337 609.588 369.483 609.214 367.752V367.628L608.467 364.66C607.718 361.569 606.969 358.353 606.222 355.261V355.013H606.097L605.473 352.047C602.23 338.443 599.113 324.469 595.62 310.248C594.623 306.414 593.625 302.58 592.628 298.748V298.377L591.879 295.78V295.409L591.131 292.688V292.44L590.382 289.596V289.472L589.634 286.504C586.267 272.407 582.9 257.938 579.407 243.47C576.663 232.093 573.671 220.717 570.678 209.215C569.556 204.269 568.308 199.199 567.186 194.251V194.128C566.437 190.914 565.689 187.697 564.94 184.483L562.695 174.713C559.828 163.213 557.084 151.588 554.215 140.212L549.351 122.033C548.229 117.21 545.485 108.306 542.866 101.629C532.266 74.546 515.304 51.916 497.345 34.1086C479.137 16.3012 459.931 2.69882 441.723 -8.92573C423.639 -20.427 406.178 -29.8245 390.09 -38.3577C360.782 -53.6927 336.089 -66.1816 317.881 -75.9515V-76.0748C316.01 -76.9405 314.265 -77.9294 312.643 -78.9197C295.183 -88.565 284.831 -94.3767 283.585 -95.119C283.959 -94.5013 285.58 -92.2755 288.573 -88.0706C292.19 -83.6191 297.303 -76.6939 304.537 -68.6552C311.77 -60.7411 320.625 -50.7246 331.35 -40.4601C342.2 -30.0724 354.672 -18.6957 368.266 -6.82326C381.735 4.92459 396.202 17.6613 411.666 31.1405L413.287 32.6252C421.893 40.6626 430.623 48.9478 438.729 57.6043V57.9755H439.103L439.478 58.3466V58.7178H439.852L440.226 59.2123V59.4602H440.601L440.974 59.9546V60.2012H441.223L441.847 60.8203V60.9436H441.972L442.596 61.5613V61.6859C443.343 62.427 444.092 63.2926 444.841 64.1583V64.6527H445.215L445.588 65.0239V65.3951H445.963L446.337 65.7662V66.1374H446.587L447.086 66.6319V66.8798H447.21L447.833 67.4975V67.6208C448.831 68.7344 449.828 69.9712 450.827 71.0834V71.3313H450.951L451.575 72.0737C452.199 72.8147 452.697 73.5571 453.321 74.2994C454.569 75.7828 455.691 77.2675 456.814 78.7509C458.06 80.4822 459.307 82.2135 460.555 83.9448V84.0681C461.553 85.4282 462.55 86.9129 463.548 88.3963V88.5209H463.673C464.171 89.1387 464.545 89.881 465.044 90.622V90.7467C465.793 91.8589 466.541 93.0957 467.289 94.3325V94.4558H467.414C469.534 97.9184 471.529 101.506 473.275 105.215V105.586H473.525L474.024 106.698V107.069H474.273L474.772 108.306V108.554H474.897L475.52 109.914V110.037H475.645C476.144 111.151 476.643 112.388 477.017 113.5V113.748H477.142C477.641 114.985 478.139 116.097 478.513 117.334V117.457H478.638L479.262 119.436V119.683H479.387C479.636 120.302 479.886 121.044 480.134 121.662V122.033C480.384 122.775 480.633 123.517 480.883 124.259C482.254 128.71 483.003 131.184 484.499 137.861L487.992 154.68C490.237 166.675 493.23 178.547 495.849 190.542C499.341 206.742 503.331 222.818 507.821 238.647C496.597 229.743 485.123 222.077 473.774 216.512L358.288 158.39L356.917 157.648C354.672 156.534 352.427 155.299 350.182 154.062V153.937H350.057C346.939 152.083 343.697 150.105 340.454 148.003H340.329L338.209 146.518H338.085L335.964 145.034C334.219 143.798 332.473 142.561 330.726 141.324H330.601C328.606 139.84 326.611 138.357 324.615 136.872C323.369 135.883 322.121 134.895 320.874 133.904C317.881 131.555 314.888 128.958 311.895 126.485C303.164 118.942 294.559 110.656 286.328 101.875C284.084 99.4031 281.838 97.0527 279.594 94.4558C276.725 91.2411 274.106 88.1497 271.362 84.8104H271.238C265.501 77.762 260.013 70.5889 254.9 63.2926V63.1693H254.775C252.281 59.4602 249.787 55.873 247.292 52.1638V52.0392C244.174 47.0933 241.181 42.1473 238.313 37.2V37.0767C236.442 33.8607 234.696 30.646 233.075 27.4313L232.327 25.9466L231.578 24.4632C229.957 21.2472 228.461 18.0325 227.089 14.8178C225.093 10.365 223.347 5.91351 221.851 1.462V1.33737H221.726C221.352 -0.0227373 220.853 -1.38282 220.354 -2.74293L157.872 -197.388C157.373 -198.872 156.874 -200.233 156.5 -201.717V-201.84C156.251 -202.706 156.001 -203.572 155.752 -204.437V-204.808H155.627C155.378 -205.674 155.253 -206.416 155.004 -207.281V-207.776H154.879C154.629 -208.765 154.505 -209.631 154.255 -210.62V-210.744C154.006 -211.981 153.756 -213.217 153.507 -214.33V-214.454C153.258 -216.062 153.008 -217.546 152.759 -219.153V-221.132H152.509C151.636 -229.046 151.886 -235.971 153.258 -242.031H153.507V-243.144C153.632 -243.762 153.881 -244.38 154.006 -244.999H154.255V-245.864C154.879 -247.596 155.502 -249.327 156.375 -250.934H156.5V-251.306C156.75 -251.676 156.874 -252.047 157.124 -252.419H157.248V-252.666C157.623 -253.408 158.121 -254.026 158.496 -254.644H158.745V-255.015C159.618 -256.252 160.491 -257.365 161.489 -258.354H161.738V-258.725L162.237 -259.096H162.486V-259.467L162.985 -259.838H163.235V-260.086L163.858 -260.704H163.983V-260.828C164.981 -261.57 165.978 -262.188 166.976 -262.93C167.849 -263.424 168.722 -263.919 169.595 -264.414H169.969V-264.537C170.468 -264.785 170.842 -264.908 171.216 -265.156H171.466V-265.279C172.089 -265.403 172.588 -265.65 173.212 -265.898H173.836V-266.021C175.457 -266.64 177.078 -267.011 178.949 -267.382H180.57V-267.629C182.566 -267.876 184.686 -268 186.806 -268C190.672 -268 194.912 -267.629 199.277 -266.64H199.776C200.899 -266.392 201.896 -266.145 203.019 -265.898C204.765 -265.403 206.511 -264.908 208.257 -264.414H208.381C209.13 -264.166 209.878 -263.919 210.626 -263.672H210.751C211.375 -263.424 212.123 -263.177 212.871 -262.93C215.365 -262.064 217.735 -261.075 220.354 -259.962V-259.838H220.479C222.35 -259.096 224.22 -258.231 226.216 -257.365L273.607 -234.611L542.367 -105.755L556.585 -98.9528C558.83 -97.9638 561.199 -96.727 563.444 -95.4902V-95.3669H563.569L564.94 -94.6245C566.188 -93.8822 567.436 -93.1411 568.682 -92.3988C574.793 -88.6883 580.905 -84.4847 586.641 -79.7853C588.511 -78.3006 590.257 -76.9405 591.879 -75.3325H592.004C598.863 -69.3976 605.348 -62.9669 611.459 -56.0417V-55.9184C612.956 -54.1872 614.452 -52.4559 615.949 -50.7246C616.947 -49.4877 617.944 -48.2509 618.942 -47.0141H619.067C621.312 -44.1706 623.557 -41.2025 625.677 -38.1111H625.801C628.92 -33.7829 631.912 -29.2067 634.781 -24.7552V-24.632C635.529 -23.3951 636.277 -22.2816 637.026 -21.0447V-20.9215C638.024 -19.1902 639.021 -17.5822 640.019 -15.8509V-15.7276C643.013 -10.4105 645.755 -5.092 648.25 0.471725V0.596356H648.375L648.998 2.07977C649.747 3.81105 650.495 5.54233 651.243 7.27362V7.39688C651.742 8.51041 652.24 9.74727 652.74 10.9841V11.1074C654.112 14.4467 655.359 17.9093 656.482 21.2472V21.4951H656.606L657.229 23.5976V23.7209H657.354C658.103 26.1945 658.851 28.6668 659.474 31.1405C659.724 32.1294 659.973 32.995 660.223 33.9853V34.1086H660.347C660.472 35.0975 660.722 36.0878 660.971 36.9534V37.0767C661.844 40.7858 662.592 44.4963 663.216 48.0822V48.3301C663.965 52.2871 664.463 56.2442 664.712 60.0779V60.9436H664.837C664.962 62.5516 665.087 64.1583 665.087 65.643L672.195 232.093L686.786 570.188C686.911 574.393 687.161 578.473 687.285 582.553V582.801C687.535 590.963 687.785 599.001 688.034 606.545V607.286C688.783 635.358 688.783 658.607 688.034 672.086V672.457C687.785 676.043 687.535 678.888 687.285 680.989V681.237C687.036 682.474 686.911 683.339 686.663 683.957H686.538V684.451C686.413 684.823 686.164 684.947 686.039 684.947C685.914 684.947 685.914 684.947 685.789 684.823ZM1287.41 -140.751C1271.7 -140.751 1252.62 -135.062 1230.79 -123.068L867.748 77.6374C792.296 119.188 731.684 223.808 733.057 310.001L741.787 893.937C743.158 980.006 747.273 1050 751.139 1050C755.006 1049.63 771.094 980.006 787.182 895.174L815.119 747.149C815.119 747.149 815.866 743.192 817.114 735.896L826.093 688.41C827.215 682.597 828.588 676.662 830.209 670.726C830.333 670.602 830.333 670.478 830.333 670.355C831.207 666.026 832.329 661.575 833.202 656.999C837.193 638.574 841.558 617.798 847.17 595.415C852.284 572.908 857.895 548.67 864.755 523.32C870.99 497.721 878.099 470.887 885.956 443.309C893.563 415.609 901.67 387.167 910.275 358.353C912.645 351.304 914.765 344.131 917.01 336.835L918.757 331.395L921.001 324.717L924.618 313.834C927.736 306.043 931.602 296.398 935.343 288.855C939.085 280.939 942.951 273.273 947.316 265.853C963.903 235.927 984.231 209.71 1005.18 185.596C1026.14 161.605 1048.21 140.088 1069.79 120.179C1091.49 100.515 1112.69 82.2135 1132.89 65.2718C1152.85 48.4534 1171.8 32.5006 1189.01 17.7846C1206.1 2.9454 1221.44 -10.9049 1234.28 -23.7663C1247 -36.7497 1257.98 -48.3742 1265.84 -59.0098C1273.69 -69.5208 1279.56 -78.3006 1282.92 -84.608C1286.41 -91.0387 1288.29 -94.5013 1288.29 -94.5013C1288.29 -94.5013 1287.91 -90.5442 1287.16 -83.2479C1285.92 -75.9515 1284.05 -65.0694 1279.31 -51.7135C1274.57 -38.6056 1267.83 -22.776 1258.11 -5.71106C1248.63 11.2307 1236.4 29.6571 1222.19 48.5767C1194 86.5417 1157.58 127.104 1120.54 169.89C1101.96 191.16 1083.38 213.172 1066.04 235.802C1048.71 258.557 1032.5 281.93 1019.65 306.043C1016.41 311.979 1013.54 318.039 1010.67 324.098C1007.8 330.406 1006.06 334.857 1003.56 341.288L999.696 352.047L998.199 356.25L996.329 361.692C993.959 369.112 991.59 376.283 989.22 383.456C979.367 412.146 969.764 440.589 959.289 467.67C957.293 472.618 955.298 477.687 953.303 482.511C965.649 472.247 978.121 463.096 990.841 455.799L1099.22 393.226C1173.67 350.067 1252.37 246.561 1274.07 163.09L1328.44 -47.0141C1343.91 -106.372 1326.07 -140.751 1287.54 -140.751H1287.41Z" fill="white" fill-opacity="0.02"/>
</g>
<defs>
<clipPath id="clip0_48_267">
<rect width="570" height="265" rx="20" fill="white"/>
</clipPath>
</defs>
</svg>
