<svg width="649" height="265" viewBox="0 0 649 265" fill="none" xmlns="http://www.w3.org/2000/svg">
<g clip-path="url(#clip0_16_159)">
<rect width="649" height="265" rx="20" fill="#0C0C0C"/>
<path fill-rule="evenodd" clip-rule="evenodd" d="M282.789 681.823V681.699H282.665C280.42 679.721 274.807 663.274 267.698 638.542L266.202 633.347C264.082 625.804 261.837 617.518 259.468 608.862V608.739C256.224 596.62 252.858 583.635 249.49 570.031L243.629 546.289C243.629 546.289 243.005 543.196 242.133 537.508C241.134 531.82 239.888 523.411 237.768 512.9C235.771 502.388 233.651 489.651 230.534 475.306C227.541 460.837 224.299 444.391 220.307 426.83C216.316 409.269 212.076 390.226 207.587 370.069C207.088 368.337 206.588 366.483 206.214 364.752V364.628L205.467 361.66C204.718 358.569 203.969 355.353 203.222 352.261V352.013H203.097L202.473 349.047C199.23 335.443 196.113 321.469 192.62 307.248C191.623 303.414 190.625 299.58 189.628 295.748V295.377L188.879 292.78V292.409L188.131 289.688V289.44L187.382 286.596V286.472L186.634 283.504C183.267 269.407 179.9 254.938 176.407 240.47C173.663 229.093 170.671 217.717 167.678 206.215C166.556 201.269 165.308 196.199 164.186 191.251V191.128C163.437 187.914 162.689 184.697 161.94 181.483L159.695 171.713C156.828 160.213 154.084 148.588 151.215 137.212L146.351 119.033C145.229 114.21 142.485 105.306 139.866 98.6289C129.266 71.546 112.304 48.916 94.3448 31.1086C76.1368 13.3012 56.9313 -0.301176 38.7233 -11.9257C20.639 -23.427 3.17843 -32.8245 -12.9095 -41.3577C-42.2179 -56.6927 -66.911 -69.1816 -85.119 -78.9515V-79.0748C-86.9904 -79.9405 -88.7354 -80.9294 -90.3567 -81.9197C-107.817 -91.565 -118.169 -97.3767 -119.415 -98.119C-119.041 -97.5013 -117.42 -95.2755 -114.427 -91.0706C-110.81 -86.6191 -105.697 -79.6939 -98.4631 -71.6552C-91.2305 -63.7411 -82.3752 -53.7246 -71.6499 -43.4601C-60.7996 -33.0724 -48.328 -21.6957 -34.7338 -9.82326C-21.2647 1.92459 -6.79807 14.6613 8.66609 28.1405L10.2874 29.6252C18.8926 37.6626 27.6229 45.9478 35.7294 54.6043V54.9755H36.1031L36.4782 55.3466V55.7178H36.8519L37.2257 56.2123V56.4602H37.6007L37.9745 56.9546V57.2012H38.2232L38.847 57.8203V57.9436H38.972L39.5957 58.5613V58.6859C40.3432 59.427 41.092 60.2926 41.8408 61.1583V61.6527H42.2146L42.5883 62.0239V62.3951H42.9634L43.3371 62.7662V63.1374H43.5872L44.0859 63.6319V63.8798H44.2096L44.8334 64.4975V64.6208C45.8309 65.7344 46.8284 66.9712 47.8273 68.0834V68.3313H47.9509L48.5747 69.0737C49.1985 69.8147 49.6973 70.5571 50.321 71.2994C51.5686 72.7828 52.6911 74.2675 53.8137 75.7509C55.0599 77.4822 56.3075 79.2135 57.555 80.9448V81.0681C58.5525 82.4282 59.5501 83.9129 60.5476 85.3963V85.5209H60.6726C61.1714 86.1387 61.5451 86.881 62.0439 87.622V87.7467C62.7927 88.8589 63.5415 90.0957 64.2889 91.3325V91.4558H64.414C66.534 94.9184 68.529 98.5056 70.2754 102.215V102.586H70.5254L71.0242 103.698V104.069H71.2729L71.7716 105.306V105.554H71.8967L72.5204 106.914V107.037H72.6454C73.1442 108.151 73.643 109.388 74.0167 110.5V110.748H74.1417C74.6405 111.985 75.1392 113.097 75.513 114.334V114.457H75.638L76.2618 116.436V116.683H76.3868C76.6355 117.302 76.8856 118.044 77.1343 118.662V119.033C77.3843 119.775 77.633 120.517 77.8831 121.259C79.2543 125.71 80.0031 128.184 81.4994 134.861L84.9921 151.68C87.2371 163.675 90.2297 175.547 92.8485 187.542C96.3411 203.742 100.331 219.818 104.821 235.647C93.5973 226.743 82.1232 219.077 70.7741 213.512L-44.7117 155.39L-46.0829 154.648C-48.328 153.534 -50.5731 152.299 -52.8181 151.062V150.937H-52.9432C-56.0607 149.083 -59.3033 147.105 -62.5459 145.003H-62.6709L-64.791 143.518H-64.9147L-67.0361 142.034C-68.781 140.798 -70.5274 139.561 -72.2737 138.324H-72.3987C-74.3937 136.84 -76.3888 135.357 -78.3851 133.872C-79.6314 132.883 -80.8789 131.895 -82.1265 130.904C-85.119 128.555 -88.1116 125.958 -91.1055 123.485C-99.8357 115.942 -108.441 107.656 -116.672 98.8754C-118.916 96.4031 -121.162 94.0527 -123.406 91.4558C-126.275 88.2411 -128.894 85.1497 -131.638 81.8104H-131.762C-137.499 74.762 -142.987 67.5889 -148.1 60.2926V60.1693H-148.225C-150.719 56.4602 -153.213 52.873 -155.708 49.1638V49.0392C-158.826 44.0933 -161.819 39.1473 -164.687 34.2V34.0767C-166.558 30.8607 -168.304 27.646 -169.925 24.4313L-170.673 22.9466L-171.422 21.4632C-173.043 18.2472 -174.539 15.0325 -175.911 11.8178C-177.907 7.36501 -179.653 2.91351 -181.149 -1.538V-1.66263H-181.274C-181.648 -3.02274 -182.147 -4.38282 -182.646 -5.74293L-245.128 -200.388C-245.627 -201.872 -246.126 -203.233 -246.5 -204.717V-204.84C-246.749 -205.706 -246.999 -206.572 -247.248 -207.437V-207.808H-247.373C-247.622 -208.674 -247.747 -209.416 -247.996 -210.281V-210.776H-248.121C-248.371 -211.765 -248.495 -212.631 -248.745 -213.62V-213.744C-248.994 -214.981 -249.244 -216.217 -249.493 -217.33V-217.454C-249.742 -219.062 -249.992 -220.546 -250.241 -222.153V-224.132H-250.491C-251.364 -232.046 -251.114 -238.971 -249.742 -245.031H-249.493V-246.144C-249.368 -246.762 -249.119 -247.38 -248.994 -247.999H-248.745V-248.864C-248.121 -250.596 -247.498 -252.327 -246.625 -253.934H-246.5V-254.306C-246.25 -254.676 -246.126 -255.047 -245.876 -255.419H-245.752V-255.666C-245.377 -256.408 -244.879 -257.026 -244.504 -257.644H-244.255V-258.015C-243.382 -259.252 -242.509 -260.365 -241.511 -261.354H-241.262V-261.725L-240.763 -262.096H-240.514V-262.467L-240.015 -262.838H-239.765V-263.086L-239.142 -263.704H-239.017V-263.828C-238.019 -264.57 -237.022 -265.188 -236.024 -265.93C-235.151 -266.424 -234.278 -266.919 -233.405 -267.414H-233.031V-267.537C-232.532 -267.785 -232.158 -267.908 -231.784 -268.156H-231.534V-268.279C-230.911 -268.403 -230.412 -268.65 -229.788 -268.898H-229.164V-269.021C-227.543 -269.64 -225.922 -270.011 -224.051 -270.382H-222.43V-270.629C-220.434 -270.876 -218.314 -271 -216.194 -271C-212.328 -271 -208.088 -270.629 -203.723 -269.64H-203.224C-202.101 -269.392 -201.104 -269.145 -199.981 -268.898C-198.235 -268.403 -196.489 -267.908 -194.743 -267.414H-194.619C-193.87 -267.166 -193.122 -266.919 -192.374 -266.672H-192.249C-191.625 -266.424 -190.877 -266.177 -190.129 -265.93C-187.635 -265.064 -185.265 -264.075 -182.646 -262.962V-262.838H-182.521C-180.65 -262.096 -178.78 -261.231 -176.784 -260.365L-129.393 -237.611L139.367 -108.755L153.585 -101.953C155.83 -100.964 158.199 -99.727 160.444 -98.4902V-98.3669H160.569L161.94 -97.6245C163.188 -96.8822 164.436 -96.1411 165.682 -95.3988C171.793 -91.6883 177.905 -87.4847 183.641 -82.7853C185.511 -81.3006 187.257 -79.9405 188.879 -78.3325H189.004C195.863 -72.3976 202.348 -65.9669 208.459 -59.0417V-58.9184C209.956 -57.1872 211.452 -55.4559 212.949 -53.7246C213.947 -52.4877 214.944 -51.2509 215.942 -50.0141H216.067C218.312 -47.1706 220.557 -44.2025 222.677 -41.1111H222.801C225.92 -36.7829 228.912 -32.2067 231.781 -27.7552V-27.632C232.529 -26.3951 233.277 -25.2816 234.026 -24.0447V-23.9215C235.024 -22.1902 236.021 -20.5822 237.019 -18.8509V-18.7276C240.013 -13.4105 242.755 -8.092 245.25 -2.52827V-2.40364H245.375L245.998 -0.920234C246.747 0.811055 247.495 2.54233 248.243 4.27362V4.39688C248.742 5.51041 249.24 6.74727 249.74 7.98409V8.10737C251.112 11.4467 252.359 14.9093 253.482 18.2472V18.4951H253.606L254.229 20.5976V20.7209H254.354C255.103 23.1945 255.851 25.6668 256.474 28.1405C256.724 29.1294 256.973 29.995 257.223 30.9853V31.1086H257.347C257.472 32.0975 257.722 33.0878 257.971 33.9534V34.0767C258.844 37.7858 259.592 41.4963 260.216 45.0822V45.3301C260.965 49.2871 261.463 53.2442 261.712 57.0779V57.9436H261.837C261.962 59.5516 262.087 61.1583 262.087 62.643L269.195 229.093L283.786 567.188C283.911 571.393 284.161 575.473 284.285 579.553V579.801C284.535 587.963 284.785 596.001 285.034 603.545V604.286C285.783 632.358 285.783 655.607 285.034 669.086V669.457C284.785 673.043 284.535 675.888 284.285 677.989V678.237C284.036 679.474 283.911 680.339 283.663 680.957H283.538V681.451C283.413 681.823 283.164 681.947 283.039 681.947C282.914 681.947 282.914 681.947 282.789 681.823ZM884.413 -143.751C868.699 -143.751 849.617 -138.062 827.792 -126.068L464.748 74.6374C389.296 116.188 328.684 220.808 330.057 307.001L338.787 890.937C340.158 977.006 344.273 1047 348.139 1047C352.006 1046.63 368.094 977.006 384.182 892.174L412.119 744.149C412.119 744.149 412.866 740.192 414.114 732.896L423.093 685.41C424.215 679.597 425.588 673.662 427.209 667.726C427.333 667.602 427.333 667.478 427.333 667.355C428.207 663.026 429.329 658.575 430.202 653.999C434.193 635.574 438.558 614.798 444.17 592.415C449.284 569.908 454.895 545.67 461.755 520.32C467.99 494.721 475.099 467.887 482.956 440.309C490.563 412.609 498.67 384.167 507.275 355.353C509.645 348.304 511.765 341.131 514.01 333.835L515.757 328.395L518.001 321.717L521.618 310.834C524.736 303.043 528.602 293.398 532.343 285.855C536.085 277.939 539.951 270.273 544.316 262.853C560.903 232.927 581.231 206.71 602.184 182.596C623.136 158.605 645.21 137.088 666.786 117.179C688.487 97.5153 709.687 79.2135 729.892 62.2718C749.846 45.4534 768.803 29.5006 786.013 14.7846C803.099 -0.0546042 818.439 -13.9049 831.284 -26.7663C844.005 -39.7497 854.98 -51.3742 862.838 -62.0098C870.694 -72.5208 876.556 -81.3006 879.923 -87.608C883.415 -94.0387 885.286 -97.5013 885.286 -97.5013C885.286 -97.5013 884.912 -93.5442 884.163 -86.2479C882.916 -78.9515 881.046 -68.0694 876.307 -54.7135C871.567 -41.6056 864.833 -25.776 855.105 -8.71106C845.626 8.23065 833.404 26.6571 819.187 45.5767C791.002 83.5417 754.585 124.104 717.545 166.89C698.962 188.16 680.38 210.172 663.045 232.802C645.709 255.557 629.496 278.93 616.651 303.043C613.408 308.979 610.539 315.039 607.671 321.098C604.803 327.406 603.057 331.857 600.562 338.288L596.696 349.047L595.199 353.25L593.329 358.692C590.959 366.112 588.59 373.283 586.22 380.456C576.367 409.146 566.764 437.589 556.289 464.67C554.293 469.618 552.298 474.687 550.303 479.511C562.649 469.247 575.121 460.096 587.841 452.799L696.218 390.226C770.673 347.067 849.367 243.561 871.068 160.09L925.445 -50.0141C940.909 -109.372 923.075 -143.751 884.537 -143.751H884.413Z" fill="white" fill-opacity="0.02"/>
</g>
<defs>
<clipPath id="clip0_16_159">
<rect width="649" height="265" rx="20" fill="white"/>
</clipPath>
</defs>
</svg>
