<svg width="300" height="191" viewBox="0 0 300 191" fill="none" xmlns="http://www.w3.org/2000/svg">
<g clip-path="url(#clip0_73_149)">
<rect y="0.895264" width="300" height="190" rx="15" fill="#0C0C0C"/>
<path fill-rule="evenodd" clip-rule="evenodd" d="M253.789 713.613V713.49H253.665C251.42 711.512 245.807 695.065 238.698 670.332L237.202 665.137C235.082 657.594 232.837 649.309 230.468 640.652V640.529C227.224 628.41 223.858 615.425 220.49 601.822L214.629 578.08C214.629 578.08 214.005 574.987 213.133 569.298C212.134 563.61 210.888 555.202 208.768 544.691C206.771 534.178 204.651 521.441 201.534 507.097C198.541 492.627 195.299 476.181 191.307 458.621C187.316 441.06 183.076 422.017 178.587 401.859C178.088 400.128 177.588 398.273 177.214 396.542V396.419L176.467 393.451C175.718 390.359 174.969 387.143 174.222 384.052V383.804H174.097L173.473 380.837C170.23 367.233 167.113 353.26 163.62 339.038C162.623 335.205 161.625 331.371 160.628 327.538V327.167L159.879 324.57V324.199L159.131 321.479V321.231L158.382 318.386V318.263L157.634 315.295C154.267 301.198 150.9 286.729 147.407 272.26C144.663 260.884 141.671 249.507 138.678 238.006C137.556 233.06 136.308 227.989 135.186 223.042V222.919C134.437 219.704 133.689 216.488 132.94 213.273L130.695 203.503C127.828 192.003 125.084 180.379 122.215 169.002L117.351 150.824C116.229 146.001 113.485 137.097 110.866 130.419C100.266 103.337 83.304 80.7065 65.3448 62.8991C47.1368 45.0918 27.9313 31.4894 9.72326 19.8648C-8.36104 8.36352 -25.8216 -1.03397 -41.9095 -9.56713C-71.2179 -24.9022 -95.911 -37.391 -114.119 -47.161V-47.2843C-115.99 -48.1499 -117.735 -49.1389 -119.357 -50.1291C-136.817 -59.7745 -147.169 -65.5861 -148.415 -66.3285C-148.041 -65.7107 -146.42 -63.485 -143.427 -59.28C-139.81 -54.8285 -134.697 -47.9034 -127.463 -39.8647C-120.23 -31.9506 -111.375 -21.9341 -100.65 -11.6696C-89.7996 -1.28187 -77.328 10.0948 -63.7338 21.9673C-50.2647 33.7151 -35.7981 46.4519 -20.3339 59.931L-18.7126 61.4157C-10.1074 69.4531 -1.3771 77.7384 6.72938 86.3948V86.766H7.10311L7.47818 87.1372V87.5083H7.85192L8.22565 88.0028V88.2507H8.60072L8.97446 88.7452V88.9917H9.22315L9.84697 89.6108V89.7341H9.97198L10.5957 90.3518V90.4765C11.3432 91.2175 12.092 92.0831 12.8408 92.9488V93.4432H13.2146L13.5883 93.8144V94.1856H13.9634L14.3371 94.5568V94.928H14.5872L15.0859 95.4224V95.6703H15.2096L15.8334 96.2881V96.4113C16.8309 97.5249 17.8284 98.7617 18.8273 99.8739V100.122H18.9509L19.5747 100.864C20.1985 101.605 20.6973 102.348 21.321 103.09C22.5686 104.573 23.6911 106.058 24.8137 107.541C26.0599 109.273 27.3075 111.004 28.555 112.735V112.859C29.5525 114.219 30.5501 115.703 31.5476 117.187V117.311H31.6726C32.1714 117.929 32.5451 118.672 33.0439 119.413V119.537C33.7927 120.649 34.5415 121.886 35.2889 123.123V123.246H35.414C37.534 126.709 39.529 130.296 41.2754 134.005V134.376H41.5254L42.0242 135.489V135.86H42.2729L42.7716 137.097V137.345H42.8967L43.5204 138.705V138.828H43.6454C44.1442 139.941 44.643 141.178 45.0167 142.291V142.538H45.1417C45.6405 143.775 46.1392 144.887 46.513 146.124V146.248H46.638L47.2618 148.227V148.473H47.3868C47.6355 149.092 47.8856 149.835 48.1343 150.452V150.824C48.3843 151.566 48.633 152.307 48.8831 153.049C50.2543 157.501 51.0031 159.975 52.4994 166.652L55.9921 183.47C58.2371 195.466 61.2297 207.337 63.8485 219.333C67.3411 235.532 71.3312 251.608 75.8214 267.438C64.5973 258.533 53.1232 250.867 41.7741 245.302L-73.7117 187.181L-75.0829 186.438C-77.328 185.325 -79.5731 184.089 -81.8181 182.853V182.728H-81.9432C-85.0607 180.873 -88.3033 178.895 -91.5459 176.793H-91.6709L-93.791 175.308H-93.9147L-96.0361 173.825C-97.781 172.588 -99.5274 171.351 -101.274 170.114H-101.399C-103.394 168.631 -105.389 167.148 -107.385 165.663C-108.631 164.674 -109.879 163.685 -111.126 162.695C-114.119 160.346 -117.112 157.749 -120.105 155.275C-128.836 147.732 -137.441 139.447 -145.672 130.666C-147.916 128.194 -150.162 125.843 -152.406 123.246C-155.275 120.032 -157.894 116.94 -160.638 113.601H-160.762C-166.499 106.553 -171.987 99.3795 -177.1 92.0831V91.9598H-177.225C-179.719 88.2507 -182.213 84.6635 -184.708 80.9544V80.8298C-187.826 75.8838 -190.819 70.9378 -193.687 65.9905V65.8672C-195.558 62.6512 -197.304 59.4365 -198.925 56.2219L-199.673 54.7371L-200.422 53.2537C-202.043 50.0377 -203.539 46.8231 -204.911 43.6084C-206.907 39.1555 -208.653 34.704 -210.149 30.2525V30.1279H-210.274C-210.648 28.7678 -211.147 27.4077 -211.646 26.0476L-274.128 -168.598C-274.627 -170.082 -275.126 -171.442 -275.5 -172.926V-173.05C-275.749 -173.915 -275.999 -174.781 -276.248 -175.647V-176.018H-276.373C-276.622 -176.883 -276.747 -177.625 -276.996 -178.491V-178.986H-277.121C-277.371 -179.975 -277.495 -180.841 -277.745 -181.83V-181.954C-277.994 -183.19 -278.244 -184.427 -278.493 -185.54V-185.663C-278.742 -187.271 -278.992 -188.755 -279.241 -190.363V-192.341H-279.491C-280.364 -200.256 -280.114 -207.181 -278.742 -213.24H-278.493V-214.353C-278.368 -214.972 -278.119 -215.59 -277.994 -216.208H-277.745V-217.074C-277.121 -218.805 -276.498 -220.536 -275.625 -222.144H-275.5V-222.515C-275.25 -222.886 -275.126 -223.257 -274.876 -223.628H-274.752V-223.875C-274.377 -224.617 -273.879 -225.236 -273.504 -225.854H-273.255V-226.225C-272.382 -227.461 -271.509 -228.574 -270.511 -229.564H-270.262V-229.935L-269.763 -230.306H-269.514V-230.677L-269.015 -231.048H-268.765V-231.295L-268.142 -231.913H-268.017V-232.037C-267.019 -232.779 -266.022 -233.397 -265.024 -234.139C-264.151 -234.634 -263.278 -235.129 -262.405 -235.623H-262.031V-235.747C-261.532 -235.994 -261.158 -236.118 -260.784 -236.365H-260.534V-236.489C-259.911 -236.613 -259.412 -236.86 -258.788 -237.107H-258.164V-237.231C-256.543 -237.849 -254.922 -238.22 -253.051 -238.591H-251.43V-238.838C-249.434 -239.086 -247.314 -239.209 -245.194 -239.209C-241.328 -239.209 -237.088 -238.838 -232.723 -237.849H-232.224C-231.101 -237.602 -230.104 -237.355 -228.981 -237.107C-227.235 -236.613 -225.489 -236.118 -223.743 -235.623H-223.619C-222.87 -235.376 -222.122 -235.129 -221.374 -234.881H-221.249C-220.625 -234.634 -219.877 -234.387 -219.129 -234.139C-216.635 -233.274 -214.265 -232.284 -211.646 -231.171V-231.048H-211.521C-209.65 -230.306 -207.78 -229.44 -205.784 -228.574L-158.393 -205.821L110.367 -76.9641L124.585 -70.1622C126.83 -69.1733 129.199 -67.9365 131.444 -66.6997V-66.5764H131.569L132.94 -65.834C134.188 -65.0916 135.436 -64.3506 136.682 -63.6083C142.793 -59.8978 148.905 -55.6942 154.641 -50.9948C156.511 -49.5101 158.257 -48.1499 159.879 -46.5419H160.004C166.863 -40.607 173.348 -34.1764 179.459 -27.2512V-27.1279C180.956 -25.3966 182.452 -23.6653 183.949 -21.934C184.947 -20.6972 185.944 -19.4604 186.942 -18.2236H187.067C189.312 -15.3801 191.557 -12.412 193.677 -9.32057H193.801C196.92 -4.99235 199.912 -0.416216 202.781 4.03529V4.15857C203.529 5.39539 204.277 6.50896 205.026 7.74579V7.86904C206.024 9.60033 207.021 11.2084 208.019 12.9396V13.0629C211.013 18.38 213.755 23.6985 216.25 29.2623V29.3869H216.375L216.998 30.8703C217.747 32.6016 218.495 34.3329 219.243 36.0641V36.1874C219.742 37.3009 220.24 38.5378 220.74 39.7746V39.8979C222.112 43.2372 223.359 46.6998 224.482 50.0378V50.2856H224.606L225.229 52.3881V52.5114H225.354C226.103 54.985 226.851 57.4574 227.474 59.931C227.724 60.9199 227.973 61.7856 228.223 62.7758V62.8991H228.347C228.472 63.8881 228.722 64.8783 228.971 65.744V65.8672C229.844 69.5764 230.592 73.2868 231.216 76.8727V77.1206C231.965 81.0777 232.463 85.0347 232.712 88.8685V89.7341H232.837C232.962 91.3421 233.087 92.9488 233.087 94.4335L240.195 260.884L254.786 598.978C254.911 603.183 255.161 607.264 255.285 611.344V611.592C255.535 619.754 255.785 627.791 256.034 635.335V636.076C256.783 664.148 256.783 687.397 256.034 700.876V701.248C255.785 704.833 255.535 707.678 255.285 709.779V710.027C255.036 711.264 254.911 712.13 254.663 712.748H254.538V713.242C254.413 713.613 254.164 713.738 254.039 713.738C253.914 713.738 253.914 713.738 253.789 713.613ZM855.413 -111.96C839.699 -111.96 820.617 -106.271 798.792 -94.277L435.748 106.428C360.296 147.979 299.684 252.599 301.057 338.792L309.787 922.728C311.158 1008.8 315.273 1078.79 319.139 1078.79C323.006 1078.42 339.094 1008.8 355.182 923.965L383.119 775.94C383.119 775.94 383.866 771.983 385.114 764.686L394.093 717.2C395.215 711.387 396.588 705.452 398.209 699.516C398.333 699.393 398.333 699.268 398.333 699.145C399.207 694.817 400.329 690.365 401.202 685.789C405.193 667.364 409.558 646.589 415.17 624.205C420.284 601.698 425.895 577.46 432.755 552.11C438.99 526.512 446.099 499.677 453.956 472.1C461.563 444.399 469.67 415.957 478.275 387.143C480.645 380.095 482.765 372.922 485.01 365.625L486.757 360.185L489.001 353.508L492.618 342.624C495.736 334.833 499.602 325.188 503.343 317.645C507.085 309.73 510.951 302.064 515.316 294.644C531.903 264.718 552.231 238.5 573.184 214.387C594.136 190.395 616.21 168.879 637.786 148.969C659.487 129.306 680.687 111.004 700.892 94.0623C720.846 77.2439 739.803 61.2911 757.013 46.5752C774.099 31.7359 789.439 17.8856 802.284 5.02421C815.005 -7.95913 825.98 -19.5837 833.838 -30.2193C841.694 -40.7303 847.556 -49.5101 850.923 -55.8175C854.415 -62.2481 856.286 -65.7107 856.286 -65.7107C856.286 -65.7107 855.912 -61.7537 855.163 -54.4573C853.916 -47.161 852.046 -36.2788 847.307 -22.923C842.567 -9.81504 835.833 6.01448 826.105 23.0795C816.626 40.0212 804.404 58.4476 790.187 77.3672C762.002 115.332 725.585 155.894 688.545 198.681C669.962 219.951 651.38 241.963 634.045 264.593C616.709 287.348 600.496 310.72 587.651 334.833C584.408 340.77 581.539 346.829 578.671 352.889C575.803 359.196 574.057 363.648 571.562 370.078L567.696 380.837L566.199 385.041L564.329 390.483C561.959 397.902 559.59 405.074 557.22 412.247C547.367 440.937 537.764 469.379 527.289 496.461C525.293 501.408 523.298 506.478 521.303 511.302C533.649 501.037 546.121 491.886 558.841 484.59L667.218 422.017C741.673 378.858 820.367 275.352 842.068 191.88L896.445 -18.2236C911.909 -77.5819 894.075 -111.96 855.537 -111.96H855.413Z" fill="white" fill-opacity="0.02"/>
</g>
<defs>
<clipPath id="clip0_73_149">
<rect y="0.895264" width="300" height="190" rx="15" fill="white"/>
</clipPath>
</defs>
</svg>
