<svg width="570" height="265" viewBox="0 0 570 265" fill="none" xmlns="http://www.w3.org/2000/svg">
<g clip-path="url(#clip0_48_275)">
<rect width="570" height="265" rx="20" fill="#0C0C0C"/>
<path fill-rule="evenodd" clip-rule="evenodd" d="M95.7889 684.823V684.699H95.6651C93.4201 682.721 87.8074 666.274 80.6984 641.542L79.2022 636.347C77.0821 628.804 74.837 620.518 72.4683 611.862V611.739C69.2243 599.62 65.8581 586.635 62.4904 573.031L56.6291 549.289C56.6291 549.289 56.0053 546.196 55.1328 540.508C54.1339 534.82 52.8877 526.411 50.7676 515.9C48.7713 505.388 46.6512 492.651 43.5337 478.306C40.5411 463.837 37.2985 447.391 33.3071 429.83C29.3157 412.269 25.0756 393.226 20.5868 373.069C20.0881 371.337 19.5879 369.483 19.2142 367.752V367.628L18.4667 364.66C17.7179 361.569 16.9691 358.353 16.2216 355.261V355.013H16.0967L15.4728 352.047C12.2302 338.443 9.11267 324.469 5.62004 310.248C4.62252 306.414 3.62505 302.58 2.62753 298.748V298.377L1.8787 295.78V295.409L1.13118 292.688V292.44L0.382453 289.596V289.472L-0.366376 286.504C-3.73266 272.407 -7.10023 257.938 -10.5929 243.47C-13.3367 232.093 -16.3293 220.717 -19.3219 209.215C-20.4444 204.269 -21.6919 199.199 -22.8145 194.251V194.128C-23.5633 190.914 -24.3107 187.697 -25.0595 184.483L-27.3046 174.713C-30.1722 163.213 -32.916 151.588 -35.7849 140.212L-40.6487 122.033C-41.7713 117.21 -44.5151 108.306 -47.1339 101.629C-57.7342 74.546 -74.696 51.916 -92.6552 34.1086C-110.863 16.3012 -130.069 2.69882 -148.277 -8.92573C-166.361 -20.427 -183.822 -29.8245 -199.91 -38.3577C-229.218 -53.6927 -253.911 -66.1816 -272.119 -75.9515V-76.0748C-273.99 -76.9405 -275.735 -77.9294 -277.357 -78.9197C-294.817 -88.565 -305.169 -94.3767 -306.415 -95.119C-306.041 -94.5013 -304.42 -92.2755 -301.427 -88.0706C-297.81 -83.6191 -292.697 -76.6939 -285.463 -68.6552C-278.23 -60.7411 -269.375 -50.7246 -258.65 -40.4601C-247.8 -30.0724 -235.328 -18.6957 -221.734 -6.82326C-208.265 4.92459 -193.798 17.6613 -178.334 31.1405L-176.713 32.6252C-168.107 40.6626 -159.377 48.9478 -151.271 57.6043V57.9755H-150.897L-150.522 58.3466V58.7178H-150.148L-149.774 59.2123V59.4602H-149.399L-149.026 59.9546V60.2012H-148.777L-148.153 60.8203V60.9436H-148.028L-147.404 61.5613V61.6859C-146.657 62.427 -145.908 63.2926 -145.159 64.1583V64.6527H-144.785L-144.412 65.0239V65.3951H-144.037L-143.663 65.7662V66.1374H-143.413L-142.914 66.6319V66.8798H-142.79L-142.167 67.4975V67.6208C-141.169 68.7344 -140.172 69.9712 -139.173 71.0834V71.3313H-139.049L-138.425 72.0737C-137.801 72.8147 -137.303 73.5571 -136.679 74.2994C-135.431 75.7828 -134.309 77.2675 -133.186 78.7509C-131.94 80.4822 -130.693 82.2135 -129.445 83.9448V84.0681C-128.447 85.4282 -127.45 86.9129 -126.452 88.3963V88.5209H-126.327C-125.829 89.1387 -125.455 89.881 -124.956 90.622V90.7467C-124.207 91.8589 -123.459 93.0957 -122.711 94.3325V94.4558H-122.586C-120.466 97.9184 -118.471 101.506 -116.725 105.215V105.586H-116.475L-115.976 106.698V107.069H-115.727L-115.228 108.306V108.554H-115.103L-114.48 109.914V110.037H-114.355C-113.856 111.151 -113.357 112.388 -112.983 113.5V113.748H-112.858C-112.359 114.985 -111.861 116.097 -111.487 117.334V117.457H-111.362L-110.738 119.436V119.683H-110.613C-110.364 120.302 -110.114 121.044 -109.866 121.662V122.033C-109.616 122.775 -109.367 123.517 -109.117 124.259C-107.746 128.71 -106.997 131.184 -105.501 137.861L-102.008 154.68C-99.7629 166.675 -96.7703 178.547 -94.1515 190.542C-90.6589 206.742 -86.6688 222.818 -82.1786 238.647C-93.4027 229.743 -104.877 222.077 -116.226 216.512L-231.712 158.39L-233.083 157.648C-235.328 156.534 -237.573 155.299 -239.818 154.062V153.937H-239.943C-243.061 152.083 -246.303 150.105 -249.546 148.003H-249.671L-251.791 146.518H-251.915L-254.036 145.034C-255.781 143.798 -257.527 142.561 -259.274 141.324H-259.399C-261.394 139.84 -263.389 138.357 -265.385 136.872C-266.631 135.883 -267.879 134.895 -269.126 133.904C-272.119 131.555 -275.112 128.958 -278.105 126.485C-286.836 118.942 -295.441 110.656 -303.672 101.875C-305.916 99.4031 -308.162 97.0527 -310.406 94.4558C-313.275 91.2411 -315.894 88.1497 -318.638 84.8104H-318.762C-324.499 77.762 -329.987 70.5889 -335.1 63.2926V63.1693H-335.225C-337.719 59.4602 -340.213 55.873 -342.708 52.1638V52.0392C-345.826 47.0933 -348.819 42.1473 -351.687 37.2V37.0767C-353.558 33.8607 -355.304 30.646 -356.925 27.4313L-357.673 25.9466L-358.422 24.4632C-360.043 21.2472 -361.539 18.0325 -362.911 14.8178C-364.907 10.365 -366.653 5.91351 -368.149 1.462V1.33737H-368.274C-368.648 -0.0227373 -369.147 -1.38282 -369.646 -2.74293L-432.128 -197.388C-432.627 -198.872 -433.126 -200.233 -433.5 -201.717V-201.84C-433.749 -202.706 -433.999 -203.572 -434.248 -204.437V-204.808H-434.373C-434.622 -205.674 -434.747 -206.416 -434.996 -207.281V-207.776H-435.121C-435.371 -208.765 -435.495 -209.631 -435.745 -210.62V-210.744C-435.994 -211.981 -436.244 -213.217 -436.493 -214.33V-214.454C-436.742 -216.062 -436.992 -217.546 -437.241 -219.153V-221.132H-437.491C-438.364 -229.046 -438.114 -235.971 -436.742 -242.031H-436.493V-243.144C-436.368 -243.762 -436.119 -244.38 -435.994 -244.999H-435.745V-245.864C-435.121 -247.596 -434.498 -249.327 -433.625 -250.934H-433.5V-251.306C-433.25 -251.676 -433.126 -252.047 -432.876 -252.419H-432.752V-252.666C-432.377 -253.408 -431.879 -254.026 -431.504 -254.644H-431.255V-255.015C-430.382 -256.252 -429.509 -257.365 -428.511 -258.354H-428.262V-258.725L-427.763 -259.096H-427.514V-259.467L-427.015 -259.838H-426.765V-260.086L-426.142 -260.704H-426.017V-260.828C-425.019 -261.57 -424.022 -262.188 -423.024 -262.93C-422.151 -263.424 -421.278 -263.919 -420.405 -264.414H-420.031V-264.537C-419.532 -264.785 -419.158 -264.908 -418.784 -265.156H-418.534V-265.279C-417.911 -265.403 -417.412 -265.65 -416.788 -265.898H-416.164V-266.021C-414.543 -266.64 -412.922 -267.011 -411.051 -267.382H-409.43V-267.629C-407.434 -267.876 -405.314 -268 -403.194 -268C-399.328 -268 -395.088 -267.629 -390.723 -266.64H-390.224C-389.101 -266.392 -388.104 -266.145 -386.981 -265.898C-385.235 -265.403 -383.489 -264.908 -381.743 -264.414H-381.619C-380.87 -264.166 -380.122 -263.919 -379.374 -263.672H-379.249C-378.625 -263.424 -377.877 -263.177 -377.129 -262.93C-374.635 -262.064 -372.265 -261.075 -369.646 -259.962V-259.838H-369.521C-367.65 -259.096 -365.78 -258.231 -363.784 -257.365L-316.393 -234.611L-47.6327 -105.755L-33.4148 -98.9528C-31.1697 -97.9638 -28.8009 -96.727 -26.5558 -95.4902V-95.3669H-26.4308L-25.0595 -94.6245C-23.812 -93.8822 -22.5644 -93.1411 -21.3182 -92.3988C-15.2068 -88.6883 -9.09531 -84.4847 -3.35893 -79.7853C-1.48892 -78.3006 0.257408 -76.9405 1.8787 -75.3325H2.0037C8.86262 -69.3976 15.3478 -62.9669 21.4593 -56.0417V-55.9184C22.9556 -54.1872 24.4518 -52.4559 25.9494 -50.7246C26.947 -49.4877 27.9445 -48.2509 28.942 -47.0141H29.067C31.3121 -44.1706 33.5571 -41.2025 35.6772 -38.1111H35.8009C38.9198 -33.7829 41.9123 -29.2067 44.7812 -24.7552V-24.632C45.5287 -23.3951 46.2775 -22.2816 47.0263 -21.0447V-20.9215C48.0238 -19.1902 49.0213 -17.5822 50.0188 -15.8509V-15.7276C53.0127 -10.4105 55.7552 -5.092 58.2503 0.471725V0.596356H58.3754L58.9978 2.07977C59.7466 3.81105 60.4954 5.54233 61.2429 7.27362V7.39688C61.7416 8.51041 62.2404 9.74727 62.7405 10.9841V11.1074C64.1117 14.4467 65.3593 17.9093 66.4819 21.2472V21.4951H66.6055L67.2293 23.5976V23.7209H67.3544C68.1032 26.1945 68.8506 28.6668 69.4744 31.1405C69.7244 32.1294 69.9731 32.995 70.2232 33.9853V34.1086H70.3469C70.4719 35.0975 70.7219 36.0878 70.9707 36.9534V37.0767C71.8445 40.7858 72.592 44.4963 73.2157 48.0822V48.3301C73.9645 52.2871 74.4633 56.2442 74.712 60.0779V60.9436H74.837C74.962 62.5516 75.0871 64.1583 75.0871 65.643L82.1947 232.093L96.7864 570.188C96.9114 574.393 97.1615 578.473 97.2852 582.553V582.801C97.5352 590.963 97.7852 599.001 98.0339 606.545V607.286C98.7827 635.358 98.7827 658.607 98.0339 672.086V672.457C97.7852 676.043 97.5352 678.888 97.2852 680.989V681.237C97.0364 682.474 96.9114 683.339 96.6627 683.957H96.5376V684.451C96.4126 684.823 96.164 684.947 96.0389 684.947C95.9139 684.947 95.9139 684.947 95.7889 684.823ZM697.413 -140.751C681.699 -140.751 662.617 -135.062 640.792 -123.068L277.748 77.6374C202.296 119.188 141.684 223.808 143.057 310.001L151.787 893.937C153.158 980.006 157.273 1050 161.139 1050C165.006 1049.63 181.094 980.006 197.182 895.174L225.119 747.149C225.119 747.149 225.866 743.192 227.114 735.896L236.093 688.41C237.215 682.597 238.588 676.662 240.209 670.726C240.333 670.602 240.333 670.478 240.333 670.355C241.207 666.026 242.329 661.575 243.202 656.999C247.193 638.574 251.558 617.798 257.17 595.415C262.284 572.908 267.895 548.67 274.755 523.32C280.99 497.721 288.099 470.887 295.956 443.309C303.563 415.609 311.67 387.167 320.275 358.353C322.645 351.304 324.765 344.131 327.01 336.835L328.757 331.395L331.001 324.717L334.618 313.834C337.736 306.043 341.602 296.398 345.343 288.855C349.085 280.939 352.951 273.273 357.316 265.853C373.903 235.927 394.231 209.71 415.184 185.596C436.136 161.605 458.21 140.088 479.786 120.179C501.487 100.515 522.687 82.2135 542.892 65.2718C562.846 48.4534 581.803 32.5006 599.013 17.7846C616.099 2.9454 631.439 -10.9049 644.284 -23.7663C657.005 -36.7497 667.98 -48.3742 675.838 -59.0098C683.694 -69.5208 689.556 -78.3006 692.923 -84.608C696.415 -91.0387 698.286 -94.5013 698.286 -94.5013C698.286 -94.5013 697.912 -90.5442 697.163 -83.2479C695.916 -75.9515 694.046 -65.0694 689.307 -51.7135C684.567 -38.6056 677.833 -22.776 668.105 -5.71106C658.626 11.2307 646.404 29.6571 632.187 48.5767C604.002 86.5417 567.585 127.104 530.545 169.89C511.962 191.16 493.38 213.172 476.045 235.802C458.709 258.557 442.496 281.93 429.651 306.043C426.408 311.979 423.539 318.039 420.671 324.098C417.803 330.406 416.057 334.857 413.562 341.288L409.696 352.047L408.199 356.25L406.329 361.692C403.959 369.112 401.59 376.283 399.22 383.456C389.367 412.146 379.764 440.589 369.289 467.67C367.293 472.618 365.298 477.687 363.303 482.511C375.649 472.247 388.121 463.096 400.841 455.799L509.218 393.226C583.673 350.067 662.367 246.561 684.068 163.09L738.445 -47.0141C753.909 -106.372 736.075 -140.751 697.537 -140.751H697.413Z" fill="white" fill-opacity="0.02"/>
</g>
<defs>
<clipPath id="clip0_48_275">
<rect width="570" height="265" rx="20" fill="white"/>
</clipPath>
</defs>
</svg>
