<svg width="1158" height="728" viewBox="0 0 1158 728" fill="none" xmlns="http://www.w3.org/2000/svg">
<g clip-path="url(#clip0_48_299)">
<rect width="1158" height="728" rx="20" fill="#0C0C0C"/>
<path fill-rule="evenodd" clip-rule="evenodd" d="M685.789 241.823V241.699H685.665C683.42 239.721 677.807 223.274 670.698 198.542L669.202 193.346C667.082 185.804 664.837 177.518 662.468 168.862V168.739C659.224 156.62 655.858 143.635 652.49 130.031L646.629 106.289C646.629 106.289 646.005 103.196 645.133 97.5079C644.134 91.8196 642.888 83.411 640.768 72.9C638.771 62.3877 636.651 49.6509 633.534 35.3061C630.541 20.8367 627.299 4.3908 623.307 -13.17C619.316 -30.7308 615.076 -49.7736 610.587 -69.9313C610.088 -71.6626 609.588 -73.5171 609.214 -75.2484V-75.3718L608.467 -78.3398C607.718 -81.4312 606.969 -84.6472 606.222 -87.7386V-87.9865H606.097L605.473 -90.9534C602.23 -104.557 599.113 -118.531 595.62 -132.752C594.623 -136.586 593.625 -140.42 592.628 -144.252V-144.623L591.879 -147.22V-147.591L591.131 -150.312V-150.56L590.382 -153.404V-153.528L589.634 -156.496C586.267 -170.593 582.9 -185.062 579.407 -199.53C576.663 -210.907 573.671 -222.283 570.678 -233.785C569.556 -238.731 568.308 -243.801 567.186 -248.749V-248.872C566.437 -252.087 565.689 -255.303 564.94 -258.517L562.695 -268.287C559.828 -279.787 557.084 -291.412 554.215 -302.788L549.351 -320.967C548.229 -325.79 545.485 -334.694 542.866 -341.371C532.266 -368.454 515.304 -391.084 497.345 -408.891C479.137 -426.699 459.931 -440.301 441.723 -451.926C423.639 -463.427 406.178 -472.824 390.09 -481.358C360.782 -496.693 336.089 -509.182 317.881 -518.952V-519.075C316.01 -519.94 314.265 -520.929 312.643 -521.92C295.183 -531.565 284.831 -537.377 283.585 -538.119C283.959 -537.501 285.58 -535.275 288.573 -531.071C292.19 -526.619 297.303 -519.694 304.537 -511.655C311.77 -503.741 320.625 -493.725 331.35 -483.46C342.2 -473.072 354.672 -461.696 368.266 -449.823C381.735 -438.075 396.202 -425.339 411.666 -411.86L413.287 -410.375C421.893 -402.337 430.623 -394.052 438.729 -385.396V-385.025H439.103L439.478 -384.653V-384.282H439.852L440.226 -383.788V-383.54H440.601L440.974 -383.045V-382.799H441.223L441.847 -382.18V-382.056H441.972L442.596 -381.439V-381.314C443.343 -380.573 444.092 -379.707 444.841 -378.842V-378.347H445.215L445.588 -377.976V-377.605H445.963L446.337 -377.234V-376.863H446.587L447.086 -376.368V-376.12H447.21L447.833 -375.502V-375.379C448.831 -374.266 449.828 -373.029 450.827 -371.917V-371.669H450.951L451.575 -370.926C452.199 -370.185 452.697 -369.443 453.321 -368.701C454.569 -367.217 455.691 -365.732 456.814 -364.249C458.06 -362.518 459.307 -360.786 460.555 -359.055V-358.932C461.553 -357.572 462.55 -356.087 463.548 -354.604V-354.479H463.673C464.171 -353.861 464.545 -353.119 465.044 -352.378V-352.253C465.793 -351.141 466.541 -349.904 467.289 -348.667V-348.544H467.414C469.534 -345.082 471.529 -341.494 473.275 -337.785V-337.414H473.525L474.024 -336.302V-335.931H474.273L474.772 -334.694V-334.446H474.897L475.52 -333.086V-332.963H475.645C476.144 -331.849 476.643 -330.612 477.017 -329.5V-329.252H477.142C477.641 -328.015 478.139 -326.903 478.513 -325.666V-325.543H478.638L479.262 -323.564V-323.317H479.387C479.636 -322.698 479.886 -321.956 480.134 -321.338V-320.967C480.384 -320.225 480.633 -319.483 480.883 -318.741C482.254 -314.29 483.003 -311.816 484.499 -305.139L487.992 -288.32C490.237 -276.325 493.23 -264.453 495.849 -252.458C499.341 -236.258 503.331 -220.182 507.821 -204.353C496.597 -213.257 485.123 -220.923 473.774 -226.488L358.288 -284.61L356.917 -285.352C354.672 -286.466 352.427 -287.701 350.182 -288.938V-289.063H350.057C346.939 -290.917 343.697 -292.895 340.454 -294.997H340.329L338.209 -296.482H338.085L335.964 -297.966C334.219 -299.202 332.473 -300.439 330.726 -301.676H330.601C328.606 -303.16 326.611 -304.643 324.615 -306.128C323.369 -307.117 322.121 -308.105 320.874 -309.096C317.881 -311.445 314.888 -314.042 311.895 -316.515C303.164 -324.058 294.559 -332.344 286.328 -341.125C284.084 -343.597 281.838 -345.947 279.594 -348.544C276.725 -351.759 274.106 -354.85 271.362 -358.19H271.238C265.501 -365.238 260.013 -372.411 254.9 -379.707V-379.831H254.775C252.281 -383.54 249.787 -387.127 247.292 -390.836V-390.961C244.174 -395.907 241.181 -400.853 238.313 -405.8V-405.923C236.442 -409.139 234.696 -412.354 233.075 -415.569L232.327 -417.053L231.578 -418.537C229.957 -421.753 228.461 -424.967 227.089 -428.182C225.093 -432.635 223.347 -437.086 221.851 -441.538V-441.663H221.726C221.352 -443.023 220.853 -444.383 220.354 -445.743L157.872 -640.388C157.373 -641.872 156.874 -643.233 156.5 -644.717V-644.84C156.251 -645.706 156.001 -646.572 155.752 -647.437V-647.808H155.627C155.378 -648.674 155.253 -649.416 155.004 -650.281V-650.776H154.879C154.629 -651.765 154.505 -652.631 154.255 -653.62V-653.744C154.006 -654.981 153.756 -656.217 153.507 -657.33V-657.454C153.258 -659.062 153.008 -660.546 152.759 -662.153V-664.132H152.509C151.636 -672.046 151.886 -678.971 153.258 -685.031H153.507V-686.144C153.632 -686.762 153.881 -687.38 154.006 -687.999H154.255V-688.864C154.879 -690.596 155.502 -692.327 156.375 -693.934H156.5V-694.306C156.75 -694.676 156.874 -695.047 157.124 -695.419H157.248V-695.666C157.623 -696.408 158.121 -697.026 158.496 -697.644H158.745V-698.015C159.618 -699.252 160.491 -700.365 161.489 -701.354H161.738V-701.725L162.237 -702.096H162.486V-702.467L162.985 -702.838H163.235V-703.086L163.858 -703.704H163.983V-703.828C164.981 -704.57 165.978 -705.188 166.976 -705.93C167.849 -706.424 168.722 -706.919 169.595 -707.414H169.969V-707.537C170.468 -707.785 170.842 -707.908 171.216 -708.156H171.466V-708.279C172.089 -708.403 172.588 -708.65 173.212 -708.898H173.836V-709.021C175.457 -709.64 177.078 -710.011 178.949 -710.382H180.57V-710.629C182.566 -710.876 184.686 -711 186.806 -711C190.672 -711 194.912 -710.629 199.277 -709.64H199.776C200.899 -709.392 201.896 -709.145 203.019 -708.898C204.765 -708.403 206.511 -707.908 208.257 -707.414H208.381C209.13 -707.166 209.878 -706.919 210.626 -706.672H210.751C211.375 -706.424 212.123 -706.177 212.871 -705.93C215.365 -705.064 217.735 -704.075 220.354 -702.962V-702.838H220.479C222.35 -702.096 224.22 -701.231 226.216 -700.365L273.607 -677.611L542.367 -548.755L556.585 -541.953C558.83 -540.964 561.199 -539.727 563.444 -538.49V-538.367H563.569L564.94 -537.625C566.188 -536.882 567.436 -536.141 568.682 -535.399C574.793 -531.688 580.905 -527.485 586.641 -522.785C588.511 -521.301 590.257 -519.94 591.879 -518.332H592.004C598.863 -512.398 605.348 -505.967 611.459 -499.042V-498.918C612.956 -497.187 614.452 -495.456 615.949 -493.725C616.947 -492.488 617.944 -491.251 618.942 -490.014H619.067C621.312 -487.171 623.557 -484.202 625.677 -481.111H625.801C628.92 -476.783 631.912 -472.207 634.781 -467.755V-467.632C635.529 -466.395 636.277 -465.282 637.026 -464.045V-463.921C638.024 -462.19 639.021 -460.582 640.019 -458.851V-458.728C643.013 -453.41 645.755 -448.092 648.25 -442.528V-442.404H648.375L648.998 -440.92C649.747 -439.189 650.495 -437.458 651.243 -435.726V-435.603C651.742 -434.49 652.24 -433.253 652.74 -432.016V-431.893C654.112 -428.553 655.359 -425.091 656.482 -421.753V-421.505H656.606L657.229 -419.402V-419.279H657.354C658.103 -416.805 658.851 -414.333 659.474 -411.86C659.724 -410.871 659.973 -410.005 660.223 -409.015V-408.891H660.347C660.472 -407.902 660.722 -406.912 660.971 -406.047V-405.923C661.844 -402.214 662.592 -398.504 663.216 -394.918V-394.67C663.965 -390.713 664.463 -386.756 664.712 -382.922V-382.056H664.837C664.962 -380.448 665.087 -378.842 665.087 -377.357L672.195 -210.907L686.786 127.188C686.911 131.393 687.161 135.473 687.285 139.553V139.801C687.535 147.963 687.785 156.001 688.034 163.545V164.286C688.783 192.358 688.783 215.607 688.034 229.086V229.457C687.785 233.043 687.535 235.888 687.285 237.989V238.237C687.036 239.474 686.911 240.339 686.663 240.957H686.538V241.451C686.413 241.823 686.164 241.947 686.039 241.947C685.914 241.947 685.914 241.947 685.789 241.823ZM1287.41 -583.751C1271.7 -583.751 1252.62 -578.062 1230.79 -566.068L867.748 -365.363C792.296 -323.812 731.684 -219.192 733.057 -132.999L741.787 450.938C743.158 537.006 747.273 607 751.139 607C755.006 606.629 771.094 537.006 787.182 452.174L815.119 304.149C815.119 304.149 815.866 300.192 817.114 292.896L826.093 245.41C827.215 239.597 828.588 233.662 830.209 227.726C830.333 227.602 830.333 227.478 830.333 227.355C831.207 223.026 832.329 218.575 833.202 213.999C837.193 195.574 841.558 174.798 847.17 152.415C852.284 129.908 857.895 105.67 864.755 80.3196C870.99 54.7215 878.099 27.8865 885.956 0.309204C893.563 -27.3914 901.67 -55.8331 910.275 -84.6473C912.645 -91.6957 914.765 -98.8687 917.01 -106.165L918.757 -111.605L921 -118.283L924.618 -129.166C927.736 -136.957 931.602 -146.602 935.343 -154.145C939.085 -162.061 942.951 -169.727 947.316 -177.147C963.903 -207.073 984.231 -233.29 1005.18 -257.404C1026.14 -281.395 1048.21 -302.912 1069.79 -322.821C1091.49 -342.485 1112.69 -360.787 1132.89 -377.728C1152.85 -394.547 1171.8 -410.499 1189.01 -425.215C1206.1 -440.055 1221.44 -453.905 1234.28 -466.766C1247 -479.75 1257.98 -491.374 1265.84 -502.01C1273.69 -512.521 1279.56 -521.301 1282.92 -527.608C1286.41 -534.039 1288.29 -537.501 1288.29 -537.501C1288.29 -537.501 1287.91 -533.544 1287.16 -526.248C1285.92 -518.952 1284.05 -508.069 1279.31 -494.714C1274.57 -481.606 1267.83 -465.776 1258.11 -448.711C1248.63 -431.769 1236.4 -413.343 1222.19 -394.423C1194 -356.458 1157.58 -315.896 1120.54 -273.11C1101.96 -251.84 1083.38 -229.828 1066.04 -207.198C1048.71 -184.443 1032.5 -161.071 1019.65 -136.957C1016.41 -131.021 1013.54 -124.961 1010.67 -118.902C1007.8 -112.594 1006.06 -108.143 1003.56 -101.712L999.696 -90.9534L998.199 -86.7497L996.329 -81.308C993.959 -73.8884 991.59 -66.7166 989.22 -59.5436C979.367 -30.854 969.764 -2.41108 959.289 24.6705C957.293 29.6178 955.298 34.687 953.303 39.511C965.649 29.2466 978.121 20.0957 990.841 12.7994L1099.22 -49.7736C1173.67 -92.9325 1252.37 -196.439 1274.07 -279.91L1328.44 -490.014C1343.91 -549.372 1326.07 -583.751 1287.54 -583.751H1287.41Z" fill="white" fill-opacity="0.02"/>
</g>
<defs>
<clipPath id="clip0_48_299">
<rect width="1158" height="728" rx="20" fill="white"/>
</clipPath>
</defs>
</svg>
