<svg width="649" height="265" viewBox="0 0 649 265" fill="none" xmlns="http://www.w3.org/2000/svg">
<g clip-path="url(#clip0_16_121)">
<rect width="649" height="265" rx="20" fill="#0C0C0C"/>
<path fill-rule="evenodd" clip-rule="evenodd" d="M951.789 965.823V965.699H951.665C949.42 963.721 943.807 947.274 936.698 922.542L935.202 917.347C933.082 909.804 930.837 901.518 928.468 892.862V892.739C925.224 880.62 921.858 867.635 918.49 854.031L912.629 830.289C912.629 830.289 912.005 827.196 911.133 821.508C910.134 815.82 908.888 807.411 906.768 796.9C904.771 786.388 902.651 773.651 899.534 759.306C896.541 744.837 893.299 728.391 889.307 710.83C885.316 693.269 881.076 674.226 876.587 654.069C876.088 652.337 875.588 650.483 875.214 648.752V648.628L874.467 645.66C873.718 642.569 872.969 639.353 872.222 636.261V636.013H872.097L871.473 633.047C868.23 619.443 865.113 605.469 861.62 591.248C860.623 587.414 859.625 583.58 858.628 579.748V579.377L857.879 576.78V576.409L857.131 573.688V573.44L856.382 570.596V570.472L855.634 567.504C852.267 553.407 848.9 538.938 845.407 524.47C842.663 513.093 839.671 501.717 836.678 490.215C835.556 485.269 834.308 480.199 833.186 475.251V475.128C832.437 471.914 831.689 468.697 830.94 465.483L828.695 455.713C825.828 444.213 823.084 432.588 820.215 421.212L815.351 403.033C814.229 398.21 811.485 389.306 808.866 382.629C798.266 355.546 781.304 332.916 763.345 315.109C745.137 297.301 725.931 283.699 707.723 272.074C689.639 260.573 672.178 251.176 656.09 242.642C626.782 227.307 602.089 214.818 583.881 205.048V204.925C582.01 204.06 580.265 203.071 578.643 202.08C561.183 192.435 550.831 186.623 549.585 185.881C549.959 186.499 551.58 188.725 554.573 192.929C558.19 197.381 563.303 204.306 570.537 212.345C577.77 220.259 586.625 230.275 597.35 240.54C608.2 250.928 620.672 262.304 634.266 274.177C647.735 285.925 662.202 298.661 677.666 312.14L679.287 313.625C687.893 321.663 696.623 329.948 704.729 338.604V338.975H705.103L705.478 339.347V339.718H705.852L706.226 340.212V340.46H706.601L706.974 340.955V341.201H707.223L707.847 341.82V341.944H707.972L708.596 342.561V342.686C709.343 343.427 710.092 344.293 710.841 345.158V345.653H711.215L711.588 346.024V346.395H711.963L712.337 346.766V347.137H712.587L713.086 347.632V347.88H713.21L713.833 348.498V348.621C714.831 349.734 715.828 350.971 716.827 352.083V352.331H716.951L717.575 353.074C718.199 353.815 718.697 354.557 719.321 355.299C720.569 356.783 721.691 358.268 722.814 359.751C724.06 361.482 725.307 363.213 726.555 364.945V365.068C727.553 366.428 728.55 367.913 729.548 369.396V369.521H729.673C730.171 370.139 730.545 370.881 731.044 371.622V371.747C731.793 372.859 732.541 374.096 733.289 375.333V375.456H733.414C735.534 378.918 737.529 382.506 739.275 386.215V386.586H739.525L740.024 387.698V388.069H740.273L740.772 389.306V389.554H740.897L741.52 390.914V391.037H741.645C742.144 392.151 742.643 393.388 743.017 394.5V394.748H743.142C743.641 395.985 744.139 397.097 744.513 398.334V398.457H744.638L745.262 400.436V400.683H745.387C745.636 401.302 745.886 402.044 746.134 402.662V403.033C746.384 403.775 746.633 404.517 746.883 405.259C748.254 409.71 749.003 412.184 750.499 418.861L753.992 435.68C756.237 447.675 759.23 459.547 761.849 471.542C765.341 487.742 769.331 503.818 773.821 519.647C762.597 510.743 751.123 503.077 739.774 497.512L624.288 439.39L622.917 438.648C620.672 437.534 618.427 436.299 616.182 435.062V434.937H616.057C612.939 433.083 609.697 431.105 606.454 429.003H606.329L604.209 427.518H604.085L601.964 426.034C600.219 424.798 598.473 423.561 596.726 422.324H596.601C594.606 420.84 592.611 419.357 590.615 417.872C589.369 416.883 588.121 415.895 586.874 414.904C583.881 412.555 580.888 409.958 577.895 407.485C569.164 399.942 560.559 391.656 552.328 382.875C550.084 380.403 547.838 378.053 545.594 375.456C542.725 372.241 540.106 369.15 537.362 365.81H537.238C531.501 358.762 526.013 351.589 520.9 344.293V344.169H520.775C518.281 340.46 515.787 336.873 513.292 333.164V333.039C510.174 328.093 507.181 323.147 504.313 318.2V318.077C502.442 314.861 500.696 311.646 499.075 308.431L498.327 306.947L497.578 305.463C495.957 302.247 494.461 299.033 493.089 295.818C491.093 291.365 489.347 286.914 487.851 282.462V282.337H487.726C487.352 280.977 486.853 279.617 486.354 278.257L423.872 83.6115C423.373 82.1276 422.874 80.7674 422.5 79.2833V79.1596C422.251 78.294 422.001 77.4283 421.752 76.5627V76.1918H421.627C421.378 75.3261 421.253 74.5842 421.004 73.7185V73.2238H420.879C420.629 72.2346 420.505 71.369 420.255 70.3796V70.256C420.006 69.0193 419.756 67.7827 419.507 66.6697V66.546C419.258 64.9384 419.008 63.4545 418.759 61.8469V59.8682H418.509C417.636 51.9539 417.886 45.0287 419.258 38.9692H419.507V37.8562C419.632 37.2379 419.881 36.6196 420.006 36.0014H420.255V35.1357C420.879 33.4044 421.502 31.6731 422.375 30.0655H422.5V29.6945C422.75 29.3236 422.874 28.9525 423.124 28.5815H423.248V28.3342C423.623 27.5923 424.121 26.9739 424.496 26.3556H424.745V25.9846C425.618 24.748 426.491 23.635 427.489 22.6457H427.738V22.2747L428.237 21.9037H428.486V21.5327L428.985 21.1618H429.235V20.9144L429.858 20.2961H429.983V20.1725C430.981 19.4305 431.978 18.8122 432.976 18.0702C433.849 17.5755 434.722 17.0809 435.595 16.5862H435.969V16.4626C436.468 16.2152 436.842 16.0916 437.216 15.8442H437.466V15.7206C438.089 15.5969 438.588 15.3496 439.212 15.1023H439.836V14.9786C441.457 14.3603 443.078 13.9893 444.949 13.6183H446.57V13.371C448.566 13.1237 450.686 13 452.806 13C456.672 13 460.912 13.371 465.277 14.3603H465.776C466.899 14.6076 467.896 14.8549 469.019 15.1023C470.765 15.5969 472.511 16.0916 474.257 16.5862H474.381C475.13 16.8335 475.878 17.0809 476.626 17.3282H476.751C477.375 17.5755 478.123 17.8229 478.871 18.0702C481.365 18.9358 483.735 19.9251 486.354 21.0381V21.1618H486.479C488.35 21.9037 490.22 22.7694 492.216 23.635L539.607 46.389L808.367 175.245L822.585 182.047C824.83 183.036 827.199 184.273 829.444 185.51V185.633H829.569L830.94 186.375C832.188 187.118 833.436 187.859 834.682 188.601C840.793 192.312 846.905 196.515 852.641 201.215C854.511 202.699 856.257 204.06 857.879 205.668H858.004C864.863 211.602 871.348 218.033 877.459 224.958V225.082C878.956 226.813 880.452 228.544 881.949 230.275C882.947 231.512 883.944 232.749 884.942 233.986H885.067C887.312 236.829 889.557 239.798 891.677 242.889H891.801C894.92 247.217 897.912 251.793 900.781 256.245V256.368C901.529 257.605 902.277 258.718 903.026 259.955V260.079C904.024 261.81 905.021 263.418 906.019 265.149V265.272C909.013 270.59 911.755 275.908 914.25 281.472V281.596H914.375L914.998 283.08C915.747 284.811 916.495 286.542 917.243 288.274V288.397C917.742 289.51 918.24 290.747 918.74 291.984V292.107C920.112 295.447 921.359 298.909 922.482 302.247V302.495H922.606L923.229 304.598V304.721H923.354C924.103 307.195 924.851 309.667 925.474 312.14C925.724 313.129 925.973 313.995 926.223 314.985V315.109H926.347C926.472 316.098 926.722 317.088 926.971 317.953V318.077C927.844 321.786 928.592 325.496 929.216 329.082V329.33C929.965 333.287 930.463 337.244 930.712 341.078V341.944H930.837C930.962 343.552 931.087 345.158 931.087 346.643L938.195 513.093L952.786 851.188C952.911 855.393 953.161 859.473 953.285 863.553V863.801C953.535 871.963 953.785 880.001 954.034 887.545V888.286C954.783 916.358 954.783 939.607 954.034 953.086V953.457C953.785 957.043 953.535 959.888 953.285 961.989V962.237C953.036 963.474 952.911 964.339 952.663 964.957H952.538V965.451C952.413 965.823 952.164 965.947 952.039 965.947C951.914 965.947 951.914 965.947 951.789 965.823ZM1553.41 140.249C1537.7 140.249 1518.62 145.938 1496.79 157.932L1133.75 358.637C1058.3 400.188 997.684 504.808 999.057 591.001L1007.79 1174.94C1009.16 1261.01 1013.27 1331 1017.14 1331C1021.01 1330.63 1037.09 1261.01 1053.18 1176.17L1081.12 1028.15C1081.12 1028.15 1081.87 1024.19 1083.11 1016.9L1092.09 969.41C1093.22 963.597 1094.59 957.662 1096.21 951.726C1096.33 951.602 1096.33 951.478 1096.33 951.355C1097.21 947.026 1098.33 942.575 1099.2 937.999C1103.19 919.574 1107.56 898.798 1113.17 876.415C1118.28 853.908 1123.9 829.67 1130.76 804.32C1136.99 778.721 1144.1 751.887 1151.96 724.309C1159.56 696.609 1167.67 668.167 1176.28 639.353C1178.65 632.304 1180.77 625.131 1183.01 617.835L1184.76 612.395L1187 605.717L1190.62 594.834C1193.74 587.043 1197.6 577.398 1201.34 569.855C1205.08 561.939 1208.95 554.273 1213.32 546.853C1229.9 516.927 1250.23 490.71 1271.18 466.596C1292.14 442.605 1314.21 421.088 1335.79 401.179C1357.49 381.515 1378.69 363.213 1398.89 346.272C1418.85 329.453 1437.8 313.501 1455.01 298.785C1472.1 283.945 1487.44 270.095 1500.28 257.234C1513 244.25 1523.98 232.626 1531.84 221.99C1539.69 211.479 1545.56 202.699 1548.92 196.392C1552.41 189.961 1554.29 186.499 1554.29 186.499C1554.29 186.499 1553.91 190.456 1553.16 197.752C1551.92 205.048 1550.05 215.931 1545.31 229.286C1540.57 242.394 1533.83 258.224 1524.11 275.289C1514.63 292.231 1502.4 310.657 1488.19 329.577C1460 367.542 1423.58 408.104 1386.54 450.89C1367.96 472.16 1349.38 494.172 1332.04 516.802C1314.71 539.557 1298.5 562.93 1285.65 587.043C1282.41 592.979 1279.54 599.039 1276.67 605.098C1273.8 611.406 1272.06 615.857 1269.56 622.288L1265.7 633.047L1264.2 637.25L1262.33 642.692C1259.96 650.112 1257.59 657.283 1255.22 664.456C1245.37 693.146 1235.76 721.589 1225.29 748.67C1223.29 753.618 1221.3 758.687 1219.3 763.511C1231.65 753.247 1244.12 744.096 1256.84 736.799L1365.22 674.226C1439.67 631.067 1518.37 527.561 1540.07 444.09L1594.44 233.986C1609.91 174.628 1592.07 140.249 1553.54 140.249H1553.41Z" fill="white" fill-opacity="0.02"/>
</g>
<defs>
<clipPath id="clip0_16_121">
<rect width="649" height="265" rx="20" fill="white"/>
</clipPath>
</defs>
</svg>
