<svg width="649" height="265" viewBox="0 0 649 265" fill="none" xmlns="http://www.w3.org/2000/svg">
<g clip-path="url(#clip0_16_145)">
<rect width="649" height="265" rx="20" fill="#0C0C0C"/>
<path fill-rule="evenodd" clip-rule="evenodd" d="M951.789 681.823V681.699H951.665C949.42 679.722 943.807 663.274 936.698 638.542L935.202 633.347C933.082 625.804 930.837 617.518 928.468 608.862V608.739C925.224 596.62 921.858 583.635 918.49 570.031L912.629 546.289C912.629 546.289 912.005 543.196 911.133 537.508C910.134 531.82 908.888 523.411 906.768 512.9C904.771 502.388 902.651 489.651 899.534 475.306C896.541 460.837 893.299 444.391 889.307 426.83C885.316 409.269 881.076 390.227 876.587 370.069C876.088 368.337 875.588 366.483 875.214 364.752V364.628L874.467 361.66C873.718 358.569 872.969 355.353 872.222 352.261V352.013H872.097L871.473 349.047C868.23 335.443 865.113 321.469 861.62 307.248C860.623 303.414 859.625 299.58 858.628 295.748V295.377L857.879 292.78V292.409L857.131 289.688V289.441L856.382 286.596V286.472L855.634 283.504C852.267 269.407 848.9 254.938 845.407 240.47C842.663 229.093 839.671 217.717 836.678 206.215C835.556 201.269 834.308 196.199 833.186 191.252V191.128C832.437 187.914 831.689 184.698 830.94 181.483L828.695 171.713C825.828 160.213 823.084 148.588 820.215 137.212L815.351 119.033C814.229 114.21 811.485 105.306 808.866 98.6289C798.266 71.546 781.304 48.916 763.345 31.1086C745.137 13.3013 725.931 -0.301164 707.723 -11.9257C689.639 -23.427 672.178 -32.8245 656.09 -41.3576C626.782 -56.6927 602.089 -69.1815 583.881 -78.9515V-79.0748C582.01 -79.9405 580.265 -80.9294 578.643 -81.9196C561.183 -91.565 550.831 -97.3766 549.585 -98.119C549.959 -97.5012 551.58 -95.2755 554.573 -91.0705C558.19 -86.619 563.303 -79.6939 570.537 -71.6552C577.77 -63.7411 586.625 -53.7246 597.35 -43.4601C608.2 -33.0724 620.672 -21.6957 634.266 -9.82323C647.735 1.92461 662.202 14.6614 677.666 28.1405L679.287 29.6252C687.893 37.6626 696.623 45.9478 704.729 54.6043V54.9755H705.103L705.478 55.3467V55.7179H705.852L706.226 56.2123V56.4602H706.601L706.974 56.9546V57.2012H707.223L707.847 57.8203V57.9436H707.972L708.596 58.5613V58.6859C709.343 59.427 710.092 60.2926 710.841 61.1583V61.6527H711.215L711.588 62.0239V62.3951H711.963L712.337 62.7663V63.1375H712.587L713.086 63.6319V63.8798H713.21L713.833 64.4976V64.6208C714.831 65.7344 715.828 66.9712 716.827 68.0834V68.3313H716.951L717.575 69.0737C718.199 69.8147 718.697 70.5571 719.321 71.2994C720.569 72.7828 721.691 74.2676 722.814 75.751C724.06 77.4822 725.307 79.2135 726.555 80.9448V81.0681C727.553 82.4282 728.55 83.9129 729.548 85.3963V85.5209H729.673C730.171 86.1387 730.545 86.881 731.044 87.6221V87.7467C731.793 88.8589 732.541 90.0957 733.289 91.3325V91.4558H733.414C735.534 94.9184 737.529 98.5056 739.275 102.215V102.586H739.525L740.024 103.698V104.069H740.273L740.772 105.306V105.554H740.897L741.52 106.914V107.037H741.645C742.144 108.151 742.643 109.388 743.017 110.5V110.748H743.142C743.64 111.985 744.139 113.097 744.513 114.334V114.457H744.638L745.262 116.436V116.683H745.387C745.636 117.302 745.886 118.044 746.134 118.662V119.033C746.384 119.776 746.633 120.517 746.883 121.259C748.254 125.71 749.003 128.184 750.499 134.861L753.992 151.68C756.237 163.675 759.23 175.547 761.848 187.542C765.341 203.742 769.331 219.818 773.821 235.647C762.597 226.743 751.123 219.077 739.774 213.512L624.288 155.39L622.917 154.648C620.672 153.534 618.427 152.299 616.182 151.062V150.937H616.057C612.939 149.083 609.697 147.105 606.454 145.003H606.329L604.209 143.518H604.085L601.964 142.034C600.219 140.798 598.473 139.561 596.726 138.324H596.601C594.606 136.841 592.611 135.357 590.615 133.872C589.369 132.883 588.121 131.895 586.874 130.904C583.881 128.555 580.888 125.958 577.895 123.485C569.164 115.942 560.559 107.657 552.328 98.8755C550.084 96.4031 547.838 94.0527 545.593 91.4558C542.725 88.2411 540.106 85.1498 537.362 81.8105H537.238C531.501 74.762 526.013 67.589 520.9 60.2926V60.1693H520.775C518.281 56.4602 515.787 52.873 513.292 49.1638V49.0392C510.175 44.0933 507.181 39.1473 504.313 34.2V34.0767C502.442 30.8607 500.696 27.646 499.075 24.4314L498.327 22.9466L497.578 21.4632C495.957 18.2472 494.461 15.0325 493.089 11.8179C491.093 7.36503 489.347 2.91353 487.851 -1.53798V-1.66262H487.726C487.352 -3.02273 486.853 -4.38281 486.354 -5.74292L423.872 -200.388C423.373 -201.872 422.874 -203.233 422.5 -204.717V-204.84C422.251 -205.706 422.001 -206.572 421.752 -207.437V-207.808H421.627C421.378 -208.674 421.253 -209.416 421.004 -210.281V-210.776H420.879C420.629 -211.765 420.505 -212.631 420.255 -213.62V-213.744C420.006 -214.981 419.756 -216.217 419.507 -217.33V-217.454C419.258 -219.062 419.008 -220.546 418.759 -222.153V-224.132H418.509C417.636 -232.046 417.886 -238.971 419.258 -245.031H419.507V-246.144C419.632 -246.762 419.881 -247.38 420.006 -247.999H420.255V-248.864C420.879 -250.596 421.502 -252.327 422.375 -253.934H422.5V-254.306C422.75 -254.676 422.874 -255.047 423.124 -255.419H423.248V-255.666C423.623 -256.408 424.121 -257.026 424.496 -257.644H424.745V-258.015C425.618 -259.252 426.491 -260.365 427.489 -261.354H427.738V-261.725L428.237 -262.096H428.486V-262.467L428.985 -262.838H429.235V-263.086L429.858 -263.704H429.983V-263.828C430.981 -264.57 431.978 -265.188 432.976 -265.93C433.849 -266.424 434.722 -266.919 435.595 -267.414H435.969V-267.537C436.468 -267.785 436.842 -267.908 437.216 -268.156H437.466V-268.279C438.089 -268.403 438.588 -268.65 439.212 -268.898H439.836V-269.021C441.457 -269.64 443.078 -270.011 444.949 -270.382H446.57V-270.629C448.566 -270.876 450.686 -271 452.806 -271C456.672 -271 460.912 -270.629 465.277 -269.64H465.776C466.899 -269.392 467.896 -269.145 469.019 -268.898C470.765 -268.403 472.511 -267.908 474.257 -267.414H474.381C475.13 -267.166 475.878 -266.919 476.626 -266.672H476.751C477.375 -266.424 478.123 -266.177 478.871 -265.93C481.365 -265.064 483.735 -264.075 486.354 -262.962V-262.838H486.479C488.35 -262.096 490.22 -261.231 492.216 -260.365L539.607 -237.611L808.367 -108.755L822.585 -101.953C824.83 -100.964 827.199 -99.727 829.444 -98.4902V-98.3669H829.569L830.94 -97.6245C832.188 -96.8822 833.436 -96.1411 834.682 -95.3988C840.793 -91.6883 846.905 -87.4847 852.641 -82.7853C854.511 -81.3006 856.257 -79.9405 857.879 -78.3324H858.004C864.863 -72.3975 871.348 -65.9669 877.459 -59.0417V-58.9184C878.956 -57.1872 880.452 -55.4558 881.949 -53.7246C882.947 -52.4877 883.944 -51.2509 884.942 -50.0141H885.067C887.312 -47.1706 889.557 -44.2025 891.677 -41.1111H891.801C894.92 -36.7829 897.912 -32.2067 900.781 -27.7552V-27.6319C901.529 -26.3951 902.277 -25.2815 903.026 -24.0447V-23.9215C904.024 -22.1902 905.021 -20.5821 906.019 -18.8509V-18.7276C909.013 -13.4105 911.755 -8.09199 914.25 -2.52827V-2.40363H914.375L914.998 -0.920211C915.747 0.811078 916.495 2.54234 917.243 4.27363V4.39689C917.742 5.51043 918.24 6.74729 918.74 7.98412V8.1074C920.112 11.4467 921.359 14.9093 922.482 18.2472V18.4951H922.606L923.229 20.5976V20.7209H923.354C924.103 23.1945 924.851 25.6668 925.474 28.1405C925.724 29.1294 925.973 29.9951 926.223 30.9853V31.1086H926.347C926.472 32.0975 926.722 33.0878 926.971 33.9534V34.0767C927.844 37.7859 928.592 41.4963 929.216 45.0822V45.3301C929.965 49.2871 930.463 53.2442 930.712 57.078V57.9436H930.837C930.962 59.5516 931.087 61.1583 931.087 62.643L938.195 229.093L952.786 567.188C952.911 571.393 953.161 575.473 953.285 579.553V579.801C953.535 587.963 953.785 596.001 954.034 603.545V604.286C954.783 632.358 954.783 655.607 954.034 669.086V669.457C953.785 673.043 953.535 675.888 953.285 677.989V678.237C953.036 679.474 952.911 680.339 952.663 680.957H952.538V681.451C952.413 681.823 952.164 681.947 952.039 681.947C951.914 681.947 951.914 681.947 951.789 681.823ZM1553.41 -143.751C1537.7 -143.751 1518.62 -138.062 1496.79 -126.068L1133.75 74.6374C1058.3 116.188 997.684 220.808 999.057 307.001L1007.79 890.938C1009.16 977.006 1013.27 1047 1017.14 1047C1021.01 1046.63 1037.09 977.006 1053.18 892.174L1081.12 744.149C1081.12 744.149 1081.87 740.192 1083.11 732.896L1092.09 685.41C1093.22 679.597 1094.59 673.662 1096.21 667.726C1096.33 667.602 1096.33 667.478 1096.33 667.355C1097.21 663.026 1098.33 658.575 1099.2 653.999C1103.19 635.574 1107.56 614.798 1113.17 592.415C1118.28 569.908 1123.9 545.67 1130.76 520.32C1136.99 494.722 1144.1 467.887 1151.96 440.309C1159.56 412.609 1167.67 384.167 1176.28 355.353C1178.65 348.304 1180.77 341.131 1183.01 333.835L1184.76 328.395L1187 321.717L1190.62 310.834C1193.74 303.043 1197.6 293.398 1201.34 285.855C1205.08 277.939 1208.95 270.273 1213.32 262.853C1229.9 232.927 1250.23 206.71 1271.18 182.596C1292.14 158.605 1314.21 137.088 1335.79 117.179C1357.49 97.5153 1378.69 79.2135 1398.89 62.2718C1418.85 45.4534 1437.8 29.5006 1455.01 14.7847C1472.1 -0.0545879 1487.44 -13.9049 1500.28 -26.7663C1513 -39.7496 1523.98 -51.3742 1531.84 -62.0098C1539.69 -72.5208 1545.56 -81.3006 1548.92 -87.608C1552.41 -94.0387 1554.29 -97.5012 1554.29 -97.5012C1554.29 -97.5012 1553.91 -93.5442 1553.16 -86.2479C1551.92 -78.9515 1550.05 -68.0693 1545.31 -54.7135C1540.57 -41.6055 1533.83 -25.776 1524.11 -8.71103C1514.63 8.23068 1502.4 26.6571 1488.19 45.5767C1460 83.5418 1423.58 124.104 1386.54 166.89C1367.96 188.16 1349.38 210.172 1332.04 232.802C1314.71 255.557 1298.5 278.93 1285.65 303.043C1282.41 308.979 1279.54 315.039 1276.67 321.098C1273.8 327.406 1272.06 331.857 1269.56 338.288L1265.7 349.047L1264.2 353.25L1262.33 358.692C1259.96 366.112 1257.59 373.283 1255.22 380.456C1245.37 409.146 1235.76 437.589 1225.29 464.671C1223.29 469.618 1221.3 474.687 1219.3 479.511C1231.65 469.247 1244.12 460.096 1256.84 452.799L1365.22 390.226C1439.67 347.068 1518.37 243.561 1540.07 160.09L1594.44 -50.0141C1609.91 -109.372 1592.07 -143.751 1553.54 -143.751H1553.41Z" fill="white" fill-opacity="0.02"/>
</g>
<defs>
<clipPath id="clip0_16_145">
<rect width="649" height="265" rx="20" fill="white"/>
</clipPath>
</defs>
</svg>
