<svg width="570" height="265" viewBox="0 0 570 265" fill="none" xmlns="http://www.w3.org/2000/svg">
<g clip-path="url(#clip0_48_291)">
<rect width="570" height="265" rx="20" fill="#0C0C0C"/>
<path fill-rule="evenodd" clip-rule="evenodd" d="M95.7889 399.823V399.699H95.6651C93.4201 397.721 87.8074 381.274 80.6984 356.542L79.2022 351.347C77.0821 343.804 74.837 335.518 72.4683 326.862V326.739C69.2243 314.62 65.8581 301.635 62.4904 288.031L56.6291 264.289C56.6291 264.289 56.0053 261.196 55.1328 255.508C54.1339 249.82 52.8877 241.411 50.7676 230.9C48.7713 220.388 46.6512 207.651 43.5337 193.306C40.5411 178.837 37.2985 162.391 33.3071 144.83C29.3157 127.269 25.0756 108.226 20.5868 88.0687C20.0881 86.3374 19.5879 84.4829 19.2142 82.7516V82.6282L18.4667 79.6602C17.7179 76.5688 16.9691 73.3528 16.2216 70.2614V70.0135H16.0967L15.4728 67.0467C12.2302 53.4429 9.11267 39.4693 5.62004 25.2478C4.62252 21.4141 3.62505 17.5803 2.62753 13.7479V13.3767L1.8787 10.7798V10.4086L1.13118 7.6884V7.4405L0.382453 4.5957V4.47237L-0.366376 1.50429C-3.73266 -12.5926 -7.10023 -27.062 -10.5929 -41.53C-13.3367 -52.9067 -16.3293 -64.2834 -19.3219 -75.7847C-20.4444 -80.7307 -21.6919 -85.8012 -22.8145 -90.7485V-90.8718C-23.5633 -94.0865 -24.3107 -97.3025 -25.0595 -100.517L-27.3046 -110.287C-30.1722 -121.787 -32.916 -133.412 -35.7849 -144.788L-40.6487 -162.967C-41.7713 -167.79 -44.5151 -176.694 -47.1339 -183.371C-57.7342 -210.454 -74.696 -233.084 -92.6552 -250.891C-110.863 -268.699 -130.069 -282.301 -148.277 -293.926C-166.361 -305.427 -183.822 -314.824 -199.91 -323.358C-229.218 -338.693 -253.911 -351.182 -272.119 -360.952V-361.075C-273.99 -361.94 -275.735 -362.929 -277.357 -363.92C-294.817 -373.565 -305.169 -379.377 -306.415 -380.119C-306.041 -379.501 -304.42 -377.275 -301.427 -373.071C-297.81 -368.619 -292.697 -361.694 -285.463 -353.655C-278.23 -345.741 -269.375 -335.725 -258.65 -325.46C-247.8 -315.072 -235.328 -303.696 -221.734 -291.823C-208.265 -280.075 -193.798 -267.339 -178.334 -253.86L-176.713 -252.375C-168.107 -244.337 -159.377 -236.052 -151.271 -227.396V-227.025H-150.897L-150.522 -226.653V-226.282H-150.148L-149.774 -225.788V-225.54H-149.399L-149.026 -225.045V-224.799H-148.777L-148.153 -224.18V-224.056H-148.028L-147.404 -223.439V-223.314C-146.657 -222.573 -145.908 -221.707 -145.159 -220.842V-220.347H-144.785L-144.412 -219.976V-219.605H-144.037L-143.663 -219.234V-218.863H-143.413L-142.914 -218.368V-218.12H-142.79L-142.167 -217.502V-217.379C-141.169 -216.266 -140.172 -215.029 -139.173 -213.917V-213.669H-139.049L-138.425 -212.926C-137.801 -212.185 -137.303 -211.443 -136.679 -210.701C-135.431 -209.217 -134.309 -207.732 -133.186 -206.249C-131.94 -204.518 -130.693 -202.787 -129.445 -201.055V-200.932C-128.447 -199.572 -127.45 -198.087 -126.452 -196.604V-196.479H-126.327C-125.829 -195.861 -125.455 -195.119 -124.956 -194.378V-194.253C-124.207 -193.141 -123.459 -191.904 -122.711 -190.667V-190.544H-122.586C-120.466 -187.082 -118.471 -183.494 -116.725 -179.785V-179.414H-116.475L-115.976 -178.302V-177.931H-115.727L-115.228 -176.694V-176.446H-115.103L-114.48 -175.086V-174.963H-114.355C-113.856 -173.849 -113.357 -172.612 -112.983 -171.5V-171.252H-112.858C-112.359 -170.015 -111.861 -168.903 -111.487 -167.666V-167.543H-111.362L-110.738 -165.564V-165.317H-110.613C-110.364 -164.698 -110.114 -163.956 -109.866 -163.338V-162.967C-109.616 -162.225 -109.367 -161.483 -109.117 -160.741C-107.746 -156.29 -106.997 -153.816 -105.501 -147.139L-102.008 -130.32C-99.7629 -118.325 -96.7703 -106.453 -94.1515 -94.4577C-90.6589 -78.2583 -86.6688 -62.1822 -82.1786 -46.3527C-93.4027 -55.2571 -104.877 -62.9233 -116.226 -68.4884L-231.712 -126.61L-233.083 -127.352C-235.328 -128.466 -237.573 -129.701 -239.818 -130.938V-131.063H-239.943C-243.061 -132.917 -246.303 -134.895 -249.546 -136.997H-249.671L-251.791 -138.482H-251.915L-254.036 -139.966C-255.781 -141.202 -257.527 -142.439 -259.274 -143.676H-259.399C-261.394 -145.16 -263.389 -146.643 -265.385 -148.128C-266.631 -149.117 -267.879 -150.105 -269.126 -151.096C-272.119 -153.445 -275.112 -156.042 -278.105 -158.515C-286.836 -166.058 -295.441 -174.344 -303.672 -183.125C-305.916 -185.597 -308.162 -187.947 -310.406 -190.544C-313.275 -193.759 -315.894 -196.85 -318.638 -200.19H-318.762C-324.499 -207.238 -329.987 -214.411 -335.1 -221.707V-221.831H-335.225C-337.719 -225.54 -340.213 -229.127 -342.708 -232.836V-232.961C-345.826 -237.907 -348.819 -242.853 -351.687 -247.8V-247.923C-353.558 -251.139 -355.304 -254.354 -356.925 -257.569L-357.673 -259.053L-358.422 -260.537C-360.043 -263.753 -361.539 -266.967 -362.911 -270.182C-364.907 -274.635 -366.653 -279.086 -368.149 -283.538V-283.663H-368.274C-368.648 -285.023 -369.147 -286.383 -369.646 -287.743L-432.128 -482.388C-432.627 -483.872 -433.126 -485.233 -433.5 -486.717V-486.84C-433.749 -487.706 -433.999 -488.572 -434.248 -489.437V-489.808H-434.373C-434.622 -490.674 -434.747 -491.416 -434.996 -492.281V-492.776H-435.121C-435.371 -493.765 -435.495 -494.631 -435.745 -495.62V-495.744C-435.994 -496.981 -436.244 -498.217 -436.493 -499.33V-499.454C-436.742 -501.062 -436.992 -502.546 -437.241 -504.153V-506.132H-437.491C-438.364 -514.046 -438.114 -520.971 -436.742 -527.031H-436.493V-528.144C-436.368 -528.762 -436.119 -529.38 -435.994 -529.999H-435.745V-530.864C-435.121 -532.596 -434.498 -534.327 -433.625 -535.934H-433.5V-536.306C-433.25 -536.676 -433.126 -537.047 -432.876 -537.419H-432.752V-537.666C-432.377 -538.408 -431.879 -539.026 -431.504 -539.644H-431.255V-540.015C-430.382 -541.252 -429.509 -542.365 -428.511 -543.354H-428.262V-543.725L-427.763 -544.096H-427.514V-544.467L-427.015 -544.838H-426.765V-545.086L-426.142 -545.704H-426.017V-545.828C-425.019 -546.57 -424.022 -547.188 -423.024 -547.93C-422.151 -548.424 -421.278 -548.919 -420.405 -549.414H-420.031V-549.537C-419.532 -549.785 -419.158 -549.908 -418.784 -550.156H-418.534V-550.279C-417.911 -550.403 -417.412 -550.65 -416.788 -550.898H-416.164V-551.021C-414.543 -551.64 -412.922 -552.011 -411.051 -552.382H-409.43V-552.629C-407.434 -552.876 -405.314 -553 -403.194 -553C-399.328 -553 -395.088 -552.629 -390.723 -551.64H-390.224C-389.101 -551.392 -388.104 -551.145 -386.981 -550.898C-385.235 -550.403 -383.489 -549.908 -381.743 -549.414H-381.619C-380.87 -549.166 -380.122 -548.919 -379.374 -548.672H-379.249C-378.625 -548.424 -377.877 -548.177 -377.129 -547.93C-374.635 -547.064 -372.265 -546.075 -369.646 -544.962V-544.838H-369.521C-367.65 -544.096 -365.78 -543.231 -363.784 -542.365L-316.393 -519.611L-47.6327 -390.755L-33.4148 -383.953C-31.1697 -382.964 -28.8009 -381.727 -26.5558 -380.49V-380.367H-26.4308L-25.0595 -379.625C-23.812 -378.882 -22.5644 -378.141 -21.3182 -377.399C-15.2068 -373.688 -9.09531 -369.485 -3.35893 -364.785C-1.48892 -363.301 0.257408 -361.94 1.8787 -360.332H2.0037C8.86262 -354.398 15.3478 -347.967 21.4593 -341.042V-340.918C22.9556 -339.187 24.4518 -337.456 25.9494 -335.725C26.947 -334.488 27.9445 -333.251 28.942 -332.014H29.067C31.3121 -329.171 33.5571 -326.202 35.6772 -323.111H35.8009C38.9198 -318.783 41.9123 -314.207 44.7812 -309.755V-309.632C45.5287 -308.395 46.2775 -307.282 47.0263 -306.045V-305.921C48.0238 -304.19 49.0213 -302.582 50.0188 -300.851V-300.728C53.0127 -295.41 55.7552 -290.092 58.2503 -284.528V-284.404H58.3754L58.9978 -282.92C59.7466 -281.189 60.4954 -279.458 61.2429 -277.726V-277.603C61.7416 -276.49 62.2404 -275.253 62.7405 -274.016V-273.893C64.1117 -270.553 65.3593 -267.091 66.4819 -263.753V-263.505H66.6055L67.2293 -261.402V-261.279H67.3544C68.1032 -258.805 68.8506 -256.333 69.4744 -253.86C69.7244 -252.871 69.9731 -252.005 70.2232 -251.015V-250.891H70.3469C70.4719 -249.902 70.7219 -248.912 70.9707 -248.047V-247.923C71.8445 -244.214 72.592 -240.504 73.2157 -236.918V-236.67C73.9645 -232.713 74.4633 -228.756 74.712 -224.922V-224.056H74.837C74.962 -222.448 75.0871 -220.842 75.0871 -219.357L82.1947 -52.9067L96.7864 285.188C96.9114 289.393 97.1615 293.473 97.2852 297.553V297.801C97.5352 305.963 97.7852 314.001 98.0339 321.545V322.286C98.7827 350.358 98.7827 373.607 98.0339 387.086V387.457C97.7852 391.043 97.5352 393.888 97.2852 395.989V396.237C97.0364 397.474 96.9114 398.339 96.6627 398.957H96.5376V399.451C96.4126 399.823 96.164 399.947 96.0389 399.947C95.9139 399.947 95.9139 399.947 95.7889 399.823ZM697.413 -425.751C681.699 -425.751 662.617 -420.062 640.792 -408.068L277.748 -207.363C202.296 -165.812 141.684 -61.192 143.057 25.0013L151.787 608.937C153.158 695.006 157.273 765 161.139 765C165.006 764.629 181.094 695.006 197.182 610.174L225.119 462.149C225.119 462.149 225.866 458.192 227.114 450.896L236.093 403.41C237.215 397.597 238.588 391.662 240.209 385.726C240.333 385.602 240.333 385.478 240.333 385.355C241.207 381.026 242.329 376.575 243.202 371.999C247.193 353.574 251.558 332.798 257.17 310.415C262.284 287.908 267.895 263.67 274.755 238.32C280.99 212.721 288.099 185.887 295.956 158.309C303.563 130.609 311.67 102.167 320.275 73.3527C322.645 66.3043 324.765 59.1313 327.01 51.8349L328.757 46.3945L331.001 39.7172L334.618 28.8337C337.736 21.0429 341.602 11.3975 345.343 3.85463C349.085 -4.06078 352.951 -11.727 357.316 -19.1466C373.903 -49.073 394.231 -75.2902 415.184 -99.4036C436.136 -123.395 458.21 -144.912 479.786 -164.821C501.487 -184.485 522.687 -202.787 542.892 -219.728C562.846 -236.547 581.803 -252.499 599.013 -267.215C616.099 -282.055 631.439 -295.905 644.284 -308.766C657.005 -321.75 667.98 -333.374 675.838 -344.01C683.694 -354.521 689.556 -363.301 692.923 -369.608C696.415 -376.039 698.286 -379.501 698.286 -379.501C698.286 -379.501 697.912 -375.544 697.163 -368.248C695.916 -360.952 694.046 -350.069 689.307 -336.714C684.567 -323.606 677.833 -307.776 668.105 -290.711C658.626 -273.769 646.404 -255.343 632.187 -236.423C604.002 -198.458 567.585 -157.896 530.545 -115.11C511.962 -93.8399 493.38 -71.8276 476.045 -49.1976C458.709 -26.4429 442.496 -3.0705 429.651 21.0429C426.408 26.9792 423.539 33.0386 420.671 39.0981C417.803 45.4056 416.057 49.8571 413.562 56.2878L409.696 67.0467L408.199 71.2503L406.329 76.692C403.959 84.1117 401.59 91.2834 399.22 98.4564C389.367 127.146 379.764 155.589 369.289 182.67C367.293 187.618 365.298 192.687 363.303 197.511C375.649 187.247 388.121 178.096 400.841 170.799L509.218 108.226C583.673 65.0675 662.367 -38.4387 684.068 -121.91L738.445 -332.014C753.909 -391.372 736.075 -425.751 697.537 -425.751H697.413Z" fill="white" fill-opacity="0.02"/>
</g>
<defs>
<clipPath id="clip0_48_291">
<rect width="570" height="265" rx="20" fill="white"/>
</clipPath>
</defs>
</svg>
