<svg width="24" height="24" viewBox="0 0 24 24" fill="none" xmlns="http://www.w3.org/2000/svg">
<g clip-path="url(#clip0_799_568)">
<circle cx="12" cy="12" r="11.5" stroke="url(#paint0_linear_799_568)"/>
<path d="M6.44494 6.5808L8.88038 6.01805C9.13798 5.9477 9.41899 6.08839 9.53608 6.34632L10.6601 8.9725C10.7538 9.20698 10.6836 9.46491 10.4962 9.62905L9.06773 10.8014C9.91077 12.5835 11.3861 14.0842 13.2127 14.9518L14.3835 13.5214C14.5475 13.3338 14.8051 13.2635 15.0393 13.3573L17.6621 14.4828C17.9197 14.6001 18.0367 14.8814 17.9899 15.1393L17.4279 17.5779C17.3576 17.8359 17.1469 18 16.8658 18C10.8709 18 6 13.1462 6 7.1201C6 6.86218 6.18734 6.65114 6.44494 6.5808Z" fill="url(#paint1_linear_799_568)"/>
</g>
<defs>
<linearGradient id="paint0_linear_799_568" x1="24" y1="12" x2="-3.81438e-07" y2="12" gradientUnits="userSpaceOnUse">
<stop stop-color="#AD8153"/>
<stop offset="0.25" stop-color="#E2B36C"/>
<stop offset="0.5" stop-color="#FDECD6"/>
<stop offset="0.75" stop-color="#DCAC64"/>
<stop offset="1" stop-color="#AF8352"/>
</linearGradient>
<linearGradient id="paint1_linear_799_568" x1="18" y1="11.6583" x2="6" y2="11.6583" gradientUnits="userSpaceOnUse">
<stop stop-color="#AD8153"/>
<stop offset="0.25" stop-color="#E2B36C"/>
<stop offset="0.5" stop-color="#FDECD6"/>
<stop offset="0.75" stop-color="#DCAC64"/>
<stop offset="1" stop-color="#AF8352"/>
</linearGradient>
<clipPath id="clip0_799_568">
<rect width="24" height="24" fill="white"/>
</clipPath>
</defs>
</svg>
