<svg width="56" height="55" viewBox="0 0 56 55" fill="none" xmlns="http://www.w3.org/2000/svg">
<path d="M28 54.9356C43.1701 54.9356 55.4679 42.6378 55.4679 27.4678C55.4679 12.2977 43.1701 0 28 0C12.83 0 0.532166 12.2977 0.532166 27.4678C0.532166 42.6378 12.83 54.9356 28 54.9356Z" fill="#1F1F1F"/>
<path d="M13.9618 25.7375C13.6092 25.6093 13.2567 25.5131 12.9362 25.3849C12.6798 25.2887 12.4233 25.1926 12.1669 25.0323C11.8785 24.8721 11.8143 24.6798 11.9425 24.4234C12.1348 23.9746 12.3913 23.5579 12.6477 23.1733C12.8079 22.9169 13.1285 22.8208 13.417 22.8208C14.4426 22.7567 15.4682 22.6606 16.4618 22.6285C16.6861 22.6285 16.8143 22.5323 16.9746 22.372C17.84 21.3785 18.6733 20.3528 19.5707 19.3592C20.4041 18.4618 20.4361 18.4939 21.654 18.4939C26.0771 18.4939 30.5323 18.4939 34.9553 18.4939C35.3399 18.4939 35.6604 18.59 35.9168 18.8464C36.5258 19.4554 37.1348 20.0644 37.7117 20.7054C38.1925 21.2503 38.6411 21.8272 39.0899 22.4041C39.186 22.5323 39.3143 22.5965 39.4746 22.6285C40.5002 22.6926 41.5258 22.7566 42.5514 22.8528C43.0002 22.8528 43.3527 23.0772 43.5771 23.4618C43.7694 23.7502 43.9296 24.0708 44.0578 24.3913C44.2181 24.7438 44.154 24.9682 43.7694 25.1285C43.2566 25.3529 42.7437 25.5131 42.2309 25.7054C42.1668 25.7054 42.1027 25.7374 42.0065 25.7695C42.0386 25.8656 42.0706 25.9618 42.1027 26.0259C42.4552 26.731 42.8079 27.4682 43.1604 28.1733C43.2886 28.4618 43.3528 28.7502 43.3848 29.0707C43.3848 30.0964 43.3848 31.1221 43.3848 32.1477C43.3848 34.0708 43.3848 35.9938 43.3848 37.949C43.3848 38.2054 43.3847 38.4617 43.3206 38.7181C43.2565 39.0707 43.0002 39.231 42.6797 39.2631C42.5194 39.2631 42.3591 39.2631 42.1988 39.2631C40.8847 39.2631 39.6027 39.2631 38.2886 39.2631C38.2245 39.2631 38.1604 39.2631 38.0963 39.2631C37.4873 39.199 37.1669 38.9104 37.1669 38.2694C37.1669 37.7886 37.1669 37.2758 37.1669 36.7951C37.1669 36.5387 37.1027 36.4745 36.8463 36.4745C35.1476 36.4745 33.4809 36.4745 31.7822 36.4745C27.9361 36.4745 24.122 36.4745 20.2759 36.4745C19.8271 36.4745 19.3464 36.4745 18.8977 36.4745C18.6733 36.4745 18.5772 36.5386 18.6092 36.763C18.6092 37.2758 18.6092 37.7566 18.6092 38.2694C18.6092 38.9425 18.2887 39.2631 17.6476 39.2631C16.2374 39.2631 14.8272 39.2631 13.417 39.2631C12.7439 39.2631 12.5195 39.0386 12.4234 38.3655C12.3913 37.9809 12.3913 37.5964 12.3913 37.2117C12.3913 34.5835 12.3913 31.9554 12.3913 29.3272C12.3913 28.8464 12.4875 28.4297 12.7118 27.981C13.0964 27.3079 13.449 26.5708 13.8336 25.8977C13.8336 25.8336 13.8657 25.8015 13.8977 25.7054L13.9618 25.7375ZM28.0002 25.7695C31.3335 25.7695 34.6668 25.7695 38.0001 25.7695C38.0322 25.7695 38.0963 25.7695 38.1284 25.7695C38.2886 25.7695 38.3527 25.6733 38.3527 25.5451C38.3527 25.3848 38.2886 25.2246 38.2566 25.0643C37.5835 23.4618 36.5258 22.1797 35.2438 21.0579C34.9553 20.8015 34.5707 20.7054 34.186 20.7054C30.0835 20.7054 25.981 20.7054 21.8784 20.7054C21.3976 20.7054 21.013 20.8657 20.6604 21.1862C19.8592 21.9233 19.1541 22.7567 18.5771 23.7182C18.2566 24.2311 18.0002 24.8079 17.7759 25.3528C17.6156 25.7374 17.7118 25.8336 18.1285 25.8336C21.4297 25.8336 24.731 25.8336 28.0323 25.8336L28.0002 25.7695ZM18.3528 31.4746C18.3528 31.4746 18.3528 31.5067 18.3528 31.5387C19.0579 31.5387 19.731 31.5387 20.4362 31.5387C20.6285 31.5387 20.6925 31.5066 20.6925 31.2823C20.6925 30.9938 20.6925 30.6733 20.6925 30.3848C20.7246 29.84 20.4682 29.5195 19.9874 29.3272C19.7951 29.231 19.5708 29.1669 19.3464 29.1349C18.3849 29.0067 17.4233 28.8784 16.4618 28.7823C15.8848 28.7182 15.2759 28.6541 14.699 28.6221C14.6028 28.6221 14.4425 28.7181 14.4425 28.7502C14.4425 29.2951 14.3784 29.8399 14.4425 30.3527C14.5066 30.9297 14.8913 31.2502 15.5003 31.2823C16.4618 31.3464 17.3912 31.3785 18.3528 31.4426V31.4746ZM35.3078 31.5066C35.3078 31.5066 35.404 31.5066 35.4361 31.5066C37.1348 31.4425 38.8656 31.3784 40.5643 31.2823C41.0451 31.2823 41.4296 30.9617 41.4937 30.481C41.5578 29.9682 41.5258 29.4233 41.5579 28.9105C41.5579 28.6541 41.4617 28.59 41.2052 28.6221C39.795 28.7823 38.3527 28.9105 36.9425 29.0707C36.4938 29.1348 36.045 29.1989 35.6924 29.4874C35.5322 29.6156 35.372 29.8079 35.3399 30.0002C35.2758 30.481 35.3399 30.9617 35.3399 31.4746L35.3078 31.5066Z" fill="url(#paint0_linear_201_429)"/>
<path d="M15.3081 12.1156C15.3081 12.1156 15.4363 12.3079 15.4683 12.404C15.7568 12.9809 16.0453 13.5578 16.3658 14.1027C16.4299 14.2309 16.5581 14.3591 16.6863 14.4232C17.2632 14.7438 17.8721 15.0001 18.4491 15.2886C18.5132 15.3206 18.5773 15.3527 18.7055 15.4488C18.6094 15.5129 18.5452 15.545 18.4491 15.577C17.8721 15.8655 17.2632 16.1539 16.6863 16.4424C16.526 16.5065 16.3978 16.6668 16.3017 16.8271C15.9812 17.404 15.7248 17.9809 15.4043 18.5258C15.3722 18.5899 15.3401 18.6539 15.276 18.7501C15.1478 18.5257 15.0517 18.3335 14.9235 18.1091C14.6992 17.6604 14.4747 17.2116 14.2504 16.7629C14.1863 16.6347 14.0261 16.4745 13.8979 16.4104C13.3209 16.0899 12.712 15.8334 12.1351 15.545C12.071 15.5129 12.0069 15.4809 11.9107 15.4168C12.0069 15.3527 12.0389 15.3206 12.103 15.2886C12.712 15.0001 13.321 14.7117 13.9299 14.3912C14.0581 14.3271 14.1863 14.1988 14.2825 14.0706C14.603 13.4937 14.8593 12.9168 15.1478 12.3719C15.1799 12.3078 15.244 12.2117 15.3081 12.1156Z" fill="url(#paint1_linear_201_429)"/>
<path d="M21.9106 11.603C22.1349 12.0517 22.3273 12.4684 22.5516 12.821C22.6157 12.9492 22.7438 13.0453 22.872 13.1094C23.2567 13.3338 23.6733 13.4941 24.09 13.7184C23.9618 13.7825 23.8656 13.8787 23.7695 13.9107C22.9361 14.1671 22.3592 14.712 22.0708 15.5773C22.0387 15.6735 21.9746 15.7697 21.8785 15.8979C21.6541 15.4812 21.4618 15.0966 21.2695 14.712C21.1733 14.5838 21.0452 14.4235 20.917 14.3594C20.5324 14.1671 20.1477 13.9748 19.699 13.7504C20.1477 13.526 20.5324 13.3337 20.917 13.1414C21.0452 13.0453 21.2054 12.9171 21.2695 12.7889C21.4938 12.4363 21.6541 12.0517 21.8785 11.603H21.9106Z" fill="url(#paint2_linear_201_429)"/>
<defs>
<linearGradient id="paint0_linear_201_429" x1="43.9045" y1="25.5757" x2="11.9045" y2="25.5757" gradientUnits="userSpaceOnUse">
<stop stop-color="#AD8153"/>
<stop offset="0.25" stop-color="#E2B36C"/>
<stop offset="0.5" stop-color="#FDECD6"/>
<stop offset="0.75" stop-color="#DCAC64"/>
<stop offset="1" stop-color="#AF8352"/>
</linearGradient>
<linearGradient id="paint1_linear_201_429" x1="43.9045" y1="25.5757" x2="11.9045" y2="25.5757" gradientUnits="userSpaceOnUse">
<stop stop-color="#AD8153"/>
<stop offset="0.25" stop-color="#E2B36C"/>
<stop offset="0.5" stop-color="#FDECD6"/>
<stop offset="0.75" stop-color="#DCAC64"/>
<stop offset="1" stop-color="#AF8352"/>
</linearGradient>
<linearGradient id="paint2_linear_201_429" x1="43.9045" y1="25.5757" x2="11.9045" y2="25.5757" gradientUnits="userSpaceOnUse">
<stop stop-color="#AD8153"/>
<stop offset="0.25" stop-color="#E2B36C"/>
<stop offset="0.5" stop-color="#FDECD6"/>
<stop offset="0.75" stop-color="#DCAC64"/>
<stop offset="1" stop-color="#AF8352"/>
</linearGradient>
</defs>
</svg>
