<svg width="570" height="170" viewBox="0 0 570 170" fill="none" xmlns="http://www.w3.org/2000/svg">
<g clip-path="url(#clip0_65_138)">
<rect width="570" height="170" rx="20" fill="#0C0C0C"/>
<path fill-rule="evenodd" clip-rule="evenodd" d="M89.7889 431.822V431.699H89.6652C87.4201 429.721 81.8074 413.274 74.6984 388.541L73.2022 383.346C71.0822 375.803 68.837 367.518 66.4683 358.862V358.738C63.2243 346.619 59.8581 333.635 56.4904 320.031L50.6291 296.289C50.6291 296.289 50.0053 293.196 49.1328 287.507C48.1339 281.819 46.8877 273.411 44.7676 262.9C42.7713 252.387 40.6512 239.65 37.5337 225.306C34.5411 210.836 31.2985 194.39 27.3071 176.83C23.3157 159.269 19.0756 140.226 14.5868 120.068C14.0881 118.337 13.5879 116.482 13.2142 114.751V114.628L12.4667 111.66C11.7179 108.568 10.9691 105.352 10.2216 102.261V102.013H10.0966L9.47281 99.0461C6.23022 85.4424 3.11269 71.4689 -0.379944 57.2474C-1.37746 53.4136 -2.37495 49.5798 -3.37247 45.7474V45.3763L-4.12128 42.7794V42.4081L-4.86884 39.6879V39.4401L-5.61752 36.5952V36.4719L-6.36636 33.5038C-9.73265 19.407 -13.1002 4.93754 -16.5929 -9.53052C-19.3367 -20.9072 -22.3293 -32.2839 -25.3218 -43.7851C-26.4444 -48.7311 -27.6919 -53.8017 -28.8145 -58.749V-58.8723C-29.5633 -62.087 -30.3107 -65.303 -31.0595 -68.5177L-33.3046 -78.2877C-36.1722 -89.7876 -38.916 -101.412 -41.7849 -112.789L-46.6487 -130.967C-47.7713 -135.79 -50.5151 -144.694 -53.1339 -151.372C-63.7342 -178.454 -80.696 -201.085 -98.6552 -218.892C-116.863 -236.699 -136.069 -250.302 -154.277 -261.926C-172.361 -273.427 -189.822 -282.825 -205.91 -291.358C-235.218 -306.693 -259.911 -319.182 -278.119 -328.952V-329.075C-279.99 -329.941 -281.735 -330.93 -283.357 -331.92C-300.817 -341.565 -311.169 -347.377 -312.415 -348.119C-312.041 -347.502 -310.42 -345.276 -307.427 -341.071C-303.81 -336.62 -298.697 -329.694 -291.463 -321.656C-284.23 -313.742 -275.375 -303.725 -264.65 -293.461C-253.8 -283.073 -241.328 -271.696 -227.734 -259.824C-214.265 -248.076 -199.798 -235.339 -184.334 -221.86L-182.713 -220.375C-174.107 -212.338 -165.377 -204.053 -157.271 -195.396V-195.025H-156.897L-156.522 -194.654V-194.283H-156.148L-155.774 -193.788V-193.54H-155.399L-155.026 -193.046V-192.799H-154.777L-154.153 -192.18V-192.057H-154.028L-153.404 -191.439V-191.315C-152.657 -190.574 -151.908 -189.708 -151.159 -188.842V-188.348H-150.785L-150.412 -187.977V-187.605H-150.037L-149.663 -187.234V-186.863H-149.413L-148.914 -186.369V-186.121H-148.79L-148.167 -185.503V-185.38C-147.169 -184.266 -146.172 -183.029 -145.173 -181.917V-181.669H-145.049L-144.425 -180.927C-143.801 -180.186 -143.303 -179.443 -142.679 -178.701C-141.431 -177.218 -140.309 -175.733 -139.186 -174.25C-137.94 -172.518 -136.693 -170.787 -135.445 -169.056V-168.932C-134.447 -167.572 -133.45 -166.088 -132.452 -164.604V-164.48H-132.327C-131.829 -163.862 -131.455 -163.119 -130.956 -162.378V-162.254C-130.207 -161.142 -129.459 -159.905 -128.711 -158.668V-158.545H-128.586C-126.466 -155.082 -124.471 -151.495 -122.725 -147.786V-147.415H-122.475L-121.976 -146.302V-145.931H-121.727L-121.228 -144.694V-144.446H-121.103L-120.48 -143.086V-142.963H-120.355C-119.856 -141.85 -119.357 -140.613 -118.983 -139.5V-139.253H-118.858C-118.359 -138.016 -117.861 -136.904 -117.487 -135.667V-135.543H-117.362L-116.738 -133.564V-133.318H-116.613C-116.364 -132.699 -116.114 -131.956 -115.866 -131.339V-130.967C-115.616 -130.225 -115.367 -129.484 -115.117 -128.742C-113.746 -124.29 -112.997 -121.816 -111.501 -115.139L-108.008 -98.3208C-105.763 -86.325 -102.77 -74.4539 -100.151 -62.4582C-96.6589 -46.2588 -92.6688 -30.1827 -88.1786 -14.3532C-99.4027 -23.2575 -110.877 -30.9238 -122.226 -36.4888L-237.712 -94.6103L-239.083 -95.3526C-241.328 -96.4662 -243.573 -97.7017 -245.818 -98.9385V-99.0631H-245.943C-249.061 -100.918 -252.303 -102.895 -255.546 -104.998H-255.671L-257.791 -106.483H-257.915L-260.036 -107.966C-261.781 -109.203 -263.527 -110.44 -265.274 -111.677H-265.399C-267.394 -113.16 -269.389 -114.643 -271.385 -116.128C-272.631 -117.117 -273.879 -118.106 -275.126 -119.096C-278.119 -121.445 -281.112 -124.042 -284.105 -126.516C-292.836 -134.059 -301.441 -142.344 -309.672 -151.125C-311.916 -153.597 -314.162 -155.948 -316.406 -158.545C-319.275 -161.759 -321.894 -164.851 -324.638 -168.19H-324.762C-330.499 -175.239 -335.987 -182.412 -341.1 -189.708V-189.831H-341.225C-343.719 -193.54 -346.213 -197.127 -348.708 -200.837V-200.961C-351.826 -205.907 -354.819 -210.853 -357.687 -215.8V-215.924C-359.558 -219.14 -361.304 -222.354 -362.925 -225.569L-363.673 -227.054L-364.422 -228.537C-366.043 -231.753 -367.539 -234.968 -368.911 -238.183C-370.907 -242.635 -372.653 -247.087 -374.149 -251.538V-251.663H-374.274C-374.648 -253.023 -375.147 -254.383 -375.646 -255.743L-438.128 -450.389C-438.627 -451.873 -439.126 -453.233 -439.5 -454.717V-454.841C-439.749 -455.707 -439.999 -456.572 -440.248 -457.438V-457.809H-440.373C-440.622 -458.674 -440.747 -459.416 -440.996 -460.282V-460.777H-441.121C-441.371 -461.766 -441.495 -462.632 -441.745 -463.621V-463.745C-441.994 -464.981 -442.244 -466.218 -442.493 -467.331V-467.454C-442.742 -469.062 -442.992 -470.546 -443.241 -472.154V-474.132H-443.491C-444.364 -482.047 -444.114 -488.972 -442.742 -495.031H-442.493V-496.144C-442.368 -496.763 -442.119 -497.381 -441.994 -497.999H-441.745V-498.865C-441.121 -500.596 -440.498 -502.327 -439.625 -503.935H-439.5V-504.306C-439.25 -504.677 -439.126 -505.048 -438.876 -505.419H-438.752V-505.666C-438.377 -506.408 -437.879 -507.027 -437.504 -507.645H-437.255V-508.016C-436.382 -509.253 -435.509 -510.365 -434.511 -511.355H-434.262V-511.726L-433.763 -512.097H-433.514V-512.468L-433.015 -512.839H-432.765V-513.086L-432.142 -513.704H-432.017V-513.828C-431.019 -514.57 -430.022 -515.188 -429.024 -515.93C-428.151 -516.425 -427.278 -516.92 -426.405 -517.414H-426.031V-517.538C-425.532 -517.785 -425.158 -517.909 -424.784 -518.156H-424.534V-518.28C-423.911 -518.404 -423.412 -518.651 -422.788 -518.898H-422.164V-519.022C-420.543 -519.64 -418.922 -520.011 -417.051 -520.382H-415.43V-520.629C-413.434 -520.877 -411.314 -521 -409.194 -521C-405.328 -521 -401.088 -520.629 -396.723 -519.64H-396.224C-395.101 -519.393 -394.104 -519.146 -392.981 -518.898C-391.235 -518.404 -389.489 -517.909 -387.743 -517.414H-387.619C-386.87 -517.167 -386.122 -516.92 -385.374 -516.672H-385.249C-384.625 -516.425 -383.877 -516.178 -383.129 -515.93C-380.635 -515.065 -378.265 -514.075 -375.646 -512.962V-512.839H-375.521C-373.65 -512.097 -371.78 -511.231 -369.784 -510.365L-322.393 -487.612L-53.6327 -358.755L-39.4148 -351.953C-37.1697 -350.964 -34.8009 -349.727 -32.5558 -348.491V-348.367H-32.4308L-31.0595 -347.625C-29.812 -346.883 -28.5644 -346.142 -27.3182 -345.399C-21.2068 -341.689 -15.0953 -337.485 -9.35892 -332.786C-7.48891 -331.301 -5.74257 -329.941 -4.12128 -328.333H-3.99628C2.86264 -322.398 9.34781 -315.967 15.4593 -309.042V-308.919C16.9555 -307.188 18.4518 -305.456 19.9494 -303.725C20.9469 -302.488 21.9445 -301.251 22.942 -300.015H23.067C25.3121 -297.171 27.5571 -294.203 29.6772 -291.112H29.8009C32.9198 -286.783 35.9123 -282.207 38.7812 -277.756V-277.632C39.5287 -276.396 40.2775 -275.282 41.0263 -274.045V-273.922C42.0238 -272.191 43.0213 -270.583 44.0188 -268.851V-268.728C47.0127 -263.411 49.7552 -258.092 52.2503 -252.529V-252.404H52.3754L52.9978 -250.921C53.7466 -249.189 54.4954 -247.458 55.2429 -245.727V-245.604C55.7416 -244.49 56.2404 -243.253 56.7405 -242.016V-241.893C58.1117 -238.554 59.3593 -235.091 60.4819 -231.753V-231.505H60.6055L61.2293 -229.403V-229.28H61.3544C62.1032 -226.806 62.8506 -224.334 63.4744 -221.86C63.7244 -220.871 63.9732 -220.005 64.2232 -219.015V-218.892H64.3469C64.4719 -217.903 64.722 -216.913 64.9707 -216.047V-215.924C65.8445 -212.215 66.592 -208.504 67.2158 -204.918V-204.67C67.9646 -200.713 68.4633 -196.756 68.712 -192.923V-192.057H68.837C68.9621 -190.449 69.087 -188.842 69.087 -187.358L76.1947 -20.9072L90.7864 317.187C90.9114 321.392 91.1615 325.473 91.2852 329.553V329.801C91.5352 337.963 91.7852 346 92.0339 353.544V354.285C92.7827 382.357 92.7827 405.606 92.0339 419.085V419.457C91.7852 423.042 91.5352 425.887 91.2852 427.988V428.236C91.0364 429.473 90.9114 430.339 90.6627 430.956H90.5377V431.451C90.4126 431.822 90.164 431.947 90.0389 431.947C89.9139 431.947 89.9139 431.947 89.7889 431.822ZM691.413 -393.751C675.699 -393.751 656.617 -388.062 634.792 -376.068L271.748 -175.363C196.296 -133.812 135.684 -29.1925 137.057 57.0008L145.787 640.937C147.158 727.006 151.273 797 155.139 797C159.006 796.628 175.094 727.006 191.182 642.174L219.119 494.149C219.119 494.149 219.866 490.192 221.114 482.895L230.093 435.409C231.215 429.596 232.588 423.662 234.209 417.725C234.333 417.602 234.333 417.477 234.333 417.354C235.207 413.026 236.329 408.574 237.202 403.998C241.193 385.573 245.558 364.798 251.17 342.414C256.284 319.907 261.895 295.669 268.755 270.319C274.99 244.721 282.099 217.886 289.956 190.309C297.563 162.608 305.67 134.166 314.275 105.352C316.645 98.3039 318.765 91.1308 321.01 83.8345L322.757 78.394L325 71.7168L328.618 60.8333C331.736 53.0425 335.602 43.3971 339.343 35.8542C343.085 27.9388 346.951 20.2725 351.316 12.8529C367.903 -17.0735 388.231 -43.2907 409.184 -67.4041C430.136 -91.3956 452.21 -112.912 473.786 -132.822C495.487 -152.485 516.687 -170.787 536.892 -187.729C556.846 -204.547 575.803 -220.5 593.013 -235.216C610.099 -250.055 625.439 -263.905 638.284 -276.767C651.005 -289.75 661.98 -301.375 669.838 -312.01C677.694 -322.521 683.556 -331.301 686.923 -337.608C690.415 -344.039 692.286 -347.502 692.286 -347.502C692.286 -347.502 691.912 -343.545 691.163 -336.248C689.916 -328.952 688.046 -318.07 683.307 -304.714C678.567 -291.606 671.833 -275.777 662.105 -258.712C652.626 -241.77 640.404 -223.343 626.187 -204.424C598.002 -166.459 561.585 -125.897 524.545 -83.1103C505.962 -61.8404 487.38 -39.8281 470.045 -17.1981C452.709 5.55659 436.496 28.929 423.651 53.0425C420.408 58.9787 417.539 65.0382 414.671 71.0977C411.803 77.4051 410.057 81.8566 407.562 88.2873L403.696 99.0461L402.199 103.25L400.329 108.692C397.959 116.111 395.59 123.283 393.22 130.456C383.367 159.146 373.764 187.588 363.289 214.67C361.293 219.617 359.298 224.687 357.303 229.511C369.649 219.246 382.121 210.095 394.841 202.799L503.218 140.226C577.673 97.067 656.367 -6.43916 678.068 -89.9109L732.445 -300.015C747.909 -359.373 730.074 -393.751 691.537 -393.751H691.413Z" fill="white" fill-opacity="0.02"/>
</g>
<defs>
<clipPath id="clip0_65_138">
<rect width="570" height="170" rx="20" fill="white"/>
</clipPath>
</defs>
</svg>
