<svg width="1158" height="590" viewBox="0 0 1158 590" fill="none" xmlns="http://www.w3.org/2000/svg">
<g clip-path="url(#clip0_65_143)">
<rect width="1158" height="590" rx="20" fill="#0C0C0C"/>
<path fill-rule="evenodd" clip-rule="evenodd" d="M679.789 241.822V241.699H679.665C677.42 239.721 671.807 223.274 664.698 198.541L663.202 193.346C661.082 185.803 658.837 177.518 656.468 168.861V168.738C653.224 156.619 649.858 143.634 646.49 130.031L640.629 106.289C640.629 106.289 640.005 103.196 639.133 97.5074C638.134 91.8191 636.888 83.4106 634.768 72.8995C632.771 62.3872 630.651 49.6504 627.534 35.3056C624.541 20.8362 621.299 4.39031 617.307 -13.1705C613.316 -30.7313 609.076 -49.774 604.587 -69.9318C604.088 -71.6631 603.588 -73.5176 603.214 -75.2489V-75.3723L602.467 -78.3403C601.718 -81.4317 600.969 -84.6477 600.222 -87.7391V-87.987H600.097L599.473 -90.9539C596.23 -104.558 593.113 -118.531 589.62 -132.753C588.623 -136.586 587.625 -140.42 586.628 -144.253V-144.624L585.879 -147.221V-147.592L585.131 -150.312V-150.56L584.382 -153.405V-153.528L583.634 -156.496C580.267 -170.593 576.9 -185.062 573.407 -199.531C570.663 -210.907 567.671 -222.284 564.678 -233.785C563.556 -238.731 562.308 -243.802 561.186 -248.749V-248.872C560.437 -252.087 559.689 -255.303 558.94 -258.518L556.695 -268.288C553.828 -279.788 551.084 -291.412 548.215 -302.789L543.351 -320.967C542.229 -325.79 539.485 -334.694 536.866 -341.372C526.266 -368.455 509.304 -391.085 491.345 -408.892C473.137 -426.699 453.931 -440.302 435.723 -451.926C417.639 -463.427 400.178 -472.825 384.09 -481.358C354.782 -496.693 330.089 -509.182 311.881 -518.952V-519.075C310.01 -519.941 308.265 -520.93 306.643 -521.92C289.183 -531.566 278.831 -537.377 277.585 -538.119C277.959 -537.502 279.58 -535.276 282.573 -531.071C286.19 -526.62 291.303 -519.694 298.537 -511.656C305.77 -503.742 314.625 -493.725 325.35 -483.461C336.2 -473.073 348.672 -461.696 362.266 -449.824C375.735 -438.076 390.202 -425.339 405.666 -411.86L407.287 -410.375C415.893 -402.338 424.623 -394.053 432.729 -385.396V-385.025H433.103L433.478 -384.654V-384.283H433.852L434.226 -383.788V-383.54H434.601L434.974 -383.046V-382.799H435.223L435.847 -382.18V-382.057H435.972L436.596 -381.439V-381.315C437.343 -380.574 438.092 -379.708 438.841 -378.842V-378.348H439.215L439.588 -377.977V-377.605H439.963L440.337 -377.234V-376.863H440.587L441.086 -376.369V-376.121H441.21L441.833 -375.503V-375.38C442.831 -374.266 443.828 -373.029 444.827 -371.917V-371.669H444.951L445.575 -370.927C446.199 -370.186 446.697 -369.443 447.321 -368.701C448.569 -367.218 449.691 -365.733 450.814 -364.25C452.06 -362.518 453.307 -360.787 454.555 -359.056V-358.932C455.553 -357.572 456.55 -356.088 457.548 -354.604V-354.48H457.673C458.171 -353.862 458.545 -353.119 459.044 -352.378V-352.254C459.793 -351.142 460.541 -349.905 461.289 -348.668V-348.545H461.414C463.534 -345.082 465.529 -341.495 467.275 -337.786V-337.415H467.525L468.024 -336.302V-335.931H468.273L468.772 -334.694V-334.446H468.897L469.52 -333.086V-332.963H469.645C470.144 -331.85 470.643 -330.613 471.017 -329.501V-329.253H471.142C471.641 -328.016 472.139 -326.904 472.513 -325.667V-325.543H472.638L473.262 -323.564V-323.318H473.387C473.636 -322.699 473.886 -321.956 474.134 -321.339V-320.967C474.384 -320.225 474.633 -319.484 474.883 -318.742C476.254 -314.29 477.003 -311.816 478.499 -305.139L481.992 -288.321C484.237 -276.325 487.23 -264.454 489.849 -252.458C493.341 -236.259 497.331 -220.183 501.821 -204.353C490.597 -213.258 479.123 -220.924 467.774 -226.489L352.288 -284.61L350.917 -285.353C348.672 -286.466 346.427 -287.702 344.182 -288.939V-289.063H344.057C340.939 -290.918 337.697 -292.896 334.454 -294.998H334.329L332.209 -296.483H332.085L329.964 -297.966C328.219 -299.203 326.473 -300.44 324.726 -301.677H324.601C322.606 -303.16 320.611 -304.643 318.615 -306.128C317.369 -307.117 316.121 -308.106 314.874 -309.096C311.881 -311.445 308.888 -314.042 305.895 -316.516C297.164 -324.059 288.559 -332.344 280.328 -341.125C278.084 -343.597 275.838 -345.948 273.594 -348.545C270.725 -351.759 268.106 -354.851 265.362 -358.19H265.238C259.501 -365.239 254.013 -372.412 248.9 -379.708V-379.831H248.775C246.281 -383.54 243.787 -387.128 241.292 -390.837V-390.961C238.174 -395.907 235.181 -400.853 232.313 -405.8V-405.924C230.442 -409.14 228.696 -412.354 227.075 -415.569L226.327 -417.054L225.578 -418.537C223.957 -421.753 222.461 -424.968 221.089 -428.183C219.093 -432.635 217.347 -437.087 215.851 -441.538V-441.663H215.726C215.352 -443.023 214.853 -444.383 214.354 -445.743L151.872 -640.389C151.373 -641.873 150.874 -643.233 150.5 -644.717V-644.841C150.251 -645.707 150.001 -646.572 149.752 -647.438V-647.809H149.627C149.378 -648.674 149.253 -649.416 149.004 -650.282V-650.777H148.879C148.629 -651.766 148.505 -652.632 148.255 -653.621V-653.745C148.006 -654.981 147.756 -656.218 147.507 -657.331V-657.454C147.258 -659.062 147.008 -660.546 146.759 -662.154V-664.132H146.509C145.636 -672.047 145.886 -678.972 147.258 -685.031H147.507V-686.144C147.632 -686.763 147.881 -687.381 148.006 -687.999H148.255V-688.865C148.879 -690.596 149.502 -692.327 150.375 -693.935H150.5V-694.306C150.75 -694.677 150.874 -695.048 151.124 -695.419H151.248V-695.666C151.623 -696.408 152.121 -697.027 152.496 -697.645H152.745V-698.016C153.618 -699.253 154.491 -700.365 155.489 -701.355H155.738V-701.726L156.237 -702.097H156.486V-702.468L156.985 -702.839H157.235V-703.086L157.858 -703.704H157.983V-703.828C158.981 -704.57 159.978 -705.188 160.976 -705.93C161.849 -706.425 162.722 -706.92 163.595 -707.414H163.969V-707.538C164.468 -707.785 164.842 -707.909 165.216 -708.156H165.466V-708.28C166.089 -708.404 166.588 -708.651 167.212 -708.898H167.836V-709.022C169.457 -709.64 171.078 -710.011 172.949 -710.382H174.57V-710.629C176.566 -710.877 178.686 -711 180.806 -711C184.672 -711 188.912 -710.629 193.277 -709.64H193.776C194.899 -709.393 195.896 -709.146 197.019 -708.898C198.765 -708.404 200.511 -707.909 202.257 -707.414H202.381C203.13 -707.167 203.878 -706.92 204.626 -706.672H204.751C205.375 -706.425 206.123 -706.178 206.871 -705.93C209.365 -705.065 211.735 -704.075 214.354 -702.962V-702.839H214.479C216.35 -702.097 218.22 -701.231 220.216 -700.365L267.607 -677.612L536.367 -548.755L550.585 -541.953C552.83 -540.964 555.199 -539.728 557.444 -538.491V-538.367H557.569L558.94 -537.625C560.188 -536.883 561.436 -536.142 562.682 -535.399C568.793 -531.689 574.905 -527.485 580.641 -522.786C582.511 -521.301 584.257 -519.941 585.879 -518.333H586.004C592.863 -512.398 599.348 -505.967 605.459 -499.042V-498.919C606.956 -497.188 608.452 -495.456 609.949 -493.725C610.947 -492.488 611.944 -491.251 612.942 -490.015H613.067C615.312 -487.171 617.557 -484.203 619.677 -481.112H619.801C622.92 -476.783 625.912 -472.207 628.781 -467.756V-467.632C629.529 -466.396 630.277 -465.282 631.026 -464.045V-463.922C632.024 -462.191 633.021 -460.583 634.019 -458.851V-458.728C637.013 -453.411 639.755 -448.092 642.25 -442.529V-442.404H642.375L642.998 -440.921C643.747 -439.189 644.495 -437.458 645.243 -435.727V-435.604C645.742 -434.49 646.24 -433.253 646.74 -432.016V-431.893C648.112 -428.554 649.359 -425.091 650.482 -421.753V-421.505H650.606L651.229 -419.403V-419.28H651.354C652.103 -416.806 652.851 -414.334 653.474 -411.86C653.724 -410.871 653.973 -410.005 654.223 -409.015V-408.892H654.347C654.472 -407.903 654.722 -406.913 654.971 -406.047V-405.924C655.844 -402.215 656.592 -398.504 657.216 -394.918V-394.67C657.965 -390.713 658.463 -386.756 658.712 -382.923V-382.057H658.837C658.962 -380.449 659.087 -378.842 659.087 -377.358L666.195 -210.907L680.786 127.187C680.911 131.392 681.161 135.473 681.285 139.553V139.801C681.535 147.963 681.785 156 682.034 163.544V164.285C682.783 192.357 682.783 215.606 682.034 229.085V229.457C681.785 233.042 681.535 235.887 681.285 237.988V238.236C681.036 239.473 680.911 240.339 680.663 240.956H680.538V241.451C680.413 241.822 680.164 241.947 680.039 241.947C679.914 241.947 679.914 241.947 679.789 241.822ZM1281.41 -583.751C1265.7 -583.751 1246.62 -578.062 1224.79 -566.068L861.748 -365.363C786.296 -323.812 725.684 -219.192 727.057 -132.999L735.787 450.937C737.158 537.006 741.273 607 745.139 607C749.006 606.628 765.094 537.006 781.182 452.174L809.119 304.149C809.119 304.149 809.866 300.192 811.114 292.895L820.093 245.409C821.215 239.596 822.588 233.661 824.209 227.725C824.333 227.602 824.333 227.477 824.333 227.354C825.207 223.026 826.329 218.574 827.202 213.998C831.193 195.573 835.558 174.798 841.17 152.414C846.284 129.907 851.895 105.669 858.755 80.3192C864.99 54.721 872.099 27.8861 879.956 0.308716C887.563 -27.3919 895.67 -55.8336 904.275 -84.6478C906.645 -91.6962 908.765 -98.8692 911.01 -106.166L912.757 -111.606L915 -118.283L918.618 -129.167C921.736 -136.958 925.602 -146.603 929.343 -154.146C933.085 -162.061 936.951 -169.727 941.316 -177.147C957.903 -207.073 978.231 -233.291 999.184 -257.404C1020.14 -281.396 1042.21 -302.912 1063.79 -322.822C1085.49 -342.485 1106.69 -360.787 1126.89 -377.729C1146.85 -394.547 1165.8 -410.5 1183.01 -425.216C1200.1 -440.055 1215.44 -453.905 1228.28 -466.767C1241 -479.75 1251.98 -491.375 1259.84 -502.01C1267.69 -512.521 1273.56 -521.301 1276.92 -527.608C1280.41 -534.039 1282.29 -537.502 1282.29 -537.502C1282.29 -537.502 1281.91 -533.545 1281.16 -526.248C1279.92 -518.952 1278.05 -508.07 1273.31 -494.714C1268.57 -481.606 1261.83 -465.777 1252.11 -448.712C1242.63 -431.77 1230.4 -413.343 1216.19 -394.424C1188 -356.459 1151.58 -315.897 1114.54 -273.11C1095.96 -251.84 1077.38 -229.828 1060.04 -207.198C1042.71 -184.443 1026.5 -161.071 1013.65 -136.958C1010.41 -131.021 1007.54 -124.962 1004.67 -118.902C1001.8 -112.595 1000.06 -108.143 997.562 -101.713L993.696 -90.9539L992.199 -86.7502L990.329 -81.3085C987.959 -73.8889 985.59 -66.7171 983.22 -59.5441C973.367 -30.8545 963.764 -2.41157 953.289 24.67C951.293 29.6173 949.298 34.6865 947.303 39.5106C959.649 29.2461 972.121 20.0952 984.841 12.7989L1093.22 -49.774C1167.67 -92.933 1246.37 -196.439 1268.07 -279.911L1322.44 -490.015C1337.91 -549.373 1320.07 -583.751 1281.54 -583.751H1281.41Z" fill="white" fill-opacity="0.02"/>
</g>
<defs>
<clipPath id="clip0_65_143">
<rect width="1158" height="590" rx="20" fill="white"/>
</clipPath>
</defs>
</svg>
