<svg width="570" height="170" viewBox="0 0 570 170" fill="none" xmlns="http://www.w3.org/2000/svg">
<g clip-path="url(#clip0_65_133)">
<rect width="570" height="170" rx="20" fill="#0C0C0C"/>
<path fill-rule="evenodd" clip-rule="evenodd" d="M682.498 436.883V436.759H682.374C680.118 434.77 674.477 418.236 667.331 393.372L665.828 388.149C663.697 380.566 661.44 372.237 659.059 363.535V363.411C655.799 351.227 652.416 338.174 649.031 324.498L643.14 300.629C643.14 300.629 642.513 297.52 641.636 291.802C640.632 286.083 639.38 277.63 637.249 267.063C635.242 256.495 633.111 243.69 629.978 229.269C626.97 214.723 623.711 198.19 619.7 180.536C615.688 162.882 611.426 143.738 606.915 123.473C606.413 121.733 605.911 119.868 605.535 118.128V118.004L604.784 115.02C604.031 111.912 603.279 108.679 602.527 105.571V105.322H602.402L601.775 102.339C598.516 88.6633 595.382 74.6155 591.872 60.3185C590.869 56.4644 589.867 52.6102 588.864 48.7574V48.3844L588.112 45.7736V45.4005L587.36 42.6658V42.4166L586.608 39.5567V39.4327L585.855 36.4489C582.472 22.2771 579.087 7.73087 575.577 -6.81403C572.819 -18.2511 569.811 -29.6882 566.803 -41.2506C565.675 -46.2228 564.421 -51.3203 563.293 -56.2939V-56.4179C562.54 -59.6496 561.789 -62.8827 561.037 -66.1145L558.78 -75.9364C555.898 -87.4974 553.14 -99.1836 550.257 -110.621L545.368 -128.896C544.24 -133.744 541.482 -142.696 538.85 -149.408C528.196 -176.635 511.148 -199.385 493.098 -217.287C474.797 -235.189 455.494 -248.864 437.194 -260.55C419.018 -272.113 401.469 -281.56 385.299 -290.138C355.842 -305.555 331.023 -318.11 312.723 -327.932V-328.056C310.842 -328.926 309.088 -329.92 307.459 -330.916C289.91 -340.613 279.506 -346.455 278.253 -347.201C278.629 -346.58 280.258 -344.343 283.266 -340.115C286.902 -335.64 292.04 -328.678 299.311 -320.597C306.581 -312.641 315.481 -302.571 326.261 -292.252C337.166 -281.809 349.701 -270.372 363.364 -258.437C376.901 -246.626 391.442 -233.822 406.984 -220.271L408.614 -218.779C417.263 -210.699 426.037 -202.369 434.185 -193.667V-193.294H434.56L434.937 -192.921V-192.547H435.313L435.689 -192.05V-191.801H436.066L436.441 -191.304V-191.056H436.691L437.318 -190.434V-190.31H437.444L438.071 -189.689V-189.564C438.822 -188.819 439.575 -187.948 440.327 -187.078V-186.581H440.703L441.079 -186.208V-185.835H441.456L441.831 -185.462V-185.088H442.083L442.584 -184.591V-184.342H442.708L443.335 -183.721V-183.597C444.338 -182.478 445.34 -181.234 446.344 -180.116V-179.867H446.468L447.095 -179.121C447.722 -178.376 448.224 -177.629 448.851 -176.883C450.105 -175.392 451.233 -173.899 452.361 -172.408C453.614 -170.667 454.867 -168.927 456.121 -167.186V-167.063C457.124 -165.695 458.126 -164.203 459.129 -162.711V-162.586H459.255C459.756 -161.965 460.132 -161.219 460.633 -160.474V-160.348C461.386 -159.23 462.138 -157.987 462.889 -156.744V-156.62H463.015C465.146 -153.139 467.151 -149.532 468.906 -145.804V-145.43H469.158L469.659 -144.312V-143.939H469.909L470.41 -142.696V-142.447H470.536L471.163 -141.079V-140.955H471.288C471.79 -139.836 472.291 -138.592 472.667 -137.474V-137.225H472.792C473.294 -135.982 473.795 -134.864 474.17 -133.62V-133.496H474.296L474.923 -131.507V-131.259H475.049C475.299 -130.636 475.55 -129.89 475.8 -129.269V-128.896C476.051 -128.15 476.301 -127.405 476.553 -126.658C477.931 -122.183 478.683 -119.696 480.187 -112.984L483.698 -96.0759C485.954 -84.0164 488.962 -72.0822 491.594 -60.0228C495.104 -43.7374 499.115 -27.5759 503.628 -11.6623C492.347 -20.614 480.814 -28.3209 469.408 -33.9155L353.335 -92.3457L351.957 -93.092C349.701 -94.2114 347.444 -95.4535 345.188 -96.6969V-96.8222H345.062C341.929 -98.6866 338.67 -100.675 335.411 -102.789H335.285L333.154 -104.281H333.03L330.898 -105.772C329.144 -107.016 327.389 -108.259 325.634 -109.503H325.508C323.503 -110.994 321.498 -112.485 319.491 -113.978C318.239 -114.972 316.985 -115.966 315.731 -116.962C312.723 -119.323 309.715 -121.934 306.706 -124.421C297.932 -132.004 289.283 -140.333 281.009 -149.161C278.754 -151.646 276.497 -154.009 274.241 -156.62C271.358 -159.851 268.726 -162.959 265.968 -166.316H265.843C260.077 -173.402 254.562 -180.613 249.422 -187.948V-188.072H249.297C246.79 -191.801 244.283 -195.407 241.776 -199.136V-199.261C238.642 -204.234 235.634 -209.206 232.751 -214.18V-214.303C230.871 -217.537 229.116 -220.768 227.486 -224L226.734 -225.493L225.982 -226.984C224.353 -230.217 222.849 -233.449 221.47 -236.681C219.464 -241.157 217.709 -245.632 216.205 -250.107V-250.233H216.08C215.704 -251.6 215.202 -252.967 214.701 -254.335L151.902 -450.014C151.4 -451.506 150.899 -452.873 150.523 -454.365V-454.489C150.272 -455.36 150.022 -456.23 149.771 -457.1V-457.473H149.646C149.395 -458.343 149.269 -459.089 149.019 -459.959V-460.457H148.893C148.643 -461.451 148.517 -462.322 148.267 -463.316V-463.44C148.016 -464.684 147.765 -465.927 147.515 -467.046V-467.17C147.264 -468.786 147.013 -470.278 146.763 -471.894V-473.883H146.512C145.634 -481.84 145.885 -488.802 147.264 -494.893H147.515V-496.012C147.64 -496.634 147.891 -497.255 148.016 -497.877H148.267V-498.747C148.893 -500.488 149.52 -502.228 150.398 -503.844H150.523V-504.217C150.774 -504.59 150.899 -504.963 151.15 -505.336H151.275V-505.585C151.651 -506.331 152.152 -506.952 152.529 -507.574H152.779V-507.947C153.657 -509.19 154.534 -510.309 155.537 -511.304H155.788V-511.677L156.289 -512.049H156.54V-512.422L157.041 -512.795H157.292V-513.044L157.918 -513.666H158.044V-513.79C159.047 -514.536 160.049 -515.157 161.052 -515.903C161.93 -516.401 162.807 -516.898 163.684 -517.395H164.06V-517.52C164.562 -517.768 164.938 -517.892 165.314 -518.141H165.565V-518.265C166.191 -518.39 166.693 -518.638 167.32 -518.887H167.946V-519.011C169.576 -519.633 171.205 -520.006 173.086 -520.379H174.715V-520.628C176.721 -520.876 178.852 -521 180.982 -521C184.868 -521 189.13 -520.628 193.517 -519.633H194.019C195.147 -519.384 196.15 -519.136 197.278 -518.887C199.033 -518.39 200.787 -517.892 202.542 -517.395H202.668C203.42 -517.147 204.172 -516.898 204.924 -516.649H205.049C205.676 -516.401 206.428 -516.152 207.18 -515.903C209.687 -515.033 212.069 -514.039 214.701 -512.92V-512.795H214.826C216.707 -512.049 218.587 -511.179 220.592 -510.309L268.225 -487.434L538.349 -357.893L552.639 -351.055C554.895 -350.061 557.276 -348.818 559.533 -347.574V-347.451H559.658L561.037 -346.704C562.291 -345.958 563.544 -345.213 564.797 -344.467C570.939 -340.736 577.082 -336.511 582.847 -331.786C584.727 -330.294 586.482 -328.926 588.112 -327.31H588.237C595.131 -321.343 601.649 -314.878 607.792 -307.916V-307.793C609.295 -306.052 610.799 -304.312 612.305 -302.571C613.307 -301.328 614.31 -300.084 615.312 -298.841H615.438C617.694 -295.982 619.951 -292.998 622.082 -289.891H622.206C625.341 -285.539 628.348 -280.939 631.232 -276.464V-276.34C631.983 -275.096 632.736 -273.977 633.488 -272.734V-272.61C634.491 -270.869 635.494 -269.253 636.496 -267.512V-267.388C639.505 -262.043 642.262 -256.696 644.769 -251.103V-250.978H644.895L645.521 -249.486C646.273 -247.746 647.026 -246.005 647.777 -244.265V-244.141C648.278 -243.021 648.78 -241.778 649.282 -240.535V-240.411C650.661 -237.054 651.914 -233.573 653.043 -230.217V-229.968H653.167L653.794 -227.854V-227.73H653.92C654.672 -225.243 655.423 -222.758 656.05 -220.271C656.302 -219.277 656.552 -218.407 656.803 -217.411V-217.287H656.927C657.053 -216.293 657.304 -215.298 657.554 -214.427V-214.303C658.433 -210.575 659.184 -206.844 659.811 -203.24V-202.99C660.563 -199.012 661.065 -195.034 661.315 -191.18V-190.31H661.44C661.566 -188.693 661.692 -187.078 661.692 -185.585L668.835 -18.2511L683.501 321.639C683.627 325.866 683.878 329.968 684.002 334.07V334.319C684.254 342.525 684.505 350.605 684.755 358.189V358.934C685.508 387.155 685.508 410.528 684.755 424.078V424.451C684.505 428.056 684.254 430.916 684.002 433.029V433.278C683.752 434.521 683.627 435.391 683.377 436.012H683.251V436.51C683.125 436.883 682.875 437.008 682.75 437.008C682.624 437.008 682.624 437.008 682.498 436.883ZM1287.18 -393.075C1271.38 -393.075 1252.2 -387.356 1230.27 -375.298L865.381 -173.527C789.546 -131.756 728.627 -26.5804 730.006 60.0706L738.781 647.108C740.159 733.634 744.295 804 748.181 804C752.067 803.626 768.236 733.634 784.406 648.352L812.485 499.54C812.485 499.54 813.236 495.562 814.49 488.227L823.515 440.489C824.643 434.645 826.022 428.679 827.652 422.711C827.776 422.587 827.776 422.462 827.776 422.338C828.655 417.987 829.783 413.511 830.66 408.911C834.671 390.388 839.059 369.502 844.699 347C849.838 324.374 855.478 300.007 862.373 274.522C868.64 248.788 875.785 221.81 883.681 194.087C891.328 166.239 899.475 137.646 908.124 108.679C910.507 101.593 912.637 94.3819 914.894 87.0468L916.649 81.5775L918.904 74.8648L922.54 63.9235C925.674 56.0913 929.56 46.3947 933.32 38.8117C937.08 30.8542 940.966 23.1473 945.354 15.6883C962.024 -14.397 982.456 -40.7535 1003.52 -64.995C1024.57 -89.1139 1046.76 -110.745 1068.44 -130.76C1090.26 -150.528 1111.56 -168.927 1131.87 -185.959C1151.93 -202.866 1170.98 -218.904 1188.28 -233.698C1205.45 -248.616 1220.87 -262.54 1233.78 -275.47C1246.56 -288.522 1257.59 -300.208 1265.49 -310.9C1273.39 -321.467 1279.28 -330.294 1282.66 -336.634C1286.17 -343.099 1288.05 -346.58 1288.05 -346.58C1288.05 -346.58 1287.68 -342.602 1286.93 -335.267C1285.67 -327.932 1283.79 -316.992 1279.03 -303.565C1274.27 -290.388 1267.5 -274.474 1257.72 -257.318C1248.19 -240.287 1235.91 -221.762 1221.62 -202.742C1193.29 -164.576 1156.69 -123.798 1119.46 -80.7847C1100.78 -59.4018 1082.11 -37.2725 1064.68 -14.5223C1047.26 8.3532 1030.97 31.8498 1018.06 56.0913C1014.8 62.059 1011.91 68.1507 1009.03 74.2424C1006.15 80.5833 1004.39 85.0584 1001.88 91.5233L998 102.339L996.494 106.565L994.615 112.036C992.233 119.495 989.852 126.705 987.47 133.916C977.567 162.758 967.916 191.352 957.387 218.577C955.381 223.551 953.375 228.647 951.37 233.497C963.78 223.178 976.314 213.978 989.099 206.643L1098.03 143.738C1172.86 100.35 1251.95 -3.70626 1273.76 -87.6213L1328.42 -298.841C1343.96 -358.514 1326.03 -393.075 1287.3 -393.075H1287.18Z" fill="white" fill-opacity="0.02"/>
</g>
<defs>
<clipPath id="clip0_65_133">
<rect width="570" height="170" rx="20" fill="white"/>
</clipPath>
</defs>
</svg>
