<svg width="649" height="170" viewBox="0 0 649 170" fill="none" xmlns="http://www.w3.org/2000/svg">
<g clip-path="url(#clip0_19_254)">
<rect width="649" height="170" rx="20" fill="#0C0C0C"/>
<path fill-rule="evenodd" clip-rule="evenodd" d="M279.498 810.882V810.758H279.374C277.118 808.77 271.477 792.235 264.331 767.371L262.828 762.149C260.697 754.566 258.44 746.236 256.059 737.534V737.41C252.799 725.227 249.416 712.173 246.031 698.497L240.14 674.629C240.14 674.629 239.513 671.52 238.636 665.801C237.632 660.082 236.38 651.629 234.249 641.062C232.242 630.494 230.111 617.69 226.978 603.269C223.97 588.723 220.711 572.189 216.7 554.535C212.688 536.881 208.426 517.737 203.915 497.473C203.413 495.732 202.911 493.868 202.535 492.127V492.003L201.784 489.019C201.031 485.912 200.279 482.678 199.527 479.571V479.321H199.402L198.775 476.339C195.516 462.663 192.382 448.615 188.872 434.318C187.869 430.464 186.867 426.61 185.864 422.757V422.384L185.112 419.773V419.4L184.36 416.665V416.416L183.608 413.556V413.432L182.855 410.448C179.472 396.277 176.087 381.73 172.577 367.185C169.819 355.748 166.811 344.311 163.803 332.749C162.675 327.777 161.421 322.679 160.293 317.706V317.582C159.54 314.35 158.789 311.117 158.037 307.885L155.78 298.063C152.898 286.502 150.14 274.816 147.257 263.379L142.368 245.104C141.24 240.255 138.482 231.304 135.85 224.591C125.196 197.364 108.148 174.614 90.0978 156.712C71.7974 138.81 52.4944 125.136 34.194 113.449C16.0179 101.887 -1.53132 92.4395 -17.7009 83.861C-47.1581 68.4446 -71.9766 55.8894 -90.277 46.0675V45.9435C-92.1578 45.0733 -93.9117 44.0791 -95.5412 43.0836C-113.09 33.387 -123.494 27.5445 -124.747 26.7982C-124.371 27.4192 -122.742 29.6568 -119.734 33.8841C-116.098 38.3592 -110.96 45.3212 -103.689 53.4026C-96.4195 61.3587 -87.5192 71.4284 -76.7395 81.7474C-65.8341 92.1903 -53.2992 103.627 -39.636 115.563C-26.0985 127.373 -11.5585 140.178 3.98419 153.728L5.61375 155.221C14.2627 163.301 23.0372 171.63 31.1849 180.333V180.706H31.5605L31.9375 181.079V181.452H32.3131L32.6887 181.949V182.198H33.0657L33.4414 182.695V182.943H33.6913L34.3183 183.566V183.69H34.4439L35.0709 184.311V184.436C35.8221 185.181 36.5747 186.051 37.3273 186.921V187.419H37.703L38.0786 187.792V188.165H38.4556L38.8312 188.538V188.911H39.0825L39.5838 189.408V189.657H39.7081L40.3351 190.278V190.402C41.3377 191.522 42.3403 192.765 43.3442 193.883V194.133H43.4685L44.0954 194.879C44.7224 195.624 45.2237 196.37 45.8506 197.116C47.1045 198.608 48.2327 200.1 49.361 201.592C50.6135 203.332 51.8674 205.073 53.1213 206.813V206.937C54.1239 208.304 55.1265 209.797 56.129 211.288V211.413H56.2547C56.756 212.034 57.1316 212.781 57.6329 213.526V213.651C58.3855 214.769 59.1381 216.013 59.8894 217.256V217.38H60.015C62.1459 220.861 64.151 224.467 65.9062 228.196V228.569H66.1575L66.6588 229.687V230.06H66.9088L67.4101 231.304V231.553H67.5357L68.1627 232.92V233.044H68.2883C68.7896 234.164 69.2909 235.407 69.6666 236.525V236.774H69.7922C70.2935 238.018 70.7948 239.136 71.1704 240.379V240.503H71.2961L71.923 242.493V242.741H72.0487C72.2987 243.363 72.55 244.11 72.7999 244.731V245.104C73.0513 245.85 73.3012 246.595 73.5526 247.341C74.9308 251.816 75.6834 254.303 77.1872 261.016L80.6976 277.924C82.9541 289.983 85.9618 301.917 88.5939 313.977C92.1043 330.262 96.1146 346.424 100.628 362.337C89.3466 353.386 77.8142 345.679 66.4075 340.084L-49.6645 281.654L-51.0427 280.908C-53.2992 279.788 -55.5557 278.546 -57.8121 277.303V277.177H-57.9378C-61.0712 275.313 -64.3302 273.325 -67.5893 271.211H-67.7149L-69.8458 269.718H-69.9701L-72.1022 268.227C-73.8561 266.984 -75.6113 265.74 -77.3664 264.497H-77.4921C-79.4973 263.006 -81.5024 261.514 -83.5089 260.022C-84.7615 259.028 -86.0154 258.033 -87.2693 257.038C-90.277 254.676 -93.2847 252.066 -96.2938 249.579C-105.068 241.996 -113.717 233.667 -121.991 224.839C-124.246 222.353 -126.503 219.991 -128.759 217.38C-131.642 214.148 -134.274 211.04 -137.032 207.683H-137.157C-142.923 200.597 -148.438 193.386 -153.578 186.051V185.927H-153.703C-156.21 182.198 -158.717 178.592 -161.224 174.863V174.738C-164.358 169.766 -167.366 164.794 -170.249 159.82V159.696C-172.129 156.463 -173.884 153.231 -175.514 149.999L-176.266 148.507L-177.018 147.016C-178.647 143.782 -180.151 140.551 -181.53 137.319C-183.536 132.842 -185.291 128.367 -186.795 123.892V123.767H-186.92C-187.296 122.4 -187.798 121.032 -188.299 119.665L-251.098 -76.0144C-251.6 -77.5062 -252.101 -78.8737 -252.477 -80.3656V-80.49C-252.728 -81.3602 -252.978 -82.2305 -253.229 -83.1007V-83.4736H-253.354C-253.605 -84.3438 -253.731 -85.0897 -253.981 -85.96V-86.4573H-254.107C-254.357 -87.4518 -254.483 -88.322 -254.733 -89.3166V-89.4409C-254.984 -90.6842 -255.235 -91.9273 -255.485 -93.0462V-93.1706C-255.736 -94.7867 -255.987 -96.2785 -256.237 -97.8947V-99.8838H-256.488C-257.366 -107.84 -257.115 -114.802 -255.736 -120.894H-255.485V-122.013C-255.36 -122.634 -255.109 -123.256 -254.984 -123.877H-254.733V-124.748C-254.107 -126.488 -253.48 -128.229 -252.602 -129.845H-252.477V-130.218C-252.226 -130.591 -252.101 -130.964 -251.85 -131.337H-251.725V-131.585C-251.349 -132.331 -250.848 -132.953 -250.471 -133.574H-250.221V-133.947C-249.343 -135.191 -248.466 -136.309 -247.463 -137.304H-247.212V-137.677L-246.711 -138.05H-246.46V-138.423L-245.959 -138.796H-245.708V-139.045L-245.082 -139.666H-244.956V-139.79C-243.953 -140.536 -242.951 -141.158 -241.948 -141.904C-241.07 -142.401 -240.193 -142.898 -239.316 -143.396H-238.94V-143.52C-238.438 -143.769 -238.062 -143.893 -237.686 -144.142H-237.435V-144.266C-236.809 -144.39 -236.307 -144.639 -235.68 -144.888H-235.054V-145.012C-233.424 -145.633 -231.795 -146.006 -229.914 -146.379H-228.285V-146.628C-226.279 -146.877 -224.148 -147.001 -222.018 -147.001C-218.132 -147.001 -213.87 -146.628 -209.483 -145.633H-208.981C-207.853 -145.385 -206.85 -145.136 -205.722 -144.888C-203.967 -144.39 -202.213 -143.893 -200.458 -143.396H-200.332C-199.58 -143.147 -198.828 -142.898 -198.076 -142.65H-197.951C-197.324 -142.401 -196.572 -142.153 -195.82 -141.904C-193.313 -141.034 -190.931 -140.039 -188.299 -138.92V-138.796H-188.174C-186.293 -138.05 -184.413 -137.18 -182.408 -136.309L-134.775 -113.435L135.349 16.1061L149.639 22.9441C151.895 23.9383 154.276 25.1817 156.533 26.4251V26.549H156.658L158.037 27.2953C159.291 28.0416 160.544 28.7866 161.797 29.5329C167.939 33.2631 174.082 37.489 179.847 42.2134C181.727 43.706 183.482 45.0733 185.112 46.6898H185.237C192.131 52.6563 198.649 59.1211 204.792 66.083V66.207C206.295 67.9475 207.799 69.688 209.305 71.4284C210.307 72.6718 211.31 73.9152 212.312 75.1586H212.438C214.694 78.0172 216.951 81.0011 219.082 84.1089H219.206C222.341 88.4601 225.348 93.0605 228.232 97.5357V97.6596C228.983 98.903 229.736 100.023 230.488 101.266V101.39C231.491 103.13 232.494 104.747 233.496 106.487V106.611C236.505 111.957 239.262 117.303 241.769 122.897V123.022H241.895L242.521 124.513C243.273 126.254 244.026 127.994 244.777 129.735V129.859C245.278 130.978 245.78 132.221 246.282 133.465V133.589C247.661 136.946 248.914 140.427 250.043 143.782V144.032H250.167L250.794 146.145V146.269H250.92C251.672 148.756 252.423 151.241 253.05 153.728C253.302 154.722 253.552 155.593 253.803 156.588V156.712H253.927C254.053 157.706 254.304 158.702 254.554 159.572V159.696C255.433 163.425 256.184 167.155 256.811 170.76V171.009C257.563 174.987 258.065 178.965 258.315 182.819V183.69H258.44C258.566 185.306 258.692 186.921 258.692 188.414L265.835 355.748L280.501 695.639C280.627 699.866 280.878 703.968 281.002 708.07V708.319C281.254 716.524 281.505 724.604 281.755 732.189V732.934C282.508 761.155 282.508 784.527 281.755 798.078V798.451C281.505 802.056 281.254 804.916 281.002 807.028V807.277C280.752 808.521 280.627 809.391 280.377 810.012H280.251V810.509C280.125 810.882 279.875 811.007 279.75 811.007C279.624 811.007 279.624 811.008 279.498 810.882ZM884.177 -19.0759C868.383 -19.0759 849.204 -13.3569 827.268 -1.29875L462.381 200.472C386.546 242.244 325.627 347.419 327.006 434.07L335.781 1021.11C337.159 1107.63 341.295 1178 345.181 1178C349.067 1177.63 365.236 1107.63 381.406 1022.35L409.485 873.54C409.485 873.54 410.236 869.562 411.49 862.227L420.515 814.489C421.643 808.645 423.022 802.678 424.652 796.71C424.776 796.587 424.776 796.461 424.776 796.337C425.655 791.986 426.783 787.511 427.66 782.911C431.671 764.388 436.059 743.502 441.699 720.999C446.838 698.373 452.478 674.006 459.373 648.521C465.64 622.787 472.785 595.81 480.681 568.086C488.328 540.238 496.475 511.646 505.124 482.678C507.507 475.593 509.637 468.381 511.894 461.046L513.649 455.577L515.904 448.864L519.54 437.923C522.674 430.091 526.56 420.394 530.32 412.811C534.08 404.854 537.966 397.147 542.354 389.688C559.024 359.602 579.456 333.246 600.515 309.004C621.573 284.886 643.76 263.255 665.445 243.239C687.256 223.472 708.564 205.073 728.871 188.041C748.926 171.133 767.979 155.096 785.277 140.302C802.449 125.383 817.868 111.46 830.778 98.5299C843.563 85.4776 854.594 73.7913 862.492 63.0992C870.388 52.5323 876.279 43.706 879.664 37.3651C883.173 30.9002 885.054 27.4192 885.054 27.4192C885.054 27.4192 884.678 31.3973 883.926 38.7324C882.672 46.0675 880.792 57.0075 876.029 70.4342C871.265 83.6118 864.497 99.5254 854.72 116.681C845.193 133.713 832.909 152.237 818.619 171.257C790.291 209.424 753.689 250.201 716.461 293.215C697.784 314.598 679.108 336.727 661.685 359.477C644.261 382.353 627.966 405.849 615.055 430.091C611.796 436.059 608.913 442.15 606.029 448.242C603.147 454.583 601.392 459.058 598.884 465.523L595 476.339L593.494 480.565L591.615 486.035C589.233 493.495 586.852 500.704 584.47 507.915C574.567 536.757 564.916 565.351 554.387 592.577C552.381 597.55 550.375 602.647 548.37 607.496C560.78 597.177 573.314 587.978 586.099 580.643L695.026 517.737C769.859 474.349 848.953 370.293 870.764 286.378L925.416 75.1586C940.959 15.4851 923.034 -19.0759 884.301 -19.0759H884.177Z" fill="white" fill-opacity="0.02"/>
</g>
<defs>
<clipPath id="clip0_19_254">
<rect width="649" height="170" rx="20" fill="white"/>
</clipPath>
</defs>
</svg>
