<svg width="61" height="60" viewBox="0 0 61 60" fill="none" xmlns="http://www.w3.org/2000/svg">
<path d="M30.5 60.0001C47.0685 60.0001 60.5 46.5686 60.5 30C60.5 13.4315 47.0685 0 30.5 0C13.9314 0 0.5 13.4315 0.5 30C0.5 46.5686 13.9314 60.0001 30.5 60.0001Z" fill="#1F1F1F"/>
<path d="M25.1797 21.6332C25.1797 21.6332 25.3197 21.6332 25.3547 21.6332C25.9498 21.7033 26.4399 21.4232 26.895 21.0731C27.7001 20.478 28.5052 19.9179 29.3104 19.3229C29.8005 18.9728 30.2555 18.5877 30.7106 18.2377C31.0256 17.9926 31.3757 17.7476 31.7258 17.5375C32.0058 17.3625 32.3209 17.4325 32.6009 17.5375C33.021 17.7125 33.4411 17.8876 33.8612 18.0976C34.1062 18.2026 34.3162 18.3076 34.5613 18.4127C35.3664 18.7977 36.2065 19.1829 37.0117 19.5679C37.8168 19.953 38.6569 20.268 39.4621 20.6531C40.0922 20.9331 40.7223 21.2481 41.3174 21.5632C41.7724 21.8082 41.9125 22.1233 41.7724 22.6134C41.6324 23.2085 41.4574 23.8035 41.3174 24.3986C41.2473 24.7137 41.2824 25.0638 41.4574 25.3439C41.6324 25.6239 41.8424 25.8689 42.0875 26.079C42.8576 26.7441 43.6628 27.4092 44.4679 28.0393C45.4831 28.8444 46.5332 29.6496 47.5484 30.4897C48.2835 31.0848 48.9487 31.7499 49.6488 32.38C50.1038 32.8 50.5589 33.2551 51.049 33.7102C51.224 33.8502 51.4341 33.9553 51.6441 34.0603C52.0642 34.2703 52.3792 34.5854 52.6243 34.9354C52.8343 35.2855 52.7293 35.6006 52.4142 35.9506C51.7141 36.6857 50.979 37.4209 50.2789 38.156C49.8588 38.5761 49.4388 38.5761 49.0187 38.156C48.9487 38.086 48.8786 38.016 48.8086 37.946C48.5636 37.7359 48.3535 37.5259 48.3185 37.1408C48.3185 36.7207 47.8634 36.5457 47.5484 36.8258C47.1983 37.1058 46.8483 37.4208 46.4983 37.7358C45.9032 38.2959 45.3431 38.926 44.748 39.4861C44.2229 40.0112 43.6628 40.5014 43.0676 40.9915C42.2275 41.6916 41.3174 42.3567 40.2322 42.6017C40.0222 42.6717 39.7771 42.6717 39.5321 42.6017C38.5519 42.3217 37.8168 41.6916 37.1517 40.9564C36.6266 40.3613 36.1365 39.8012 35.6814 39.1711C35.2964 38.681 34.9463 38.1559 34.6313 37.6308C34.2462 37.0357 33.8961 36.4407 33.5111 35.8456C33.231 35.4255 32.986 35.0055 32.6709 34.6554C32.2858 34.1653 31.7608 33.9552 31.1307 34.0252C30.8507 34.0252 30.6406 33.9553 30.4305 33.7452C29.3454 32.52 28.2602 31.2948 27.14 30.1046C26.3699 29.2645 25.5998 28.4244 24.8296 27.5492C24.5146 27.1642 24.1645 26.7791 23.8845 26.394C23.8145 26.324 23.7795 26.1489 23.7795 26.0439C23.8495 24.7487 23.9545 23.4886 24.0595 22.1934C24.0595 21.7383 24.1995 21.6332 24.6196 21.6332C24.7946 21.6332 24.9347 21.6332 25.1097 21.6332H25.1797ZM45.4831 34.8304C45.4831 34.8304 45.4831 34.8304 45.4481 34.8304C45.4481 34.6204 45.5181 34.3753 45.4481 34.1653C45.203 33.5352 44.818 32.9751 44.3629 32.52C43.7678 31.9249 43.1727 31.3298 42.5776 30.7347C41.5624 29.7195 40.5473 28.7744 39.217 28.1793C38.4469 27.8293 37.6418 27.5142 36.8016 27.9343C36.5916 28.0393 36.3815 28.1443 36.1715 28.2493C35.1913 28.8094 34.4212 29.5446 33.9311 30.5947C33.6511 31.1898 33.7211 31.7149 33.8612 32.31C34.0362 32.9051 34.2462 33.4652 34.5962 33.9553C35.0513 34.6554 35.5064 35.3905 36.0315 36.0206C36.5916 36.7207 37.2217 37.3859 37.8168 38.051C38.3069 38.5761 38.7969 39.1011 39.4621 39.4512C39.7771 39.6262 40.1972 39.7312 40.5472 39.7312C41.3524 39.6962 42.0875 39.3112 42.7176 38.7861C43.3127 38.261 43.8728 37.7009 44.4679 37.1758C44.818 36.8258 45.168 36.4756 45.308 35.9856C45.413 35.6355 45.4481 35.2504 45.5181 34.9004L45.4831 34.8304ZM32.1109 18.4477C32.1109 18.4477 31.9008 18.5177 31.8308 18.5527C31.3057 18.9378 30.7806 19.2879 30.2556 19.6729C30.0455 19.813 29.8355 19.9879 29.6254 20.163C29.5554 20.233 29.5554 20.373 29.5554 20.478C29.6604 20.478 29.8005 20.5831 29.9055 20.5481C30.0805 20.4781 30.1855 20.373 30.3606 20.268C30.8506 19.9179 31.3407 19.5679 31.7958 19.2178C32.0758 19.0078 32.2159 18.9727 32.5309 19.1478C32.881 19.3228 33.231 19.4628 33.5811 19.6029C33.9662 19.7779 34.3512 19.9179 34.7013 20.0579C35.4014 20.338 36.1365 20.6531 36.8366 20.9681C37.1867 21.1082 37.5367 21.2832 37.8868 21.4232C38.0618 21.4932 38.2368 21.4932 38.4119 21.4932L38.5169 21.3182C38.4119 21.1782 38.2719 21.0381 38.0968 20.9331C37.9918 20.8631 37.8168 20.863 37.6768 20.793C37.0817 20.513 36.4866 20.233 35.8565 19.988C35.2264 19.7079 34.5612 19.4629 33.9311 19.2178C33.5811 19.0778 33.266 18.9028 32.916 18.7627C32.6709 18.6577 32.3909 18.5527 32.1109 18.4477Z" fill="url(#paint0_linear_201_413)"/>
<path d="M20.1737 25.3441C18.9835 25.309 17.7583 25.239 16.5681 25.239C16.1831 25.239 15.798 25.4141 15.4479 25.5541C15.1329 25.6591 14.8528 25.8341 14.5378 25.9741C13.9077 26.2892 13.2776 26.5693 12.6475 26.8843C12.0524 27.1644 11.4573 27.4093 10.8622 27.6894C10.5471 27.8294 10.2671 27.9344 9.95202 28.1094C9.53195 28.3195 8.97183 28.1095 8.72679 27.8645C8.27172 27.4794 8.16673 26.9543 8.37677 26.4292C8.48178 26.1842 8.65681 25.9391 8.86685 25.8341C9.35693 25.554 9.91701 25.344 10.4421 25.099C11.0372 24.8189 11.5973 24.5389 12.1924 24.2938C12.4724 24.1538 12.7175 24.0488 12.9975 23.9088C13.6626 23.5938 14.3277 23.2437 15.0279 22.9637C15.3779 22.8237 15.798 22.7186 16.1481 22.7186C18.4935 22.7186 20.8388 22.7886 23.1492 22.8586C23.5693 22.8586 23.6743 22.9637 23.6743 23.3837C23.6743 23.9438 23.6043 24.4689 23.5693 25.029C23.5693 25.3441 23.4292 25.4491 23.1142 25.4491C22.134 25.4491 21.1539 25.4491 20.1737 25.4491C20.1737 25.4491 20.1737 25.449 20.1737 25.414V25.3441Z" fill="url(#paint1_linear_201_413)"/>
<path d="M45.3777 34.9703C45.3777 34.9703 45.3777 35.1103 45.3777 35.1453C45.3777 35.3903 45.2377 35.4954 45.0276 35.3904C44.6426 35.2503 44.2925 35.0403 43.9074 34.8653C43.5924 34.6903 43.2773 34.5153 42.9622 34.3402C42.4372 33.9902 41.9121 33.6751 41.387 33.29C40.8269 32.9049 40.3018 32.5199 39.7768 32.1348C39.3917 31.8548 38.9716 31.6097 38.5515 31.3647C37.9214 30.9796 37.3263 30.6995 36.5912 31.0846C36.2762 31.2246 35.9611 31.3647 35.6111 31.4347C35.331 31.5047 34.9809 31.5397 34.7009 31.4347C34.2458 31.2947 34.1758 30.7346 34.5609 30.4896C35.0509 30.1395 35.541 29.8594 36.0311 29.5443C36.3462 29.3693 36.6612 29.1944 37.0113 29.0893C37.4313 28.9493 37.8164 28.9143 38.2715 29.1593C39.3917 29.8244 40.3368 30.6646 41.387 31.4347C42.1921 32.0298 42.9973 32.5899 43.7674 33.185C44.2575 33.57 44.7476 33.9551 45.2377 34.4102C45.3777 34.5502 45.3777 34.7952 45.4477 35.0052C45.4477 35.0052 45.4477 35.0052 45.4126 35.0052L45.3777 34.9703Z" fill="url(#paint2_linear_201_413)"/>
<defs>
<linearGradient id="paint0_linear_201_413" x1="52.5093" y1="30.4272" x2="8.50933" y2="30.4272" gradientUnits="userSpaceOnUse">
<stop stop-color="#AD8153"/>
<stop offset="0.25" stop-color="#E2B36C"/>
<stop offset="0.5" stop-color="#FDECD6"/>
<stop offset="0.75" stop-color="#DCAC64"/>
<stop offset="1" stop-color="#AF8352"/>
</linearGradient>
<linearGradient id="paint1_linear_201_413" x1="52.5093" y1="30.4272" x2="8.50933" y2="30.4272" gradientUnits="userSpaceOnUse">
<stop stop-color="#AD8153"/>
<stop offset="0.25" stop-color="#E2B36C"/>
<stop offset="0.5" stop-color="#FDECD6"/>
<stop offset="0.75" stop-color="#DCAC64"/>
<stop offset="1" stop-color="#AF8352"/>
</linearGradient>
<linearGradient id="paint2_linear_201_413" x1="52.5093" y1="30.4272" x2="8.50933" y2="30.4272" gradientUnits="userSpaceOnUse">
<stop stop-color="#AD8153"/>
<stop offset="0.25" stop-color="#E2B36C"/>
<stop offset="0.5" stop-color="#FDECD6"/>
<stop offset="0.75" stop-color="#DCAC64"/>
<stop offset="1" stop-color="#AF8352"/>
</linearGradient>
</defs>
</svg>
