<svg width="1160" height="170" viewBox="0 0 1160 170" fill="none" xmlns="http://www.w3.org/2000/svg">
<g clip-path="url(#clip0_65_106)">
<rect width="1160" height="170" rx="20" fill="#0C0C0C"/>
<path fill-rule="evenodd" clip-rule="evenodd" d="M679.789 621.823V621.699H679.665C677.42 619.721 671.807 603.274 664.698 578.542L663.202 573.346C661.082 565.804 658.837 557.518 656.468 548.862V548.739C653.224 536.62 649.858 523.635 646.49 510.031L640.629 486.289C640.629 486.289 640.005 483.196 639.133 477.508C638.134 471.82 636.888 463.411 634.768 452.9C632.771 442.388 630.651 429.651 627.534 415.306C624.541 400.837 621.299 384.391 617.307 366.83C613.316 349.269 609.076 330.226 604.587 310.069C604.088 308.337 603.588 306.483 603.214 304.752V304.628L602.467 301.66C601.718 298.569 600.969 295.353 600.222 292.261V292.013H600.097L599.473 289.047C596.23 275.443 593.113 261.469 589.62 247.248C588.622 243.414 587.625 239.58 586.628 235.748V235.377L585.879 232.78V232.409L585.131 229.688V229.44L584.382 226.596V226.472L583.634 223.504C580.267 209.407 576.9 194.938 573.407 180.47C570.663 169.093 567.671 157.717 564.678 146.215C563.556 141.269 562.308 136.199 561.186 131.251V131.128C560.437 127.913 559.689 124.697 558.94 121.483L556.695 111.713C553.828 100.213 551.084 88.5883 548.215 77.2117L543.351 59.0331C542.229 54.2104 539.485 45.3061 536.866 38.6288C526.266 11.546 509.304 -11.084 491.345 -28.8914C473.137 -46.6987 453.931 -60.3011 435.723 -71.9257C417.639 -83.427 400.178 -92.8245 384.09 -101.358C354.782 -116.693 330.089 -129.182 311.881 -138.952V-139.075C310.01 -139.94 308.265 -140.929 306.643 -141.92C289.183 -151.565 278.831 -157.377 277.585 -158.119C277.959 -157.501 279.58 -155.275 282.573 -151.071C286.19 -146.619 291.303 -139.694 298.537 -131.655C305.77 -123.741 314.625 -113.725 325.35 -103.46C336.2 -93.0724 348.672 -81.6957 362.266 -69.8232C375.735 -58.0754 390.202 -45.3387 405.666 -31.8595L407.287 -30.3748C415.893 -22.3375 424.623 -14.0522 432.729 -5.39572V-5.02454H433.103L433.478 -4.65335V-4.28217H433.852L434.226 -3.78772V-3.53983H434.601L434.974 -3.04538V-2.7988H435.223L435.847 -2.17972V-2.05643H435.972L436.596 -1.43869V-1.31409C437.343 -0.573059 438.092 0.292633 438.841 1.15826V1.65271H439.215L439.588 2.0239V2.39505H439.963L440.337 2.76624V3.13742H440.587L441.086 3.6319V3.87979H441.21L441.833 4.49753V4.62082C442.831 5.73434 443.828 6.97119 444.827 8.0834V8.3313H444.951L445.575 9.07367C446.199 9.8147 446.697 10.557 447.321 11.2994C448.569 12.7828 449.691 14.2675 450.814 15.7509C452.06 17.4822 453.307 19.2135 454.555 20.9448V21.0681C455.553 22.4282 456.55 23.9129 457.548 25.3963V25.5209H457.673C458.171 26.1386 458.545 26.881 459.044 27.622V27.7466C459.793 28.8589 460.541 30.0957 461.289 31.3325V31.4558H461.414C463.534 34.9184 465.529 38.5056 467.275 42.2147V42.5859H467.525L468.024 43.6981V44.0693H468.273L468.772 45.3061V45.554H468.897L469.52 46.9141V47.0374H469.645C470.144 48.1509 470.643 49.3878 471.017 50.5V50.7479H471.142C471.641 51.9847 472.139 53.0969 472.513 54.3337V54.457H472.638L473.262 56.4362V56.6828H473.387C473.636 57.3018 473.886 58.0442 474.134 58.662V59.0331C474.384 59.7755 474.633 60.5165 474.883 61.2589C476.254 65.7104 477.003 68.1841 478.499 74.8613L481.992 91.6797C484.237 103.675 487.23 115.547 489.849 127.542C493.341 143.742 497.331 159.818 501.821 175.647C490.597 166.743 479.123 159.077 467.774 153.512L352.288 95.3902L350.917 94.6479C348.672 93.5343 346.427 92.2988 344.182 91.062V90.9373H344.057C340.939 89.0828 337.697 87.105 334.454 85.0025H334.329L332.209 83.5178H332.085L329.964 82.0344C328.219 80.7975 326.473 79.5607 324.726 78.3239H324.601C322.606 76.8405 320.611 75.3571 318.615 73.8724C317.369 72.8835 316.121 71.8945 314.874 70.9043C311.881 68.5552 308.888 65.9583 305.895 63.4846C297.164 55.9417 288.559 47.6565 280.328 38.8754C278.084 36.4031 275.838 34.0527 273.594 31.4558C270.725 28.2411 268.106 25.1497 265.362 21.8104H265.238C259.501 14.762 254.013 7.58893 248.9 0.292603V0.169312H248.775C246.281 -3.53983 243.787 -7.12704 241.292 -10.8362V-10.9608C238.174 -15.9068 235.181 -20.8527 232.313 -25.8V-25.9233C230.442 -29.1393 228.696 -32.354 227.075 -35.5687L226.327 -37.0534L225.578 -38.5368C223.957 -41.7528 222.461 -44.9675 221.089 -48.1822C219.093 -52.635 217.347 -57.0865 215.851 -61.538V-61.6626H215.726C215.352 -63.0227 214.853 -64.3828 214.354 -65.7429L151.872 -260.388C151.373 -261.872 150.874 -263.233 150.5 -264.717V-264.84C150.251 -265.706 150.001 -266.572 149.752 -267.437V-267.808H149.627C149.378 -268.674 149.253 -269.416 149.004 -270.281V-270.776H148.879C148.629 -271.765 148.505 -272.631 148.255 -273.62V-273.744C148.006 -274.981 147.756 -276.217 147.507 -277.33V-277.454C147.258 -279.062 147.008 -280.546 146.759 -282.153V-284.132H146.509C145.636 -292.046 145.886 -298.971 147.258 -305.031H147.507V-306.144C147.632 -306.762 147.881 -307.38 148.006 -307.999H148.255V-308.864C148.879 -310.596 149.502 -312.327 150.375 -313.934H150.5V-314.306C150.75 -314.676 150.874 -315.047 151.124 -315.419H151.248V-315.666C151.623 -316.408 152.121 -317.026 152.496 -317.644H152.745V-318.015C153.618 -319.252 154.491 -320.365 155.489 -321.354H155.738V-321.725L156.237 -322.096H156.486V-322.467L156.985 -322.838H157.235V-323.086L157.858 -323.704H157.983V-323.828C158.981 -324.57 159.978 -325.188 160.976 -325.93C161.849 -326.424 162.722 -326.919 163.595 -327.414H163.969V-327.537C164.468 -327.785 164.842 -327.908 165.216 -328.156H165.466V-328.279C166.089 -328.403 166.588 -328.65 167.212 -328.898H167.836V-329.021C169.457 -329.64 171.078 -330.011 172.949 -330.382H174.57V-330.629C176.566 -330.876 178.686 -331 180.806 -331C184.672 -331 188.912 -330.629 193.277 -329.64H193.776C194.899 -329.392 195.896 -329.145 197.019 -328.898C198.765 -328.403 200.511 -327.908 202.257 -327.414H202.381C203.13 -327.166 203.878 -326.919 204.626 -326.672H204.751C205.375 -326.424 206.123 -326.177 206.871 -325.93C209.365 -325.064 211.735 -324.075 214.354 -322.962V-322.838H214.479C216.35 -322.096 218.22 -321.231 220.216 -320.365L267.607 -297.611L536.367 -168.755L550.585 -161.953C552.83 -160.964 555.199 -159.727 557.444 -158.49V-158.367H557.569L558.94 -157.625C560.188 -156.882 561.436 -156.141 562.682 -155.399C568.793 -151.688 574.905 -147.485 580.641 -142.785C582.511 -141.301 584.257 -139.94 585.879 -138.332H586.004C592.863 -132.398 599.348 -125.967 605.459 -119.042V-118.918C606.956 -117.187 608.452 -115.456 609.949 -113.725C610.947 -112.488 611.944 -111.251 612.942 -110.014H613.067C615.312 -107.171 617.557 -104.202 619.677 -101.111H619.801C622.92 -96.7829 625.912 -92.2067 628.781 -87.7552V-87.632C629.529 -86.3951 630.277 -85.2816 631.026 -84.0447V-83.9215C632.024 -82.1902 633.021 -80.5822 634.019 -78.8509V-78.7276C637.013 -73.4105 639.755 -68.092 642.25 -62.5283V-62.4037H642.375L642.998 -60.9202C643.747 -59.1889 644.495 -57.4577 645.243 -55.7264V-55.6031C645.742 -54.4896 646.24 -53.2527 646.74 -52.0159V-51.8926C648.112 -48.5533 649.359 -45.0908 650.482 -41.7528V-41.5049H650.606L651.229 -39.4024V-39.2791H651.354C652.103 -36.8055 652.851 -34.3332 653.474 -31.8595C653.724 -30.8706 653.973 -30.005 654.223 -29.0147V-28.8914H654.347C654.472 -27.9025 654.722 -26.9122 654.971 -26.0466V-25.9233C655.844 -22.2142 656.592 -18.5037 657.216 -14.9178V-14.6699C657.965 -10.7129 658.463 -6.75583 658.712 -2.92206V-2.05643H658.837C658.962 -0.448425 659.087 1.15826 659.087 2.64297L666.195 169.093L680.786 507.188C680.911 511.393 681.161 515.473 681.285 519.553V519.801C681.535 527.963 681.785 536.001 682.034 543.545V544.286C682.783 572.358 682.783 595.607 682.034 609.086V609.457C681.785 613.043 681.535 615.888 681.285 617.989V618.237C681.036 619.474 680.911 620.339 680.663 620.957H680.538V621.451C680.413 621.823 680.164 621.947 680.039 621.947C679.914 621.947 679.914 621.947 679.789 621.823ZM1281.41 -203.751C1265.7 -203.751 1246.62 -198.062 1224.79 -186.068L861.748 14.6374C786.296 56.1883 725.684 160.808 727.057 247.001L735.787 830.938C737.158 917.006 741.273 987 745.139 987C749.006 986.629 765.094 917.006 781.182 832.174L809.119 684.149C809.119 684.149 809.866 680.192 811.114 672.896L820.093 625.41C821.215 619.597 822.588 613.662 824.209 607.726C824.333 607.602 824.333 607.478 824.333 607.355C825.207 603.026 826.329 598.575 827.202 593.999C831.193 575.574 835.558 554.798 841.17 532.415C846.284 509.908 851.895 485.67 858.755 460.32C864.99 434.721 872.099 407.887 879.956 380.309C887.563 352.609 895.67 324.167 904.275 295.353C906.645 288.304 908.765 281.131 911.01 273.835L912.757 268.395L915 261.717L918.618 250.834C921.736 243.043 925.602 233.398 929.343 225.855C933.085 217.939 936.951 210.273 941.316 202.853C957.903 172.927 978.231 146.71 999.184 122.596C1020.14 98.6049 1042.21 77.0884 1063.79 57.1786C1085.49 37.5154 1106.69 19.2135 1126.89 2.27179C1146.85 -14.5466 1165.8 -30.4994 1183.01 -45.2154C1200.1 -60.0546 1215.44 -73.9049 1228.28 -86.7663C1241 -99.7496 1251.98 -111.374 1259.84 -122.01C1267.69 -132.521 1273.56 -141.301 1276.92 -147.608C1280.41 -154.039 1282.29 -157.501 1282.29 -157.501C1282.29 -157.501 1281.91 -153.544 1281.16 -146.248C1279.92 -138.952 1278.05 -128.069 1273.31 -114.714C1268.57 -101.606 1261.83 -85.776 1252.11 -68.7111C1242.63 -51.7693 1230.4 -33.3429 1216.19 -14.4233C1188 23.5417 1151.58 64.1037 1114.54 106.89C1095.96 128.16 1077.38 150.172 1060.04 172.802C1042.71 195.557 1026.5 218.929 1013.65 243.043C1010.41 248.979 1007.54 255.039 1004.67 261.098C1001.8 267.406 1000.06 271.857 997.562 278.288L993.696 289.047L992.199 293.25L990.329 298.692C987.959 306.112 985.59 313.283 983.22 320.456C973.367 349.146 963.764 377.589 953.289 404.67C951.293 409.618 949.298 414.687 947.303 419.511C959.649 409.247 972.121 400.096 984.841 392.799L1093.22 330.226C1167.67 287.068 1246.37 183.561 1268.07 100.09L1322.44 -110.014C1337.91 -169.372 1320.07 -203.751 1281.54 -203.751H1281.41Z" fill="white" fill-opacity="0.02"/>
</g>
<defs>
<clipPath id="clip0_65_106">
<rect width="1160" height="170" rx="20" fill="white"/>
</clipPath>
</defs>
</svg>
