<svg width="60" height="60" viewBox="0 0 60 60" fill="none" xmlns="http://www.w3.org/2000/svg">
<path d="M30 59.9999C46.5686 59.9999 60 46.5685 60 29.9999C60 13.4314 46.5686 0 30 0C13.4315 0 0 13.4314 0 29.9999C0 46.5685 13.4315 59.9999 30 59.9999Z" fill="#1F1F1F"/>
<path d="M29.5 27.7904C29.5849 27.836 30.134 28.3243 30.1833 28.3789C30.2728 28.4783 30.4086 28.5834 30.5133 28.6863L31.2036 29.4194C31.2308 29.4511 31.2424 29.4728 31.2703 29.5037L31.5524 29.8397C32.4436 30.9607 33.2027 32.1997 33.547 33.8029C33.8926 35.4125 33.6729 36.7659 32.8527 37.8347C32.5561 38.2213 32.5515 38.1865 32.2435 38.4812C32.0712 38.6461 31.7463 38.8683 31.5017 38.9949C30.1847 39.6765 28.8016 39.6751 27.4859 38.9885C27.1462 38.8113 26.6623 38.4371 26.419 38.1629C26.3225 38.0541 26.2339 37.9489 26.139 37.8242C24.8301 36.1037 25.2146 33.8734 26.1038 31.9251C26.2315 31.6455 26.3957 31.3632 26.5465 31.112C26.8017 30.6869 27.3544 29.9142 27.6744 29.5598C27.7033 29.5278 27.7203 29.5161 27.747 29.4834C27.7955 29.4244 27.8486 29.371 27.8944 29.3119L28.1908 28.9897C28.4112 28.7416 28.6978 28.5119 28.8253 28.3689L29.5 27.7904Z" fill="url(#paint0_linear_477_968)"/>
<path fill-rule="evenodd" clip-rule="evenodd" d="M35.7378 16.9916C36.4536 16.9916 36.3821 16.9761 37.0189 17.1341C37.5492 17.2657 37.7483 17.3684 38.1791 17.5665C38.2282 17.589 38.2499 17.5921 38.2963 17.618C38.3764 17.6626 38.4495 17.6992 38.5253 17.7449L38.9544 18.009C39.2386 18.2236 39.467 18.3705 39.7324 18.6364C39.7901 18.6942 39.8516 18.7646 39.9123 18.8125C40.0945 18.9562 40.4102 19.3764 40.5572 19.573L41.2013 20.6905C41.2798 20.8586 41.3314 21.0105 41.3976 21.1876C41.5221 21.5211 41.6197 21.9016 41.6841 22.3067C41.8232 23.182 41.7653 24.0613 41.571 24.8342C41.5443 24.9407 41.5244 25.0118 41.495 25.1144C41.3418 25.6501 41.1015 26.0997 40.9054 26.6424C40.8069 26.9152 40.7368 27.1774 40.6679 27.4544C40.346 28.7483 40.3858 29.9565 40.6407 31.2419C40.7399 31.7419 40.9769 32.3752 41.162 32.8384C41.8461 34.5499 42.1471 35.329 42.4006 37.2222C42.4154 37.3326 42.4266 37.4468 42.4387 37.5402C42.4779 37.843 42.4674 38.2649 42.4973 38.5313C42.4982 38.54 42.4991 38.5494 42.5 38.5593V39.1237C42.4971 39.1652 42.4935 39.2016 42.4892 39.23C42.4583 39.4341 42.4856 39.6791 42.4547 39.889C42.4407 39.984 42.4273 40.1244 42.4251 40.2156L42.2993 41.1393C42.1606 41.9719 41.8346 43.1093 41.5928 43.9563C41.5383 44.1471 41.4973 44.3077 41.4431 44.5L39.915 50H19.085C19.042 49.8154 18.9838 49.6292 18.9311 49.4418L17.8593 45.5845C17.6482 44.845 17.462 44.1172 17.247 43.3856C16.969 42.44 16.7289 41.4936 16.609 40.5001C16.5957 40.3895 16.5812 40.3134 16.5746 40.1784C16.5707 40.0993 16.5521 39.944 16.5426 39.873C16.5138 39.6578 16.5323 39.3967 16.5051 39.1983C16.503 39.1831 16.5013 39.1646 16.5 39.1436V38.6993C16.509 38.3778 16.5296 38.0028 16.5376 37.8352L16.6019 37.206C16.765 36.0332 16.8747 35.4919 17.2563 34.337C17.3162 34.1556 17.3803 34.0087 17.4436 33.8308C17.6124 33.3565 17.8788 32.7873 18.0432 32.3127C18.2768 31.6388 18.3539 31.3366 18.4723 30.6241C18.6955 29.2814 18.5038 27.6353 17.9879 26.3555C17.9182 26.1827 17.857 26.0347 17.7801 25.87C17.6457 25.5824 17.5057 25.1404 17.4252 24.8192C17.2303 24.0418 17.1792 23.1472 17.3187 22.2906C17.4835 21.2779 17.9628 20.1364 18.6023 19.3577C18.7145 19.221 18.8064 19.0993 18.9309 18.9741L19.3715 18.5341L20.4978 17.7305C20.7415 17.585 21.1913 17.385 21.4664 17.2938C21.8996 17.1503 22.1309 17.0852 22.5793 17.0018C22.7608 16.968 23.0629 16.9916 23.2622 16.9916V16.9582H35.7378V16.9916ZM29.5 24.9209C29.1842 25.0735 28.1566 25.8822 27.8767 26.1074C27.7027 26.2473 27.5413 26.4011 27.3764 26.5443L25.9878 27.9658C25.2707 28.7926 24.6309 29.7009 24.0885 30.7511C23.1821 32.5058 22.6267 34.9404 23.158 36.9277C23.8838 39.6423 26.2971 41.8447 29.5 41.8447C30.627 41.8447 31.6559 41.5557 32.5129 41.1117C33.3584 40.6736 34.1011 40.0363 34.5765 39.428C34.7184 39.2465 34.8483 39.0911 34.9738 38.8889C35.387 38.2234 35.6191 37.7484 35.838 36.9425C36.3811 34.9429 35.8152 32.5343 34.9178 30.7635C34.3455 29.6341 33.759 28.8618 33.0207 27.9761L31.6337 26.5531L31.1339 26.1156C30.7768 25.8316 30.4558 25.5651 30.0731 25.3028L29.5 24.9209Z" fill="url(#paint1_linear_477_968)"/>
<path fill-rule="evenodd" clip-rule="evenodd" d="M23.2622 14.6135H35.7378V10H23.2622V14.6135Z" fill="url(#paint2_linear_477_968)"/>
<defs>
<linearGradient id="paint0_linear_477_968" x1="42.5" y1="30" x2="16.5" y2="30" gradientUnits="userSpaceOnUse">
<stop stop-color="#AD8153"/>
<stop offset="0.25" stop-color="#E2B36C"/>
<stop offset="0.5" stop-color="#FDECD6"/>
<stop offset="0.75" stop-color="#DCAC64"/>
<stop offset="1" stop-color="#AF8352"/>
</linearGradient>
<linearGradient id="paint1_linear_477_968" x1="42.5" y1="30" x2="16.5" y2="30" gradientUnits="userSpaceOnUse">
<stop stop-color="#AD8153"/>
<stop offset="0.25" stop-color="#E2B36C"/>
<stop offset="0.5" stop-color="#FDECD6"/>
<stop offset="0.75" stop-color="#DCAC64"/>
<stop offset="1" stop-color="#AF8352"/>
</linearGradient>
<linearGradient id="paint2_linear_477_968" x1="42.5" y1="30" x2="16.5" y2="30" gradientUnits="userSpaceOnUse">
<stop stop-color="#AD8153"/>
<stop offset="0.25" stop-color="#E2B36C"/>
<stop offset="0.5" stop-color="#FDECD6"/>
<stop offset="0.75" stop-color="#DCAC64"/>
<stop offset="1" stop-color="#AF8352"/>
</linearGradient>
</defs>
</svg>
