<svg width="1318" height="480" viewBox="0 0 1318 480" fill="none" xmlns="http://www.w3.org/2000/svg">
<g clip-path="url(#clip0_19_259)">
<rect width="1318" height="480" rx="20" fill="#0C0C0C"/>
<path fill-rule="evenodd" clip-rule="evenodd" d="M948.498 620.882V620.758H948.374C946.118 618.77 940.477 602.235 933.331 577.371L931.828 572.149C929.697 564.566 927.44 556.236 925.059 547.534V547.41C921.799 535.227 918.416 522.173 915.031 508.497L909.14 484.629C909.14 484.629 908.513 481.52 907.636 475.801C906.632 470.082 905.38 461.629 903.249 451.062C901.242 440.494 899.111 427.69 895.978 413.269C892.97 398.723 889.711 382.189 885.7 364.535C881.688 346.881 877.426 327.737 872.915 307.473C872.413 305.732 871.911 303.868 871.535 302.127V302.003L870.784 299.019C870.031 295.912 869.279 292.678 868.527 289.571V289.321H868.402L867.775 286.339C864.516 272.663 861.382 258.615 857.872 244.318C856.869 240.464 855.867 236.61 854.864 232.757V232.384L854.112 229.773V229.4L853.36 226.665V226.416L852.608 223.556V223.432L851.855 220.448C848.472 206.277 845.087 191.73 841.577 177.185C838.819 165.748 835.811 154.311 832.803 142.749C831.675 137.777 830.421 132.679 829.293 127.706V127.582C828.54 124.35 827.789 121.117 827.037 117.885L824.78 108.063C821.898 96.5021 819.14 84.8159 816.257 73.3788L811.368 55.1037C810.24 50.2554 807.482 41.3038 804.85 34.591C794.196 7.36431 777.148 -15.3859 759.098 -33.2878C740.797 -51.1898 721.494 -64.8644 703.194 -76.5507C685.018 -88.1131 667.469 -97.5605 651.299 -106.139C621.842 -121.555 597.023 -134.111 578.723 -143.933V-144.056C576.842 -144.927 575.088 -145.921 573.459 -146.916C555.91 -156.613 545.506 -162.455 544.253 -163.202C544.629 -162.581 546.258 -160.343 549.266 -156.116C552.902 -151.641 558.04 -144.679 565.311 -136.597C572.581 -128.641 581.481 -118.572 592.261 -108.253C603.166 -97.8097 615.701 -86.3726 629.364 -74.4371C642.901 -62.6268 657.442 -49.8225 672.984 -36.2717L674.614 -34.7791C683.263 -26.6991 692.037 -18.3698 700.185 -9.66737V-9.29422H700.56L700.937 -8.92106V-8.54791H701.313L701.689 -8.05082V-7.80163H702.066L702.441 -7.30455V-7.05663H702.691L703.318 -6.43428V-6.31032H703.444L704.071 -5.68931V-5.56404C704.822 -4.81907 705.575 -3.94881 706.327 -3.07856V-2.58148H706.703L707.079 -2.20833V-1.8352H707.456L707.831 -1.46205V-1.08889H708.083L708.584 -0.591812V-0.342616H708.708L709.335 0.278458V0.402385C710.338 1.52184 711.34 2.76525 712.344 3.88337V4.13256H712.468L713.095 4.87887C713.722 5.62384 714.224 6.37013 714.851 7.11643C716.105 8.6077 717.233 10.1003 718.361 11.5916C719.614 13.3321 720.867 15.0725 722.121 16.813V16.937C723.124 18.3043 724.126 19.7969 725.129 21.2882V21.4134H725.255C725.756 22.0345 726.132 22.7808 726.633 23.5258V23.651C727.386 24.7692 728.138 26.0125 728.889 27.2559V27.3799H729.015C731.146 30.8608 733.151 34.4671 734.906 38.1959V38.5691H735.158L735.659 39.6872V40.0604H735.909L736.41 41.3038V41.553H736.536L737.163 42.9203V43.0442H737.288C737.79 44.1637 738.291 45.4071 738.667 46.5252V46.7744H738.792C739.294 48.0178 739.795 49.1359 740.17 50.3793V50.5033H740.296L740.923 52.493V52.7408H741.049C741.299 53.3632 741.55 54.1095 741.8 54.7305V55.1037C742.051 55.85 742.301 56.595 742.553 57.3413C743.931 61.8164 744.683 64.3032 746.187 71.0159L749.698 87.9236C751.954 99.9831 754.962 111.917 757.594 123.977C761.104 140.262 765.115 156.424 769.628 172.337C758.347 163.386 746.814 155.679 735.408 150.084L619.335 91.6539L617.957 90.9075C615.701 89.7881 613.444 88.546 611.188 87.3026V87.1773H611.062C607.929 85.3129 604.67 83.3246 601.411 81.211H601.285L599.154 79.7184H599.03L596.898 78.2271C595.144 76.9837 593.389 75.7403 591.634 74.4969H591.508C589.503 73.0056 587.498 71.5143 585.491 70.0217C584.239 69.0275 582.985 68.0334 581.731 67.0379C578.723 64.6763 575.715 62.0656 572.706 59.5788C563.932 51.9958 555.283 43.6666 547.009 34.8389C544.754 32.3535 542.497 29.9906 540.241 27.3799C537.358 24.1481 534.726 21.0403 531.968 17.6833H531.843C526.077 10.5974 520.562 3.38625 515.422 -3.94883V-4.07279H515.297C512.79 -7.80164 510.283 -11.4079 507.776 -15.1367V-15.262C504.642 -20.2342 501.634 -25.2064 498.751 -30.18V-30.304C496.871 -33.5371 495.116 -36.7688 493.486 -40.0006L492.734 -41.4932L491.982 -42.9845C490.353 -46.2176 488.849 -49.4493 487.47 -52.681C485.464 -57.1575 483.709 -61.6327 482.205 -66.1078V-66.2331H482.08C481.704 -67.6004 481.202 -68.9678 480.701 -70.3351L417.902 -266.014C417.4 -267.506 416.899 -268.874 416.523 -270.366V-270.49C416.272 -271.36 416.022 -272.23 415.771 -273.101V-273.474H415.646C415.395 -274.344 415.269 -275.09 415.019 -275.96V-276.457H414.893C414.643 -277.452 414.517 -278.322 414.267 -279.317V-279.441C414.016 -280.684 413.765 -281.927 413.515 -283.046V-283.171C413.264 -284.787 413.013 -286.279 412.763 -287.895V-289.884H412.512C411.634 -297.84 411.885 -304.802 413.264 -310.894H413.515V-312.013C413.64 -312.634 413.891 -313.256 414.016 -313.877H414.267V-314.748C414.893 -316.488 415.52 -318.229 416.398 -319.845H416.523V-320.218C416.774 -320.591 416.899 -320.964 417.15 -321.337H417.275V-321.585C417.651 -322.331 418.152 -322.953 418.529 -323.574H418.779V-323.947C419.657 -325.191 420.534 -326.309 421.537 -327.304H421.788V-327.677L422.289 -328.05H422.54V-328.423L423.041 -328.796H423.292V-329.045L423.918 -329.666H424.044V-329.79C425.047 -330.536 426.049 -331.158 427.052 -331.904C427.93 -332.401 428.807 -332.898 429.684 -333.396H430.06V-333.52C430.562 -333.769 430.938 -333.893 431.314 -334.142H431.565V-334.266C432.191 -334.39 432.693 -334.639 433.32 -334.888H433.946V-335.012C435.576 -335.633 437.205 -336.006 439.086 -336.379H440.715V-336.628C442.721 -336.877 444.852 -337.001 446.982 -337.001C450.868 -337.001 455.13 -336.628 459.517 -335.633H460.019C461.147 -335.385 462.15 -335.136 463.278 -334.888C465.033 -334.39 466.787 -333.893 468.542 -333.396H468.668C469.42 -333.147 470.172 -332.898 470.924 -332.65H471.049C471.676 -332.401 472.428 -332.153 473.18 -331.904C475.687 -331.034 478.069 -330.039 480.701 -328.92V-328.796H480.826C482.707 -328.05 484.587 -327.18 486.592 -326.309L534.225 -303.435L804.349 -173.894L818.639 -167.056C820.895 -166.062 823.276 -164.818 825.533 -163.575V-163.451H825.658L827.037 -162.705C828.291 -161.958 829.544 -161.213 830.797 -160.467C836.939 -156.737 843.082 -152.511 848.847 -147.787C850.727 -146.294 852.482 -144.927 854.112 -143.31H854.237C861.131 -137.344 867.649 -130.879 873.792 -123.917V-123.793C875.295 -122.053 876.799 -120.312 878.305 -118.572C879.307 -117.328 880.31 -116.085 881.312 -114.841H881.438C883.694 -111.983 885.951 -108.999 888.082 -105.891H888.206C891.341 -101.54 894.348 -96.9395 897.232 -92.4643V-92.3404C897.983 -91.097 898.736 -89.9775 899.488 -88.7341V-88.6102C900.491 -86.8697 901.494 -85.2531 902.496 -83.5127V-83.3887C905.505 -78.0434 908.262 -72.6966 910.769 -67.1034V-66.9781H910.895L911.521 -65.4868C912.273 -63.7463 913.026 -62.0058 913.777 -60.2654V-60.1414C914.278 -59.022 914.78 -57.7786 915.282 -56.5352V-56.4112C916.661 -53.0542 917.914 -49.5732 919.043 -46.2175V-45.9683H919.167L919.794 -43.8547V-43.7307H919.92C920.672 -41.244 921.423 -38.7585 922.05 -36.2717C922.302 -35.2776 922.552 -34.4073 922.803 -33.4118V-33.2878H922.927C923.053 -32.2937 923.304 -31.2981 923.554 -30.4279V-30.304C924.433 -26.5751 925.184 -22.845 925.811 -19.24V-18.9908C926.563 -15.0128 927.065 -11.0347 927.315 -7.18059V-6.31032H927.44C927.566 -4.69377 927.692 -3.07858 927.692 -1.58598L934.835 165.748L949.501 505.639C949.627 509.866 949.878 513.968 950.002 518.07V518.319C950.254 526.524 950.505 534.604 950.755 542.189V542.934C951.508 571.155 951.508 594.527 950.755 608.078V608.451C950.505 612.056 950.254 614.916 950.002 617.028V617.277C949.752 618.521 949.627 619.391 949.377 620.012H949.251V620.509C949.125 620.882 948.875 621.007 948.75 621.007C948.624 621.007 948.624 621.008 948.498 620.882ZM1553.18 -209.076C1537.38 -209.076 1518.2 -203.357 1496.27 -191.299L1131.38 10.4721C1055.55 52.2438 994.627 157.419 996.006 244.07L1004.78 831.108C1006.16 917.633 1010.29 987.999 1014.18 987.999C1018.07 987.626 1034.24 917.633 1050.41 832.351L1078.48 683.54C1078.48 683.54 1079.24 679.562 1080.49 672.227L1089.51 624.489C1090.64 618.645 1092.02 612.678 1093.65 606.71C1093.78 606.587 1093.78 606.461 1093.78 606.337C1094.65 601.986 1095.78 597.511 1096.66 592.911C1100.67 574.388 1105.06 553.502 1110.7 530.999C1115.84 508.373 1121.48 484.006 1128.37 458.521C1134.64 432.787 1141.79 405.81 1149.68 378.086C1157.33 350.238 1165.48 321.646 1174.12 292.678C1176.51 285.593 1178.64 278.381 1180.89 271.046L1182.65 265.577L1184.9 258.864L1188.54 247.923C1191.67 240.091 1195.56 230.394 1199.32 222.811C1203.08 214.854 1206.97 207.147 1211.35 199.688C1228.02 169.602 1248.46 143.246 1269.52 119.004C1290.57 94.8856 1312.76 73.2548 1334.44 53.2393C1356.26 33.4716 1377.56 15.0726 1397.87 -1.95913C1417.93 -18.8669 1436.98 -34.9044 1454.28 -49.6985C1471.45 -64.6165 1486.87 -78.5404 1499.78 -91.4701C1512.56 -104.522 1523.59 -116.209 1531.49 -126.901C1539.39 -137.468 1545.28 -146.294 1548.66 -152.635C1552.17 -159.1 1554.05 -162.581 1554.05 -162.581C1554.05 -162.581 1553.68 -158.603 1552.93 -151.268C1551.67 -143.933 1549.79 -132.993 1545.03 -119.566C1540.27 -106.388 1533.5 -90.4746 1523.72 -73.319C1514.19 -56.2873 1501.91 -37.763 1487.62 -18.7429C1459.29 19.4238 1422.69 60.2012 1385.46 103.215C1366.78 124.598 1348.11 146.727 1330.68 169.477C1313.26 192.353 1296.97 215.849 1284.06 240.091C1280.8 246.059 1277.91 252.15 1275.03 258.242C1272.15 264.583 1270.39 269.058 1267.88 275.523L1264 286.339L1262.49 290.565L1260.61 296.035C1258.23 303.495 1255.85 310.704 1253.47 317.915C1243.57 346.757 1233.92 375.351 1223.39 402.577C1221.38 407.55 1219.38 412.647 1217.37 417.496C1229.78 407.177 1242.31 397.978 1255.1 390.643L1364.03 327.737C1438.86 284.349 1517.95 180.293 1539.76 96.3782L1594.42 -114.841C1609.96 -174.515 1592.03 -209.076 1553.3 -209.076H1553.18Z" fill="white" fill-opacity="0.02"/>
</g>
<defs>
<clipPath id="clip0_19_259">
<rect width="1318" height="480" rx="20" fill="white"/>
</clipPath>
</defs>
</svg>
