<svg width="1160" height="170" viewBox="0 0 1160 170" fill="none" xmlns="http://www.w3.org/2000/svg">
<g clip-path="url(#clip0_85_134)">
<rect width="1160" height="170" rx="20" fill="#0C0C0C"/>
<path fill-rule="evenodd" clip-rule="evenodd" d="M679.789 621.822V621.699H679.665C677.42 619.721 671.807 603.274 664.698 578.541L663.202 573.346C661.082 565.803 658.837 557.518 656.468 548.861V548.738C653.224 536.619 649.858 523.634 646.49 510.031L640.629 486.289C640.629 486.289 640.005 483.196 639.133 477.507C638.134 471.819 636.888 463.411 634.768 452.9C632.771 442.387 630.651 429.65 627.534 415.306C624.541 400.836 621.299 384.39 617.307 366.83C613.316 349.269 609.076 330.226 604.587 310.068C604.088 308.337 603.588 306.482 603.214 304.751V304.628L602.467 301.66C601.718 298.568 600.969 295.352 600.222 292.261V292.013H600.097L599.473 289.046C596.23 275.442 593.113 261.469 589.62 247.247C588.623 243.414 587.625 239.58 586.628 235.747V235.376L585.879 232.779V232.408L585.131 229.688V229.44L584.382 226.595V226.472L583.634 223.504C580.267 209.407 576.9 194.938 573.407 180.469C570.663 169.093 567.671 157.716 564.678 146.215C563.556 141.269 562.308 136.198 561.186 131.251V131.128C560.437 127.913 559.689 124.697 558.94 121.482L556.695 111.712C553.828 100.212 551.084 88.5878 548.215 77.2112L543.351 59.0326C542.229 54.2099 539.485 45.3056 536.866 38.6284C526.266 11.5455 509.304 -11.0845 491.345 -28.8919C473.137 -46.6992 453.931 -60.3017 435.723 -71.9262C417.639 -83.4275 400.178 -92.825 384.09 -101.358C354.782 -116.693 330.089 -129.182 311.881 -138.952V-139.075C310.01 -139.941 308.265 -140.93 306.643 -141.92C289.183 -151.566 278.831 -157.377 277.585 -158.119C277.959 -157.502 279.58 -155.276 282.573 -151.071C286.19 -146.62 291.303 -139.694 298.537 -131.656C305.77 -123.742 314.625 -113.725 325.35 -103.461C336.2 -93.0729 348.672 -81.6962 362.266 -69.8237C375.735 -58.0759 390.202 -45.3391 405.666 -31.86L407.287 -30.3753C415.893 -22.3379 424.623 -14.0527 432.729 -5.39621V-5.02502H433.103L433.478 -4.65384V-4.28265H433.852L434.226 -3.78821V-3.54031H434.601L434.974 -3.04587V-2.79929H435.223L435.847 -2.18021V-2.05692H435.972L436.596 -1.43918V-1.31458C437.343 -0.573541 438.092 0.292131 438.841 1.15778V1.65222H439.215L439.588 2.02341V2.39456H439.963L440.337 2.76575V3.13693H440.587L441.086 3.63141V3.8793H441.21L441.833 4.49704V4.62033C442.831 5.73387 443.828 6.9707 444.827 8.08292V8.33081H444.951L445.575 9.07318C446.199 9.81422 446.697 10.5566 447.321 11.2989C448.569 12.7823 449.691 14.267 450.814 15.7504C452.06 17.4817 453.307 19.213 454.555 20.9443V21.0676C455.553 22.4277 456.55 23.9124 457.548 25.3958V25.5204H457.673C458.171 26.1382 458.545 26.8805 459.044 27.6216V27.7462C459.793 28.8584 460.541 30.0952 461.289 31.332V31.4553H461.414C463.534 34.9179 465.529 38.5051 467.275 42.2142V42.5854H467.525L468.024 43.6976V44.0688H468.273L468.772 45.3056V45.5535H468.897L469.52 46.9136V47.0369H469.645C470.144 48.1504 470.643 49.3873 471.017 50.4995V50.7474H471.142C471.641 51.9842 472.139 53.0964 472.513 54.3333V54.4565H472.638L473.262 56.4357V56.6823H473.387C473.636 57.3014 473.886 58.0437 474.134 58.6615V59.0326C474.384 59.775 474.633 60.516 474.883 61.2584C476.254 65.7099 477.003 68.1835 478.499 74.8608L481.992 91.6792C484.237 103.675 487.23 115.546 489.849 127.542C493.341 143.741 497.331 159.817 501.821 175.647C490.597 166.742 479.123 159.076 467.774 153.511L352.288 95.3897L350.917 94.6474C348.672 93.5338 346.427 92.2983 344.182 91.0615V90.9369H344.057C340.939 89.0823 337.697 87.1045 334.454 85.002H334.329L332.209 83.5173H332.085L329.964 82.0339C328.219 80.7971 326.473 79.5602 324.726 78.3234H324.601C322.606 76.84 320.611 75.3566 318.615 73.8719C317.369 72.883 316.121 71.894 314.874 70.9038C311.881 68.5547 308.888 65.9578 305.895 63.4841C297.164 55.9412 288.559 47.656 280.328 38.8749C278.084 36.4026 275.838 34.0523 273.594 31.4553C270.725 28.2406 268.106 25.1492 265.362 21.8099H265.238C259.501 14.7615 254.013 7.58845 248.9 0.292114V0.168823H248.775C246.281 -3.54032 243.787 -7.12752 241.292 -10.8367V-10.9613C238.174 -15.9072 235.181 -20.8532 232.313 -25.8005V-25.9238C230.442 -29.1398 228.696 -32.3545 227.075 -35.5692L226.327 -37.0539L225.578 -38.5373C223.957 -41.7533 222.461 -44.968 221.089 -48.1826C219.093 -52.6355 217.347 -57.087 215.851 -61.5385V-61.6631H215.726C215.352 -63.0232 214.853 -64.3833 214.354 -65.7434L151.872 -260.389C151.373 -261.873 150.874 -263.233 150.5 -264.717V-264.841C150.251 -265.707 150.001 -266.572 149.752 -267.438V-267.809H149.627C149.378 -268.674 149.253 -269.416 149.004 -270.282V-270.777H148.879C148.629 -271.766 148.505 -272.632 148.255 -273.621V-273.745C148.006 -274.981 147.756 -276.218 147.507 -277.331V-277.454C147.258 -279.062 147.008 -280.546 146.759 -282.154V-284.132H146.509C145.636 -292.047 145.886 -298.972 147.258 -305.031H147.507V-306.144C147.632 -306.763 147.881 -307.381 148.006 -307.999H148.255V-308.865C148.879 -310.596 149.502 -312.327 150.375 -313.935H150.5V-314.306C150.75 -314.677 150.874 -315.048 151.124 -315.419H151.248V-315.666C151.623 -316.408 152.121 -317.027 152.496 -317.645H152.745V-318.016C153.618 -319.253 154.491 -320.365 155.489 -321.355H155.738V-321.726L156.237 -322.097H156.486V-322.468L156.985 -322.839H157.235V-323.086L157.858 -323.704H157.983V-323.828C158.981 -324.57 159.978 -325.188 160.976 -325.93C161.849 -326.425 162.722 -326.92 163.595 -327.414H163.969V-327.538C164.468 -327.785 164.842 -327.909 165.216 -328.156H165.466V-328.28C166.089 -328.404 166.588 -328.651 167.212 -328.898H167.836V-329.022C169.457 -329.64 171.078 -330.011 172.949 -330.382H174.57V-330.629C176.566 -330.877 178.686 -331 180.806 -331C184.672 -331 188.912 -330.629 193.277 -329.64H193.776C194.899 -329.393 195.896 -329.146 197.019 -328.898C198.765 -328.404 200.511 -327.909 202.257 -327.414H202.381C203.13 -327.167 203.878 -326.92 204.626 -326.672H204.751C205.375 -326.425 206.123 -326.178 206.871 -325.93C209.365 -325.065 211.735 -324.075 214.354 -322.962V-322.839H214.479C216.35 -322.097 218.22 -321.231 220.216 -320.365L267.607 -297.612L536.367 -168.755L550.585 -161.953C552.83 -160.964 555.199 -159.728 557.444 -158.491V-158.367H557.569L558.94 -157.625C560.188 -156.883 561.436 -156.142 562.682 -155.399C568.793 -151.689 574.905 -147.485 580.641 -142.786C582.511 -141.301 584.257 -139.941 585.879 -138.333H586.004C592.863 -132.398 599.348 -125.967 605.459 -119.042V-118.919C606.956 -117.188 608.452 -115.456 609.949 -113.725C610.947 -112.488 611.944 -111.251 612.942 -110.015H613.067C615.312 -107.171 617.557 -104.203 619.677 -101.112H619.801C622.92 -96.7834 625.912 -92.2072 628.781 -87.7557V-87.6324C629.529 -86.3956 630.277 -85.2821 631.026 -84.0452V-83.922C632.024 -82.1907 633.021 -80.5827 634.019 -78.8514V-78.7281C637.013 -73.411 639.755 -68.0925 642.25 -62.5288V-62.4041H642.375L642.998 -60.9207C643.747 -59.1894 644.495 -57.4582 645.243 -55.7269V-55.6036C645.742 -54.4901 646.24 -53.2532 646.74 -52.0164V-51.8931C648.112 -48.5538 649.359 -45.0912 650.482 -41.7533V-41.5054H650.606L651.229 -39.4029V-39.2796H651.354C652.103 -36.806 652.851 -34.3337 653.474 -31.86C653.724 -30.8711 653.973 -30.0055 654.223 -29.0152V-28.8919H654.347C654.472 -27.9029 654.722 -26.9127 654.971 -26.0471V-25.9238C655.844 -22.2147 656.592 -18.5042 657.216 -14.9183V-14.6704C657.965 -10.7134 658.463 -6.7563 658.712 -2.92255V-2.05692H658.837C658.962 -0.448911 659.087 1.15777 659.087 2.64249L666.195 169.093L680.786 507.187C680.911 511.392 681.161 515.473 681.285 519.553V519.801C681.535 527.963 681.785 536 682.034 543.544V544.285C682.783 572.357 682.783 595.606 682.034 609.085V609.457C681.785 613.042 681.535 615.887 681.285 617.988V618.236C681.036 619.473 680.911 620.339 680.663 620.956H680.538V621.451C680.413 621.822 680.164 621.947 680.039 621.947C679.914 621.947 679.914 621.947 679.789 621.822ZM1281.41 -203.751C1265.7 -203.751 1246.62 -198.062 1224.79 -186.068L861.748 14.6369C786.296 56.1878 725.684 160.808 727.057 247.001L735.787 830.937C737.158 917.006 741.273 987 745.139 987C749.006 986.628 765.094 917.006 781.182 832.174L809.119 684.149C809.119 684.149 809.866 680.192 811.114 672.895L820.093 625.409C821.215 619.596 822.588 613.661 824.209 607.725C824.333 607.602 824.333 607.477 824.333 607.354C825.207 603.026 826.329 598.574 827.202 593.998C831.193 575.573 835.558 554.798 841.17 532.414C846.284 509.907 851.895 485.669 858.755 460.319C864.99 434.721 872.099 407.886 879.956 380.309C887.563 352.608 895.67 324.166 904.275 295.352C906.645 288.304 908.765 281.131 911.01 273.834L912.757 268.394L915 261.717L918.618 250.833C921.736 243.042 925.602 233.397 929.343 225.854C933.085 217.939 936.951 210.273 941.316 202.853C957.903 172.927 978.231 146.709 999.184 122.596C1020.14 98.6044 1042.21 77.0879 1063.79 57.1781C1085.49 37.5148 1106.69 19.213 1126.89 2.2713C1146.85 -14.5471 1165.8 -30.4999 1183.01 -45.2159C1200.1 -60.0551 1215.44 -73.9054 1228.28 -86.7668C1241 -99.7501 1251.98 -111.375 1259.84 -122.01C1267.69 -132.521 1273.56 -141.301 1276.92 -147.608C1280.41 -154.039 1282.29 -157.502 1282.29 -157.502C1282.29 -157.502 1281.91 -153.545 1281.16 -146.248C1279.92 -138.952 1278.05 -128.07 1273.31 -114.714C1268.57 -101.606 1261.83 -85.7765 1252.11 -68.7115C1242.63 -51.7698 1230.4 -33.3434 1216.19 -14.4238C1188 23.5412 1151.58 64.1032 1114.54 106.89C1095.96 128.16 1077.38 150.172 1060.04 172.802C1042.71 195.557 1026.5 218.929 1013.65 243.042C1010.41 248.979 1007.54 255.038 1004.67 261.098C1001.8 267.405 1000.06 271.857 997.562 278.287L993.696 289.046L992.199 293.25L990.329 298.692C987.959 306.111 985.59 313.283 983.22 320.456C973.367 349.145 963.764 377.588 953.289 404.67C951.293 409.617 949.298 414.687 947.303 419.511C959.649 409.246 972.121 400.095 984.841 392.799L1093.22 330.226C1167.67 287.067 1246.37 183.561 1268.07 100.089L1322.44 -110.015C1337.91 -169.373 1320.07 -203.751 1281.54 -203.751H1281.41Z" fill="white" fill-opacity="0.02"/>
</g>
<defs>
<clipPath id="clip0_85_134">
<rect width="1160" height="170" rx="20" fill="white"/>
</clipPath>
</defs>
</svg>
