<svg width="1318" height="170" viewBox="0 0 1318 170" fill="none" xmlns="http://www.w3.org/2000/svg">
<g clip-path="url(#clip0_19_222)">
<rect width="1318" height="170" rx="20" fill="#0C0C0C"/>
<path fill-rule="evenodd" clip-rule="evenodd" d="M948.498 1000.88V1000.76H948.374C946.118 998.77 940.477 982.235 933.331 957.371L931.828 952.149C929.697 944.566 927.44 936.236 925.059 927.534V927.41C921.799 915.227 918.416 902.173 915.031 888.497L909.14 864.629C909.14 864.629 908.513 861.52 907.636 855.801C906.632 850.082 905.38 841.629 903.249 831.062C901.242 820.494 899.111 807.69 895.978 793.269C892.97 778.723 889.711 762.189 885.7 744.535C881.688 726.881 877.426 707.737 872.915 687.473C872.413 685.732 871.911 683.868 871.535 682.127V682.003L870.784 679.019C870.031 675.912 869.279 672.678 868.527 669.571V669.321H868.402L867.775 666.339C864.516 652.663 861.382 638.615 857.872 624.318C856.869 620.464 855.867 616.61 854.864 612.757V612.384L854.112 609.773V609.4L853.36 606.665V606.416L852.608 603.556V603.432L851.855 600.448C848.472 586.277 845.087 571.73 841.577 557.185C838.819 545.748 835.811 534.311 832.803 522.749C831.675 517.777 830.421 512.679 829.293 507.706V507.582C828.54 504.35 827.789 501.117 827.037 497.885L824.78 488.063C821.898 476.502 819.14 464.816 816.257 453.379L811.368 435.104C810.24 430.255 807.482 421.304 804.85 414.591C794.196 387.364 777.148 364.614 759.098 346.712C740.797 328.81 721.494 315.136 703.194 303.449C685.018 291.887 667.469 282.44 651.299 273.861C621.842 258.445 597.023 245.889 578.723 236.067V235.944C576.842 235.073 575.088 234.079 573.459 233.084C555.91 223.387 545.506 217.545 544.253 216.798C544.629 217.419 546.258 219.657 549.266 223.884C552.902 228.359 558.04 235.321 565.311 243.403C572.581 251.359 581.481 261.428 592.261 271.747C603.166 282.19 615.701 293.627 629.364 305.563C642.901 317.373 657.442 330.178 672.984 343.728L674.614 345.221C683.263 353.301 692.037 361.63 700.185 370.333V370.706H700.56L700.937 371.079V371.452H701.313L701.689 371.949V372.198H702.066L702.441 372.695V372.943H702.691L703.318 373.566V373.69H703.444L704.071 374.311V374.436C704.822 375.181 705.575 376.051 706.327 376.921V377.419H706.703L707.079 377.792V378.165H707.456L707.831 378.538V378.911H708.083L708.584 379.408V379.657H708.708L709.335 380.278V380.402C710.338 381.522 711.34 382.765 712.344 383.883V384.133H712.468L713.095 384.879C713.722 385.624 714.224 386.37 714.851 387.116C716.105 388.608 717.233 390.1 718.361 391.592C719.614 393.332 720.867 395.073 722.121 396.813V396.937C723.124 398.304 724.126 399.797 725.129 401.288V401.413H725.255C725.756 402.034 726.132 402.781 726.633 403.526V403.651C727.386 404.769 728.138 406.013 728.889 407.256V407.38H729.015C731.146 410.861 733.151 414.467 734.906 418.196V418.569H735.158L735.659 419.687V420.06H735.909L736.41 421.304V421.553H736.536L737.163 422.92V423.044H737.288C737.79 424.164 738.291 425.407 738.667 426.525V426.774H738.792C739.294 428.018 739.795 429.136 740.17 430.379V430.503H740.296L740.923 432.493V432.741H741.049C741.299 433.363 741.55 434.11 741.8 434.731V435.104C742.051 435.85 742.301 436.595 742.553 437.341C743.931 441.816 744.683 444.303 746.187 451.016L749.698 467.924C751.954 479.983 754.962 491.917 757.594 503.977C761.104 520.262 765.115 536.424 769.628 552.337C758.347 543.386 746.814 535.679 735.408 530.084L619.335 471.654L617.957 470.908C615.701 469.788 613.444 468.546 611.188 467.303V467.177H611.062C607.929 465.313 604.67 463.325 601.411 461.211H601.285L599.154 459.718H599.03L596.898 458.227C595.144 456.984 593.389 455.74 591.634 454.497H591.508C589.503 453.006 587.498 451.514 585.491 450.022C584.239 449.028 582.985 448.033 581.731 447.038C578.723 444.676 575.715 442.066 572.706 439.579C563.932 431.996 555.283 423.667 547.009 414.839C544.754 412.353 542.497 409.991 540.241 407.38C537.358 404.148 534.726 401.04 531.968 397.683H531.843C526.077 390.597 520.562 383.386 515.422 376.051V375.927H515.297C512.79 372.198 510.283 368.592 507.776 364.863V364.738C504.642 359.766 501.634 354.794 498.751 349.82V349.696C496.871 346.463 495.116 343.231 493.486 339.999L492.734 338.507L491.982 337.016C490.353 333.782 488.849 330.551 487.47 327.319C485.464 322.842 483.709 318.367 482.205 313.892V313.767H482.08C481.704 312.4 481.202 311.032 480.701 309.665L417.902 113.986C417.4 112.494 416.899 111.126 416.523 109.634V109.51C416.272 108.64 416.022 107.77 415.771 106.899V106.526H415.646C415.395 105.656 415.269 104.91 415.019 104.04V103.543H414.893C414.643 102.548 414.517 101.678 414.267 100.683V100.559C414.016 99.3158 413.765 98.0727 413.515 96.9538V96.8294C413.264 95.2133 413.013 93.7215 412.763 92.1053V90.1162H412.512C411.634 82.1598 411.885 75.1978 413.264 69.1062H413.515V67.9872C413.64 67.3657 413.891 66.7441 414.016 66.1225H414.267V65.2523C414.893 63.5118 415.52 61.7713 416.398 60.1552H416.523V59.7822C416.774 59.4093 416.899 59.0363 417.15 58.6632H417.275V58.4147C417.651 57.6688 418.152 57.0471 418.529 56.4255H418.779V56.0526C419.657 54.8094 420.534 53.6905 421.537 52.696H421.788V52.323L422.289 51.95H422.54V51.5771L423.041 51.2041H423.292V50.9555L423.918 50.3339H424.044V50.2096C425.047 49.4637 426.049 48.8421 427.052 48.0961C427.93 47.5989 428.807 47.1016 429.684 46.6043H430.06V46.48C430.562 46.2313 430.938 46.107 431.314 45.8584H431.565V45.7341C432.191 45.6097 432.693 45.3611 433.32 45.1125H433.946V44.9881C435.576 44.3665 437.205 43.9936 439.086 43.6206H440.715V43.372C442.721 43.1233 444.852 42.999 446.982 42.999C450.868 42.999 455.13 43.372 459.517 44.3665H460.019C461.147 44.6152 462.15 44.8638 463.278 45.1125C465.033 45.6097 466.787 46.107 468.542 46.6043H468.668C469.42 46.8529 470.172 47.1016 470.924 47.3502H471.049C471.676 47.5989 472.428 47.8475 473.18 48.0961C475.687 48.9664 478.069 49.9609 480.701 51.0798V51.2041H480.826C482.707 51.95 484.587 52.8203 486.592 53.6905L534.225 76.5653L804.349 206.106L818.639 212.944C820.895 213.938 823.276 215.182 825.533 216.425V216.549H825.658L827.037 217.295C828.291 218.042 829.544 218.787 830.797 219.533C836.939 223.263 843.082 227.489 848.847 232.213C850.727 233.706 852.482 235.073 854.112 236.69H854.237C861.131 242.656 867.649 249.121 873.792 256.083V256.207C875.295 257.947 876.799 259.688 878.305 261.428C879.307 262.672 880.31 263.915 881.312 265.159H881.438C883.694 268.017 885.951 271.001 888.082 274.109H888.206C891.341 278.46 894.348 283.061 897.232 287.536V287.66C897.983 288.903 898.736 290.023 899.488 291.266V291.39C900.491 293.13 901.494 294.747 902.496 296.487V296.611C905.505 301.957 908.262 307.303 910.769 312.897V313.022H910.895L911.521 314.513C912.273 316.254 913.026 317.994 913.777 319.735V319.859C914.278 320.978 914.78 322.221 915.282 323.465V323.589C916.661 326.946 917.914 330.427 919.043 333.782V334.032H919.167L919.794 336.145V336.269H919.92C920.672 338.756 921.423 341.241 922.05 343.728C922.302 344.722 922.552 345.593 922.803 346.588V346.712H922.927C923.053 347.706 923.304 348.702 923.554 349.572V349.696C924.433 353.425 925.184 357.155 925.811 360.76V361.009C926.563 364.987 927.065 368.965 927.315 372.819V373.69H927.44C927.566 375.306 927.692 376.921 927.692 378.414L934.835 545.748L949.501 885.639C949.627 889.866 949.878 893.968 950.002 898.07V898.319C950.254 906.524 950.505 914.604 950.755 922.189V922.934C951.508 951.155 951.508 974.527 950.755 988.078V988.451C950.505 992.056 950.254 994.916 950.002 997.028V997.277C949.752 998.521 949.627 999.391 949.377 1000.01H949.251V1000.51C949.125 1000.88 948.875 1001.01 948.75 1001.01C948.624 1001.01 948.624 1001.01 948.498 1000.88ZM1553.18 170.924C1537.38 170.924 1518.2 176.643 1496.27 188.701L1131.38 390.472C1055.55 432.244 994.627 537.419 996.006 624.07L1004.78 1211.11C1006.16 1297.63 1010.29 1368 1014.18 1368C1018.07 1367.63 1034.24 1297.63 1050.41 1212.35L1078.48 1063.54C1078.48 1063.54 1079.24 1059.56 1080.49 1052.23L1089.51 1004.49C1090.64 998.645 1092.02 992.678 1093.65 986.71C1093.78 986.587 1093.78 986.461 1093.78 986.337C1094.65 981.986 1095.78 977.511 1096.66 972.911C1100.67 954.388 1105.06 933.502 1110.7 910.999C1115.84 888.373 1121.48 864.006 1128.37 838.521C1134.64 812.787 1141.79 785.81 1149.68 758.086C1157.33 730.238 1165.48 701.646 1174.12 672.678C1176.51 665.593 1178.64 658.381 1180.89 651.046L1182.65 645.577L1184.9 638.864L1188.54 627.923C1191.67 620.091 1195.56 610.394 1199.32 602.811C1203.08 594.854 1206.97 587.147 1211.35 579.688C1228.02 549.602 1248.46 523.246 1269.52 499.004C1290.57 474.886 1312.76 453.255 1334.44 433.239C1356.26 413.472 1377.56 395.073 1397.87 378.041C1417.93 361.133 1436.98 345.096 1454.28 330.302C1471.45 315.383 1486.87 301.46 1499.78 288.53C1512.56 275.478 1523.59 263.791 1531.49 253.099C1539.39 242.532 1545.28 233.706 1548.66 227.365C1552.17 220.9 1554.05 217.419 1554.05 217.419C1554.05 217.419 1553.68 221.397 1552.93 228.732C1551.67 236.067 1549.79 247.007 1545.03 260.434C1540.27 273.612 1533.5 289.525 1523.72 306.681C1514.19 323.713 1501.91 342.237 1487.62 361.257C1459.29 399.424 1422.69 440.201 1385.46 483.215C1366.78 504.598 1348.11 526.727 1330.68 549.477C1313.26 572.353 1296.97 595.849 1284.06 620.091C1280.8 626.059 1277.91 632.15 1275.03 638.242C1272.15 644.583 1270.39 649.058 1267.88 655.523L1264 666.339L1262.49 670.565L1260.61 676.035C1258.23 683.495 1255.85 690.704 1253.47 697.915C1243.57 726.757 1233.92 755.351 1223.39 782.577C1221.38 787.55 1219.38 792.647 1217.37 797.496C1229.78 787.177 1242.31 777.978 1255.1 770.643L1364.03 707.737C1438.86 664.349 1517.95 560.293 1539.76 476.378L1594.42 265.159C1609.96 205.485 1592.03 170.924 1553.3 170.924H1553.18Z" fill="white" fill-opacity="0.02"/>
</g>
<defs>
<clipPath id="clip0_19_222">
<rect width="1318" height="170" rx="20" fill="white"/>
</clipPath>
</defs>
</svg>
