<svg width="649" height="170" viewBox="0 0 649 170" fill="none" xmlns="http://www.w3.org/2000/svg">
<g clip-path="url(#clip0_19_249)">
<rect width="649" height="170" rx="20" fill="#0C0C0C"/>
<path fill-rule="evenodd" clip-rule="evenodd" d="M948.498 810.882V810.758H948.374C946.118 808.77 940.477 792.235 933.331 767.371L931.828 762.149C929.697 754.566 927.44 746.236 925.059 737.534V737.41C921.799 725.227 918.416 712.173 915.031 698.497L909.14 674.629C909.14 674.629 908.513 671.52 907.636 665.801C906.632 660.082 905.38 651.629 903.249 641.062C901.242 630.494 899.111 617.69 895.978 603.269C892.97 588.723 889.711 572.189 885.7 554.535C881.688 536.881 877.426 517.737 872.915 497.473C872.413 495.732 871.911 493.868 871.535 492.127V492.003L870.784 489.019C870.031 485.912 869.279 482.678 868.527 479.571V479.321H868.402L867.775 476.339C864.516 462.663 861.382 448.615 857.872 434.318C856.869 430.464 855.867 426.61 854.864 422.757V422.384L854.112 419.773V419.4L853.36 416.665V416.416L852.608 413.556V413.432L851.855 410.448C848.472 396.277 845.087 381.73 841.577 367.185C838.819 355.748 835.811 344.311 832.803 332.749C831.675 327.777 830.421 322.679 829.293 317.706V317.582C828.54 314.35 827.789 311.117 827.037 307.885L824.78 298.063C821.898 286.502 819.14 274.816 816.257 263.379L811.368 245.104C810.24 240.255 807.482 231.304 804.85 224.591C794.196 197.364 777.148 174.614 759.098 156.712C740.797 138.81 721.494 125.136 703.194 113.449C685.018 101.887 667.469 92.4395 651.299 83.861C621.842 68.4446 597.023 55.8894 578.723 46.0675V45.9435C576.842 45.0733 575.088 44.0791 573.459 43.0836C555.91 33.387 545.506 27.5445 544.253 26.7982C544.629 27.4192 546.258 29.6568 549.266 33.8841C552.902 38.3592 558.04 45.3212 565.311 53.4026C572.581 61.3587 581.481 71.4284 592.261 81.7474C603.166 92.1903 615.701 103.627 629.364 115.563C642.901 127.373 657.442 140.178 672.984 153.728L674.614 155.221C683.263 163.301 692.037 171.63 700.185 180.333V180.706H700.56L700.937 181.079V181.452H701.313L701.689 181.949V182.198H702.066L702.441 182.695V182.943H702.691L703.318 183.566V183.69H703.444L704.071 184.311V184.436C704.822 185.181 705.575 186.051 706.327 186.921V187.419H706.703L707.079 187.792V188.165H707.456L707.831 188.538V188.911H708.083L708.584 189.408V189.657H708.708L709.335 190.278V190.402C710.338 191.522 711.34 192.765 712.344 193.883V194.133H712.468L713.095 194.879C713.722 195.624 714.224 196.37 714.851 197.116C716.105 198.608 717.233 200.1 718.361 201.592C719.614 203.332 720.867 205.073 722.121 206.813V206.937C723.124 208.304 724.126 209.797 725.129 211.288V211.413H725.255C725.756 212.034 726.132 212.781 726.633 213.526V213.651C727.386 214.769 728.138 216.013 728.889 217.256V217.38H729.015C731.146 220.861 733.151 224.467 734.906 228.196V228.569H735.158L735.659 229.687V230.06H735.909L736.41 231.304V231.553H736.536L737.163 232.92V233.044H737.288C737.79 234.164 738.291 235.407 738.667 236.525V236.774H738.792C739.294 238.018 739.795 239.136 740.17 240.379V240.503H740.296L740.923 242.493V242.741H741.049C741.299 243.363 741.55 244.11 741.8 244.731V245.104C742.051 245.85 742.301 246.595 742.553 247.341C743.931 251.816 744.683 254.303 746.187 261.016L749.698 277.924C751.954 289.983 754.962 301.917 757.594 313.977C761.104 330.262 765.115 346.424 769.628 362.337C758.347 353.386 746.814 345.679 735.408 340.084L619.335 281.654L617.957 280.908C615.701 279.788 613.444 278.546 611.188 277.303V277.177H611.062C607.929 275.313 604.67 273.325 601.411 271.211H601.285L599.154 269.718H599.03L596.898 268.227C595.144 266.984 593.389 265.74 591.634 264.497H591.508C589.503 263.006 587.498 261.514 585.491 260.022C584.239 259.028 582.985 258.033 581.731 257.038C578.723 254.676 575.715 252.066 572.706 249.579C563.932 241.996 555.283 233.667 547.009 224.839C544.754 222.353 542.497 219.991 540.241 217.38C537.358 214.148 534.726 211.04 531.968 207.683H531.843C526.077 200.597 520.562 193.386 515.422 186.051V185.927H515.297C512.79 182.198 510.283 178.592 507.776 174.863V174.738C504.642 169.766 501.634 164.794 498.751 159.82V159.696C496.871 156.463 495.116 153.231 493.486 149.999L492.734 148.507L491.982 147.016C490.353 143.782 488.849 140.551 487.47 137.319C485.464 132.842 483.709 128.367 482.205 123.892V123.767H482.08C481.704 122.4 481.202 121.032 480.701 119.665L417.902 -76.0144C417.4 -77.5062 416.899 -78.8737 416.523 -80.3656V-80.49C416.272 -81.3602 416.022 -82.2305 415.771 -83.1007V-83.4736H415.646C415.395 -84.3438 415.269 -85.0897 415.019 -85.96V-86.4573H414.893C414.643 -87.4518 414.517 -88.322 414.267 -89.3166V-89.4409C414.016 -90.6842 413.765 -91.9273 413.515 -93.0462V-93.1706C413.264 -94.7867 413.013 -96.2785 412.763 -97.8947V-99.8838H412.512C411.634 -107.84 411.885 -114.802 413.264 -120.894H413.515V-122.013C413.64 -122.634 413.891 -123.256 414.016 -123.877H414.267V-124.748C414.893 -126.488 415.52 -128.229 416.398 -129.845H416.523V-130.218C416.774 -130.591 416.899 -130.964 417.15 -131.337H417.275V-131.585C417.651 -132.331 418.152 -132.953 418.529 -133.574H418.779V-133.947C419.657 -135.191 420.534 -136.309 421.537 -137.304H421.788V-137.677L422.289 -138.05H422.54V-138.423L423.041 -138.796H423.292V-139.045L423.918 -139.666H424.044V-139.79C425.047 -140.536 426.049 -141.158 427.052 -141.904C427.93 -142.401 428.807 -142.898 429.684 -143.396H430.06V-143.52C430.562 -143.769 430.938 -143.893 431.314 -144.142H431.565V-144.266C432.191 -144.39 432.693 -144.639 433.32 -144.888H433.946V-145.012C435.576 -145.633 437.205 -146.006 439.086 -146.379H440.715V-146.628C442.721 -146.877 444.852 -147.001 446.982 -147.001C450.868 -147.001 455.13 -146.628 459.517 -145.633H460.019C461.147 -145.385 462.15 -145.136 463.278 -144.888C465.033 -144.39 466.787 -143.893 468.542 -143.396H468.668C469.42 -143.147 470.172 -142.898 470.924 -142.65H471.049C471.676 -142.401 472.428 -142.153 473.18 -141.904C475.687 -141.034 478.069 -140.039 480.701 -138.92V-138.796H480.826C482.707 -138.05 484.587 -137.18 486.592 -136.309L534.225 -113.435L804.349 16.1061L818.639 22.9441C820.895 23.9383 823.276 25.1817 825.533 26.4251V26.549H825.658L827.037 27.2953C828.291 28.0416 829.544 28.7866 830.797 29.5329C836.939 33.2631 843.082 37.489 848.847 42.2134C850.727 43.706 852.482 45.0733 854.112 46.6898H854.237C861.131 52.6563 867.649 59.1211 873.792 66.083V66.207C875.295 67.9475 876.799 69.688 878.305 71.4284C879.307 72.6718 880.31 73.9152 881.312 75.1586H881.438C883.694 78.0172 885.951 81.0011 888.082 84.1089H888.206C891.341 88.4601 894.348 93.0605 897.232 97.5357V97.6596C897.983 98.903 898.736 100.023 899.488 101.266V101.39C900.491 103.13 901.494 104.747 902.496 106.487V106.611C905.505 111.957 908.262 117.303 910.769 122.897V123.022H910.895L911.521 124.513C912.273 126.254 913.026 127.994 913.777 129.735V129.859C914.278 130.978 914.78 132.221 915.282 133.465V133.589C916.661 136.946 917.914 140.427 919.043 143.782V144.032H919.167L919.794 146.145V146.269H919.92C920.672 148.756 921.423 151.241 922.05 153.728C922.302 154.722 922.552 155.593 922.803 156.588V156.712H922.927C923.053 157.706 923.304 158.702 923.554 159.572V159.696C924.433 163.425 925.184 167.155 925.811 170.76V171.009C926.563 174.987 927.065 178.965 927.315 182.819V183.69H927.44C927.566 185.306 927.692 186.921 927.692 188.414L934.835 355.748L949.501 695.639C949.627 699.866 949.878 703.968 950.002 708.07V708.319C950.254 716.524 950.505 724.604 950.755 732.189V732.934C951.508 761.155 951.508 784.527 950.755 798.078V798.451C950.505 802.056 950.254 804.916 950.002 807.028V807.277C949.752 808.521 949.627 809.391 949.377 810.012H949.251V810.509C949.125 810.882 948.875 811.007 948.75 811.007C948.624 811.007 948.624 811.008 948.498 810.882ZM1553.18 -19.0759C1537.38 -19.0759 1518.2 -13.3569 1496.27 -1.29875L1131.38 200.472C1055.55 242.244 994.627 347.419 996.006 434.07L1004.78 1021.11C1006.16 1107.63 1010.29 1178 1014.18 1178C1018.07 1177.63 1034.24 1107.63 1050.41 1022.35L1078.48 873.54C1078.48 873.54 1079.24 869.562 1080.49 862.227L1089.51 814.489C1090.64 808.645 1092.02 802.678 1093.65 796.71C1093.78 796.587 1093.78 796.461 1093.78 796.337C1094.65 791.986 1095.78 787.511 1096.66 782.911C1100.67 764.388 1105.06 743.502 1110.7 720.999C1115.84 698.373 1121.48 674.006 1128.37 648.521C1134.64 622.787 1141.79 595.81 1149.68 568.086C1157.33 540.238 1165.48 511.646 1174.12 482.678C1176.51 475.593 1178.64 468.381 1180.89 461.046L1182.65 455.577L1184.9 448.864L1188.54 437.923C1191.67 430.091 1195.56 420.394 1199.32 412.811C1203.08 404.854 1206.97 397.147 1211.35 389.688C1228.02 359.602 1248.46 333.246 1269.52 309.004C1290.57 284.886 1312.76 263.255 1334.44 243.239C1356.26 223.472 1377.56 205.073 1397.87 188.041C1417.93 171.133 1436.98 155.096 1454.28 140.302C1471.45 125.383 1486.87 111.46 1499.78 98.5299C1512.56 85.4776 1523.59 73.7913 1531.49 63.0992C1539.39 52.5323 1545.28 43.706 1548.66 37.3651C1552.17 30.9002 1554.05 27.4192 1554.05 27.4192C1554.05 27.4192 1553.68 31.3973 1552.93 38.7324C1551.67 46.0675 1549.79 57.0075 1545.03 70.4342C1540.27 83.6118 1533.5 99.5254 1523.72 116.681C1514.19 133.713 1501.91 152.237 1487.62 171.257C1459.29 209.424 1422.69 250.201 1385.46 293.215C1366.78 314.598 1348.11 336.727 1330.68 359.477C1313.26 382.353 1296.97 405.849 1284.06 430.091C1280.8 436.059 1277.91 442.15 1275.03 448.242C1272.15 454.583 1270.39 459.058 1267.88 465.523L1264 476.339L1262.49 480.565L1260.61 486.035C1258.23 493.495 1255.85 500.704 1253.47 507.915C1243.57 536.757 1233.92 565.351 1223.39 592.577C1221.38 597.55 1219.38 602.647 1217.37 607.496C1229.78 597.177 1242.31 587.978 1255.1 580.643L1364.03 517.737C1438.86 474.349 1517.95 370.293 1539.76 286.378L1594.42 75.1586C1609.96 15.4851 1592.03 -19.0759 1553.3 -19.0759H1553.18Z" fill="white" fill-opacity="0.02"/>
</g>
<defs>
<clipPath id="clip0_19_249">
<rect width="649" height="170" rx="20" fill="white"/>
</clipPath>
</defs>
</svg>
