<svg width="171" height="50" viewBox="0 0 171 50" fill="none" xmlns="http://www.w3.org/2000/svg">
<rect x="0.25" y="0.000488281" width="170" height="50" rx="8" fill="white"/>
<path d="M63.82 12.2078C63.82 13.2516 63.5052 14.0875 62.885 14.7109C62.172 15.45 61.2433 15.8219 60.1052 15.8219C59.0175 15.8219 58.0888 15.4437 57.327 14.6984C56.5635 13.9422 56.1826 13.0141 56.1826 11.9031C56.1826 10.7922 56.5635 9.86406 57.327 9.11406C58.0888 8.3625 59.0175 7.98438 60.1052 7.98438C60.6467 7.98438 61.163 8.09531 61.6557 8.30156C62.1468 8.50938 62.5466 8.79062 62.8362 9.1375L62.1783 9.79688C61.673 9.20469 60.9851 8.9125 60.1052 8.9125C59.3119 8.9125 58.624 9.1875 58.04 9.74219C57.4623 10.2984 57.1727 11.0188 57.1727 11.9031C57.1727 12.7875 57.4623 13.5141 58.04 14.0703C58.624 14.6187 59.3119 14.9 60.1052 14.9C60.9473 14.9 61.6557 14.6187 62.2145 14.0641C62.5828 13.6969 62.7922 13.1906 62.8472 12.5437H60.1052V11.6406H63.7634C63.8074 11.8359 63.82 12.025 63.82 12.2078Z" fill="black" stroke="black" stroke-width="0.0533941" stroke-miterlimit="10"/>
<path d="M69.6238 9.07705H66.1876V11.452H69.2854V12.3552H66.1876V14.7302H69.6238V15.6505H65.2148V8.15674H69.6238V9.07705Z" fill="black" stroke="black" stroke-width="0.0533941" stroke-miterlimit="10"/>
<path d="M73.7211 15.6505H72.7483V9.07705H70.6406V8.15674H75.8303V9.07705H73.7211V15.6505Z" fill="black" stroke="black" stroke-width="0.0533941" stroke-miterlimit="10"/>
<path d="M79.5869 15.6505V8.15674H80.5581V15.6505H79.5869Z" fill="black" stroke="black" stroke-width="0.0533941" stroke-miterlimit="10"/>
<path d="M84.8632 15.6505H83.8983V9.07705H81.7827V8.15674H86.9787V9.07705H84.8632V15.6505Z" fill="black" stroke="black" stroke-width="0.0533941" stroke-miterlimit="10"/>
<path d="M96.8035 14.6859C96.059 15.4437 95.1366 15.8219 94.0363 15.8219C92.9297 15.8219 92.0073 15.4437 91.2628 14.6859C90.5198 13.9297 90.1499 13.0016 90.1499 11.9031C90.1499 10.8047 90.5198 9.87656 91.2628 9.12031C92.0073 8.3625 92.9297 7.98438 94.0363 7.98438C95.1303 7.98438 96.0527 8.3625 96.7972 9.12656C97.5465 9.88906 97.9164 10.8109 97.9164 11.9031C97.9164 13.0016 97.5465 13.9297 96.8035 14.6859ZM91.9821 14.0578C92.5425 14.6187 93.2241 14.9 94.0363 14.9C94.8422 14.9 95.5301 14.6187 96.0842 14.0578C96.643 13.4969 96.9263 12.7766 96.9263 11.9031C96.9263 11.0297 96.643 10.3094 96.0842 9.74844C95.5301 9.1875 94.8422 8.90625 94.0363 8.90625C93.2241 8.90625 92.5425 9.1875 91.9821 9.74844C91.4233 10.3094 91.14 11.0297 91.14 11.9031C91.14 12.7766 91.4233 13.4969 91.9821 14.0578Z" fill="black" stroke="black" stroke-width="0.0533941" stroke-miterlimit="10"/>
<path d="M99.2812 15.6505V8.15674H100.462L104.133 13.9849H104.175L104.133 12.5442V8.15674H105.104V15.6505H104.09L100.246 9.53486H100.204L100.246 10.9817V15.6505H99.2812Z" fill="black" stroke="black" stroke-width="0.0533941" stroke-miterlimit="10"/>
<path d="M89.9087 26.5947C86.951 26.5947 84.5348 28.8291 84.5348 31.9119C84.5348 34.9697 86.951 37.2275 89.9087 37.2275C92.8727 37.2275 95.2889 34.9697 95.2889 31.9119C95.2889 28.8291 92.8727 26.5947 89.9087 26.5947ZM89.9087 35.1338C88.2858 35.1338 86.8896 33.8041 86.8896 31.9119C86.8896 29.9947 88.2858 28.6885 89.9087 28.6885C91.5316 28.6885 92.9341 29.9947 92.9341 31.9119C92.9341 33.8041 91.5316 35.1338 89.9087 35.1338ZM78.1834 26.5947C75.2194 26.5947 72.8095 28.8291 72.8095 31.9119C72.8095 34.9697 75.2194 37.2275 78.1834 37.2275C81.1458 37.2275 83.5573 34.9697 83.5573 31.9119C83.5573 28.8291 81.1458 26.5947 78.1834 26.5947ZM78.1834 35.1338C76.559 35.1338 75.158 33.8041 75.158 31.9119C75.158 29.9947 76.559 28.6885 78.1834 28.6885C79.8063 28.6885 81.2025 29.9947 81.2025 31.9119C81.2025 33.8041 79.8063 35.1338 78.1834 35.1338ZM64.2308 28.2244V30.4838H69.6661C69.5071 31.7463 69.0821 32.6744 68.4304 33.3213C67.6371 34.1025 66.4015 34.9697 64.2308 34.9697C60.8859 34.9697 58.2667 32.29 58.2667 28.9697C58.2667 25.6494 60.8859 22.9697 64.2308 22.9697C66.0394 22.9697 67.3554 23.6713 68.3266 24.5807L69.9305 22.9885C68.5721 21.701 66.7651 20.7119 64.2308 20.7119C59.644 20.7119 55.7891 24.4166 55.7891 28.9697C55.7891 33.5229 59.644 37.2275 64.2308 37.2275C66.71 37.2275 68.5721 36.4213 70.036 34.9088C71.5361 33.4197 72.0036 31.326 72.0036 29.6354C72.0036 29.1104 71.9595 28.6275 71.8808 28.2244H64.2308ZM121.285 29.976C120.842 28.7869 119.478 26.5947 116.698 26.5947C113.943 26.5947 111.65 28.7494 111.65 31.9119C111.65 34.89 113.92 37.2275 116.962 37.2275C119.423 37.2275 120.842 35.7385 121.426 34.8713L119.6 33.6635C118.991 34.5479 118.162 35.1338 116.962 35.1338C115.771 35.1338 114.916 34.5916 114.368 33.5229L121.532 30.5807L121.285 29.976ZM113.981 31.7463C113.92 29.6963 115.585 28.6463 116.778 28.6463C117.713 28.6463 118.506 29.1104 118.771 29.7744L113.981 31.7463ZM108.158 36.9041H110.513V21.2791H108.158V36.9041ZM104.302 27.7791H104.223C103.694 27.1572 102.685 26.5947 101.407 26.5947C98.7251 26.5947 96.2727 28.9322 96.2727 31.9291C96.2727 34.9088 98.7251 37.2275 101.407 37.2275C102.685 37.2275 103.694 36.6604 104.223 36.0197H104.302V36.7822C104.302 38.815 103.208 39.9072 101.443 39.9072C100.005 39.9072 99.1123 38.876 98.744 38.0088L96.6961 38.8572C97.2864 40.2666 98.8494 42.001 101.443 42.001C104.204 42.001 106.534 40.3885 106.534 36.465V26.9182H104.302V27.7791ZM101.609 35.1338C99.9859 35.1338 98.6275 33.7854 98.6275 31.9291C98.6275 30.0557 99.9859 28.6885 101.609 28.6885C103.208 28.6885 104.469 30.0557 104.469 31.9291C104.469 33.7854 103.208 35.1338 101.609 35.1338ZM132.31 21.2791H126.677V36.9041H129.026V30.9838H132.31C134.918 30.9838 137.476 29.1104 137.476 26.1307C137.476 23.1526 134.911 21.2791 132.31 21.2791ZM132.371 28.8104H129.026V23.4526H132.371C134.124 23.4526 135.126 24.8979 135.126 26.1307C135.126 27.34 134.124 28.8104 132.371 28.8104ZM146.889 26.5651C145.192 26.5651 143.427 27.3088 142.702 28.9572L144.786 29.8244C145.234 28.9572 146.059 28.676 146.931 28.676C148.149 28.676 149.385 29.4026 149.404 30.6854V30.8494C148.979 30.6057 148.069 30.2447 146.95 30.2447C144.705 30.2447 142.418 31.4713 142.418 33.7604C142.418 35.8541 144.257 37.2025 146.323 37.2025C147.904 37.2025 148.776 36.4947 149.324 35.6713H149.404V36.8791H151.672V30.8854C151.672 28.1151 149.588 26.5651 146.889 26.5651ZM146.605 35.1275C145.837 35.1275 144.767 34.7494 144.767 33.8041C144.767 32.5947 146.102 32.1307 147.257 32.1307C148.291 32.1307 148.776 32.3572 149.404 32.6557C149.22 34.1025 147.965 35.1275 146.605 35.1275ZM159.936 26.9072L157.237 33.6807H157.156L154.365 26.9072H151.833L156.026 36.3729L153.633 41.64H156.087L162.549 26.9072H159.936ZM138.766 36.9041H141.121V21.2791H138.766V36.9041Z" fill="black"/>
<path d="M17.9956 8.49452C17.6257 8.8789 17.4116 9.47734 17.4116 10.2523V37.8961C17.4116 38.6711 17.6257 39.2695 17.9956 39.6539L18.0869 39.7383L33.6923 24.2539V23.8883L18.0869 8.4039L17.9956 8.49452Z" fill="url(#paint0_linear_594_475)"/>
<path d="M38.1467 29.7505L32.9507 24.5864V24.2208L38.153 19.0567L38.2695 19.1239L44.4304 22.6036C46.1886 23.5911 46.1886 25.2161 44.4304 26.2099L38.2695 29.6833L38.1467 29.7505Z" fill="url(#paint1_linear_594_475)"/>
<path d="M38.2655 29.6834L32.9467 24.4037L17.25 39.9865C17.834 40.5959 18.7863 40.6693 19.8693 40.06L38.2655 29.6834Z" fill="url(#paint2_linear_594_475)"/>
<path d="M38.2655 19.1251L19.8693 8.74854C18.7863 8.14541 17.834 8.21885 17.25 8.82822L32.9467 24.4048L38.2655 19.1251Z" fill="url(#paint3_linear_594_475)"/>
<defs>
<linearGradient id="paint0_linear_594_475" x1="32.3067" y1="38.184" x2="11.3293" y2="17.0512" gradientUnits="userSpaceOnUse">
<stop stop-color="#00A0FF"/>
<stop offset="0.0066" stop-color="#00A1FF"/>
<stop offset="0.2601" stop-color="#00BEFF"/>
<stop offset="0.5122" stop-color="#00D2FF"/>
<stop offset="0.7604" stop-color="#00DFFF"/>
<stop offset="1" stop-color="#00E3FF"/>
</linearGradient>
<linearGradient id="paint1_linear_594_475" x1="46.7199" y1="24.4019" x2="16.2498" y2="24.4019" gradientUnits="userSpaceOnUse">
<stop stop-color="#FFE000"/>
<stop offset="0.4087" stop-color="#FFBD00"/>
<stop offset="0.7754" stop-color="#FFA500"/>
<stop offset="1" stop-color="#FF9C00"/>
</linearGradient>
<linearGradient id="paint2_linear_594_475" x1="35.3733" y1="21.5336" x2="6.92616" y2="-7.12423" gradientUnits="userSpaceOnUse">
<stop stop-color="#FF3A44"/>
<stop offset="1" stop-color="#C31162"/>
</linearGradient>
<linearGradient id="paint3_linear_594_475" x1="13.2988" y1="49.1845" x2="26.0017" y2="36.3877" gradientUnits="userSpaceOnUse">
<stop stop-color="#32A071"/>
<stop offset="0.0685" stop-color="#2DA771"/>
<stop offset="0.4762" stop-color="#15CF74"/>
<stop offset="0.8009" stop-color="#06E775"/>
<stop offset="1" stop-color="#00F076"/>
</linearGradient>
</defs>
</svg>
