<svg width="60" height="60" viewBox="0 0 60 60" fill="none" xmlns="http://www.w3.org/2000/svg">
<path d="M30 59.9999C46.5686 59.9999 60 46.5685 60 29.9999C60 13.4314 46.5686 0 30 0C13.4315 0 0 13.4314 0 29.9999C0 46.5685 13.4315 59.9999 30 59.9999Z" fill="#1F1F1F"/>
<path d="M28.5355 14.0752C25.9899 14.3539 23.7086 15.3055 21.6568 16.9437C20.384 17.9632 19.0973 19.5334 18.367 20.9676C16.7325 24.1623 16.5586 27.9143 17.8731 31.8975C18.3044 33.2161 18.513 33.7055 19.1599 34.9698C20.7387 38.0353 22.3523 40.3124 25.1275 43.3643C26.1847 44.5266 28.1878 46.4706 29.2867 47.4018L29.9961 48L30.7056 47.4018C32.8686 45.5666 35.6229 42.6846 37.3756 40.4075C39.4066 37.777 41.1315 34.7727 41.9383 32.4548C43.0928 29.1242 43.3015 26.2762 42.5851 23.4961C42.1191 21.7153 41.3749 20.2675 40.1438 18.7585C39.2396 17.6506 38.4606 16.9573 37.1183 16.0668C34.7535 14.4967 31.5263 13.749 28.5355 14.0752ZM31.0742 20.8316C32.9938 21.1579 34.8022 22.5445 35.5951 24.2982C35.9568 25.1003 36.075 25.712 36.075 26.7112C36.075 27.7104 35.9568 28.3221 35.5951 29.1242C35.1639 30.069 34.2458 31.1158 33.2999 31.7275C32.4513 32.2849 31.0394 32.6927 29.9961 32.6927C29.4119 32.6927 28.4868 32.516 27.8191 32.2849C26.4281 31.7887 25.0162 30.4904 24.3972 29.1242C24.0355 28.3221 23.9172 27.7104 23.9172 26.7112C23.9172 25.712 24.0355 25.1003 24.3972 24.2982C25.1414 22.6601 26.8176 21.3007 28.5703 20.9064C29.4953 20.7025 30.1839 20.6821 31.0742 20.8316Z" fill="url(#paint0_linear_1273_770)"/>
<defs>
<linearGradient id="paint0_linear_1273_770" x1="43" y1="31" x2="17" y2="31" gradientUnits="userSpaceOnUse">
<stop stop-color="#AD8153"/>
<stop offset="0.25" stop-color="#E2B36C"/>
<stop offset="0.5" stop-color="#FDECD6"/>
<stop offset="0.75" stop-color="#DCAC64"/>
<stop offset="1" stop-color="#AF8352"/>
</linearGradient>
</defs>
</svg>
