<svg width="33" height="35" viewBox="0 0 33 35" fill="none" xmlns="http://www.w3.org/2000/svg">
<path d="M32.2256 7.68157C32.1772 7.63367 32.1251 7.58946 32.0655 7.55263L29.2696 5.75105C29.2584 5.74367 29.2435 5.73263 29.2324 5.72526L25.7775 3.50369C25.61 3.39683 25.4238 3.34525 25.2414 3.34525C24.9212 3.34525 24.6085 3.5 24.4187 3.78367C24.1208 4.23315 24.2511 4.83737 24.7053 5.12841V5.1321L27.7134 7.07V9.20684C27.7134 11.0968 29.1393 12.6847 31.0343 12.9095V28.2542C31.0343 29.0574 30.3753 29.7095 29.56 29.7095H29.2212C28.4059 29.7095 27.7469 29.0574 27.7469 28.2542V17.2826C27.7432 15.1974 26.0381 13.51 23.9309 13.5063H21.6153V4.22947C21.6153 1.89369 19.7017 0 17.3414 0H4.2739C1.91363 0 0 1.89369 0 4.22947V34.3553C0 34.7126 0.290399 35 0.651511 35H20.96C21.3212 35 21.6153 34.7126 21.6153 34.3553V15.4516H23.9309C24.951 15.4516 25.7812 16.2695 25.7812 17.2826V28.2542C25.7849 30.1295 27.3225 31.6547 29.2212 31.6547H29.56C31.4587 31.6547 32.9963 30.1295 33 28.2542V9.53105C33 8.83842 32.7208 8.17158 32.2256 7.68157ZM17.8402 7.85474C17.8402 9.00421 16.9021 9.93262 15.7405 9.93262H5.87105C4.71327 9.93262 3.77509 9.00421 3.77136 7.85474V6.0642C3.77509 4.91841 4.71327 3.98998 5.87105 3.98632H15.7405C16.9021 3.98998 17.8402 4.91841 17.8402 6.0642V7.85474Z" fill="url(#paint0_linear_360_1660)"/>
<defs>
<linearGradient id="paint0_linear_360_1660" x1="33" y1="18" x2="-6.80244e-08" y2="18" gradientUnits="userSpaceOnUse">
<stop stop-color="#AD8153"/>
<stop offset="0.25" stop-color="#E2B36C"/>
<stop offset="0.5" stop-color="#FDECD6"/>
<stop offset="0.75" stop-color="#DCAC64"/>
<stop offset="1" stop-color="#AF8352"/>
</linearGradient>
</defs>
</svg>
