<svg width="29" height="35" viewBox="0 0 29 35" fill="none" xmlns="http://www.w3.org/2000/svg">
<path d="M28.6929 8.50433L20.3062 0.300407C20.271 0.265961 20.233 0.235252 20.194 0.20668V8.61382H28.7885C28.7592 8.57563 28.7279 8.53851 28.6929 8.50433Z" fill="url(#paint0_linear_360_1630)"/>
<path d="M19.1458 10.6646C18.5669 10.6646 18.0974 10.2056 18.0974 9.63921V0H1.04817C0.469221 0 0 0.459023 0 1.02539V16.3352H23.654C24.233 16.3352 24.7022 16.7945 24.7022 17.3606V29.872C24.7022 30.4383 24.233 30.8974 23.654 30.8974H0V33.9746C0 34.541 0.469221 35 1.04817 35H27.9518C28.5308 35 29 34.541 29 33.9746V10.6646H19.1458Z" fill="url(#paint1_linear_360_1630)"/>
<path d="M22.6059 18.386H0V28.8466H22.6059V18.386ZM8.23962 22.3901C8.23962 23.9981 7.18299 24.6104 5.83292 24.6104H4.86445V26.6778C4.86445 26.9841 4.48285 27.1371 4.10125 27.1371C3.71965 27.1371 3.33832 26.9841 3.33832 26.6778V20.5909C3.33832 20.3516 3.56324 20.1412 3.90554 20.1412H5.93064C7.22202 20.1412 8.23962 20.7345 8.23962 22.3423V22.3901ZM13.9527 24.8785C13.9527 26.5245 12.8961 27.1371 11.546 27.1371H9.81461C9.41336 27.1371 9.14913 26.9267 9.14913 26.6874V20.5909C9.14913 20.3516 9.41336 20.1409 9.81461 20.1409H11.546C12.8961 20.1409 13.9527 20.7537 13.9527 22.3997V24.8785ZM19.2258 21.4427H16.6919V23.0601H18.1694C18.4629 23.0601 18.6291 23.3375 18.6291 23.6438C18.6291 23.9023 18.4921 24.2086 18.1694 24.2086H16.6919V26.6775C16.6919 26.9838 16.3106 27.1371 15.929 27.1371C15.5474 27.1371 15.166 26.9841 15.166 26.6775V20.6005C15.166 20.2942 15.4985 20.1409 15.8312 20.1409H19.2258C19.5487 20.1409 19.6857 20.476 19.6857 20.7823C19.6857 21.1364 19.5192 21.4427 19.2258 21.4427Z" fill="url(#paint2_linear_360_1630)"/>
<path d="M11.546 21.4427H10.6755V25.8356H11.546C12.0941 25.8356 12.4266 25.5293 12.4266 24.8785V22.3997C12.4266 21.749 12.0941 21.4427 11.546 21.4427Z" fill="url(#paint3_linear_360_1630)"/>
<path d="M5.83292 21.4427H4.86445V23.462H5.83292C6.38075 23.462 6.71349 23.1557 6.71349 22.5049V22.3997C6.71349 21.749 6.38075 21.4427 5.83292 21.4427Z" fill="url(#paint4_linear_360_1630)"/>
<defs>
<linearGradient id="paint0_linear_360_1630" x1="29" y1="18" x2="-4.06121e-07" y2="18" gradientUnits="userSpaceOnUse">
<stop stop-color="#AD8153"/>
<stop offset="0.25" stop-color="#E2B36C"/>
<stop offset="0.5" stop-color="#FDECD6"/>
<stop offset="0.75" stop-color="#DCAC64"/>
<stop offset="1" stop-color="#AF8352"/>
</linearGradient>
<linearGradient id="paint1_linear_360_1630" x1="29" y1="18" x2="-4.06121e-07" y2="18" gradientUnits="userSpaceOnUse">
<stop stop-color="#AD8153"/>
<stop offset="0.25" stop-color="#E2B36C"/>
<stop offset="0.5" stop-color="#FDECD6"/>
<stop offset="0.75" stop-color="#DCAC64"/>
<stop offset="1" stop-color="#AF8352"/>
</linearGradient>
<linearGradient id="paint2_linear_360_1630" x1="29" y1="18" x2="-4.06121e-07" y2="18" gradientUnits="userSpaceOnUse">
<stop stop-color="#AD8153"/>
<stop offset="0.25" stop-color="#E2B36C"/>
<stop offset="0.5" stop-color="#FDECD6"/>
<stop offset="0.75" stop-color="#DCAC64"/>
<stop offset="1" stop-color="#AF8352"/>
</linearGradient>
<linearGradient id="paint3_linear_360_1630" x1="29" y1="18" x2="-4.06121e-07" y2="18" gradientUnits="userSpaceOnUse">
<stop stop-color="#AD8153"/>
<stop offset="0.25" stop-color="#E2B36C"/>
<stop offset="0.5" stop-color="#FDECD6"/>
<stop offset="0.75" stop-color="#DCAC64"/>
<stop offset="1" stop-color="#AF8352"/>
</linearGradient>
<linearGradient id="paint4_linear_360_1630" x1="29" y1="18" x2="-4.06121e-07" y2="18" gradientUnits="userSpaceOnUse">
<stop stop-color="#AD8153"/>
<stop offset="0.25" stop-color="#E2B36C"/>
<stop offset="0.5" stop-color="#FDECD6"/>
<stop offset="0.75" stop-color="#DCAC64"/>
<stop offset="1" stop-color="#AF8352"/>
</linearGradient>
</defs>
</svg>
