<svg width="96" height="41" viewBox="0 0 96 41" fill="none" xmlns="http://www.w3.org/2000/svg">
<path d="M4.48092 5.0799L6.77843 0.298827H8.31518V6.03612H7.35662V1.25504L5.01345 6.03612H3.94077L1.59761 1.26269V6.03612H0.639044V0.298827H2.17579L4.48092 5.0799Z" fill="#545454"/>
<path d="M14.4616 1.70638L14.2334 3.87125L14.4616 6.03612H13.4422L13.3318 4.96133C13.1087 5.33362 12.8259 5.62431 12.4836 5.8334C12.1412 6.03994 11.7634 6.14321 11.35 6.14321C10.9342 6.14321 10.5627 6.04887 10.2355 5.86017C9.90839 5.66893 9.65354 5.40119 9.47095 5.05695C9.28837 4.71271 9.19708 4.31748 9.19708 3.87125C9.19708 3.42501 9.28837 3.02978 9.47095 2.68554C9.65354 2.3413 9.90839 2.07484 10.2355 1.88614C10.5627 1.6949 10.9342 1.59928 11.35 1.59928C11.7659 1.59928 12.1438 1.70255 12.4836 1.90909C12.8259 2.11564 13.1087 2.40505 13.3318 2.77734L13.4422 1.70638H14.4616ZM11.5859 5.34764C11.8522 5.34764 12.1019 5.28644 12.3352 5.16405C12.5711 5.0391 12.779 4.86571 12.9591 4.64387C13.1417 4.42202 13.2875 4.16448 13.3965 3.87125C13.2875 3.58056 13.1417 3.32429 12.9591 3.10245C12.779 2.88061 12.5711 2.70721 12.3352 2.58227C12.1019 2.45732 11.8522 2.39485 11.5859 2.39485C11.3196 2.39485 11.0812 2.4586 10.8708 2.58609C10.6603 2.71104 10.4955 2.88571 10.3763 3.1101C10.2596 3.33194 10.2013 3.58566 10.2013 3.87125C10.2013 4.15683 10.2596 4.41183 10.3763 4.63622C10.4955 4.86061 10.6603 5.03528 10.8708 5.16022C11.0812 5.28517 11.3196 5.34764 11.5859 5.34764Z" fill="#545454"/>
<path d="M20.6246 0.145833L20.2366 3.81005L20.4573 6.03612H19.4454L19.3351 4.93456C19.112 5.31704 18.8279 5.61411 18.4831 5.82575C18.1382 6.03739 17.7565 6.14321 17.3381 6.14321C16.9222 6.14321 16.5507 6.04887 16.2236 5.86017C15.8965 5.66893 15.6416 5.40119 15.459 5.05695C15.2764 4.71271 15.1851 4.31748 15.1851 3.87125C15.1851 3.42501 15.2764 3.02978 15.459 2.68554C15.6416 2.3413 15.8965 2.07484 16.2236 1.88614C16.5507 1.6949 16.9222 1.59928 17.3381 1.59928C17.7591 1.59928 18.1407 1.7051 18.4831 1.91674C18.8279 2.12583 19.112 2.42162 19.3351 2.80411L19.6052 0.145833H20.6246ZM17.574 5.34764C17.8402 5.34764 18.09 5.28644 18.3233 5.16405C18.5591 5.0391 18.7671 4.86571 18.9471 4.64387C19.1297 4.42202 19.2755 4.16448 19.3846 3.87125C19.2755 3.58056 19.1297 3.32429 18.9471 3.10245C18.7671 2.88061 18.5591 2.70721 18.3233 2.58227C18.09 2.45732 17.8402 2.39485 17.574 2.39485C17.3077 2.39485 17.0693 2.4586 16.8588 2.58609C16.6484 2.71104 16.4835 2.88571 16.3643 3.1101C16.2477 3.33194 16.1894 3.58566 16.1894 3.87125C16.1894 4.15683 16.2477 4.41183 16.3643 4.63622C16.4835 4.86061 16.6484 5.03528 16.8588 5.16022C17.0693 5.28517 17.3077 5.34764 17.574 5.34764Z" fill="#545454"/>
<path d="M22.2153 4.22313C22.3015 4.58267 22.4955 4.86316 22.7973 5.0646C23.1016 5.26349 23.4858 5.36294 23.9498 5.36294C24.282 5.36294 24.6193 5.31067 24.9617 5.20612C25.3065 5.09902 25.6108 4.9524 25.8746 4.76626V5.48534C25.6083 5.68933 25.2862 5.84997 24.9084 5.96727C24.5331 6.08456 24.1502 6.14321 23.7596 6.14321C23.2601 6.14321 22.8125 6.04759 22.4169 5.85635C22.0238 5.6651 21.717 5.39736 21.4964 5.05313C21.2757 4.70634 21.1654 4.30983 21.1654 3.8636C21.1654 3.41991 21.2707 3.02723 21.4811 2.68554C21.6916 2.3413 21.9845 2.07484 22.3598 1.88614C22.7351 1.6949 23.1612 1.59928 23.6379 1.59928C24.1121 1.59928 24.5267 1.70765 24.8818 1.92439C25.2393 2.14113 25.5145 2.4484 25.7072 2.84618C25.8999 3.24142 25.9963 3.7004 25.9963 4.22313H22.2153ZM23.6151 2.37955C23.3666 2.37955 23.1434 2.42417 22.9456 2.51342C22.7504 2.60012 22.5881 2.72506 22.4587 2.88826C22.3294 3.05145 22.2432 3.24397 22.2001 3.46581H24.9693C24.8983 3.12157 24.7436 2.85511 24.5052 2.66641C24.2694 2.47517 23.9727 2.37955 23.6151 2.37955Z" fill="#545454"/>
<path d="M28.8234 6.03612V1.67578L29.3179 1.76757L29.8124 1.67578V6.03612H28.8234ZM29.3179 1.13265C29.1277 1.13265 28.9717 1.08037 28.85 0.975827C28.7308 0.871281 28.6712 0.734861 28.6712 0.566567C28.6712 0.398274 28.7308 0.261854 28.85 0.157308C28.9717 0.0527614 29.1277 0.000488281 29.3179 0.000488281C29.5081 0.000488281 29.6628 0.0527614 29.7819 0.157308C29.9037 0.261854 29.9645 0.398274 29.9645 0.566567C29.9645 0.734861 29.9037 0.871281 29.7819 0.975827C29.6628 1.08037 29.5081 1.13265 29.3179 1.13265Z" fill="#545454"/>
<path d="M33.613 1.59928C34.0162 1.59928 34.3598 1.68088 34.6438 1.84407C34.9304 2.00471 35.1485 2.23803 35.2981 2.54402C35.4477 2.85001 35.5225 3.21592 35.5225 3.64175V6.03612H34.5335V3.8024C34.5335 3.35106 34.427 3.00938 34.214 2.77734C34.0035 2.54274 33.6967 2.42545 33.2935 2.42545C33.0145 2.42545 32.7698 2.48792 32.5593 2.61287C32.3489 2.73526 32.1866 2.90993 32.0724 3.13687C31.9583 3.36381 31.9013 3.62645 31.9013 3.92479V6.03612H30.9123V3.12157L30.6536 1.70638H31.6426L31.8138 2.74674C31.9913 2.37955 32.236 2.09651 32.5479 1.89762C32.8624 1.69873 33.2174 1.59928 33.613 1.59928Z" fill="#545454"/>
<path d="M13.9494 23.4493C13.824 24.5262 13.4557 25.4718 12.8444 26.2861C12.2331 27.1003 11.4234 27.7308 10.4124 28.1799C9.40147 28.6291 8.25469 28.855 6.97466 28.855C5.59023 28.855 4.37025 28.5976 3.31493 28.0828C2.25962 27.5679 1.44455 26.8429 0.867275 25.9079C0.28993 24.9728 0 23.8906 0 22.6613C0 21.432 0.28993 20.3498 0.867275 19.4147C1.44455 18.4796 2.25962 17.7546 3.31493 17.2398C4.37025 16.725 5.59023 16.4675 6.97466 16.4675C8.25469 16.4675 9.40147 16.6908 10.4124 17.14C11.4234 17.5891 12.2331 18.2222 12.8444 19.0365C13.4557 19.8508 13.824 20.7964 13.9494 21.8733H9.88994C9.74885 21.2586 9.43016 20.7806 8.93126 20.4417C8.4323 20.1029 7.77923 19.9348 6.97466 19.9348C6.37387 19.9348 5.85665 20.0425 5.42038 20.2605C4.98412 20.4785 4.64975 20.7937 4.41993 21.2034C4.19005 21.6133 4.07507 22.0992 4.07507 22.6613C4.07507 23.2234 4.19005 23.7093 4.41993 24.1191C4.64975 24.5288 4.98412 24.8414 5.42038 25.0595C5.85665 25.2775 6.37387 25.3878 6.97466 25.3878C7.79491 25.3878 8.45056 25.2249 8.94169 24.9018C9.43282 24.5788 9.74885 24.0954 9.88994 23.4493H13.9494ZM22.0526 21.8102C22.4548 21.8102 22.7657 21.7131 22.9826 21.5213C23.1994 21.3295 23.3064 21.059 23.3064 20.707C23.3064 20.3551 23.1994 20.0819 22.9826 19.8902C22.7657 19.6984 22.4548 19.6038 22.0526 19.6038H19.3568V21.8102H22.0526ZM15.313 16.7513H22.6795C23.6094 16.7513 24.4297 16.9141 25.1402 17.2424C25.8507 17.5708 26.402 18.0357 26.7938 18.6346C27.1856 19.2335 27.3816 19.9243 27.3816 20.707C27.3816 21.5423 27.1569 22.2699 26.705 22.8898C26.253 23.5097 25.6235 23.972 24.8189 24.2767L27.8518 28.5713H23.228L20.5636 24.6313H19.3568V28.5713H15.313V16.7513ZM39.5285 24.0639H33.2199L33.0083 25.3563H40.1084V28.5713H28.7295L29.5915 22.6613L28.7295 16.7513H40.03V19.9663H33.0083L33.2199 21.2586H39.5285V24.0639ZM56.2677 28.5713H51.9575L51.1504 26.5855H45.6803L44.8731 28.5713H40.5629L45.7195 16.7513H51.1112L56.2677 28.5713ZM49.8416 23.3547L48.4154 19.8244L46.9891 23.3547H49.8416ZM67.2862 16.7513V20.3761H63.0544V28.5713H59.0106V20.3761H54.7787V16.7513H67.2862ZM74.8721 28.855C73.4563 28.855 72.2077 28.5976 71.1262 28.0828C70.0447 27.5679 69.2088 26.8429 68.6158 25.9079C68.0228 24.9728 67.725 23.8906 67.725 22.6613C67.725 21.432 68.0228 20.3498 68.6158 19.4147C69.2088 18.4796 70.0447 17.7546 71.1262 17.2398C72.2077 16.725 73.4563 16.4675 74.8721 16.4675C76.288 16.4675 77.5366 16.725 78.6181 17.2398C79.6996 17.7546 80.5381 18.4796 81.131 19.4147C81.724 20.3498 82.0192 21.432 82.0192 22.6613C82.0192 23.8906 81.724 24.9728 81.131 25.9079C80.5381 26.8429 79.6996 27.5679 78.6181 28.0828C77.5366 28.5976 76.288 28.855 74.8721 28.855ZM71.8001 22.6613C71.8001 23.1919 71.9229 23.6489 72.1685 24.035C72.414 24.4212 72.7693 24.718 73.2316 24.9229C73.694 25.1277 74.24 25.2302 74.8721 25.2302C75.5043 25.2302 76.0528 25.1277 76.5152 24.9229C76.9776 24.718 77.3302 24.4212 77.5758 24.035C77.8214 23.6489 77.9441 23.1919 77.9441 22.6613C77.9441 22.1307 77.8214 21.671 77.5758 21.2849C77.3302 20.8988 76.9776 20.6046 76.5152 20.3997C76.0528 20.1949 75.5043 20.0924 74.8721 20.0924C74.24 20.0924 73.694 20.1949 73.2316 20.3997C72.7693 20.6046 72.414 20.8988 72.1685 21.2849C71.9229 21.671 71.8001 22.1307 71.8001 22.6613ZM90.2008 21.8102C90.603 21.8102 90.9139 21.7131 91.1308 21.5213C91.3476 21.3295 91.4546 21.059 91.4546 20.707C91.4546 20.3551 91.3476 20.0819 91.1308 19.8902C90.9139 19.6984 90.603 19.6038 90.2008 19.6038H87.505V21.8102H90.2008ZM83.4612 16.7513H90.8277C91.7576 16.7513 92.5779 16.9141 93.2884 17.2424C93.9989 17.5708 94.5502 18.0357 94.942 18.6346C95.3338 19.2335 95.5298 19.9243 95.5298 20.707C95.5298 21.5423 95.3051 22.2699 94.8532 22.8898C94.4013 23.5097 93.7717 23.972 92.9671 24.2767L96 28.5713H91.3762L88.7118 24.6313H87.505V28.5713H83.4612V16.7513Z" fill="#545454"/>
<path d="M15.9419 35.6953H11.7821V36.4436H15.7511V38.5062H11.7821V40.8278H9.32056V33.6326H15.9419V35.6953ZM25.3111 40.8278H22.6873L22.196 39.619H18.8662L18.3749 40.8278H15.7511L18.8901 33.6326H22.1722L25.3111 40.8278ZM21.3993 37.6523L20.5311 35.5034L19.6629 37.6523H21.3993ZM33.6308 37.7099C33.5544 38.3655 33.3302 38.9411 32.9581 39.4368C32.586 39.9324 32.0931 40.3162 31.4777 40.5896C30.8623 40.863 30.1642 41.0005 29.385 41.0005C28.5422 41.0005 27.7996 40.8438 27.1572 40.5304C26.5148 40.2171 26.0187 39.7757 25.6673 39.2065C25.3158 38.6373 25.1393 37.9785 25.1393 37.2302C25.1393 36.4819 25.3158 35.8232 25.6673 35.2539C26.0187 34.6847 26.5148 34.2434 27.1572 33.93C27.7996 33.6166 28.5422 33.4599 29.385 33.4599C30.1642 33.4599 30.8623 33.5958 31.4777 33.8693C32.0931 34.1427 32.586 34.528 32.9581 35.0237C33.3302 35.5193 33.5544 36.095 33.6308 36.7506H31.1597C31.0738 36.3764 30.8798 36.0854 30.576 35.8791C30.2723 35.6728 29.8748 35.5705 29.385 35.5705C29.0193 35.5705 28.7044 35.636 28.4389 35.7688C28.1733 35.9015 27.9698 36.0934 27.8298 36.3428C27.6899 36.5922 27.6199 36.8881 27.6199 37.2302C27.6199 37.5724 27.6899 37.8682 27.8298 38.1176C27.9698 38.3671 28.1733 38.5573 28.4389 38.6901C28.7044 38.8227 29.0193 38.8899 29.385 38.8899C29.8844 38.8899 30.2835 38.7908 30.5825 38.5941C30.8814 38.3974 31.0738 38.1032 31.1597 37.7099H33.6308ZM41.4828 33.6326V35.8392H38.9068V40.8278H36.4453V35.8392H33.8692V33.6326H41.4828ZM46.1007 41.0005C45.2388 41.0005 44.4787 40.8438 43.8204 40.5304C43.1621 40.2171 42.6533 39.7757 42.2923 39.2065C41.9313 38.6373 41.75 37.9785 41.75 37.2302C41.75 36.4819 41.9313 35.8232 42.2923 35.2539C42.6533 34.6847 43.1621 34.2434 43.8204 33.93C44.4787 33.6166 45.2388 33.4599 46.1007 33.4599C46.9625 33.4599 47.7226 33.6166 48.381 33.93C49.0393 34.2434 49.5497 34.6847 49.9107 35.2539C50.2716 35.8232 50.4513 36.4819 50.4513 37.2302C50.4513 37.9785 50.2716 38.6373 49.9107 39.2065C49.5497 39.7757 49.0393 40.2171 48.381 40.5304C47.7226 40.8438 46.9625 41.0005 46.1007 41.0005ZM44.2306 37.2302C44.2306 37.5532 44.3054 37.8314 44.4548 38.0664C44.6043 38.3015 44.8206 38.4822 45.1021 38.6069C45.3835 38.7316 45.7159 38.794 46.1007 38.794C46.4855 38.794 46.8194 38.7316 47.1009 38.6069C47.3823 38.4822 47.597 38.3015 47.7465 38.0664C47.896 37.8314 47.9707 37.5532 47.9707 37.2302C47.9707 36.9072 47.896 36.6274 47.7465 36.3924C47.597 36.1573 47.3823 35.9783 47.1009 35.8535C46.8194 35.7288 46.4855 35.6665 46.1007 35.6665C45.7159 35.6665 45.3835 35.7288 45.1021 35.8535C44.8206 35.9783 44.6043 36.1573 44.4548 36.3924C44.3054 36.6274 44.2306 36.9072 44.2306 37.2302ZM55.4317 36.7122C55.6766 36.7122 55.8658 36.653 55.9978 36.5362C56.1298 36.4195 56.195 36.2548 56.195 36.0406C56.195 35.8264 56.1298 35.6601 55.9978 35.5434C55.8658 35.4266 55.6766 35.369 55.4317 35.369H53.7907V36.7122H55.4317ZM51.3291 33.6326H55.8133C56.3795 33.6326 56.8787 33.7318 57.3112 33.9316C57.7438 34.1315 58.0793 34.4145 58.3178 34.779C58.5563 35.1436 58.6756 35.5641 58.6756 36.0406C58.6756 36.549 58.5389 36.992 58.2637 37.3693C57.9887 37.7467 57.6054 38.0281 57.1157 38.2136L58.9618 40.8278H56.1473L54.5253 38.4294H53.7907V40.8278H51.3291V33.6326ZM61.7859 37.9593L58.4466 33.6326H61.1466L63.0119 36.0502L64.8676 33.6326H67.5677L64.2474 37.921V40.8278H61.7859V37.9593Z" fill="#545454"/>
<path fill-rule="evenodd" clip-rule="evenodd" d="M96 36.3056H71.4166V38.1707H96L95.8563 37.2382L96 36.3056Z" fill="#545454"/>
<path d="M3.47496 37.2239L0.747514 38.725V40.8278L5.47176 38.1549V36.3055L0.747514 33.6326V35.7355L3.47496 37.2239Z" fill="#545454"/>
</svg>
