<svg width="206" height="41" viewBox="0 0 206 41" fill="none" xmlns="http://www.w3.org/2000/svg">
<path d="M113.548 27.6767V12.2225H119.723C122.832 12.2225 124.386 13.6022 124.386 16.3616C124.386 19.366 122.26 21.1996 118.009 21.8624L117.604 20.1765C120.727 19.7082 122.289 18.4654 122.289 16.4481C122.289 14.7333 121.373 13.876 119.542 13.876H115.518V27.6767H113.548Z" fill="url(#paint0_linear_157_304)"/>
<path d="M127.505 27.6767H125.461L131.924 12.2225H134.106L140.6 27.6767H138.418L136.448 22.8135H131.413L131.956 21.1924H135.788L132.946 14.1894L127.505 27.6767Z" fill="url(#paint1_linear_157_304)"/>
<path d="M142.676 27.6767V12.2225H149.171C152.066 12.2225 153.514 13.4581 153.514 15.9293C153.514 17.9394 152.098 19.4272 149.266 20.3927L154.494 27.6767H151.896L147.052 20.7277V19.42C149.962 18.9517 151.417 17.817 151.417 16.0158C151.417 14.5892 150.608 13.876 148.99 13.876H144.646V27.6767H142.676Z" fill="url(#paint2_linear_157_304)"/>
<path d="M158.55 12.2225V27.6767H156.58V12.2225H158.55ZM169.26 12.2225L162.404 19.5173L169.409 27.6767H166.673L160.466 20.2414V19.031L166.769 12.2225H169.26Z" fill="url(#paint3_linear_157_304)"/>
<path d="M173.774 12.2225V27.6767H171.804V12.2225H173.774Z" fill="url(#paint4_linear_157_304)"/>
<path d="M177.724 27.6767V12.2225H179.693L189.009 24.6723V12.2225H190.872V27.6767H188.902L179.587 15.1188V27.6767H177.724Z" fill="url(#paint5_linear_157_304)"/>
<path d="M206 27.0715C204.772 27.547 203.448 27.7847 202.029 27.7847C196.514 27.7847 193.757 25.101 193.757 19.7334C193.757 14.6541 196.418 12.1144 201.742 12.1144C203.267 12.1144 204.687 12.3305 206 12.7628V14.492C204.687 13.9876 203.338 13.7355 201.954 13.7355C197.802 13.7355 195.726 15.7348 195.726 19.7334C195.726 24.0203 197.77 26.1637 201.859 26.1637C202.512 26.1637 203.236 26.0772 204.03 25.9043V20.652H206V27.0715Z" fill="url(#paint6_linear_157_304)"/>
<path d="M44.0049 27.6067V11.9364H50.8819C54.0195 11.9364 55.5883 13.4085 55.5883 16.3526C55.5883 19.5451 53.4428 21.4774 49.1519 22.1495L48.7436 19.5634C51.3224 19.0885 52.6119 18.0475 52.6119 16.4403C52.6119 15.1399 51.9743 14.4897 50.6992 14.4897H46.8524V27.6067H44.0049Z" fill="url(#paint7_linear_157_304)"/>
<path d="M57.4795 27.5848V11.9364H64.4639C67.6015 11.9364 69.1703 13.3354 69.1703 16.1334C69.1703 18.0256 67.949 19.5926 65.5062 20.8345L70.3738 27.6067H66.7849L62.1107 20.7797V19.4538C64.8328 18.9789 66.1939 17.9014 66.1939 16.2211C66.1939 15.0668 65.5563 14.4897 64.2812 14.4897H60.3807V27.5848H57.4795Z" fill="url(#paint8_linear_157_304)"/>
<path d="M74.5752 11.9364V27.6067H71.7277V11.9364H74.5752Z" fill="url(#paint9_linear_157_304)"/>
<path d="M77.8096 27.6067V11.9364H80.7645L85.976 23.8261L91.08 11.9364H93.9275V27.6067H91.2949V16.6923L87.1257 27.6067H84.6973L80.4422 16.6923V27.6067H77.8096Z" fill="url(#paint10_linear_157_304)"/>
<path d="M107.671 11.9364V14.4349H99.9771V18.3799H107.305V20.977H99.9449V25.0863H107.821V27.6067H97.1511V11.9364H107.671Z" fill="url(#paint11_linear_157_304)"/>
<path fill-rule="evenodd" clip-rule="evenodd" d="M16.4179 29.6402V29.6363H16.4141C16.345 29.5748 16.1724 29.0632 15.9538 28.2938L15.9077 28.1322C15.8425 27.8975 15.7735 27.6398 15.7006 27.3705V27.3667C15.6008 26.9897 15.4973 26.5858 15.3937 26.1626L15.2135 25.424C15.2135 25.424 15.1943 25.3278 15.1674 25.1509C15.1367 24.9739 15.0984 24.7123 15.0332 24.3854C14.9718 24.0583 14.9066 23.6621 14.8107 23.2159C14.7186 22.7658 14.6189 22.2542 14.4961 21.7079C14.3734 21.1616 14.243 20.5693 14.1049 19.9422C14.0895 19.8883 14.0742 19.8307 14.0627 19.7768V19.773L14.0397 19.6806C14.0167 19.5845 13.9936 19.4844 13.9706 19.3883V19.3805H13.9668L13.9476 19.2882C13.8479 18.8651 13.752 18.4304 13.6446 17.988C13.6139 17.8687 13.5832 17.7495 13.5525 17.6302V17.6187L13.5295 17.5379V17.5264L13.5065 17.4417V17.434L13.4835 17.3455V17.3417L13.4604 17.2494C13.3569 16.8109 13.2533 16.3607 13.1459 15.9107C13.0615 15.5568 12.9694 15.2029 12.8774 14.8451C12.8429 14.6912 12.8045 14.5335 12.77 14.3796V14.3758C12.747 14.2758 12.724 14.1757 12.7009 14.0757L12.6319 13.7718C12.5437 13.4141 12.4593 13.0524 12.371 12.6985L12.2214 12.133C12.1869 11.983 12.1025 11.706 12.022 11.4983C11.6959 10.6558 11.1742 9.95186 10.6219 9.39791C10.0618 8.84397 9.47113 8.42083 8.9111 8.05921C8.35488 7.70144 7.81784 7.4091 7.32302 7.14365C6.42157 6.66662 5.66208 6.27812 5.10205 5.97419V5.97036C5.04449 5.94343 4.99082 5.91267 4.94095 5.88186C4.40392 5.58182 4.08553 5.40103 4.0472 5.37794C4.05869 5.39715 4.10856 5.46639 4.2006 5.5972C4.31187 5.73567 4.46912 5.9511 4.69162 6.20117C4.91408 6.44735 5.18644 6.75895 5.51632 7.07825C5.85005 7.40139 6.23364 7.75529 6.65176 8.12462C7.06604 8.49007 7.51099 8.88628 7.98663 9.30558L8.03649 9.35177C8.30117 9.60179 8.56969 9.85953 8.81902 10.1288V10.1404H8.83051L8.84205 10.1519V10.1635H8.85355L8.86504 10.1788V10.1865H8.87658L8.88807 10.2019V10.2096H8.89572L8.91491 10.2289V10.2327H8.91875L8.93794 10.2519V10.2558C8.96093 10.2788 8.98396 10.3058 9.00699 10.3327V10.3481H9.01849L9.02998 10.3596V10.3712H9.04152L9.05301 10.3827V10.3943H9.0607L9.07604 10.4096V10.4174H9.07985L9.09903 10.4366V10.4404C9.12971 10.475 9.1604 10.5135 9.19112 10.5481V10.5558H9.19492L9.21411 10.5789C9.23329 10.602 9.24863 10.6251 9.26782 10.6482C9.30619 10.6943 9.34072 10.7405 9.37524 10.7866C9.41358 10.8405 9.45195 10.8944 9.49032 10.9482V10.952C9.521 10.9944 9.55168 11.0405 9.58236 11.0867V11.0906H9.58621C9.60155 11.1098 9.61304 11.1329 9.62838 11.1559V11.1598C9.65141 11.1944 9.67444 11.2329 9.69743 11.2713V11.2752H9.70128C9.76649 11.3829 9.82785 11.4945 9.88156 11.6099V11.6214H9.88925L9.90459 11.656V11.6676H9.91224L9.92758 11.706V11.7137H9.93143L9.95061 11.7561V11.7599H9.95446C9.9698 11.7945 9.98514 11.833 9.99663 11.8676V11.8753H10.0005C10.0158 11.9138 10.0312 11.9484 10.0427 11.9869V11.9907H10.0465L10.0657 12.0523V12.0599H10.0695C10.0772 12.0792 10.0849 12.1023 10.0925 12.1215V12.133C10.1002 12.1561 10.1079 12.1792 10.1156 12.2023C10.1577 12.3408 10.1808 12.4177 10.2268 12.6254L10.3342 13.1486C10.4033 13.5218 10.4953 13.8911 10.5758 14.2642C10.6833 14.7681 10.806 15.2682 10.9441 15.7607C10.5989 15.4837 10.246 15.2452 9.8969 15.0721L6.34487 13.264L6.3027 13.2409C6.23364 13.2063 6.16459 13.1679 6.09554 13.1294V13.1255H6.09169C5.9958 13.0678 5.89607 13.0063 5.79634 12.9409H5.79249L5.72729 12.8947H5.72348L5.65823 12.8486C5.60456 12.8101 5.55085 12.7716 5.49714 12.7331H5.49329C5.43193 12.687 5.37057 12.6409 5.30917 12.5947C5.27084 12.5639 5.23246 12.5331 5.19409 12.5023C5.10205 12.4293 5.01001 12.3485 4.91792 12.2715C4.6494 12.0369 4.38473 11.7791 4.13155 11.506C4.06254 11.4291 3.99347 11.356 3.92443 11.2752C3.8362 11.1752 3.75565 11.079 3.67126 10.9751H3.66743C3.49098 10.7559 3.3222 10.5327 3.16493 10.3058V10.3019H3.16109C3.08437 10.1865 3.00765 10.075 2.93094 9.95957V9.9557C2.83504 9.80184 2.74298 9.64798 2.65475 9.49408V9.49025C2.59722 9.3902 2.54351 9.2902 2.49365 9.1902L2.47063 9.14401L2.44762 9.09787C2.39775 8.99783 2.35172 8.89783 2.30952 8.79782C2.24815 8.65931 2.19445 8.52083 2.14842 8.38235V8.37848H2.14458C2.13307 8.33617 2.11773 8.29386 2.10239 8.25155L0.180606 2.19657C0.165263 2.1504 0.149919 2.10809 0.138412 2.06192V2.05808C0.13074 2.03115 0.123068 2.00422 0.115396 1.97729V1.96575H0.11156C0.103889 1.93883 0.100053 1.91574 0.0923812 1.88882V1.87343H0.0885453C0.0808734 1.84265 0.0770375 1.81573 0.0693656 1.78495V1.7811C0.0616938 1.74263 0.0540223 1.70417 0.0463504 1.66954V1.6657C0.0386786 1.61569 0.0310067 1.56952 0.0233349 1.51952V1.45796H0.0156634C-0.0111881 1.21177 -0.00351625 0.996341 0.0386786 0.807843H0.0463504V0.77322C0.0501864 0.753987 0.0578582 0.734753 0.0616937 0.71552H0.0693656V0.688592C0.0885453 0.634735 0.107725 0.580879 0.134576 0.53087H0.138412V0.519327C0.146083 0.507789 0.149919 0.496247 0.157591 0.484704H0.161427V0.477013C0.172935 0.453933 0.188278 0.434695 0.199786 0.415462H0.207457V0.403922C0.234309 0.365453 0.26116 0.330831 0.291847 0.300056H0.299519V0.288516L0.314862 0.276975H0.322534V0.265435L0.337878 0.253894H0.345549V0.2462L0.364727 0.226965H0.368564V0.223119C0.399253 0.200038 0.429938 0.180803 0.460627 0.157722C0.487479 0.142335 0.514327 0.126947 0.541179 0.111559H0.552686V0.107713C0.568031 0.100019 0.579538 0.0961718 0.591046 0.088478H0.59872V0.0846314C0.617898 0.0807843 0.633242 0.0730906 0.65242 0.0653969H0.671601V0.0615498C0.721468 0.0423157 0.771335 0.030775 0.828872 0.0192344H0.878738V0.0115406C0.940112 0.00384687 1.00532 0 1.07053 0C1.18945 0 1.31986 0.0115406 1.45412 0.0423157H1.46946C1.50399 0.0500094 1.53468 0.0577031 1.5692 0.0653969C1.6229 0.0807843 1.6766 0.0961718 1.7303 0.111559H1.73414C1.75716 0.119253 1.78017 0.126947 1.80319 0.134641H1.80702C1.8262 0.142335 1.84922 0.150028 1.87223 0.157722C1.94895 0.18465 2.02183 0.215425 2.10239 0.250047V0.253894H2.10622C2.16376 0.276975 2.2213 0.303903 2.28267 0.330831L3.74031 1.03865L12.0066 5.04709L12.4439 5.25868C12.513 5.28944 12.5859 5.32792 12.6549 5.36639V5.37023H12.6588L12.7009 5.39332C12.7393 5.41641 12.7777 5.43946 12.816 5.46256C13.004 5.57798 13.1919 5.70875 13.3684 5.85493C13.4259 5.90112 13.4796 5.94343 13.5295 5.99345H13.5333C13.7443 6.17807 13.9438 6.37812 14.1317 6.59354V6.59738C14.1777 6.65123 14.2238 6.70509 14.2698 6.75895C14.3005 6.79742 14.3312 6.8359 14.3619 6.87437H14.3657C14.4348 6.96283 14.5038 7.05516 14.569 7.15132H14.5728C14.6688 7.28597 14.7608 7.42832 14.849 7.56679V7.57063C14.872 7.6091 14.8951 7.64374 14.9181 7.68222V7.68605C14.9488 7.73991 14.9795 7.78993 15.0101 7.84379V7.84762C15.1022 8.01303 15.1866 8.17847 15.2633 8.35155V8.35542H15.2672L15.2863 8.40157C15.3093 8.45543 15.3324 8.50928 15.3554 8.56314V8.56697C15.3707 8.60161 15.386 8.64009 15.4014 8.67856V8.6824C15.4436 8.78628 15.482 8.89399 15.5165 8.99783V9.00554H15.5203L15.5395 9.07094V9.07478H15.5433C15.5664 9.15173 15.5894 9.22863 15.6085 9.30558C15.6162 9.33635 15.6239 9.36328 15.6316 9.39408V9.39791H15.6354C15.6392 9.42868 15.6469 9.45948 15.6546 9.48641V9.49025C15.6814 9.60563 15.7044 9.72105 15.7236 9.8326V9.84031C15.7466 9.96341 15.762 10.0865 15.7696 10.2058V10.2327H15.7735C15.7773 10.2827 15.7812 10.3327 15.7812 10.3789L15.9998 15.5568L16.4486 26.0741C16.4524 26.2049 16.4601 26.3319 16.4639 26.4588V26.4665C16.4716 26.7204 16.4793 26.9704 16.487 27.2051V27.2282C16.51 28.1014 16.51 28.8246 16.487 29.2439V29.2555C16.4793 29.367 16.4716 29.4555 16.4639 29.5209V29.5286C16.4563 29.5671 16.4524 29.594 16.4448 29.6132H16.4409V29.6286C16.4371 29.6402 16.4294 29.644 16.4256 29.644C16.4217 29.644 16.4217 29.644 16.4179 29.6402ZM34.9222 3.95844C34.4389 3.95844 33.852 4.1354 33.1807 4.50852L22.0145 10.752C19.6938 12.0446 17.8295 15.299 17.8717 17.9803L18.1402 36.1452C18.1824 38.8226 18.309 41 18.4279 41C18.5468 40.9885 19.0416 38.8226 19.5365 36.1837L20.3957 31.579C20.3957 31.579 20.4187 31.4559 20.4571 31.2289L20.7333 29.7517C20.7678 29.5709 20.81 29.3863 20.8599 29.2016C20.8637 29.1978 20.8637 29.1939 20.8637 29.1901C20.8906 29.0554 20.9251 28.917 20.9519 28.7746C21.0747 28.2015 21.2089 27.5552 21.3815 26.8589C21.5388 26.1587 21.7114 25.4048 21.9224 24.6162C22.1142 23.8199 22.3328 22.9851 22.5745 22.1272C22.8085 21.2655 23.0578 20.3808 23.3225 19.4844C23.3954 19.2652 23.4606 19.042 23.5296 18.815L23.5834 18.6458L23.6524 18.4381L23.7636 18.0995C23.8595 17.8572 23.9785 17.5571 24.0935 17.3225C24.2086 17.0763 24.3275 16.8378 24.4618 16.607C24.9719 15.676 25.5972 14.8605 26.2416 14.1104C26.8861 13.364 27.565 12.6947 28.2286 12.0754C28.8961 11.4637 29.5481 10.8944 30.1696 10.3673C30.7833 9.84415 31.3664 9.34789 31.8957 8.89011C32.4212 8.4285 32.8931 7.99765 33.2881 7.59756C33.6794 7.19368 34.017 6.83206 34.2586 6.50121C34.5003 6.17424 34.6806 5.90112 34.7841 5.70491C34.8915 5.50487 34.9491 5.39715 34.9491 5.39715C34.9491 5.39715 34.9376 5.52025 34.9146 5.74722C34.8762 5.97419 34.8187 6.31271 34.6729 6.72818C34.5271 7.13594 34.32 7.62836 34.0208 8.15922C33.7292 8.68623 33.3533 9.25944 32.916 9.84798C32.0492 11.029 30.9291 12.2908 29.7898 13.6218C29.2183 14.2834 28.6467 14.9682 28.1135 15.6722C27.5803 16.38 27.0817 17.1071 26.6866 17.8572C26.5869 18.0418 26.4986 18.2303 26.4104 18.4188C26.3222 18.615 26.2685 18.7535 26.1917 18.9536L26.0729 19.2882L26.0268 19.419L25.9693 19.5883C25.8964 19.8191 25.8235 20.0422 25.7506 20.2653C25.4476 21.1578 25.1522 22.0426 24.83 22.885C24.7686 23.0389 24.7073 23.1966 24.6459 23.3467C25.0257 23.0274 25.4092 22.7427 25.8005 22.5158L29.1339 20.5693C31.4239 19.2267 33.8443 16.0068 34.5118 13.4102L36.1843 6.87437C36.6599 5.02787 36.1114 3.95844 34.926 3.95844H34.9222Z" fill="url(#paint12_linear_157_304)"/>
<defs>
<linearGradient id="paint0_linear_157_304" x1="206" y1="19.3254" x2="77.2225" y2="84.9669" gradientUnits="userSpaceOnUse">
<stop stop-color="#AD8153"/>
<stop offset="0.25" stop-color="#E2B36C"/>
<stop offset="0.5" stop-color="#FDECD6"/>
<stop offset="0.75" stop-color="#DCAC64"/>
<stop offset="1" stop-color="#AF8352"/>
</linearGradient>
<linearGradient id="paint1_linear_157_304" x1="206" y1="19.3254" x2="77.2225" y2="84.9669" gradientUnits="userSpaceOnUse">
<stop stop-color="#AD8153"/>
<stop offset="0.25" stop-color="#E2B36C"/>
<stop offset="0.5" stop-color="#FDECD6"/>
<stop offset="0.75" stop-color="#DCAC64"/>
<stop offset="1" stop-color="#AF8352"/>
</linearGradient>
<linearGradient id="paint2_linear_157_304" x1="206" y1="19.3254" x2="77.2225" y2="84.9669" gradientUnits="userSpaceOnUse">
<stop stop-color="#AD8153"/>
<stop offset="0.25" stop-color="#E2B36C"/>
<stop offset="0.5" stop-color="#FDECD6"/>
<stop offset="0.75" stop-color="#DCAC64"/>
<stop offset="1" stop-color="#AF8352"/>
</linearGradient>
<linearGradient id="paint3_linear_157_304" x1="206" y1="19.3254" x2="77.2225" y2="84.9669" gradientUnits="userSpaceOnUse">
<stop stop-color="#AD8153"/>
<stop offset="0.25" stop-color="#E2B36C"/>
<stop offset="0.5" stop-color="#FDECD6"/>
<stop offset="0.75" stop-color="#DCAC64"/>
<stop offset="1" stop-color="#AF8352"/>
</linearGradient>
<linearGradient id="paint4_linear_157_304" x1="206" y1="19.3254" x2="77.2225" y2="84.9669" gradientUnits="userSpaceOnUse">
<stop stop-color="#AD8153"/>
<stop offset="0.25" stop-color="#E2B36C"/>
<stop offset="0.5" stop-color="#FDECD6"/>
<stop offset="0.75" stop-color="#DCAC64"/>
<stop offset="1" stop-color="#AF8352"/>
</linearGradient>
<linearGradient id="paint5_linear_157_304" x1="206" y1="19.3254" x2="77.2225" y2="84.9669" gradientUnits="userSpaceOnUse">
<stop stop-color="#AD8153"/>
<stop offset="0.25" stop-color="#E2B36C"/>
<stop offset="0.5" stop-color="#FDECD6"/>
<stop offset="0.75" stop-color="#DCAC64"/>
<stop offset="1" stop-color="#AF8352"/>
</linearGradient>
<linearGradient id="paint6_linear_157_304" x1="206" y1="19.3254" x2="77.2225" y2="84.9669" gradientUnits="userSpaceOnUse">
<stop stop-color="#AD8153"/>
<stop offset="0.25" stop-color="#E2B36C"/>
<stop offset="0.5" stop-color="#FDECD6"/>
<stop offset="0.75" stop-color="#DCAC64"/>
<stop offset="1" stop-color="#AF8352"/>
</linearGradient>
<linearGradient id="paint7_linear_157_304" x1="206" y1="19.3254" x2="77.2225" y2="84.9669" gradientUnits="userSpaceOnUse">
<stop stop-color="#AD8153"/>
<stop offset="0.25" stop-color="#E2B36C"/>
<stop offset="0.5" stop-color="#FDECD6"/>
<stop offset="0.75" stop-color="#DCAC64"/>
<stop offset="1" stop-color="#AF8352"/>
</linearGradient>
<linearGradient id="paint8_linear_157_304" x1="206" y1="19.3254" x2="77.2225" y2="84.9669" gradientUnits="userSpaceOnUse">
<stop stop-color="#AD8153"/>
<stop offset="0.25" stop-color="#E2B36C"/>
<stop offset="0.5" stop-color="#FDECD6"/>
<stop offset="0.75" stop-color="#DCAC64"/>
<stop offset="1" stop-color="#AF8352"/>
</linearGradient>
<linearGradient id="paint9_linear_157_304" x1="206" y1="19.3254" x2="77.2225" y2="84.9669" gradientUnits="userSpaceOnUse">
<stop stop-color="#AD8153"/>
<stop offset="0.25" stop-color="#E2B36C"/>
<stop offset="0.5" stop-color="#FDECD6"/>
<stop offset="0.75" stop-color="#DCAC64"/>
<stop offset="1" stop-color="#AF8352"/>
</linearGradient>
<linearGradient id="paint10_linear_157_304" x1="206" y1="19.3254" x2="77.2225" y2="84.9669" gradientUnits="userSpaceOnUse">
<stop stop-color="#AD8153"/>
<stop offset="0.25" stop-color="#E2B36C"/>
<stop offset="0.5" stop-color="#FDECD6"/>
<stop offset="0.75" stop-color="#DCAC64"/>
<stop offset="1" stop-color="#AF8352"/>
</linearGradient>
<linearGradient id="paint11_linear_157_304" x1="206" y1="19.3254" x2="77.2225" y2="84.9669" gradientUnits="userSpaceOnUse">
<stop stop-color="#AD8153"/>
<stop offset="0.25" stop-color="#E2B36C"/>
<stop offset="0.5" stop-color="#FDECD6"/>
<stop offset="0.75" stop-color="#DCAC64"/>
<stop offset="1" stop-color="#AF8352"/>
</linearGradient>
<linearGradient id="paint12_linear_157_304" x1="36.408" y1="1.31152e-06" x2="0.144121" y2="-0.127617" gradientUnits="userSpaceOnUse">
<stop stop-color="#AD8153"/>
<stop offset="0.25" stop-color="#E2B36C"/>
<stop offset="0.5" stop-color="#FDECD6"/>
<stop offset="0.75" stop-color="#DCAC64"/>
<stop offset="1" stop-color="#AF8352"/>
</linearGradient>
</defs>
</svg>
