<svg width="81" height="91" viewBox="0 0 81 91" fill="none" xmlns="http://www.w3.org/2000/svg">
<path fill-rule="evenodd" clip-rule="evenodd" d="M36.5794 65.7867V65.7782H36.571C36.4171 65.6416 36.0325 64.506 35.5453 62.7984L35.4428 62.4397C35.2975 61.9189 35.1437 61.3469 34.9813 60.7492V60.7407C34.759 59.9039 34.5283 59.0074 34.2976 58.0682L33.8959 56.4289C33.8959 56.4289 33.8532 56.2154 33.7934 55.8226C33.7249 55.4299 33.6395 54.8493 33.4942 54.1236C33.3574 53.3978 33.2121 52.5184 32.9985 51.528C32.7934 50.5289 32.5712 49.3935 32.2977 48.181C32.0242 46.9685 31.7336 45.6537 31.426 44.262C31.3918 44.1424 31.3575 44.0144 31.3319 43.8948V43.8863L31.2807 43.6814C31.2294 43.4679 31.1781 43.2459 31.1269 43.0325V43.0153H31.1183L31.0756 42.8105C30.8533 41.8713 30.6397 40.9065 30.4004 39.9245C30.332 39.6599 30.2636 39.3952 30.1953 39.1305V39.1049L30.144 38.9256V38.9L30.0927 38.7122V38.6951L30.0414 38.4986V38.4901L29.9901 38.2852C29.7594 37.3119 29.5287 36.3129 29.2893 35.3139C29.1013 34.5284 28.8962 33.743 28.6911 32.9489C28.6142 32.6074 28.5287 32.2573 28.4518 31.9157V31.9072C28.4005 31.6852 28.3493 31.4632 28.2979 31.2412L28.1441 30.5667C27.9476 29.7727 27.7596 28.9701 27.563 28.1846L27.2297 26.9295C27.1527 26.5965 26.9647 25.9817 26.7852 25.5207C26.0588 23.6507 24.8965 22.0883 23.6658 20.8588C22.418 19.6293 21.1019 18.6901 19.8541 17.8875C18.6149 17.0934 17.4183 16.4446 16.3158 15.8554C14.3074 14.7966 12.6152 13.9344 11.3675 13.2598V13.2513C11.2392 13.1915 11.1197 13.1232 11.0086 13.0549C9.81202 12.3889 9.10265 11.9877 9.01725 11.9364C9.04286 11.979 9.15396 12.1327 9.35904 12.423C9.60695 12.7304 9.9573 13.2085 10.453 13.7636C10.9487 14.31 11.5555 15.0016 12.2905 15.7103C13.034 16.4275 13.8887 17.213 14.8203 18.0327C15.7433 18.8438 16.7347 19.7232 17.7944 20.6539L17.9055 20.7564C18.4952 21.3113 19.0934 21.8833 19.649 22.481V22.5067H19.6746L19.7003 22.5323V22.5579H19.7259L19.7515 22.592V22.6092H19.7772L19.8028 22.6433V22.6603H19.8199L19.8626 22.7031V22.7116H19.8712L19.9139 22.7542V22.7628C19.9651 22.814 20.0165 22.8738 20.0678 22.9335V22.9677H20.0934L20.119 22.9933V23.0189H20.1447L20.1703 23.0446V23.0702H20.1874L20.2216 23.1043V23.1214H20.2301L20.2728 23.1641V23.1726C20.3412 23.2495 20.4096 23.3349 20.478 23.4117V23.4288H20.4865L20.5292 23.48C20.572 23.5312 20.6062 23.5825 20.6489 23.6337C20.7344 23.7361 20.8113 23.8387 20.8882 23.9411C20.9736 24.0606 21.0591 24.1801 21.1446 24.2997V24.3082C21.213 24.4021 21.2814 24.5046 21.3497 24.607V24.6156H21.3583C21.3925 24.6583 21.4181 24.7095 21.4522 24.7607V24.7693C21.5036 24.8461 21.5549 24.9315 21.6061 25.0169V25.0254H21.6147C21.7599 25.2645 21.8967 25.5121 22.0163 25.7682V25.7939H22.0335L22.0676 25.8707V25.8963H22.0847L22.1189 25.9817V25.9988H22.1274L22.1702 26.0927V26.1012H22.1787C22.2129 26.1781 22.2471 26.2635 22.2727 26.3403V26.3574H22.2813C22.3155 26.4428 22.3496 26.5196 22.3753 26.605V26.6135H22.3838L22.4266 26.7501V26.7672H22.4351C22.4522 26.8099 22.4693 26.8612 22.4864 26.9038V26.9295C22.5035 26.9807 22.5205 27.0319 22.5377 27.0831C22.6316 27.3905 22.683 27.5613 22.7855 28.0223L23.0248 29.1835C23.1787 30.0117 23.3838 30.8314 23.5632 31.6596C23.8026 32.7781 24.076 33.888 24.3837 34.981C23.6145 34.3662 22.8282 33.8369 22.0505 33.4526L14.1365 29.4397L14.0425 29.3884C13.8887 29.3115 13.7348 29.2262 13.581 29.1409V29.1322H13.5724C13.3588 29.0042 13.1366 28.8676 12.9144 28.7225H12.9058L12.7605 28.62H12.752L12.6067 28.5175C12.4871 28.4322 12.3674 28.3468 12.2477 28.2614H12.2392C12.1025 28.1589 11.9657 28.0565 11.8289 27.954C11.7435 27.8857 11.658 27.8175 11.5726 27.7491C11.3675 27.5869 11.1624 27.4076 10.9572 27.2368C10.359 26.716 9.76927 26.144 9.20519 25.5377C9.05143 25.367 8.89755 25.2047 8.74372 25.0254C8.54715 24.8034 8.36768 24.59 8.17966 24.3594H8.17111C7.77797 23.8728 7.40193 23.3775 7.05153 22.8738V22.8653H7.04298C6.87205 22.6092 6.70112 22.3615 6.53019 22.1054V22.0968C6.31653 21.7553 6.11142 21.4138 5.91485 21.0722V21.0637C5.78665 20.8417 5.667 20.6197 5.5559 20.3978L5.50462 20.2953L5.45334 20.1928C5.34224 19.9708 5.23968 19.7488 5.14567 19.5269C5.00893 19.2194 4.88927 18.9121 4.78672 18.6047V18.5961H4.77817C4.75253 18.5022 4.71834 18.4083 4.68416 18.3144L0.402395 4.8753C0.36821 4.77285 0.334024 4.67893 0.308384 4.57647V4.56793C0.291291 4.50816 0.274199 4.44839 0.257106 4.38862V4.36301H0.248559C0.231466 4.30325 0.222919 4.25202 0.205827 4.19225V4.15809H0.197281C0.180188 4.08979 0.171641 4.03003 0.154548 3.96172V3.95318C0.137455 3.86779 0.120363 3.78242 0.10327 3.70557V3.69703C0.0861767 3.58604 0.0690836 3.48358 0.0519906 3.37258V3.23597H0.0348984C-0.0249273 2.68953 -0.00783427 2.21139 0.0861767 1.79302H0.10327V1.71617C0.111816 1.67348 0.128909 1.63079 0.137455 1.58811H0.154548V1.52834C0.197281 1.4088 0.240013 1.28927 0.299837 1.17827H0.308384V1.15265C0.325477 1.12704 0.334024 1.10143 0.351117 1.07581H0.359663V1.05874C0.385302 1.00751 0.419488 0.964811 0.445128 0.922123H0.46222V0.89651C0.522045 0.811127 0.58187 0.734284 0.650242 0.665978H0.667335V0.640364L0.70152 0.614749H0.718613V0.589135L0.752799 0.56352H0.769891V0.546444L0.81262 0.503753H0.821169V0.495215C0.889545 0.443986 0.957912 0.401295 1.02629 0.350066C1.08611 0.315913 1.14593 0.281761 1.20576 0.247607H1.2314V0.239069C1.26559 0.221993 1.29122 0.213454 1.31686 0.196378H1.33396V0.18784C1.37669 0.179302 1.41088 0.162225 1.45361 0.145149H1.49634V0.136611C1.60745 0.0939202 1.71855 0.0683054 1.84674 0.042691H1.95785V0.0256146C2.09459 0.00853819 2.23988 0 2.38517 0C2.65011 0 2.94069 0.0256146 3.23981 0.0939202H3.274C3.35091 0.110997 3.41929 0.128073 3.49621 0.145149C3.61586 0.179302 3.7355 0.213454 3.85516 0.247607H3.86371C3.91498 0.264683 3.96626 0.281761 4.01754 0.298837H4.02609C4.06882 0.315913 4.12009 0.33299 4.17137 0.350066C4.3423 0.409832 4.50468 0.478139 4.68416 0.554982V0.56352H4.6927C4.82091 0.614749 4.9491 0.674517 5.08584 0.734284L8.33349 2.30531L26.7511 11.2021L27.7254 11.6717C27.8792 11.74 28.0416 11.8254 28.1954 11.9108V11.9193H28.204L28.2979 11.9705C28.3834 12.0218 28.4689 12.073 28.5543 12.1242C28.9731 12.3804 29.3919 12.6706 29.785 12.9951C29.9132 13.0976 30.0329 13.1915 30.144 13.3025H30.1525C30.6226 13.7123 31.067 14.1563 31.4858 14.6344V14.643C31.5883 14.7625 31.6909 14.882 31.7935 15.0016C31.8618 15.087 31.9302 15.1724 31.9986 15.2578H32.0071C32.161 15.4541 32.3148 15.659 32.4601 15.8725H32.4686C32.6823 16.1713 32.8874 16.4872 33.084 16.7946V16.8031C33.1352 16.8885 33.1865 16.9654 33.2378 17.0508V17.0593C33.3062 17.1788 33.3746 17.2899 33.4429 17.4094V17.4179C33.6481 17.785 33.836 18.1522 34.007 18.5364V18.545H34.0156L34.0582 18.6474C34.1095 18.7669 34.1609 18.8865 34.2121 19.006V19.0145C34.2463 19.0914 34.2804 19.1768 34.3147 19.2622V19.2707C34.4087 19.5012 34.4942 19.7403 34.5711 19.9708V19.9879H34.5796L34.6223 20.1331V20.1416H34.6309C34.6822 20.3124 34.7334 20.4831 34.7762 20.6539C34.7933 20.7221 34.8103 20.7819 34.8275 20.8503V20.8588H34.836C34.8445 20.9271 34.8617 20.9954 34.8787 21.0552V21.0637C34.9386 21.3198 34.9898 21.576 35.0326 21.8236V21.8407C35.0839 22.1139 35.118 22.3871 35.1351 22.6518V22.7116H35.1437C35.1522 22.8226 35.1608 22.9335 35.1608 23.036L35.6479 34.5284L36.6478 57.8718C36.6564 58.1622 36.6735 58.4439 36.682 58.7256V58.7427C36.6991 59.3063 36.7162 59.8612 36.7333 60.3821V60.4332C36.7846 62.3714 36.7846 63.9766 36.7333 64.9073V64.9329C36.7162 65.1805 36.6991 65.3769 36.682 65.522V65.5391C36.6649 65.6245 36.6564 65.6843 36.6393 65.7269H36.6308V65.7611C36.6222 65.7867 36.6051 65.7953 36.5966 65.7953C36.588 65.7953 36.588 65.7953 36.5794 65.7867ZM77.8075 8.7858C76.7307 8.7858 75.423 9.17858 73.9274 10.0067L49.0487 23.8642C43.8781 26.733 39.7245 33.9564 39.8186 39.9075L40.4169 80.2248C40.5108 86.1673 40.7928 91 41.0578 91C41.3227 90.9744 42.4252 86.1673 43.5277 80.3102L45.4422 70.09C45.4422 70.09 45.4934 69.8167 45.5789 69.313L46.1942 66.0344C46.2711 65.633 46.3652 65.2232 46.4763 64.8134C46.4847 64.8049 46.4847 64.7963 46.4847 64.7878C46.5446 64.4889 46.6216 64.1816 46.6813 63.8656C46.9549 62.5935 47.254 61.1591 47.6385 59.6136C47.989 58.0597 48.3735 56.3862 48.8436 54.6359C49.2709 52.8685 49.7581 51.0157 50.2965 49.1116C50.8178 47.1991 51.3733 45.2353 51.963 43.2459C52.1254 42.7593 52.2707 42.264 52.4246 41.7602L52.5442 41.3846L52.698 40.9236L52.9459 40.1721C53.1596 39.6342 53.4245 38.9683 53.6809 38.4475C53.9373 37.901 54.2022 37.3717 54.5014 36.8594C55.638 34.7931 57.0311 32.983 58.4669 31.3181C59.9027 29.6616 61.4154 28.1761 62.894 26.8014C64.3811 25.4438 65.8339 24.1801 67.2185 23.0104C68.5859 21.8492 69.885 20.7478 71.0644 19.7317C72.2352 18.7072 73.2864 17.7509 74.1667 16.8629C75.0384 15.9665 75.7905 15.1638 76.329 14.4295C76.8674 13.7038 77.269 13.0976 77.4998 12.6621C77.7391 12.2181 77.8673 11.979 77.8673 11.979C77.8673 11.979 77.8417 12.2523 77.7904 12.756C77.7049 13.2598 77.5767 14.0111 77.252 14.9333C76.9272 15.8383 76.4657 16.9312 75.7991 18.1095C75.1495 19.2792 74.312 20.5514 73.3377 21.8577C71.4062 24.479 68.9106 27.2795 66.3724 30.2337C65.0989 31.7023 63.8255 33.2221 62.6376 34.7845C61.4496 36.3556 60.3386 37.9693 59.4583 39.6342C59.2361 40.0441 59.0395 40.4625 58.8429 40.8808C58.6464 41.3163 58.5267 41.6237 58.3557 42.0677L58.0909 42.8105L57.9883 43.1007L57.8601 43.4765C57.6977 43.9887 57.5354 44.4839 57.3729 44.9792C56.6978 46.96 56.0397 48.9238 55.3218 50.7936C55.185 51.1352 55.0483 51.4852 54.9116 51.8183C55.7577 51.1096 56.6124 50.4778 57.484 49.974L64.9109 45.6537C70.0131 42.6739 75.4059 35.5274 76.893 29.7642L80.6193 15.2578C81.679 11.1594 80.4569 8.7858 77.816 8.7858H77.8075Z" fill="url(#paint0_linear_199_385)"/>
<defs>
<linearGradient id="paint0_linear_199_385" x1="81.1178" y1="2.91093e-06" x2="0.321113" y2="-0.285424" gradientUnits="userSpaceOnUse">
<stop stop-color="#AD8153"/>
<stop offset="0.25" stop-color="#E2B36C"/>
<stop offset="0.5" stop-color="#FDECD6"/>
<stop offset="0.75" stop-color="#DCAC64"/>
<stop offset="1" stop-color="#AF8352"/>
</linearGradient>
</defs>
</svg>
