<svg width="178" height="39" viewBox="0 0 178 39" fill="none" xmlns="http://www.w3.org/2000/svg">
<path d="M97.7971 22.5559V9.3519H103.115C105.793 9.3519 107.132 10.5307 107.132 12.8883C107.132 15.4553 105.301 17.0219 101.639 17.5882L101.291 16.1478C103.98 15.7477 105.325 14.6858 105.325 12.9622C105.325 11.4972 104.537 10.7646 102.959 10.7646H99.4934V22.5559H97.7971Z" fill="url(#paint0_linear_256_149)"/>
<path d="M109.818 22.5559H108.058L113.623 9.3519H115.503L121.097 22.5559H119.217L117.52 18.4008H113.183L113.651 17.0157H116.952L114.504 11.0324L109.818 22.5559Z" fill="url(#paint1_linear_256_149)"/>
<path d="M122.885 22.5559V9.3519H128.478C130.972 9.3519 132.219 10.4076 132.219 12.519C132.219 14.2364 131 15.5076 128.56 16.3325L133.063 22.5559H130.825L126.653 16.6187V15.5014C129.16 15.1013 130.413 14.1318 130.413 12.5929C130.413 11.374 129.716 10.7646 128.322 10.7646H124.581V22.5559H122.885Z" fill="url(#paint2_linear_256_149)"/>
<path d="M136.556 9.3519V22.5559H134.86V9.3519H136.556ZM145.781 9.3519L139.875 15.5845L145.909 22.5559H143.552L138.207 16.2032V15.169L143.635 9.3519H145.781Z" fill="url(#paint3_linear_256_149)"/>
<path d="M149.668 9.3519V22.5559H147.972V9.3519H149.668Z" fill="url(#paint4_linear_256_149)"/>
<path d="M153.07 22.5559V9.3519H154.767L162.79 19.9889V9.3519H164.394V22.5559H162.698L154.675 11.8265V22.5559H153.07Z" fill="url(#paint5_linear_256_149)"/>
<path d="M177.424 22.0388C176.367 22.4451 175.227 22.6482 174.004 22.6482C169.254 22.6482 166.879 20.3552 166.879 15.7692C166.879 11.4294 169.172 9.25956 173.756 9.25956C175.071 9.25956 176.293 9.44423 177.424 9.81358V11.2909C176.293 10.86 175.132 10.6446 173.94 10.6446C170.364 10.6446 168.576 12.3528 168.576 15.7692C168.576 19.4318 170.336 21.2632 173.857 21.2632C174.42 21.2632 175.043 21.1893 175.728 21.0416V16.5541H177.424V22.0388Z" fill="url(#paint6_linear_256_149)"/>
<path d="M37.9006 22.4961V9.10748H43.8236C46.526 9.10748 47.8772 10.3652 47.8772 12.8806C47.8772 15.6083 46.0293 17.2593 42.3336 17.8335L41.9819 15.6239C44.203 15.2182 45.3136 14.3287 45.3136 12.9555C45.3136 11.8445 44.7645 11.289 43.6663 11.289H40.3531V22.4961H37.9006Z" fill="url(#paint7_linear_256_149)"/>
<path d="M49.506 22.4774V9.10748H55.5216C58.224 9.10748 59.5752 10.3028 59.5752 12.6934C59.5752 14.31 58.5232 15.6489 56.4193 16.71L60.6117 22.4961H57.5206L53.4948 16.6632V15.5303C55.8393 15.1246 57.0116 14.2039 57.0116 12.7683C57.0116 11.7821 56.4625 11.289 55.3643 11.289H52.0048V22.4774H49.506Z" fill="url(#paint8_linear_256_149)"/>
<path d="M64.2303 9.10748V22.4961H61.7778V9.10748H64.2303Z" fill="url(#paint9_linear_256_149)"/>
<path d="M67.016 22.4961V9.10748H69.561L74.0496 19.266L78.4456 9.10748H80.8981V22.4961H78.6307V13.1709L75.0398 22.4961H72.9482L69.2834 13.1709V22.4961H67.016Z" fill="url(#paint10_linear_256_149)"/>
<path d="M92.7349 9.10748V11.2422H86.1085V14.6127H92.4202V16.8317H86.0807V20.3427H92.8644V22.4961H83.6745V9.10748H92.7349Z" fill="url(#paint11_linear_256_149)"/>
<path fill-rule="evenodd" clip-rule="evenodd" d="M14.1405 28.087V28.0834H14.1372C14.0777 28.0251 13.929 27.5403 13.7407 26.8112L13.7011 26.6581C13.6449 26.4357 13.5854 26.1915 13.5227 25.9363V25.9327C13.4367 25.5755 13.3476 25.1927 13.2584 24.7917L13.1031 24.0918C13.1031 24.0918 13.0866 24.0007 13.0634 23.833C13.037 23.6653 13.004 23.4174 12.9478 23.1076C12.8949 22.7977 12.8388 22.4223 12.7562 21.9994C12.6769 21.5729 12.591 21.0881 12.4853 20.5704C12.3795 20.0528 12.2672 19.4915 12.1483 18.8973C12.1351 18.8462 12.1218 18.7915 12.1119 18.7405V18.7369L12.0921 18.6494C12.0723 18.5583 12.0525 18.4635 12.0327 18.3723V18.365H12.0294L12.0128 18.2776C11.9269 17.8766 11.8443 17.4647 11.7518 17.0454C11.7254 16.9324 11.699 16.8194 11.6725 16.7064V16.6955L11.6527 16.619V16.608L11.6329 16.5278V16.5205L11.6131 16.4367V16.433L11.5932 16.3455C11.5041 15.93 11.4148 15.5035 11.3223 15.077C11.2496 14.7416 11.1704 14.4063 11.0911 14.0672C11.0614 13.9214 11.0283 13.772 10.9986 13.6261V13.6225C10.9787 13.5277 10.9589 13.4329 10.9391 13.3382L10.8796 13.0502C10.8037 12.7112 10.731 12.3685 10.655 12.0332L10.5261 11.4973C10.4964 11.3551 10.4237 11.0927 10.3543 10.8958C10.0735 10.0975 9.62419 9.43041 9.14843 8.90549C8.66609 8.38057 8.15732 7.97961 7.67498 7.63694C7.19591 7.29791 6.73337 7.02089 6.30719 6.76936C5.53079 6.31731 4.87665 5.94917 4.39431 5.66117V5.65754C4.34473 5.63202 4.29851 5.60287 4.25556 5.57368C3.79302 5.28936 3.5188 5.11805 3.48578 5.09616C3.49568 5.11437 3.53863 5.17998 3.61791 5.30393C3.71374 5.43515 3.84918 5.63929 4.04081 5.87625C4.23241 6.10954 4.46699 6.40481 4.75112 6.70738C5.03855 7.01359 5.36893 7.34894 5.72905 7.69892C6.08586 8.04522 6.46909 8.42067 6.87874 8.818L6.92169 8.86177C7.14965 9.09869 7.38092 9.34292 7.59567 9.59809V9.60903H7.60557L7.61551 9.61997V9.63092H7.62541L7.63531 9.64549V9.6528H7.64524L7.65514 9.66737V9.67464H7.66173L7.67826 9.69289V9.69653H7.68157L7.69809 9.71474V9.71841C7.7179 9.74025 7.73773 9.76577 7.75757 9.79129V9.80586H7.76747L7.77737 9.8168V9.82775H7.7873L7.7972 9.83869V9.84963H7.80383L7.81704 9.86421V9.87151H7.82032L7.83684 9.88972V9.89336C7.86327 9.92618 7.88969 9.96264 7.91615 9.99543V10.0027H7.91943L7.93595 10.0246C7.95248 10.0465 7.96569 10.0683 7.98221 10.0902C8.01526 10.134 8.045 10.1777 8.07474 10.2214C8.10775 10.2725 8.1408 10.3235 8.17385 10.3745V10.3782C8.20027 10.4183 8.2267 10.462 8.25312 10.5058V10.5094H8.25643C8.26965 10.5277 8.27955 10.5495 8.29276 10.5714V10.5751C8.3126 10.6078 8.33243 10.6443 8.35223 10.6808V10.6844H8.35555C8.41171 10.7865 8.46456 10.8922 8.51082 11.0015V11.0125H8.51744L8.53066 11.0453V11.0562H8.53724L8.55046 11.0927V11.1H8.55377L8.57029 11.1401V11.1437H8.5736C8.58682 11.1765 8.60003 11.213 8.60993 11.2458V11.2531H8.61324C8.62645 11.2895 8.63967 11.3223 8.64957 11.3588V11.3624H8.65288L8.6694 11.4208V11.428H8.67272C8.6793 11.4463 8.68593 11.4682 8.69252 11.4864V11.4973C8.69914 11.5192 8.70573 11.541 8.71235 11.5629C8.74868 11.6941 8.76851 11.7671 8.80815 11.9639L8.90067 12.4597C8.96015 12.8133 9.03942 13.1632 9.1088 13.5168C9.20132 13.9943 9.30702 14.4682 9.42597 14.9348C9.12863 14.6723 8.82468 14.4464 8.52403 14.2823L5.46473 12.569L5.4284 12.5471C5.36893 12.5143 5.30946 12.4779 5.24998 12.4414V12.4378H5.24667C5.16408 12.3831 5.07819 12.3248 4.99229 12.2628H4.98897L4.93281 12.2191H4.92954L4.87334 12.1753C4.82711 12.1389 4.78085 12.1024 4.73459 12.066H4.73128C4.67843 12.0222 4.62558 11.9785 4.57269 11.9347C4.53968 11.9056 4.50663 11.8764 4.47358 11.8472C4.39431 11.778 4.31503 11.7014 4.23572 11.6285C4.00445 11.4062 3.77649 11.1619 3.55843 10.9031C3.499 10.8302 3.43951 10.7609 3.38004 10.6844C3.30406 10.5896 3.23468 10.4985 3.162 10.4001H3.15869C3.00672 10.1923 2.86135 9.98085 2.7259 9.76577V9.76214H2.72259C2.65652 9.6528 2.59044 9.54706 2.52437 9.43772V9.43405C2.44177 9.28825 2.36248 9.14246 2.28649 8.99662V8.99299C2.23694 8.89819 2.19068 8.80342 2.14773 8.70866L2.12791 8.6649L2.10809 8.62117C2.06514 8.52637 2.0255 8.43161 1.98915 8.33685C1.93629 8.20559 1.89004 8.07437 1.85039 7.94315V7.93947H1.84709C1.83718 7.89938 1.82396 7.85929 1.81075 7.8192L0.155553 2.0815C0.142338 2.03775 0.129123 1.99766 0.119211 1.95391V1.95026C0.112604 1.92475 0.105997 1.89923 0.0993889 1.87371V1.86278H0.0960851C0.0894775 1.83726 0.0861736 1.81539 0.0795663 1.78987V1.77529H0.0762625C0.0696549 1.74613 0.0663511 1.72061 0.0597434 1.69145V1.6878C0.0531358 1.65135 0.0465285 1.6149 0.0399208 1.58209V1.57844C0.0333132 1.53105 0.0267056 1.48731 0.0200979 1.43992V1.3816H0.0134906C-0.00963612 1.1483 -0.00302848 0.944163 0.0333132 0.765543H0.0399208V0.732734C0.0432247 0.714508 0.0498323 0.696283 0.0531358 0.678057H0.0597434V0.65254C0.0762625 0.601506 0.0927813 0.550471 0.115908 0.503083H0.119211V0.492145C0.125819 0.481211 0.129123 0.470274 0.135731 0.459336H0.139034V0.452048C0.148946 0.430177 0.162161 0.411948 0.172072 0.393722H0.17868V0.382787C0.201806 0.346334 0.224933 0.313526 0.251363 0.284364H0.257971V0.273428L0.271186 0.262492H0.277793V0.251556L0.291008 0.24062H0.297616V0.23333L0.314133 0.215103H0.317438V0.211458C0.34387 0.189586 0.370298 0.17136 0.39673 0.149488C0.419857 0.134907 0.442981 0.120326 0.466108 0.105744H0.476019V0.102099C0.489235 0.0948083 0.499146 0.0911629 0.509057 0.0838723H0.515667V0.0802272C0.532185 0.0765817 0.545401 0.0692911 0.561918 0.0620006H0.578439V0.0583551C0.621388 0.0401289 0.664337 0.0291929 0.713893 0.018257H0.756842V0.0109664C0.809703 0.00367582 0.865868 3.05176e-05 0.92203 3.05176e-05C1.02445 3.05176e-05 1.13678 0.0109664 1.25241 0.0401289H1.26562C1.29536 0.0474194 1.32179 0.05471 1.35152 0.0620006C1.39778 0.0765817 1.44403 0.0911629 1.49028 0.105744H1.49359C1.51341 0.113035 1.53323 0.120326 1.55305 0.127616H1.55636C1.57288 0.134907 1.5927 0.142197 1.61252 0.149488C1.6786 0.175005 1.74137 0.204167 1.81075 0.236975V0.24062H1.81405C1.86361 0.262492 1.91317 0.288009 1.96603 0.313526L3.22146 0.98426L10.3411 4.78265L10.7178 4.98315C10.7772 5.0123 10.84 5.04876 10.8995 5.08522V5.08886H10.9028L10.9391 5.11074C10.9721 5.13262 11.0052 5.15447 11.0382 5.17635C11.2001 5.28572 11.362 5.40964 11.514 5.54816C11.5635 5.59193 11.6098 5.63202 11.6527 5.67942H11.656C11.8377 5.85437 12.0095 6.04393 12.1714 6.24807V6.2517C12.211 6.30274 12.2507 6.35377 12.2904 6.40481C12.3168 6.44127 12.3432 6.47773 12.3696 6.51418H12.3729C12.4324 6.598 12.4919 6.6855 12.5481 6.77662H12.5513C12.634 6.90421 12.7132 7.0391 12.7892 7.17032V7.17396C12.809 7.21042 12.8289 7.24324 12.8487 7.2797V7.28333C12.8751 7.33437 12.9016 7.38177 12.928 7.4328V7.43644C13.0073 7.59317 13.0799 7.74995 13.146 7.91396V7.91763H13.1493L13.1658 7.96136C13.1857 8.01239 13.2055 8.06343 13.2253 8.11446V8.11809C13.2385 8.15092 13.2517 8.18738 13.265 8.22384V8.22747C13.3013 8.3259 13.3344 8.42797 13.3641 8.52637V8.53368H13.3674L13.3839 8.59565V8.59929H13.3872C13.407 8.6722 13.4268 8.74508 13.4434 8.818C13.45 8.84715 13.4566 8.87267 13.4632 8.90186V8.90549H13.4665C13.4698 8.93464 13.4764 8.96383 13.483 8.98935V8.99299C13.5062 9.10232 13.526 9.2117 13.5425 9.3174V9.32471C13.5623 9.44135 13.5755 9.558 13.5821 9.67101V9.69653H13.5854C13.5887 9.74393 13.5921 9.79129 13.5921 9.83505L13.7803 14.7416L14.1669 24.7079C14.1702 24.8318 14.1768 24.9521 14.1801 25.0724V25.0797C14.1867 25.3203 14.1933 25.5572 14.1999 25.7796V25.8014C14.2198 26.6289 14.2198 27.3143 14.1999 27.7116V27.7225C14.1933 27.8282 14.1867 27.9121 14.1801 27.974V27.9813C14.1735 28.0178 14.1702 28.0433 14.1636 28.0615H14.1603V28.0761C14.157 28.087 14.1504 28.0907 14.1471 28.0907C14.1438 28.0907 14.1438 28.0907 14.1405 28.087ZM30.0779 3.75104C29.6616 3.75104 29.1562 3.91874 28.578 4.2723L18.9607 10.1886C16.9619 11.4134 15.3563 14.4974 15.3926 17.0382L15.6239 34.2513C15.6602 36.7884 15.7692 38.8516 15.8716 38.8516C15.9741 38.8407 16.4002 36.7884 16.8264 34.2877L17.5665 29.9243C17.5665 29.9243 17.5863 29.8076 17.6194 29.5926L17.8572 28.1928C17.8869 28.0214 17.9233 27.8465 17.9663 27.6715C17.9695 27.6679 17.9695 27.6642 17.9695 27.6606C17.9927 27.533 18.0224 27.4017 18.0455 27.2669C18.1513 26.7237 18.2669 26.1113 18.4156 25.4515C18.551 24.7881 18.6997 24.0736 18.8814 23.3263C19.0466 22.5717 19.2349 21.7807 19.443 20.9678C19.6446 20.1512 19.8593 19.3128 20.0873 18.4635C20.1501 18.2557 20.2062 18.0442 20.2657 17.8292L20.3119 17.6688L20.3714 17.472L20.4672 17.1511C20.5498 16.9215 20.6522 16.6372 20.7513 16.4148C20.8505 16.1815 20.9529 15.9555 21.0685 15.7368C21.5079 14.8546 22.0464 14.0818 22.6015 13.371C23.1565 12.6638 23.7413 12.0295 24.3128 11.4426C24.8877 10.863 25.4493 10.3235 25.9845 9.82411C26.5131 9.32834 27.0153 8.85809 27.4712 8.4243C27.9238 7.98687 28.3302 7.5786 28.6705 7.19947C29.0075 6.81676 29.2982 6.47409 29.5064 6.16058C29.7145 5.85074 29.8698 5.59193 29.959 5.406C30.0515 5.21644 30.101 5.11437 30.101 5.11437C30.101 5.11437 30.0911 5.23102 30.0713 5.4461C30.0383 5.66117 29.9887 5.98196 29.8632 6.37566C29.7376 6.76205 29.5592 7.22867 29.3015 7.7317C29.0504 8.2311 28.7267 8.77427 28.35 9.33198C27.6034 10.4511 26.6387 11.6468 25.6575 12.908C25.1652 13.535 24.6729 14.1839 24.2137 14.851C23.7545 15.5217 23.325 16.2107 22.9847 16.9215C22.8988 17.0965 22.8228 17.2751 22.7468 17.4537C22.6708 17.6396 22.6246 17.7709 22.5585 17.9604L22.4561 18.2776L22.4164 18.4015L22.3669 18.5619C22.3041 18.7806 22.2414 18.992 22.1786 19.2035C21.9176 20.0492 21.6632 20.8876 21.3857 21.6859C21.3328 21.8317 21.2799 21.9812 21.2271 22.1234C21.5542 21.8208 21.8845 21.551 22.2215 21.336L25.0925 19.4915C27.0649 18.2192 29.1495 15.1681 29.7244 12.7076L31.1649 6.51418C31.5745 4.76444 31.1021 3.75104 30.0812 3.75104H30.0779Z" fill="url(#paint12_linear_256_149)"/>
<defs>
<linearGradient id="paint0_linear_256_149" x1="177.424" y1="15.4206" x2="66.8795" y2="72.2227" gradientUnits="userSpaceOnUse">
<stop stop-color="#AD8153"/>
<stop offset="0.25" stop-color="#E2B36C"/>
<stop offset="0.5" stop-color="#FDECD6"/>
<stop offset="0.75" stop-color="#DCAC64"/>
<stop offset="1" stop-color="#AF8352"/>
</linearGradient>
<linearGradient id="paint1_linear_256_149" x1="177.424" y1="15.4206" x2="66.8795" y2="72.2227" gradientUnits="userSpaceOnUse">
<stop stop-color="#AD8153"/>
<stop offset="0.25" stop-color="#E2B36C"/>
<stop offset="0.5" stop-color="#FDECD6"/>
<stop offset="0.75" stop-color="#DCAC64"/>
<stop offset="1" stop-color="#AF8352"/>
</linearGradient>
<linearGradient id="paint2_linear_256_149" x1="177.424" y1="15.4206" x2="66.8795" y2="72.2227" gradientUnits="userSpaceOnUse">
<stop stop-color="#AD8153"/>
<stop offset="0.25" stop-color="#E2B36C"/>
<stop offset="0.5" stop-color="#FDECD6"/>
<stop offset="0.75" stop-color="#DCAC64"/>
<stop offset="1" stop-color="#AF8352"/>
</linearGradient>
<linearGradient id="paint3_linear_256_149" x1="177.424" y1="15.4206" x2="66.8795" y2="72.2227" gradientUnits="userSpaceOnUse">
<stop stop-color="#AD8153"/>
<stop offset="0.25" stop-color="#E2B36C"/>
<stop offset="0.5" stop-color="#FDECD6"/>
<stop offset="0.75" stop-color="#DCAC64"/>
<stop offset="1" stop-color="#AF8352"/>
</linearGradient>
<linearGradient id="paint4_linear_256_149" x1="177.424" y1="15.4206" x2="66.8795" y2="72.2227" gradientUnits="userSpaceOnUse">
<stop stop-color="#AD8153"/>
<stop offset="0.25" stop-color="#E2B36C"/>
<stop offset="0.5" stop-color="#FDECD6"/>
<stop offset="0.75" stop-color="#DCAC64"/>
<stop offset="1" stop-color="#AF8352"/>
</linearGradient>
<linearGradient id="paint5_linear_256_149" x1="177.424" y1="15.4206" x2="66.8795" y2="72.2227" gradientUnits="userSpaceOnUse">
<stop stop-color="#AD8153"/>
<stop offset="0.25" stop-color="#E2B36C"/>
<stop offset="0.5" stop-color="#FDECD6"/>
<stop offset="0.75" stop-color="#DCAC64"/>
<stop offset="1" stop-color="#AF8352"/>
</linearGradient>
<linearGradient id="paint6_linear_256_149" x1="177.424" y1="15.4206" x2="66.8795" y2="72.2227" gradientUnits="userSpaceOnUse">
<stop stop-color="#AD8153"/>
<stop offset="0.25" stop-color="#E2B36C"/>
<stop offset="0.5" stop-color="#FDECD6"/>
<stop offset="0.75" stop-color="#DCAC64"/>
<stop offset="1" stop-color="#AF8352"/>
</linearGradient>
<linearGradient id="paint7_linear_256_149" x1="177.424" y1="15.4206" x2="66.8795" y2="72.2227" gradientUnits="userSpaceOnUse">
<stop stop-color="#AD8153"/>
<stop offset="0.25" stop-color="#E2B36C"/>
<stop offset="0.5" stop-color="#FDECD6"/>
<stop offset="0.75" stop-color="#DCAC64"/>
<stop offset="1" stop-color="#AF8352"/>
</linearGradient>
<linearGradient id="paint8_linear_256_149" x1="177.424" y1="15.4206" x2="66.8795" y2="72.2227" gradientUnits="userSpaceOnUse">
<stop stop-color="#AD8153"/>
<stop offset="0.25" stop-color="#E2B36C"/>
<stop offset="0.5" stop-color="#FDECD6"/>
<stop offset="0.75" stop-color="#DCAC64"/>
<stop offset="1" stop-color="#AF8352"/>
</linearGradient>
<linearGradient id="paint9_linear_256_149" x1="177.424" y1="15.4206" x2="66.8795" y2="72.2227" gradientUnits="userSpaceOnUse">
<stop stop-color="#AD8153"/>
<stop offset="0.25" stop-color="#E2B36C"/>
<stop offset="0.5" stop-color="#FDECD6"/>
<stop offset="0.75" stop-color="#DCAC64"/>
<stop offset="1" stop-color="#AF8352"/>
</linearGradient>
<linearGradient id="paint10_linear_256_149" x1="177.424" y1="15.4206" x2="66.8795" y2="72.2227" gradientUnits="userSpaceOnUse">
<stop stop-color="#AD8153"/>
<stop offset="0.25" stop-color="#E2B36C"/>
<stop offset="0.5" stop-color="#FDECD6"/>
<stop offset="0.75" stop-color="#DCAC64"/>
<stop offset="1" stop-color="#AF8352"/>
</linearGradient>
<linearGradient id="paint11_linear_256_149" x1="177.424" y1="15.4206" x2="66.8795" y2="72.2227" gradientUnits="userSpaceOnUse">
<stop stop-color="#AD8153"/>
<stop offset="0.25" stop-color="#E2B36C"/>
<stop offset="0.5" stop-color="#FDECD6"/>
<stop offset="0.75" stop-color="#DCAC64"/>
<stop offset="1" stop-color="#AF8352"/>
</linearGradient>
<linearGradient id="paint12_linear_256_149" x1="31.3576" y1="3.17604e-05" x2="0.124062" y2="-0.099872" gradientUnits="userSpaceOnUse">
<stop stop-color="#AD8153"/>
<stop offset="0.25" stop-color="#E2B36C"/>
<stop offset="0.5" stop-color="#FDECD6"/>
<stop offset="0.75" stop-color="#DCAC64"/>
<stop offset="1" stop-color="#AF8352"/>
</linearGradient>
</defs>
</svg>
