<svg width="50" height="50" viewBox="0 0 50 50" fill="none" xmlns="http://www.w3.org/2000/svg">
<path d="M42.1875 9.375V40.625C42.1866 41.4535 41.857 42.2478 41.2712 42.8337C40.6853 43.4195 39.891 43.7491 39.0625 43.75H32.0312C31.2027 43.7491 30.4084 43.4195 29.8226 42.8337C29.2367 42.2478 28.9072 41.4535 28.9062 40.625V9.375C28.9072 8.54649 29.2367 7.75218 29.8226 7.16634C30.4084 6.58049 31.2027 6.25095 32.0312 6.25H39.0625C39.891 6.25095 40.6853 6.58049 41.2712 7.16634C41.857 7.75218 42.1866 8.54649 42.1875 9.375ZM17.9688 6.25H10.9375C10.109 6.25095 9.31468 6.58049 8.72884 7.16634C8.14299 7.75218 7.81345 8.54649 7.8125 9.375V40.625C7.81345 41.4535 8.14299 42.2478 8.72884 42.8337C9.31468 43.4195 10.109 43.7491 10.9375 43.75H17.9688C18.7973 43.7491 19.5916 43.4195 20.1774 42.8337C20.7633 42.2478 21.0928 41.4535 21.0938 40.625V9.375C21.0928 8.54649 20.7633 7.75218 20.1774 7.16634C19.5916 6.58049 18.7973 6.25095 17.9688 6.25Z" fill="white"/>
</svg>
