<svg width="50" height="50" viewBox="0 0 50 50" fill="none" xmlns="http://www.w3.org/2000/svg">
<path d="M45.3735 22.3328L17.2546 5.14835C16.781 4.85872 16.2388 4.70052 15.6837 4.69001C15.1286 4.67951 14.5808 4.81708 14.0965 5.08858C13.6123 5.36008 13.2091 5.75569 12.9285 6.23472C12.6479 6.71375 12.5 7.25889 12.5 7.81406V42.186C12.5005 42.741 12.6486 43.2859 12.9294 43.7646C13.2101 44.2434 13.6132 44.6388 14.0973 44.9102C14.5814 45.1816 15.129 45.3192 15.6839 45.3089C16.2388 45.2987 16.7809 45.1409 17.2546 44.8517L45.3735 27.6673C45.8303 27.3879 46.2077 26.996 46.4696 26.5289C46.7314 26.0619 46.8689 25.5355 46.8689 25C46.8689 24.4646 46.7314 23.9382 46.4696 23.4711C46.2077 23.0041 45.8303 22.6121 45.3735 22.3328Z" fill="white"/>
</svg>
