<svg width="55" height="55" viewBox="0 0 55 55" fill="none" xmlns="http://www.w3.org/2000/svg">
<path d="M27.4679 54.9357C42.6379 54.9357 54.9357 42.6379 54.9357 27.4679C54.9357 12.2978 42.6379 0 27.4679 0C12.2978 0 0 12.2978 0 27.4679C0 42.6379 12.2978 54.9357 27.4679 54.9357Z" fill="#1F1F1F"/>
<path d="M26.5828 10.9483C26.0868 11.1237 25.8859 11.3304 24.398 13.1973C23.5692 14.2372 21.6607 16.6241 20.1665 18.5035C18.666 20.3829 17.4543 21.9365 17.4669 21.9616C17.4794 21.9929 18.1261 22.0117 18.892 22.0117H20.2983L20.9513 21.2098C21.3091 20.7713 21.8867 20.0634 22.232 19.6374C23.067 18.5975 24.4294 16.9123 26.2123 14.7134C28.5729 11.8003 28.6608 11.6875 28.6608 11.6186C28.6608 11.5121 28.0205 11.061 27.7254 10.9545C27.3989 10.8418 26.8904 10.8355 26.5828 10.9483Z" fill="url(#paint0_linear_1273_776)"/>
<path d="M28.8114 13.4792C28.3279 14.0869 26.9719 15.7721 25.8041 17.2192C22.8911 20.8277 22.0059 21.9365 22.0059 21.9804C22.0059 21.9992 22.5521 22.0117 23.2238 22.0117H24.4418L24.7557 21.6484C25.0508 21.3038 25.9862 20.1574 27.901 17.7831C28.397 17.1691 29.0248 16.3923 29.2948 16.0603C30.7701 14.2623 31.241 13.6609 31.2222 13.6108C31.1971 13.5419 29.7782 12.3641 29.728 12.3641C29.7091 12.3704 29.3011 12.8653 28.8114 13.4792Z" fill="url(#paint1_linear_1273_776)"/>
<path d="M29.9788 17.1691C26.9151 20.9968 26.2119 21.899 26.2119 21.9553C26.2119 21.9867 28.4846 22.0117 31.2658 22.0117H36.3134L36.9099 21.2474C37.2426 20.8152 37.5502 20.3578 37.6067 20.2012C37.8265 19.5497 37.657 18.7729 37.1924 18.3343C36.9224 18.0838 32.2829 14.3688 32.2389 14.3751C32.2201 14.3751 31.203 15.6343 29.9788 17.1691Z" fill="url(#paint2_linear_1273_776)"/>
<path d="M14.849 23.2151C14.3655 23.4031 13.788 23.9857 13.6059 24.4743L13.4678 24.8377V32.9755C13.4678 41.057 13.4678 41.1196 13.5996 41.4642C13.7691 41.9215 14.2525 42.4415 14.7108 42.667L15.0687 42.8424L26.2752 42.8612C38.6494 42.8737 37.8081 42.9051 38.4297 42.4791C38.5992 42.36 38.844 42.1157 38.9696 41.9278C39.3588 41.3702 39.4028 41.0758 39.3839 39.1087L39.3651 37.3921L35.3471 37.3608C31.3542 37.3295 31.3291 37.3295 30.9775 37.1854C30.2681 36.9035 29.7407 36.4462 29.3954 35.8134C29.0752 35.2183 29.0376 34.9301 29.0376 32.9442C29.0376 31.3655 29.0501 31.0711 29.1569 30.7077C29.3954 29.8432 29.8977 29.248 30.7327 28.8471L31.2035 28.6216L35.2529 28.5903L39.3023 28.5589V26.6482V24.7375L39.0952 24.3177C38.8691 23.8541 38.4987 23.4908 38.0279 23.2527L37.7328 23.1086L26.4635 23.0961L15.1943 23.0836L14.849 23.2151Z" fill="url(#paint3_linear_1273_776)"/>
<path d="M31.4166 29.6806C30.8327 29.8873 30.4309 30.3071 30.2614 30.8709C30.1233 31.322 30.1296 34.5107 30.2614 34.9617C30.387 35.3877 30.8139 35.8576 31.2471 36.0518L31.5798 36.2021H36.1943C40.6957 36.2021 40.815 36.2021 41.0159 36.0769C41.1289 36.0079 41.2795 35.8639 41.3486 35.7574C41.4616 35.5694 41.4679 35.4191 41.4679 32.9382C41.4679 29.975 41.4742 30.0126 40.9908 29.737L40.7459 29.5929L36.1943 29.5992C32.6345 29.5992 31.5924 29.618 31.4166 29.6806ZM34.7503 31.4159C35.8427 31.9046 36.0938 33.3141 35.24 34.1473C34.8947 34.4856 34.5808 34.6109 34.0911 34.6109C33.4507 34.6109 32.848 34.2413 32.578 33.6712C32.4148 33.3392 32.3897 32.719 32.5215 32.3682C32.8606 31.4848 33.9153 31.04 34.7503 31.4159Z" fill="url(#paint4_linear_1273_776)"/>
<defs>
<linearGradient id="paint0_linear_1273_776" x1="28.6608" y1="16.4392" x2="17.4668" y2="16.4392" gradientUnits="userSpaceOnUse">
<stop stop-color="#AD8153"/>
<stop offset="0.25" stop-color="#E2B36C"/>
<stop offset="0.5" stop-color="#FDECD6"/>
<stop offset="0.75" stop-color="#DCAC64"/>
<stop offset="1" stop-color="#AF8352"/>
</linearGradient>
<linearGradient id="paint1_linear_1273_776" x1="31.2227" y1="17.1879" x2="22.0059" y2="17.1879" gradientUnits="userSpaceOnUse">
<stop stop-color="#AD8153"/>
<stop offset="0.25" stop-color="#E2B36C"/>
<stop offset="0.5" stop-color="#FDECD6"/>
<stop offset="0.75" stop-color="#DCAC64"/>
<stop offset="1" stop-color="#AF8352"/>
</linearGradient>
<linearGradient id="paint2_linear_1273_776" x1="37.702" y1="18.1934" x2="26.2119" y2="18.1934" gradientUnits="userSpaceOnUse">
<stop stop-color="#AD8153"/>
<stop offset="0.25" stop-color="#E2B36C"/>
<stop offset="0.5" stop-color="#FDECD6"/>
<stop offset="0.75" stop-color="#DCAC64"/>
<stop offset="1" stop-color="#AF8352"/>
</linearGradient>
<linearGradient id="paint3_linear_1273_776" x1="39.3875" y1="32.9754" x2="13.4678" y2="32.9754" gradientUnits="userSpaceOnUse">
<stop stop-color="#AD8153"/>
<stop offset="0.25" stop-color="#E2B36C"/>
<stop offset="0.5" stop-color="#FDECD6"/>
<stop offset="0.75" stop-color="#DCAC64"/>
<stop offset="1" stop-color="#AF8352"/>
</linearGradient>
<linearGradient id="paint4_linear_1273_776" x1="41.4679" y1="32.8975" x2="30.1602" y2="32.8975" gradientUnits="userSpaceOnUse">
<stop stop-color="#AD8153"/>
<stop offset="0.25" stop-color="#E2B36C"/>
<stop offset="0.5" stop-color="#FDECD6"/>
<stop offset="0.75" stop-color="#DCAC64"/>
<stop offset="1" stop-color="#AF8352"/>
</linearGradient>
</defs>
</svg>
