<svg width="49" height="50" viewBox="0 0 49 50" fill="none" xmlns="http://www.w3.org/2000/svg">
<rect width="49" height="50" fill="black"/>
<path fill-rule="evenodd" clip-rule="evenodd" d="M22.9995 36.3026V36.2993H22.9963C22.9374 36.2468 22.7902 35.81 22.6038 35.1532L22.5645 35.0153C22.5089 34.815 22.45 34.5949 22.3879 34.3651V34.3618C22.3028 34.04 22.2146 33.6952 22.1262 33.3339L21.9725 32.7034C21.9725 32.7034 21.9561 32.6213 21.9333 32.4702C21.9071 32.3192 21.8744 32.0959 21.8188 31.8168C21.7664 31.5376 21.7108 31.1994 21.6291 30.8184C21.5506 30.4342 21.4655 29.9975 21.3608 29.5311C21.2562 29.0648 21.145 28.5591 21.0272 28.0238C21.0142 27.9779 21.001 27.9286 20.9912 27.8826V27.8794L20.9716 27.8005C20.952 27.7184 20.9324 27.633 20.9128 27.5509V27.5444H20.9095L20.8931 27.4656C20.8081 27.1043 20.7263 26.7333 20.6347 26.3556C20.6085 26.2538 20.5824 26.152 20.5562 26.0502V26.0404L20.5366 25.9714V25.9615L20.517 25.8893V25.8827L20.4973 25.8072V25.8039L20.4777 25.7251C20.3894 25.3507 20.3011 24.9665 20.2095 24.5823C20.1375 24.2802 20.059 23.9781 19.9806 23.6726C19.9511 23.5413 19.9184 23.4066 19.889 23.2753V23.272C19.8693 23.1866 19.8497 23.1012 19.8301 23.0159L19.7712 22.7564C19.696 22.451 19.624 22.1423 19.5488 21.8402L19.4212 21.3575C19.3918 21.2294 19.3198 20.993 19.2511 20.8156C18.9731 20.0964 18.5283 19.4955 18.0573 19.0226C17.5797 18.5497 17.076 18.1885 16.5985 17.8798C16.1242 17.5744 15.6663 17.3248 15.2443 17.0982C14.4757 16.691 13.8281 16.3594 13.3505 16.0999V16.0966C13.3014 16.0737 13.2557 16.0474 13.2132 16.0211C12.7552 15.765 12.4837 15.6106 12.451 15.5909C12.4608 15.6073 12.5034 15.6664 12.5819 15.7781C12.6767 15.8963 12.8108 16.0802 13.0005 16.2937C13.1902 16.5038 13.4225 16.7698 13.7038 17.0424C13.9883 17.3183 14.3154 17.6204 14.672 17.9356C15.0252 18.2476 15.4046 18.5858 15.8102 18.9438L15.8527 18.9832C16.0784 19.1967 16.3074 19.4167 16.52 19.6465V19.6564H16.5298L16.5396 19.6663V19.6761H16.5494L16.5592 19.6892V19.6958H16.5691L16.5789 19.709V19.7155H16.5854L16.6017 19.7319V19.7352H16.605L16.6214 19.7516V19.7549C16.641 19.7746 16.6606 19.7976 16.6803 19.8206V19.8337H16.6901L16.6999 19.8436V19.8534H16.7097L16.7195 19.8633V19.8731H16.7261L16.7391 19.8863V19.8929H16.7424L16.7587 19.9093V19.9125C16.7849 19.9421 16.8111 19.975 16.8373 20.0045V20.0111H16.8405L16.8569 20.0308C16.8732 20.0505 16.8863 20.0702 16.9027 20.0899C16.9354 20.1293 16.9648 20.1687 16.9943 20.2081C17.027 20.2541 17.0597 20.3001 17.0924 20.346V20.3493C17.1186 20.3854 17.1447 20.4248 17.1709 20.4642V20.4676H17.1742C17.1872 20.484 17.197 20.5037 17.2101 20.5233V20.5267C17.2298 20.5562 17.2494 20.589 17.269 20.6219V20.6252H17.2723C17.3279 20.7171 17.3802 20.8124 17.426 20.9109V20.9207H17.4326L17.4456 20.9503V20.9601H17.4522L17.4652 20.993V20.9995H17.4685L17.4849 21.0357V21.0389H17.4882C17.5012 21.0685 17.5143 21.1013 17.5241 21.1309V21.1375H17.5274C17.5405 21.1703 17.5536 21.1998 17.5634 21.2327V21.236H17.5666L17.583 21.2885V21.2951H17.5863C17.5928 21.3115 17.5994 21.3312 17.6059 21.3476V21.3575C17.6124 21.3772 17.619 21.3969 17.6255 21.4166C17.6615 21.5348 17.6811 21.6005 17.7204 21.7778L17.812 22.2244C17.8709 22.543 17.9493 22.8582 18.018 23.1768C18.1096 23.6069 18.2143 24.0339 18.332 24.4542C18.0377 24.2178 17.7367 24.0142 17.4391 23.8664L14.4103 22.323L14.3743 22.3032C14.3154 22.2737 14.2565 22.2409 14.1977 22.208V22.2047H14.1944C14.1126 22.1555 14.0276 22.1029 13.9425 22.0471H13.9393L13.8837 22.0077H13.8804L13.8248 21.9683C13.779 21.9354 13.7332 21.9026 13.6874 21.8698H13.6841C13.6318 21.8304 13.5795 21.791 13.5271 21.7515C13.4944 21.7253 13.4617 21.699 13.429 21.6727C13.3505 21.6103 13.272 21.5414 13.1935 21.4757C12.9645 21.2754 12.7389 21.0554 12.523 20.8222C12.4641 20.7565 12.4052 20.6941 12.3464 20.6252C12.2711 20.5398 12.2024 20.4577 12.1305 20.369H12.1272C11.9768 20.1818 11.8328 19.9914 11.6987 19.7976V19.7943H11.6955C11.63 19.6958 11.5646 19.6006 11.4992 19.5021V19.4988C11.4174 19.3674 11.3389 19.2361 11.2637 19.1047V19.1014C11.2146 19.016 11.1689 18.9307 11.1263 18.8453L11.1067 18.8059L11.0871 18.7665C11.0446 18.6811 11.0053 18.5957 10.9693 18.5103C10.917 18.3921 10.8712 18.2739 10.832 18.1557V18.1524H10.8287C10.8189 18.1162 10.8058 18.0801 10.7927 18.044L9.154 12.8751C9.14092 12.8357 9.12784 12.7996 9.11802 12.7602V12.7569C9.11148 12.7339 9.10494 12.7109 9.0984 12.6879V12.6781H9.09513C9.08859 12.6551 9.08531 12.6354 9.07877 12.6124V12.5993H9.0755C9.06896 12.573 9.06569 12.55 9.05915 12.5237V12.5205C9.05261 12.4876 9.04606 12.4548 9.03952 12.4252V12.4219C9.03298 12.3792 9.02644 12.3398 9.0199 12.2971V12.2446H9.01336C8.99046 12.0344 8.997 11.8505 9.03298 11.6896H9.03952V11.6601C9.04279 11.6436 9.04934 11.6272 9.05261 11.6108H9.05915V11.5878C9.0755 11.5418 9.09186 11.4959 9.11475 11.4532H9.11802V11.4433C9.12457 11.4335 9.12784 11.4236 9.13438 11.4138H9.13765V11.4072C9.14746 11.3875 9.16054 11.3711 9.17036 11.3547H9.1769V11.3448C9.1998 11.312 9.22269 11.2824 9.24886 11.2561H9.2554V11.2463L9.26848 11.2364H9.27502V11.2266L9.28811 11.2167H9.29465V11.2102L9.311 11.1938H9.31427V11.1905C9.34044 11.1708 9.36661 11.1543 9.39278 11.1346C9.41567 11.1215 9.43857 11.1084 9.46146 11.0952H9.47128V11.0919C9.48436 11.0854 9.49417 11.0821 9.50398 11.0755H9.51053V11.0722C9.52688 11.069 9.53997 11.0624 9.55632 11.0558H9.57267V11.0525C9.6152 11.0361 9.65772 11.0263 9.70678 11.0164H9.7493V11.0099C9.80163 11.0033 9.85724 11 9.91284 11C10.0142 11 10.1254 11.0099 10.2399 11.0361H10.253C10.2824 11.0427 10.3086 11.0493 10.3381 11.0558C10.3838 11.069 10.4296 11.0821 10.4754 11.0952H10.4787C10.4983 11.1018 10.518 11.1084 10.5376 11.1149H10.5408C10.5572 11.1215 10.5768 11.1281 10.5965 11.1346C10.6619 11.1576 10.724 11.1839 10.7927 11.2135V11.2167H10.796C10.845 11.2364 10.8941 11.2594 10.9464 11.2824L12.1894 11.8867L19.2381 15.3085L19.6109 15.4891C19.6698 15.5154 19.732 15.5482 19.7908 15.5811V15.5843H19.7941L19.8301 15.6041C19.8628 15.6238 19.8955 15.6434 19.9282 15.6632C20.0885 15.7617 20.2488 15.8733 20.3992 15.9981C20.4483 16.0375 20.4941 16.0737 20.5366 16.1164H20.5399C20.7197 16.274 20.8898 16.4447 21.0501 16.6286V16.6319C21.0894 16.6779 21.1286 16.7239 21.1679 16.7698C21.194 16.8027 21.2202 16.8355 21.2464 16.8684H21.2496C21.3085 16.9439 21.3674 17.0227 21.423 17.1048H21.4263C21.508 17.2197 21.5865 17.3412 21.6618 17.4595V17.4627C21.6814 17.4956 21.701 17.5251 21.7207 17.558V17.5613C21.7468 17.6072 21.773 17.6499 21.7991 17.6959V17.6992C21.8777 17.8404 21.9496 17.9816 22.015 18.1294V18.1327H22.0183L22.0346 18.1721C22.0543 18.218 22.0739 18.264 22.0935 18.31V18.3133C22.1066 18.3428 22.1197 18.3757 22.1328 18.4085V18.4118C22.1688 18.5005 22.2015 18.5924 22.2309 18.6811V18.6877H22.2342L22.2505 18.7435V18.7468H22.2538C22.2734 18.8124 22.293 18.8781 22.3094 18.9438C22.316 18.9701 22.3225 18.993 22.329 19.0193V19.0226H22.3323C22.3356 19.0489 22.3421 19.0752 22.3486 19.0982V19.1014C22.3716 19.1999 22.3912 19.2985 22.4075 19.3937V19.4003C22.4272 19.5053 22.4402 19.6104 22.4468 19.7122V19.7352H22.45C22.4533 19.7779 22.4566 19.8206 22.4566 19.86L22.643 24.2802L23.0257 33.2584C23.029 33.3701 23.0355 33.4784 23.0388 33.5868V33.5934C23.0453 33.8101 23.0519 34.0235 23.0584 34.2239V34.2436C23.0781 34.989 23.0781 35.6064 23.0584 35.9643V35.9742C23.0519 36.0694 23.0453 36.145 23.0388 36.2008V36.2073C23.0323 36.2402 23.029 36.2632 23.0225 36.2796H23.0192V36.2927C23.0159 36.3026 23.0094 36.3059 23.0061 36.3059C23.0028 36.3059 23.0028 36.3059 22.9995 36.3026ZM38.7782 14.3792C38.3661 14.3792 37.8656 14.5302 37.2932 14.8487L27.7717 20.1785C25.7929 21.2819 24.2032 24.0602 24.2392 26.349L24.4682 41.8557C24.5041 44.1413 24.6121 46 24.7135 46C24.8149 45.9901 25.2368 44.1413 25.6587 41.8885L26.3914 37.9577C26.3914 37.9577 26.411 37.8526 26.4438 37.6588L26.6793 36.3978C26.7087 36.2435 26.7447 36.0859 26.7872 35.9282C26.7905 35.925 26.7905 35.9216 26.7905 35.9184C26.8134 35.8034 26.8428 35.6852 26.8657 35.5637C26.9704 35.0744 27.0849 34.5227 27.232 33.9283C27.3662 33.3306 27.5133 32.687 27.6932 32.0138C27.8568 31.334 28.0432 30.6214 28.2493 29.8891C28.4488 29.1535 28.6614 28.3982 28.8871 27.633C28.9492 27.4459 29.0048 27.2554 29.0637 27.0616L29.1095 26.9172L29.1684 26.7398L29.2633 26.4508C29.345 26.2439 29.4464 25.9878 29.5445 25.7875C29.6427 25.5773 29.7441 25.3737 29.8586 25.1767C30.2936 24.382 30.8267 23.6858 31.3762 23.0454C31.9257 22.4083 32.5047 21.8369 33.0705 21.3082C33.6397 20.7861 34.1957 20.3001 34.7256 19.8502C35.2489 19.4035 35.7461 18.9799 36.1975 18.5891C36.6456 18.1951 37.0479 17.8273 37.3848 17.4857C37.7184 17.1409 38.0062 16.8322 38.2123 16.5498C38.4184 16.2707 38.5721 16.0375 38.6604 15.87C38.752 15.6993 38.8011 15.6073 38.8011 15.6073C38.8011 15.6073 38.7913 15.7124 38.7716 15.9062C38.7389 16.0999 38.6899 16.3889 38.5656 16.7436C38.4413 17.0917 38.2647 17.512 38.0095 17.9652C37.7609 18.4151 37.4404 18.9044 37.0675 19.4068C36.3283 20.415 35.3732 21.4921 34.4018 22.6283C33.9144 23.1932 33.4271 23.7777 32.9724 24.3787C32.5178 24.9829 32.0925 25.6036 31.7556 26.2439C31.6706 26.4016 31.5954 26.5625 31.5201 26.7234C31.4449 26.8909 31.3991 27.0091 31.3337 27.1799L31.2323 27.4656L31.193 27.5772L31.144 27.7217C31.0818 27.9187 31.0197 28.1092 30.9575 28.2997C30.6991 29.0615 30.4473 29.8169 30.1726 30.536C30.1202 30.6674 30.0679 30.802 30.0156 30.9301C30.3394 30.6575 30.6665 30.4145 31.0001 30.2208L33.8424 28.5591C35.7951 27.413 37.859 24.6644 38.4282 22.4478L39.8543 16.8684C40.2599 15.2921 39.7921 14.3792 38.7814 14.3792H38.7782Z" fill="url(#paint0_linear_98_91)"/>
<defs>
<linearGradient id="paint0_linear_98_91" x1="40.0451" y1="11" x2="9.12289" y2="10.8913" gradientUnits="userSpaceOnUse">
<stop stop-color="#AD8153"/>
<stop offset="0.25" stop-color="#E2B36C"/>
<stop offset="0.5" stop-color="#FDECD6"/>
<stop offset="0.75" stop-color="#DCAC64"/>
<stop offset="1" stop-color="#AF8352"/>
</linearGradient>
</defs>
</svg>
