<svg width="1158" height="728" viewBox="0 0 1158 728" fill="none" xmlns="http://www.w3.org/2000/svg">
<g clip-path="url(#clip0_85_88)">
<rect width="1158" height="728" rx="20" fill="#0C0C0C"/>
<path fill-rule="evenodd" clip-rule="evenodd" d="M685.789 178.823V178.699H685.665C683.42 176.721 677.807 160.274 670.698 135.542L669.202 130.346C667.082 122.804 664.837 114.518 662.468 105.862V105.739C659.224 93.6196 655.858 80.6349 652.49 67.0312L646.629 43.289C646.629 43.289 646.005 40.1963 645.133 34.5079C644.134 28.8196 642.888 20.411 640.768 9.90002C638.771 -0.612319 636.651 -13.3491 633.534 -27.6939C630.541 -42.1633 627.299 -58.6092 623.307 -76.17C619.316 -93.7308 615.076 -112.774 610.587 -132.931C610.088 -134.663 609.588 -136.517 609.214 -138.248V-138.372L608.467 -141.34C607.718 -144.431 606.969 -147.647 606.222 -150.739V-150.987H606.097L605.473 -153.953C602.23 -167.557 599.113 -181.531 595.62 -195.752C594.623 -199.586 593.625 -203.42 592.628 -207.252V-207.623L591.879 -210.22V-210.591L591.131 -213.312V-213.56L590.382 -216.404V-216.528L589.634 -219.496C586.267 -233.593 582.9 -248.062 579.407 -262.53C576.663 -273.907 573.671 -285.283 570.678 -296.785C569.556 -301.731 568.308 -306.801 567.186 -311.749V-311.872C566.437 -315.087 565.689 -318.303 564.94 -321.517L562.695 -331.287C559.828 -342.787 557.084 -354.412 554.215 -365.788L549.351 -383.967C548.229 -388.79 545.485 -397.694 542.866 -404.371C532.266 -431.454 515.304 -454.084 497.345 -471.891C479.137 -489.699 459.931 -503.301 441.723 -514.926C423.639 -526.427 406.178 -535.824 390.09 -544.358C360.782 -559.693 336.089 -572.182 317.881 -581.952V-582.075C316.01 -582.94 314.265 -583.929 312.643 -584.92C295.183 -594.565 284.831 -600.377 283.585 -601.119C283.959 -600.501 285.58 -598.275 288.573 -594.071C292.19 -589.619 297.303 -582.694 304.537 -574.655C311.77 -566.741 320.625 -556.725 331.35 -546.46C342.2 -536.072 354.672 -524.696 368.266 -512.823C381.735 -501.075 396.202 -488.339 411.666 -474.86L413.287 -473.375C421.893 -465.337 430.623 -457.052 438.729 -448.396V-448.025H439.103L439.478 -447.653V-447.282H439.852L440.226 -446.788V-446.54H440.601L440.974 -446.045V-445.799H441.223L441.847 -445.18V-445.056H441.972L442.596 -444.439V-444.314C443.343 -443.573 444.092 -442.707 444.841 -441.842V-441.347H445.215L445.588 -440.976V-440.605H445.963L446.337 -440.234V-439.863H446.587L447.086 -439.368V-439.12H447.21L447.833 -438.502V-438.379C448.831 -437.266 449.828 -436.029 450.827 -434.917V-434.669H450.951L451.575 -433.926C452.199 -433.185 452.697 -432.443 453.321 -431.701C454.569 -430.217 455.691 -428.732 456.814 -427.249C458.06 -425.518 459.307 -423.786 460.555 -422.055V-421.932C461.553 -420.572 462.55 -419.087 463.548 -417.604V-417.479H463.673C464.171 -416.861 464.545 -416.119 465.044 -415.378V-415.253C465.793 -414.141 466.541 -412.904 467.289 -411.667V-411.544H467.414C469.534 -408.082 471.529 -404.494 473.275 -400.785V-400.414H473.525L474.024 -399.302V-398.931H474.273L474.772 -397.694V-397.446H474.897L475.52 -396.086V-395.963H475.645C476.144 -394.849 476.643 -393.612 477.017 -392.5V-392.252H477.142C477.641 -391.015 478.139 -389.903 478.513 -388.666V-388.543H478.638L479.262 -386.564V-386.317H479.387C479.636 -385.698 479.886 -384.956 480.134 -384.338V-383.967C480.384 -383.225 480.633 -382.483 480.883 -381.741C482.254 -377.29 483.003 -374.816 484.499 -368.139L487.992 -351.32C490.237 -339.325 493.23 -327.453 495.849 -315.458C499.341 -299.258 503.331 -283.182 507.821 -267.353C496.597 -276.257 485.123 -283.923 473.774 -289.488L358.288 -347.61L356.917 -348.352C354.672 -349.466 352.427 -350.701 350.182 -351.938V-352.063H350.057C346.939 -353.917 343.697 -355.895 340.454 -357.997H340.329L338.209 -359.482H338.085L335.964 -360.966C334.219 -362.202 332.473 -363.439 330.726 -364.676H330.601C328.606 -366.16 326.611 -367.643 324.615 -369.128C323.369 -370.117 322.121 -371.105 320.874 -372.096C317.881 -374.445 314.888 -377.042 311.895 -379.515C303.164 -387.058 294.559 -395.344 286.328 -404.125C284.084 -406.597 281.838 -408.947 279.594 -411.544C276.725 -414.759 274.106 -417.85 271.362 -421.19H271.238C265.501 -428.238 260.013 -435.411 254.9 -442.707V-442.831H254.775C252.281 -446.54 249.787 -450.127 247.292 -453.836V-453.961C244.174 -458.907 241.181 -463.853 238.313 -468.8V-468.923C236.442 -472.139 234.696 -475.354 233.075 -478.569L232.327 -480.053L231.578 -481.537C229.957 -484.753 228.461 -487.967 227.089 -491.182C225.093 -495.635 223.347 -500.086 221.851 -504.538V-504.663H221.726C221.352 -506.023 220.853 -507.383 220.354 -508.743L157.872 -703.388C157.373 -704.872 156.874 -706.233 156.5 -707.717V-707.84C156.251 -708.706 156.001 -709.572 155.752 -710.437V-710.808H155.627C155.378 -711.674 155.253 -712.416 155.004 -713.281V-713.776H154.879C154.629 -714.765 154.505 -715.631 154.255 -716.62V-716.744C154.006 -717.981 153.756 -719.217 153.507 -720.33V-720.454C153.258 -722.062 153.008 -723.546 152.759 -725.153V-727.132H152.509C151.636 -735.046 151.886 -741.971 153.258 -748.031H153.507V-749.144C153.632 -749.762 153.881 -750.38 154.006 -750.999H154.255V-751.864C154.879 -753.596 155.502 -755.327 156.375 -756.934H156.5V-757.306C156.75 -757.676 156.874 -758.047 157.124 -758.419H157.248V-758.666C157.623 -759.408 158.121 -760.026 158.496 -760.644H158.745V-761.015C159.618 -762.252 160.491 -763.365 161.489 -764.354H161.738V-764.725L162.237 -765.096H162.486V-765.467L162.985 -765.838H163.235V-766.086L163.858 -766.704H163.983V-766.828C164.981 -767.57 165.978 -768.188 166.976 -768.93C167.849 -769.424 168.722 -769.919 169.595 -770.414H169.969V-770.537C170.468 -770.785 170.842 -770.908 171.216 -771.156H171.466V-771.279C172.089 -771.403 172.588 -771.65 173.212 -771.898H173.836V-772.021C175.457 -772.64 177.078 -773.011 178.949 -773.382H180.57V-773.629C182.566 -773.876 184.686 -774 186.806 -774C190.672 -774 194.912 -773.629 199.277 -772.64H199.776C200.899 -772.392 201.896 -772.145 203.019 -771.898C204.765 -771.403 206.511 -770.908 208.257 -770.414H208.381C209.13 -770.166 209.878 -769.919 210.626 -769.672H210.751C211.375 -769.424 212.123 -769.177 212.871 -768.93C215.365 -768.064 217.735 -767.075 220.354 -765.962V-765.838H220.479C222.35 -765.096 224.22 -764.231 226.216 -763.365L273.607 -740.611L542.367 -611.755L556.585 -604.953C558.83 -603.964 561.199 -602.727 563.444 -601.49V-601.367H563.569L564.94 -600.625C566.188 -599.882 567.436 -599.141 568.682 -598.399C574.793 -594.688 580.905 -590.485 586.641 -585.785C588.511 -584.301 590.257 -582.94 591.879 -581.332H592.004C598.863 -575.398 605.348 -568.967 611.459 -562.042V-561.918C612.956 -560.187 614.452 -558.456 615.949 -556.725C616.947 -555.488 617.944 -554.251 618.942 -553.014H619.067C621.312 -550.171 623.557 -547.202 625.677 -544.111H625.801C628.92 -539.783 631.912 -535.207 634.781 -530.755V-530.632C635.529 -529.395 636.277 -528.282 637.026 -527.045V-526.921C638.024 -525.19 639.021 -523.582 640.019 -521.851V-521.728C643.013 -516.41 645.755 -511.092 648.25 -505.528V-505.404H648.375L648.998 -503.92C649.747 -502.189 650.495 -500.458 651.243 -498.726V-498.603C651.742 -497.49 652.24 -496.253 652.74 -495.016V-494.893C654.112 -491.553 655.359 -488.091 656.482 -484.753V-484.505H656.606L657.229 -482.402V-482.279H657.354C658.103 -479.805 658.851 -477.333 659.474 -474.86C659.724 -473.871 659.973 -473.005 660.223 -472.015V-471.891H660.347C660.472 -470.902 660.722 -469.912 660.971 -469.047V-468.923C661.844 -465.214 662.592 -461.504 663.216 -457.918V-457.67C663.965 -453.713 664.463 -449.756 664.712 -445.922V-445.056H664.837C664.962 -443.448 665.087 -441.842 665.087 -440.357L672.195 -273.907L686.786 64.1878C686.911 68.3927 687.161 72.473 687.285 76.5533V76.8012C687.535 84.9632 687.785 93.0006 688.034 100.545V101.286C688.783 129.358 688.783 152.607 688.034 166.086V166.457C687.785 170.043 687.535 172.888 687.285 174.989V175.237C687.036 176.474 686.911 177.339 686.663 177.957H686.538V178.451C686.413 178.823 686.164 178.947 686.039 178.947C685.914 178.947 685.914 178.947 685.789 178.823ZM1287.41 -646.751C1271.7 -646.751 1252.62 -641.062 1230.79 -629.068L867.748 -428.363C792.296 -386.812 731.684 -282.192 733.057 -195.999L741.787 387.938C743.158 474.006 747.273 544 751.139 544C755.006 543.629 771.094 474.006 787.182 389.174L815.119 241.149C815.119 241.149 815.866 237.192 817.114 229.896L826.093 182.41C827.215 176.597 828.588 170.662 830.209 164.726C830.333 164.602 830.333 164.478 830.333 164.355C831.207 160.026 832.329 155.575 833.202 150.999C837.193 132.574 841.558 111.798 847.17 89.4147C852.284 66.9079 857.895 42.6699 864.755 17.3196C870.99 -8.27851 878.099 -35.1135 885.956 -62.6908C893.563 -90.3914 901.67 -118.833 910.275 -147.647C912.645 -154.696 914.765 -161.869 917.01 -169.165L918.757 -174.605L921 -181.283L924.618 -192.166C927.736 -199.957 931.602 -209.602 935.343 -217.145C939.085 -225.061 942.951 -232.727 947.316 -240.147C963.903 -270.073 984.231 -296.29 1005.18 -320.404C1026.14 -344.395 1048.21 -365.912 1069.79 -385.821C1091.49 -405.485 1112.69 -423.787 1132.89 -440.728C1152.85 -457.547 1171.8 -473.499 1189.01 -488.215C1206.1 -503.055 1221.44 -516.905 1234.28 -529.766C1247 -542.75 1257.98 -554.374 1265.84 -565.01C1273.69 -575.521 1279.56 -584.301 1282.92 -590.608C1286.41 -597.039 1288.29 -600.501 1288.29 -600.501C1288.29 -600.501 1287.91 -596.544 1287.16 -589.248C1285.92 -581.952 1284.05 -571.069 1279.31 -557.714C1274.57 -544.606 1267.83 -528.776 1258.11 -511.711C1248.63 -494.769 1236.4 -476.343 1222.19 -457.423C1194 -419.458 1157.58 -378.896 1120.54 -336.11C1101.96 -314.84 1083.38 -292.828 1066.04 -270.198C1048.71 -247.443 1032.5 -224.071 1019.65 -199.957C1016.41 -194.021 1013.54 -187.961 1010.67 -181.902C1007.8 -175.594 1006.06 -171.143 1003.56 -164.712L999.696 -153.953L998.199 -149.75L996.329 -144.308C993.959 -136.888 991.59 -129.717 989.22 -122.544C979.367 -93.854 969.764 -65.4111 959.289 -38.3295C957.293 -33.3822 955.298 -28.313 953.303 -23.489C965.649 -33.7534 978.121 -42.9043 990.841 -50.2006L1099.22 -112.774C1173.67 -155.932 1252.37 -259.439 1274.07 -342.91L1328.44 -553.014C1343.91 -612.372 1326.07 -646.751 1287.54 -646.751H1287.41Z" fill="white" fill-opacity="0.02"/>
</g>
<defs>
<clipPath id="clip0_85_88">
<rect width="1158" height="728" rx="20" fill="white"/>
</clipPath>
</defs>
</svg>
