<svg width="300" height="1236" viewBox="0 0 300 1236" fill="none" xmlns="http://www.w3.org/2000/svg">
<g clip-path="url(#clip0_73_181)">
<rect y="0.895264" width="300" height="1235" rx="15" fill="#0C0C0C"/>
<path fill-rule="evenodd" clip-rule="evenodd" d="M309.789 1076.72V1076.59H309.665C307.42 1074.62 301.807 1058.17 294.698 1033.44L293.202 1028.24C291.082 1020.7 288.837 1012.41 286.468 1003.76V1003.63C283.224 991.515 279.858 978.53 276.49 964.926L270.629 941.184C270.629 941.184 270.005 938.092 269.133 932.403C268.134 926.715 266.888 918.306 264.768 907.795C262.771 897.283 260.651 884.546 257.534 870.201C254.541 855.732 251.299 839.286 247.307 821.725C243.316 804.165 239.076 785.122 234.587 764.964C234.088 763.233 233.588 761.378 233.214 759.647V759.524L232.467 756.555C231.718 753.464 230.969 750.248 230.222 747.157V746.909H230.097L229.473 743.942C226.23 730.338 223.113 716.365 219.62 702.143C218.623 698.309 217.625 694.476 216.628 690.643V690.272L215.879 687.675V687.304L215.131 684.584V684.336L214.382 681.491V681.368L213.634 678.4C210.267 664.303 206.9 649.833 203.407 635.365C200.663 623.989 197.671 612.612 194.678 601.111C193.556 596.165 192.308 591.094 191.186 586.147V586.023C190.437 582.809 189.689 579.593 188.94 576.378L186.695 566.608C183.828 555.108 181.084 543.484 178.215 532.107L173.351 513.928C172.229 509.106 169.485 500.201 166.866 493.524C156.266 466.441 139.304 443.811 121.345 426.004C103.137 408.197 83.9313 394.594 65.7233 382.97C47.639 371.468 30.1784 362.071 14.0905 353.538C-15.2179 338.203 -39.911 325.714 -58.119 315.944V315.82C-59.9904 314.955 -61.7354 313.966 -63.3567 312.976C-80.8172 303.33 -91.1687 297.519 -92.415 296.776C-92.0412 297.394 -90.4199 299.62 -87.4274 303.825C-83.8097 308.276 -78.6971 315.201 -71.4631 323.24C-64.2305 331.154 -55.3752 341.171 -44.6499 351.435C-33.7996 361.823 -21.328 373.2 -7.73384 385.072C5.73529 396.82 20.2019 409.557 35.6661 423.036L37.2874 424.52C45.8926 432.558 54.6229 440.843 62.7294 449.5V449.871H63.1031L63.4782 450.242V450.613H63.8519L64.2257 451.108V451.355H64.6007L64.9745 451.85V452.096H65.2232L65.847 452.716V452.839H65.972L66.5957 453.457V453.581C67.3432 454.322 68.092 455.188 68.8408 456.054V456.548H69.2146L69.5883 456.919V457.29H69.9634L70.3371 457.662V458.033H70.5872L71.0859 458.527V458.775H71.2096L71.8334 459.393V459.516C72.8309 460.63 73.8284 461.866 74.8273 462.979V463.227H74.9509L75.5747 463.969C76.1985 464.71 76.6973 465.452 77.321 466.195C78.5686 467.678 79.6911 469.163 80.8137 470.646C82.0599 472.377 83.3075 474.109 84.555 475.84V475.963C85.5525 477.323 86.5501 478.808 87.5476 480.292V480.416H87.6726C88.1714 481.034 88.5451 481.776 89.0439 482.517V482.642C89.7927 483.754 90.5415 484.991 91.2889 486.228V486.351H91.414C93.534 489.814 95.529 493.401 97.2754 497.11V497.481H97.5254L98.0242 498.593V498.965H98.2729L98.7716 500.201V500.449H98.8967L99.5204 501.809V501.933H99.6454C100.144 503.046 100.643 504.283 101.017 505.395V505.643H101.142C101.641 506.88 102.139 507.992 102.513 509.229V509.352H102.638L103.262 511.331V511.578H103.387C103.636 512.197 103.886 512.939 104.134 513.557V513.928C104.384 514.671 104.633 515.412 104.883 516.154C106.254 520.606 107.003 523.079 108.499 529.757L111.992 546.575C114.237 558.571 117.23 570.442 119.849 582.438C123.341 598.637 127.331 614.713 131.821 630.543C120.597 621.638 109.123 613.972 97.7741 608.407L-17.7117 550.285L-19.0829 549.543C-21.328 548.43 -23.5731 547.194 -25.8181 545.957V545.833H-25.9432C-29.0607 543.978 -32.3033 542 -35.5459 539.898H-35.6709L-37.791 538.413H-37.9147L-40.0361 536.93C-41.781 535.693 -43.5274 534.456 -45.2737 533.219H-45.3987C-47.3937 531.736 -49.3888 530.252 -51.3851 528.768C-52.6314 527.779 -53.8789 526.79 -55.1265 525.8C-58.119 523.45 -61.1116 520.854 -64.1055 518.38C-72.8357 510.837 -81.441 502.552 -89.6725 493.771C-91.9162 491.298 -94.1617 488.948 -96.4065 486.351C-99.275 483.136 -101.894 480.045 -104.638 476.706H-104.762C-110.499 469.657 -115.987 462.484 -121.1 455.188V455.065H-121.225C-123.719 451.355 -126.213 447.768 -128.708 444.059V443.934C-131.826 438.989 -134.819 434.043 -137.687 429.095V428.972C-139.558 425.756 -141.304 422.541 -142.925 419.327L-143.673 417.842L-144.422 416.358C-146.043 413.142 -147.539 409.928 -148.911 406.713C-150.907 402.26 -152.653 397.809 -154.149 393.357V393.233H-154.274C-154.648 391.873 -155.147 390.512 -155.646 389.152L-218.128 194.507C-218.627 193.023 -219.126 191.663 -219.5 190.179V190.055C-219.749 189.189 -219.999 188.324 -220.248 187.458V187.087H-220.373C-220.622 186.221 -220.747 185.479 -220.996 184.614V184.119H-221.121C-221.371 183.13 -221.495 182.264 -221.745 181.275V181.151C-221.994 179.915 -222.244 178.678 -222.493 177.565V177.441C-222.742 175.834 -222.992 174.35 -223.241 172.742V170.763H-223.491C-224.364 162.849 -224.114 155.924 -222.742 149.864H-222.493V148.751C-222.368 148.133 -222.119 147.515 -221.994 146.897H-221.745V146.031C-221.121 144.3 -220.498 142.568 -219.625 140.961H-219.5V140.59C-219.25 140.219 -219.126 139.848 -218.876 139.477H-218.752V139.229C-218.377 138.488 -217.879 137.869 -217.504 137.251H-217.255V136.88C-216.382 135.643 -215.509 134.53 -214.511 133.541H-214.262V133.17L-213.763 132.799H-213.514V132.428L-213.015 132.057H-212.765V131.81L-212.142 131.191H-212.017V131.068C-211.019 130.326 -210.022 129.707 -209.024 128.965C-208.151 128.471 -207.278 127.976 -206.405 127.481H-206.031V127.358C-205.532 127.111 -205.158 126.987 -204.784 126.74H-204.534V126.616C-203.911 126.492 -203.412 126.245 -202.788 125.998H-202.164V125.874C-200.543 125.256 -198.922 124.885 -197.051 124.514H-195.43V124.266C-193.434 124.019 -191.314 123.895 -189.194 123.895C-185.328 123.895 -181.088 124.266 -176.723 125.256H-176.224C-175.101 125.503 -174.104 125.75 -172.981 125.998C-171.235 126.492 -169.489 126.987 -167.743 127.481H-167.619C-166.87 127.729 -166.122 127.976 -165.374 128.223H-165.249C-164.625 128.471 -163.877 128.718 -163.129 128.965C-160.635 129.831 -158.265 130.82 -155.646 131.933V132.057H-155.521C-153.65 132.799 -151.78 133.665 -149.784 134.53L-102.393 157.284L166.367 286.141L180.585 292.943C182.83 293.931 185.199 295.168 187.444 296.405V296.528H187.569L188.94 297.271C190.188 298.013 191.436 298.754 192.682 299.496C198.793 303.207 204.905 307.411 210.641 312.11C212.511 313.595 214.257 314.955 215.879 316.563H216.004C222.863 322.498 229.348 328.928 235.459 335.854V335.977C236.956 337.708 238.452 339.439 239.949 341.171C240.947 342.408 241.944 343.644 242.942 344.881H243.067C245.312 347.725 247.557 350.693 249.677 353.784H249.801C252.92 358.112 255.912 362.689 258.781 367.14V367.263C259.529 368.5 260.277 369.614 261.026 370.851V370.974C262.024 372.705 263.021 374.313 264.019 376.044V376.168C267.013 381.485 269.755 386.803 272.25 392.367V392.492H272.375L272.998 393.975C273.747 395.706 274.495 397.438 275.243 399.169V399.292C275.742 400.406 276.24 401.643 276.74 402.879V403.003C278.112 406.342 279.359 409.805 280.482 413.142V413.39H280.606L281.229 415.493V415.616H281.354C282.103 418.09 282.851 420.562 283.474 423.036C283.724 424.025 283.973 424.89 284.223 425.881V426.004H284.347C284.472 426.993 284.722 427.983 284.971 428.849V428.972C285.844 432.681 286.592 436.392 287.216 439.977V440.225C287.965 444.182 288.463 448.139 288.712 451.973V452.839H288.837C288.962 454.447 289.087 456.054 289.087 457.538L296.195 623.989L310.786 962.083C310.911 966.288 311.161 970.368 311.285 974.449V974.696C311.535 982.858 311.785 990.896 312.034 998.44V999.181C312.783 1027.25 312.783 1050.5 312.034 1063.98V1064.35C311.785 1067.94 311.535 1070.78 311.285 1072.88V1073.13C311.036 1074.37 310.911 1075.23 310.663 1075.85H310.538V1076.35C310.413 1076.72 310.164 1076.84 310.039 1076.84C309.914 1076.84 309.914 1076.84 309.789 1076.72ZM911.413 251.144C895.699 251.144 876.617 256.833 854.792 268.828L491.748 469.533C416.296 511.084 355.684 615.703 357.057 701.897L365.787 1285.83C367.158 1371.9 371.273 1441.9 375.139 1441.9C379.006 1441.52 395.094 1371.9 411.182 1287.07L439.119 1139.04C439.119 1139.04 439.866 1135.09 441.114 1127.79L450.093 1080.31C451.215 1074.49 452.588 1068.56 454.209 1062.62C454.333 1062.5 454.333 1062.37 454.333 1062.25C455.207 1057.92 456.329 1053.47 457.202 1048.89C461.193 1030.47 465.558 1009.69 471.17 987.31C476.284 964.803 481.895 940.565 488.755 915.215C494.99 889.617 502.099 862.782 509.956 835.204C517.563 807.504 525.67 779.062 534.275 750.248C536.645 743.2 538.765 736.027 541.01 728.73L542.757 723.29L545.001 716.613L548.618 705.729C551.736 697.938 555.602 688.293 559.343 680.75C563.085 672.834 566.951 665.168 571.316 657.749C587.903 627.822 608.231 601.605 629.184 577.492C650.136 553.5 672.21 531.984 693.786 512.074C715.487 492.411 736.687 474.109 756.892 457.167C776.846 440.349 795.803 424.396 813.013 409.68C830.099 394.841 845.439 380.99 858.284 368.129C871.005 355.146 881.98 343.521 889.838 332.885C897.694 322.374 903.556 313.595 906.923 307.287C910.415 300.857 912.286 297.394 912.286 297.394C912.286 297.394 911.912 301.351 911.163 308.647C909.916 315.944 908.046 326.826 903.307 340.182C898.567 353.29 891.833 369.119 882.105 386.184C872.626 403.126 860.404 421.552 846.187 440.472C818.002 478.437 781.585 518.999 744.545 561.785C725.962 583.055 707.38 605.068 690.045 627.698C672.709 650.452 656.496 673.825 643.651 697.938C640.408 703.874 637.539 709.934 634.671 715.993C631.803 722.301 630.057 726.752 627.562 733.183L623.696 743.942L622.199 748.146L620.329 753.587C617.959 761.007 615.59 768.179 613.22 775.352C603.367 804.041 593.764 832.484 583.289 859.566C581.293 864.513 579.298 869.582 577.303 874.406C589.649 864.142 602.121 854.991 614.841 847.695L723.218 785.122C797.673 741.963 876.367 638.457 898.068 554.985L952.445 344.881C967.909 285.523 950.075 251.144 911.537 251.144H911.413Z" fill="white" fill-opacity="0.02"/>
</g>
<defs>
<clipPath id="clip0_73_181">
<rect y="0.895264" width="300" height="1235" rx="15" fill="white"/>
</clipPath>
</defs>
</svg>
