<svg width="300" height="191" viewBox="0 0 300 191" fill="none" xmlns="http://www.w3.org/2000/svg">
<g clip-path="url(#clip0_73_173)">
<rect y="0.895264" width="300" height="190" rx="15" fill="#0C0C0C"/>
<path fill-rule="evenodd" clip-rule="evenodd" d="M253.789 107.823V107.699H253.665C251.42 105.721 245.807 89.2742 238.698 64.5417L237.202 59.3465C235.082 51.8036 232.837 43.5184 230.468 34.8619V34.7387C227.224 22.6196 223.858 9.63495 220.49 -3.9688L214.629 -27.711C214.629 -27.711 214.005 -30.8038 213.133 -36.4921C212.134 -42.1804 210.888 -50.589 208.768 -61.1C206.771 -71.6123 204.651 -84.3491 201.534 -98.6939C198.541 -113.163 195.299 -129.609 191.307 -147.17C187.316 -164.731 183.076 -183.774 178.587 -203.931C178.088 -205.663 177.588 -207.517 177.214 -209.248V-209.372L176.467 -212.34C175.718 -215.431 174.969 -218.647 174.222 -221.739V-221.987H174.097L173.473 -224.953C170.23 -238.557 167.113 -252.531 163.62 -266.752C162.623 -270.586 161.625 -274.42 160.628 -278.252V-278.623L159.879 -281.22V-281.591L159.131 -284.312V-284.56L158.382 -287.404V-287.528L157.634 -290.496C154.267 -304.593 150.9 -319.062 147.407 -333.53C144.663 -344.907 141.671 -356.283 138.678 -367.785C137.556 -372.731 136.308 -377.801 135.186 -382.749V-382.872C134.437 -386.086 133.689 -389.303 132.94 -392.517L130.695 -402.287C127.828 -413.787 125.084 -425.412 122.215 -436.788L117.351 -454.967C116.229 -459.79 113.485 -468.694 110.866 -475.371C100.266 -502.454 83.304 -525.084 65.3448 -542.891C47.1368 -560.699 27.9313 -574.301 9.72326 -585.926C-8.36104 -597.427 -25.8216 -606.824 -41.9095 -615.358C-71.2179 -630.693 -95.911 -643.182 -114.119 -652.952V-653.075C-115.99 -653.94 -117.735 -654.929 -119.357 -655.92C-136.817 -665.565 -147.169 -671.377 -148.415 -672.119C-148.041 -671.501 -146.42 -669.275 -143.427 -665.071C-139.81 -660.619 -134.697 -653.694 -127.463 -645.655C-120.23 -637.741 -111.375 -627.725 -100.65 -617.46C-89.7996 -607.072 -77.328 -595.696 -63.7338 -583.823C-50.2647 -572.075 -35.7981 -559.339 -20.3339 -545.86L-18.7126 -544.375C-10.1074 -536.337 -1.3771 -528.052 6.72938 -519.396V-519.025H7.10311L7.47818 -518.653V-518.282H7.85192L8.22565 -517.788V-517.54H8.60072L8.97446 -517.045V-516.799H9.22315L9.84697 -516.18V-516.056H9.97198L10.5957 -515.439V-515.314C11.3432 -514.573 12.092 -513.707 12.8408 -512.842V-512.347H13.2146L13.5883 -511.976V-511.605H13.9634L14.3371 -511.234V-510.863H14.5872L15.0859 -510.368V-510.12H15.2096L15.8334 -509.502V-509.379C16.8309 -508.266 17.8284 -507.029 18.8273 -505.917V-505.669H18.9509L19.5747 -504.926C20.1985 -504.185 20.6973 -503.443 21.321 -502.701C22.5686 -501.217 23.6911 -499.732 24.8137 -498.249C26.0599 -496.518 27.3075 -494.787 28.555 -493.055V-492.932C29.5525 -491.572 30.5501 -490.087 31.5476 -488.604V-488.479H31.6726C32.1714 -487.861 32.5451 -487.119 33.0439 -486.378V-486.253C33.7927 -485.141 34.5415 -483.904 35.2889 -482.667V-482.544H35.414C37.534 -479.082 39.529 -475.494 41.2754 -471.785V-471.414H41.5254L42.0242 -470.302V-469.931H42.2729L42.7716 -468.694V-468.446H42.8967L43.5204 -467.086V-466.963H43.6454C44.1442 -465.849 44.643 -464.612 45.0167 -463.5V-463.252H45.1417C45.6405 -462.015 46.1392 -460.903 46.513 -459.666V-459.543H46.638L47.2618 -457.564V-457.317H47.3868C47.6355 -456.698 47.8856 -455.956 48.1343 -455.338V-454.967C48.3843 -454.225 48.633 -453.483 48.8831 -452.741C50.2543 -448.29 51.0031 -445.816 52.4994 -439.139L55.9921 -422.32C58.2371 -410.325 61.2297 -398.453 63.8485 -386.458C67.3411 -370.258 71.3312 -354.182 75.8214 -338.353C64.5973 -347.257 53.1232 -354.923 41.7741 -360.488L-73.7117 -418.61L-75.0829 -419.352C-77.328 -420.466 -79.5731 -421.701 -81.8181 -422.938V-423.063H-81.9432C-85.0607 -424.917 -88.3033 -426.895 -91.5459 -428.997H-91.6709L-93.791 -430.482H-93.9147L-96.0361 -431.966C-97.781 -433.202 -99.5274 -434.439 -101.274 -435.676H-101.399C-103.394 -437.16 -105.389 -438.643 -107.385 -440.128C-108.631 -441.117 -109.879 -442.105 -111.126 -443.096C-114.119 -445.445 -117.112 -448.042 -120.105 -450.515C-128.836 -458.058 -137.441 -466.344 -145.672 -475.125C-147.916 -477.597 -150.162 -479.947 -152.406 -482.544C-155.275 -485.759 -157.894 -488.85 -160.638 -492.19H-160.762C-166.499 -499.238 -171.987 -506.411 -177.1 -513.707V-513.831H-177.225C-179.719 -517.54 -182.213 -521.127 -184.708 -524.836V-524.961C-187.826 -529.907 -190.819 -534.853 -193.687 -539.8V-539.923C-195.558 -543.139 -197.304 -546.354 -198.925 -549.569L-199.673 -551.053L-200.422 -552.537C-202.043 -555.753 -203.539 -558.967 -204.911 -562.182C-206.907 -566.635 -208.653 -571.086 -210.149 -575.538V-575.663H-210.274C-210.648 -577.023 -211.147 -578.383 -211.646 -579.743L-274.128 -774.388C-274.627 -775.872 -275.126 -777.233 -275.5 -778.717V-778.84C-275.749 -779.706 -275.999 -780.572 -276.248 -781.437V-781.808H-276.373C-276.622 -782.674 -276.747 -783.416 -276.996 -784.281V-784.776H-277.121C-277.371 -785.765 -277.495 -786.631 -277.745 -787.62V-787.744C-277.994 -788.981 -278.244 -790.217 -278.493 -791.33V-791.454C-278.742 -793.062 -278.992 -794.546 -279.241 -796.153V-798.132H-279.491C-280.364 -806.046 -280.114 -812.971 -278.742 -819.031H-278.493V-820.144C-278.368 -820.762 -278.119 -821.38 -277.994 -821.999H-277.745V-822.864C-277.121 -824.596 -276.498 -826.327 -275.625 -827.934H-275.5V-828.306C-275.25 -828.676 -275.126 -829.047 -274.876 -829.419H-274.752V-829.666C-274.377 -830.408 -273.879 -831.026 -273.504 -831.644H-273.255V-832.015C-272.382 -833.252 -271.509 -834.365 -270.511 -835.354H-270.262V-835.725L-269.763 -836.096H-269.514V-836.467L-269.015 -836.838H-268.765V-837.086L-268.142 -837.704H-268.017V-837.828C-267.019 -838.57 -266.022 -839.188 -265.024 -839.93C-264.151 -840.424 -263.278 -840.919 -262.405 -841.414H-262.031V-841.537C-261.532 -841.785 -261.158 -841.908 -260.784 -842.156H-260.534V-842.279C-259.911 -842.403 -259.412 -842.65 -258.788 -842.898H-258.164V-843.021C-256.543 -843.64 -254.922 -844.011 -253.051 -844.382H-251.43V-844.629C-249.434 -844.876 -247.314 -845 -245.194 -845C-241.328 -845 -237.088 -844.629 -232.723 -843.64H-232.224C-231.101 -843.392 -230.104 -843.145 -228.981 -842.898C-227.235 -842.403 -225.489 -841.908 -223.743 -841.414H-223.619C-222.87 -841.166 -222.122 -840.919 -221.374 -840.672H-221.249C-220.625 -840.424 -219.877 -840.177 -219.129 -839.93C-216.635 -839.064 -214.265 -838.075 -211.646 -836.962V-836.838H-211.521C-209.65 -836.096 -207.78 -835.231 -205.784 -834.365L-158.393 -811.611L110.367 -682.755L124.585 -675.953C126.83 -674.964 129.199 -673.727 131.444 -672.49V-672.367H131.569L132.94 -671.625C134.188 -670.882 135.436 -670.141 136.682 -669.399C142.793 -665.688 148.905 -661.485 154.641 -656.785C156.511 -655.301 158.257 -653.94 159.879 -652.332H160.004C166.863 -646.398 173.348 -639.967 179.459 -633.042V-632.918C180.956 -631.187 182.452 -629.456 183.949 -627.725C184.947 -626.488 185.944 -625.251 186.942 -624.014H187.067C189.312 -621.171 191.557 -618.202 193.677 -615.111H193.801C196.92 -610.783 199.912 -606.207 202.781 -601.755V-601.632C203.529 -600.395 204.277 -599.282 205.026 -598.045V-597.921C206.024 -596.19 207.021 -594.582 208.019 -592.851V-592.728C211.013 -587.41 213.755 -582.092 216.25 -576.528V-576.404H216.375L216.998 -574.92C217.747 -573.189 218.495 -571.458 219.243 -569.726V-569.603C219.742 -568.49 220.24 -567.253 220.74 -566.016V-565.893C222.112 -562.553 223.359 -559.091 224.482 -555.753V-555.505H224.606L225.229 -553.402V-553.279H225.354C226.103 -550.805 226.851 -548.333 227.474 -545.86C227.724 -544.871 227.973 -544.005 228.223 -543.015V-542.891H228.347C228.472 -541.902 228.722 -540.912 228.971 -540.047V-539.923C229.844 -536.214 230.592 -532.504 231.216 -528.918V-528.67C231.965 -524.713 232.463 -520.756 232.712 -516.922V-516.056H232.837C232.962 -514.448 233.087 -512.842 233.087 -511.357L240.195 -344.907L254.786 -6.81219C254.911 -2.60726 255.161 1.47299 255.285 5.55332V5.80123C255.535 13.9632 255.785 22.0005 256.034 29.5448V30.2858C256.783 58.3576 256.783 81.6067 256.034 95.0858V95.457C255.785 99.0429 255.535 101.888 255.285 103.989V104.237C255.036 105.474 254.911 106.339 254.663 106.957H254.538V107.451C254.413 107.823 254.164 107.947 254.039 107.947C253.914 107.947 253.914 107.947 253.789 107.823ZM855.413 -717.751C839.699 -717.751 820.617 -712.062 798.792 -700.068L435.748 -499.363C360.296 -457.812 299.684 -353.192 301.057 -266.999L309.787 316.937C311.158 403.006 315.273 473 319.139 473C323.006 472.629 339.094 403.006 355.182 318.174L383.119 170.149C383.119 170.149 383.866 166.192 385.114 158.896L394.093 111.41C395.215 105.597 396.588 99.6619 398.209 93.7257C398.333 93.6024 398.333 93.4778 398.333 93.3545C399.207 89.0263 400.329 84.5749 401.202 79.9987C405.193 61.5736 409.558 40.7981 415.17 18.4146C420.284 -4.09211 425.895 -28.3301 432.755 -53.6803C438.99 -79.2785 446.099 -106.113 453.956 -133.691C461.563 -161.391 469.67 -189.833 478.275 -218.647C480.645 -225.696 482.765 -232.869 485.01 -240.165L486.757 -245.605L489.001 -252.283L492.618 -263.166C495.736 -270.957 499.602 -280.602 503.343 -288.145C507.085 -296.061 510.951 -303.727 515.316 -311.147C531.903 -341.073 552.231 -367.29 573.184 -391.404C594.136 -415.395 616.21 -436.912 637.786 -456.821C659.487 -476.485 680.687 -494.787 700.892 -511.728C720.846 -528.547 739.803 -544.499 757.013 -559.215C774.099 -574.055 789.439 -587.905 802.284 -600.766C815.005 -613.75 825.98 -625.374 833.838 -636.01C841.694 -646.521 847.556 -655.301 850.923 -661.608C854.415 -668.039 856.286 -671.501 856.286 -671.501C856.286 -671.501 855.912 -667.544 855.163 -660.248C853.916 -652.952 852.046 -642.069 847.307 -628.714C842.567 -615.606 835.833 -599.776 826.105 -582.711C816.626 -565.769 804.404 -547.343 790.187 -528.423C762.002 -490.458 725.585 -449.896 688.545 -407.11C669.962 -385.84 651.38 -363.828 634.045 -341.198C616.709 -318.443 600.496 -295.07 587.651 -270.957C584.408 -265.021 581.539 -258.961 578.671 -252.902C575.803 -246.594 574.057 -242.143 571.562 -235.712L567.696 -224.953L566.199 -220.75L564.329 -215.308C561.959 -207.888 559.59 -200.717 557.22 -193.544C547.367 -164.854 537.764 -136.411 527.289 -109.33C525.293 -104.382 523.298 -99.3129 521.303 -94.4889C533.649 -104.753 546.121 -113.904 558.841 -121.201L667.218 -183.774C741.673 -226.933 820.367 -330.439 842.068 -413.91L896.445 -624.014C911.909 -683.372 894.075 -717.751 855.537 -717.751H855.413Z" fill="white" fill-opacity="0.02"/>
</g>
<defs>
<clipPath id="clip0_73_173">
<rect y="0.895264" width="300" height="190" rx="15" fill="white"/>
</clipPath>
</defs>
</svg>
