<svg width="300" height="191" viewBox="0 0 300 191" fill="none" xmlns="http://www.w3.org/2000/svg">
<g clip-path="url(#clip0_73_157)">
<rect y="0.895264" width="300" height="190" rx="15" fill="#0C0C0C"/>
<path fill-rule="evenodd" clip-rule="evenodd" d="M253.789 511.718V511.595H253.665C251.42 509.617 245.807 493.17 238.698 468.437L237.202 463.242C235.082 455.699 232.837 447.414 230.468 438.757V438.634C227.224 426.515 223.858 413.53 220.49 399.926L214.629 376.184C214.629 376.184 214.005 373.092 213.133 367.403C212.134 361.715 210.888 353.306 208.768 342.795C206.771 332.283 204.651 319.546 201.534 305.201C198.541 290.732 195.299 274.286 191.307 256.725C187.316 239.165 183.076 220.122 178.587 199.964C178.088 198.233 177.588 196.378 177.214 194.647V194.524L176.467 191.555C175.718 188.464 174.969 185.248 174.222 182.157V181.909H174.097L173.473 178.942C170.23 165.338 167.113 151.365 163.62 137.143C162.623 133.309 161.625 129.476 160.628 125.643V125.272L159.879 122.675V122.304L159.131 119.584V119.336L158.382 116.491V116.368L157.634 113.4C154.267 99.3027 150.9 84.8333 147.407 70.3652C144.663 58.9886 141.671 47.6119 138.678 36.1106C137.556 31.1646 136.308 26.094 135.186 21.1467V21.0235C134.437 17.8088 133.689 14.5927 132.94 11.3781L130.695 1.60809C127.828 -9.89186 125.084 -21.5164 122.215 -32.8931L117.351 -51.0716C116.229 -55.8943 113.485 -64.7986 110.866 -71.4759C100.266 -98.5588 83.304 -121.189 65.3448 -138.996C47.1368 -156.803 27.9313 -170.406 9.72326 -182.03C-8.36104 -193.532 -25.8216 -202.929 -41.9095 -211.462C-71.2179 -226.797 -95.911 -239.286 -114.119 -249.056V-249.18C-115.99 -250.045 -117.735 -251.034 -119.357 -252.024C-136.817 -261.67 -147.169 -267.481 -148.415 -268.224C-148.041 -267.606 -146.42 -265.38 -143.427 -261.175C-139.81 -256.724 -134.697 -249.799 -127.463 -241.76C-120.23 -233.846 -111.375 -223.829 -100.65 -213.565C-89.7996 -203.177 -77.328 -191.8 -63.7338 -179.928C-50.2647 -168.18 -35.7981 -155.443 -20.3339 -141.964L-18.7126 -140.48C-10.1074 -132.442 -1.3771 -124.157 6.72938 -115.5V-115.129H7.10311L7.47818 -114.758V-114.387H7.85192L8.22565 -113.892V-113.645H8.60072L8.97446 -113.15V-112.904H9.22315L9.84697 -112.284V-112.161H9.97198L10.5957 -111.543V-111.419C11.3432 -110.678 12.092 -109.812 12.8408 -108.946V-108.452H13.2146L13.5883 -108.081V-107.71H13.9634L14.3371 -107.338V-106.967H14.5872L15.0859 -106.473V-106.225H15.2096L15.8334 -105.607V-105.484C16.8309 -104.37 17.8284 -103.134 18.8273 -102.021V-101.773H18.9509L19.5747 -101.031C20.1985 -100.29 20.6973 -99.5477 21.321 -98.8053C22.5686 -97.3219 23.6911 -95.8372 24.8137 -94.3538C26.0599 -92.6225 27.3075 -90.8912 28.555 -89.16V-89.0367C29.5525 -87.6766 30.5501 -86.1918 31.5476 -84.7084V-84.5838H31.6726C32.1714 -83.9661 32.5451 -83.2237 33.0439 -82.4827V-82.3581C33.7927 -81.2459 34.5415 -80.009 35.2889 -78.7722V-78.6489H35.414C37.534 -75.1864 39.529 -71.5992 41.2754 -67.89V-67.5189H41.5254L42.0242 -66.4066V-66.0354H42.2729L42.7716 -64.7986V-64.5507H42.8967L43.5204 -63.1906V-63.0673H43.6454C44.1442 -61.9538 44.643 -60.717 45.0167 -59.6048V-59.3569H45.1417C45.6405 -58.12 46.1392 -57.0078 46.513 -55.771V-55.6477H46.638L47.2618 -53.6685V-53.422H47.3868C47.6355 -52.8029 47.8856 -52.0605 48.1343 -51.4428V-51.0716C48.3843 -50.3293 48.633 -49.5882 48.8831 -48.8459C50.2543 -44.3944 51.0031 -41.9207 52.4994 -35.2434L55.9921 -18.425C58.2371 -6.42928 61.2297 5.44185 63.8485 17.4376C67.3411 33.6369 71.3312 49.713 75.8214 65.5425C64.5973 56.6382 53.1232 48.9719 41.7741 43.4069L-73.7117 -14.7145L-75.0829 -15.4569C-77.328 -16.5704 -79.5731 -17.8059 -81.8181 -19.0428V-19.1674H-81.9432C-85.0607 -21.022 -88.3033 -22.9998 -91.5459 -25.1022H-91.6709L-93.791 -26.587H-93.9147L-96.0361 -28.0704C-97.781 -29.3072 -99.5274 -30.544 -101.274 -31.7809H-101.399C-103.394 -33.2642 -105.389 -34.7476 -107.385 -36.2324C-108.631 -37.2213 -109.879 -38.2102 -111.126 -39.2005C-114.119 -41.5495 -117.112 -44.1465 -120.105 -46.6201C-128.836 -54.163 -137.441 -62.4482 -145.672 -71.2293C-147.916 -73.7016 -150.162 -76.052 -152.406 -78.6489C-155.275 -81.8636 -157.894 -84.955 -160.638 -88.2943H-160.762C-166.499 -95.3427 -171.987 -102.516 -177.1 -109.812V-109.935H-177.225C-179.719 -113.645 -182.213 -117.232 -184.708 -120.941V-121.066C-187.826 -126.011 -190.819 -130.957 -193.687 -135.905V-136.028C-195.558 -139.244 -197.304 -142.459 -198.925 -145.673L-199.673 -147.158L-200.422 -148.642C-202.043 -151.858 -203.539 -155.072 -204.911 -158.287C-206.907 -162.74 -208.653 -167.191 -210.149 -171.643V-171.767H-210.274C-210.648 -173.127 -211.147 -174.488 -211.646 -175.848L-274.128 -370.493C-274.627 -371.977 -275.126 -373.337 -275.5 -374.821V-374.945C-275.749 -375.811 -275.999 -376.676 -276.248 -377.542V-377.913H-276.373C-276.622 -378.779 -276.747 -379.521 -276.996 -380.386V-380.881H-277.121C-277.371 -381.87 -277.495 -382.736 -277.745 -383.725V-383.849C-277.994 -385.085 -278.244 -386.322 -278.493 -387.435V-387.559C-278.742 -389.166 -278.992 -390.65 -279.241 -392.258V-394.237H-279.491C-280.364 -402.151 -280.114 -409.076 -278.742 -415.136H-278.493V-416.249C-278.368 -416.867 -278.119 -417.485 -277.994 -418.103H-277.745V-418.969C-277.121 -420.7 -276.498 -422.432 -275.625 -424.039H-275.5V-424.41C-275.25 -424.781 -275.126 -425.152 -274.876 -425.523H-274.752V-425.771C-274.377 -426.512 -273.879 -427.131 -273.504 -427.749H-273.255V-428.12C-272.382 -429.357 -271.509 -430.47 -270.511 -431.459H-270.262V-431.83L-269.763 -432.201H-269.514V-432.572L-269.015 -432.943H-268.765V-433.19L-268.142 -433.809H-268.017V-433.932C-267.019 -434.674 -266.022 -435.293 -265.024 -436.035C-264.151 -436.529 -263.278 -437.024 -262.405 -437.519H-262.031V-437.642C-261.532 -437.889 -261.158 -438.013 -260.784 -438.26H-260.534V-438.384C-259.911 -438.508 -259.412 -438.755 -258.788 -439.002H-258.164V-439.126C-256.543 -439.744 -254.922 -440.115 -253.051 -440.486H-251.43V-440.734C-249.434 -440.981 -247.314 -441.105 -245.194 -441.105C-241.328 -441.105 -237.088 -440.734 -232.723 -439.744H-232.224C-231.101 -439.497 -230.104 -439.25 -228.981 -439.002C-227.235 -438.508 -225.489 -438.013 -223.743 -437.519H-223.619C-222.87 -437.271 -222.122 -437.024 -221.374 -436.777H-221.249C-220.625 -436.529 -219.877 -436.282 -219.129 -436.035C-216.635 -435.169 -214.265 -434.18 -211.646 -433.067V-432.943H-211.521C-209.65 -432.201 -207.78 -431.335 -205.784 -430.47L-158.393 -407.716L110.367 -278.859L124.585 -272.057C126.83 -271.069 129.199 -269.832 131.444 -268.595V-268.472H131.569L132.94 -267.729C134.188 -266.987 135.436 -266.246 136.682 -265.504C142.793 -261.793 148.905 -257.589 154.641 -252.89C156.511 -251.405 158.257 -250.045 159.879 -248.437H160.004C166.863 -242.502 173.348 -236.072 179.459 -229.146V-229.023C180.956 -227.292 182.452 -225.561 183.949 -223.829C184.947 -222.592 185.944 -221.356 186.942 -220.119H187.067C189.312 -217.275 191.557 -214.307 193.677 -211.216H193.801C196.92 -206.888 199.912 -202.311 202.781 -197.86V-197.737C203.529 -196.5 204.277 -195.386 205.026 -194.149V-194.026C206.024 -192.295 207.021 -190.687 208.019 -188.956V-188.832C211.013 -183.515 213.755 -178.197 216.25 -172.633V-172.508H216.375L216.998 -171.025C217.747 -169.294 218.495 -167.562 219.243 -165.831V-165.708C219.742 -164.594 220.24 -163.357 220.74 -162.121V-161.997C222.112 -158.658 223.359 -155.195 224.482 -151.858V-151.61H224.606L225.229 -149.507V-149.384H225.354C226.103 -146.91 226.851 -144.438 227.474 -141.964C227.724 -140.975 227.973 -140.11 228.223 -139.119V-138.996H228.347C228.472 -138.007 228.722 -137.017 228.971 -136.151V-136.028C229.844 -132.319 230.592 -128.608 231.216 -125.023V-124.775C231.965 -120.818 232.463 -116.861 232.712 -113.027V-112.161H232.837C232.962 -110.553 233.087 -108.946 233.087 -107.462L240.195 58.9885L254.786 397.083C254.911 401.288 255.161 405.368 255.285 409.449V409.696C255.535 417.858 255.785 425.896 256.034 433.44V434.181C256.783 462.253 256.783 485.502 256.034 498.981V499.352C255.785 502.938 255.535 505.783 255.285 507.884V508.132C255.036 509.369 254.911 510.234 254.663 510.852H254.538V511.347C254.413 511.718 254.164 511.843 254.039 511.843C253.914 511.843 253.914 511.842 253.789 511.718ZM855.413 -313.856C839.699 -313.856 820.617 -308.167 798.792 -296.172L435.748 -95.4674C360.296 -53.9164 299.684 50.7033 301.057 136.897L309.787 720.833C311.158 806.901 315.273 876.895 319.139 876.895C323.006 876.524 339.094 806.901 355.182 722.07L383.119 574.044C383.119 574.044 383.866 570.087 385.114 562.791L394.093 515.305C395.215 509.492 396.588 503.557 398.209 497.621C398.333 497.498 398.333 497.373 398.333 497.25C399.207 492.922 400.329 488.47 401.202 483.894C405.193 465.469 409.558 444.693 415.17 422.31C420.284 399.803 425.895 375.565 432.755 350.215C438.99 324.617 446.099 297.782 453.956 270.204C461.563 242.504 469.67 214.062 478.275 185.248C480.645 178.2 482.765 171.027 485.01 163.73L486.757 158.29L489.001 151.613L492.618 140.729C495.736 132.938 499.602 123.293 503.343 115.75C507.085 107.834 510.951 100.168 515.316 92.7487C531.903 62.8223 552.231 36.605 573.184 12.4916C594.136 -11.4999 616.21 -33.0163 637.786 -52.9262C659.487 -72.5894 680.687 -90.8912 700.892 -107.833C720.846 -124.651 739.803 -140.604 757.013 -155.32C774.099 -170.159 789.439 -184.01 802.284 -196.871C815.005 -209.854 825.98 -221.479 833.838 -232.115C841.694 -242.626 847.556 -251.405 850.923 -257.713C854.415 -264.143 856.286 -267.606 856.286 -267.606C856.286 -267.606 855.912 -263.649 855.163 -256.353C853.916 -249.056 852.046 -238.174 847.307 -224.818C842.567 -211.71 835.833 -195.881 826.105 -178.816C816.626 -161.874 804.404 -143.448 790.187 -124.528C762.002 -86.563 725.585 -46.001 688.545 -3.21461C669.962 18.0553 651.38 40.0676 634.045 62.6977C616.709 85.4523 600.496 108.825 587.651 132.938C584.408 138.874 581.539 144.934 578.671 150.993C575.803 157.301 574.057 161.752 571.562 168.183L567.696 178.942L566.199 183.146L564.329 188.587C561.959 196.007 559.59 203.179 557.22 210.352C547.367 239.041 537.764 267.484 527.289 294.566C525.293 299.513 523.298 304.582 521.303 309.406C533.649 299.142 546.121 289.991 558.841 282.695L667.218 220.122C741.673 176.963 820.367 73.4566 842.068 -10.0152L896.445 -220.119C911.909 -279.477 894.075 -313.856 855.537 -313.856H855.413Z" fill="white" fill-opacity="0.02"/>
</g>
<defs>
<clipPath id="clip0_73_157">
<rect y="0.895264" width="300" height="190" rx="15" fill="white"/>
</clipPath>
</defs>
</svg>
