<svg width="300" height="191" viewBox="0 0 300 191" fill="none" xmlns="http://www.w3.org/2000/svg">
<g clip-path="url(#clip0_73_165)">
<rect y="0.895264" width="300" height="190" rx="15" fill="#0C0C0C"/>
<path fill-rule="evenodd" clip-rule="evenodd" d="M253.789 309.823V309.699H253.665C251.42 307.721 245.807 291.274 238.698 266.542L237.202 261.347C235.082 253.804 232.837 245.518 230.468 236.862V236.739C227.224 224.62 223.858 211.635 220.49 198.031L214.629 174.289C214.629 174.289 214.005 171.196 213.133 165.508C212.134 159.82 210.888 151.411 208.768 140.9C206.771 130.388 204.651 117.651 201.534 103.306C198.541 88.8367 195.299 72.3908 191.307 54.83C187.316 37.2693 183.076 18.2264 178.587 -1.93127C178.088 -3.66256 177.588 -5.51714 177.214 -7.24843V-7.37175L176.467 -10.3398C175.718 -13.4312 174.969 -16.6472 174.222 -19.7386V-19.9865H174.097L173.473 -22.9533C170.23 -36.5571 167.113 -50.5307 163.62 -64.7522C162.623 -68.5859 161.625 -72.4197 160.628 -76.2521V-76.6233L159.879 -79.2202V-79.5914L159.131 -82.3116V-82.5595L158.382 -85.4043V-85.5276L157.634 -88.4957C154.267 -102.593 150.9 -117.062 147.407 -131.53C144.663 -142.907 141.671 -154.283 138.678 -165.785C137.556 -170.731 136.308 -175.801 135.186 -180.749V-180.872C134.437 -184.086 133.689 -187.303 132.94 -190.517L130.695 -200.287C127.828 -211.787 125.084 -223.412 122.215 -234.788L117.351 -252.967C116.229 -257.79 113.485 -266.694 110.866 -273.371C100.266 -300.454 83.304 -323.084 65.3448 -340.891C47.1368 -358.699 27.9313 -372.301 9.72326 -383.926C-8.36104 -395.427 -25.8216 -404.824 -41.9095 -413.358C-71.2179 -428.693 -95.911 -441.182 -114.119 -450.952V-451.075C-115.99 -451.94 -117.735 -452.929 -119.357 -453.92C-136.817 -463.565 -147.169 -469.377 -148.415 -470.119C-148.041 -469.501 -146.42 -467.275 -143.427 -463.071C-139.81 -458.619 -134.697 -451.694 -127.463 -443.655C-120.23 -435.741 -111.375 -425.725 -100.65 -415.46C-89.7996 -405.072 -77.328 -393.696 -63.7338 -381.823C-50.2647 -370.075 -35.7981 -357.339 -20.3339 -343.86L-18.7126 -342.375C-10.1074 -334.337 -1.3771 -326.052 6.72938 -317.396V-317.025H7.10311L7.47818 -316.653V-316.282H7.85192L8.22565 -315.788V-315.54H8.60072L8.97446 -315.045V-314.799H9.22315L9.84697 -314.18V-314.056H9.97198L10.5957 -313.439V-313.314C11.3432 -312.573 12.092 -311.707 12.8408 -310.842V-310.347H13.2146L13.5883 -309.976V-309.605H13.9634L14.3371 -309.234V-308.863H14.5872L15.0859 -308.368V-308.12H15.2096L15.8334 -307.502V-307.379C16.8309 -306.266 17.8284 -305.029 18.8273 -303.917V-303.669H18.9509L19.5747 -302.926C20.1985 -302.185 20.6973 -301.443 21.321 -300.701C22.5686 -299.217 23.6911 -297.732 24.8137 -296.249C26.0599 -294.518 27.3075 -292.787 28.555 -291.055V-290.932C29.5525 -289.572 30.5501 -288.087 31.5476 -286.604V-286.479H31.6726C32.1714 -285.861 32.5451 -285.119 33.0439 -284.378V-284.253C33.7927 -283.141 34.5415 -281.904 35.2889 -280.667V-280.544H35.414C37.534 -277.082 39.529 -273.494 41.2754 -269.785V-269.414H41.5254L42.0242 -268.302V-267.931H42.2729L42.7716 -266.694V-266.446H42.8967L43.5204 -265.086V-264.963H43.6454C44.1442 -263.849 44.643 -262.612 45.0167 -261.5V-261.252H45.1417C45.6405 -260.015 46.1392 -258.903 46.513 -257.666V-257.543H46.638L47.2618 -255.564V-255.317H47.3868C47.6355 -254.698 47.8856 -253.956 48.1343 -253.338V-252.967C48.3843 -252.225 48.633 -251.483 48.8831 -250.741C50.2543 -246.29 51.0031 -243.816 52.4994 -237.139L55.9921 -220.32C58.2371 -208.325 61.2297 -196.453 63.8485 -184.458C67.3411 -168.258 71.3312 -152.182 75.8214 -136.353C64.5973 -145.257 53.1232 -152.923 41.7741 -158.488L-73.7117 -216.61L-75.0829 -217.352C-77.328 -218.466 -79.5731 -219.701 -81.8181 -220.938V-221.063H-81.9432C-85.0607 -222.917 -88.3033 -224.895 -91.5459 -226.997H-91.6709L-93.791 -228.482H-93.9147L-96.0361 -229.966C-97.781 -231.202 -99.5274 -232.439 -101.274 -233.676H-101.399C-103.394 -235.16 -105.389 -236.643 -107.385 -238.128C-108.631 -239.117 -109.879 -240.105 -111.126 -241.096C-114.119 -243.445 -117.112 -246.042 -120.105 -248.515C-128.836 -256.058 -137.441 -264.344 -145.672 -273.125C-147.916 -275.597 -150.162 -277.947 -152.406 -280.544C-155.275 -283.759 -157.894 -286.85 -160.638 -290.19H-160.762C-166.499 -297.238 -171.987 -304.411 -177.1 -311.707V-311.831H-177.225C-179.719 -315.54 -182.213 -319.127 -184.708 -322.836V-322.961C-187.826 -327.907 -190.819 -332.853 -193.687 -337.8V-337.923C-195.558 -341.139 -197.304 -344.354 -198.925 -347.569L-199.673 -349.053L-200.422 -350.537C-202.043 -353.753 -203.539 -356.967 -204.911 -360.182C-206.907 -364.635 -208.653 -369.086 -210.149 -373.538V-373.663H-210.274C-210.648 -375.023 -211.147 -376.383 -211.646 -377.743L-274.128 -572.388C-274.627 -573.872 -275.126 -575.233 -275.5 -576.717V-576.84C-275.749 -577.706 -275.999 -578.572 -276.248 -579.437V-579.808H-276.373C-276.622 -580.674 -276.747 -581.416 -276.996 -582.281V-582.776H-277.121C-277.371 -583.765 -277.495 -584.631 -277.745 -585.62V-585.744C-277.994 -586.981 -278.244 -588.217 -278.493 -589.33V-589.454C-278.742 -591.062 -278.992 -592.546 -279.241 -594.153V-596.132H-279.491C-280.364 -604.046 -280.114 -610.971 -278.742 -617.031H-278.493V-618.144C-278.368 -618.762 -278.119 -619.38 -277.994 -619.999H-277.745V-620.864C-277.121 -622.596 -276.498 -624.327 -275.625 -625.934H-275.5V-626.306C-275.25 -626.676 -275.126 -627.047 -274.876 -627.419H-274.752V-627.666C-274.377 -628.408 -273.879 -629.026 -273.504 -629.644H-273.255V-630.015C-272.382 -631.252 -271.509 -632.365 -270.511 -633.354H-270.262V-633.725L-269.763 -634.096H-269.514V-634.467L-269.015 -634.838H-268.765V-635.086L-268.142 -635.704H-268.017V-635.828C-267.019 -636.57 -266.022 -637.188 -265.024 -637.93C-264.151 -638.424 -263.278 -638.919 -262.405 -639.414H-262.031V-639.537C-261.532 -639.785 -261.158 -639.908 -260.784 -640.156H-260.534V-640.279C-259.911 -640.403 -259.412 -640.65 -258.788 -640.898H-258.164V-641.021C-256.543 -641.64 -254.922 -642.011 -253.051 -642.382H-251.43V-642.629C-249.434 -642.876 -247.314 -643 -245.194 -643C-241.328 -643 -237.088 -642.629 -232.723 -641.64H-232.224C-231.101 -641.392 -230.104 -641.145 -228.981 -640.898C-227.235 -640.403 -225.489 -639.908 -223.743 -639.414H-223.619C-222.87 -639.166 -222.122 -638.919 -221.374 -638.672H-221.249C-220.625 -638.424 -219.877 -638.177 -219.129 -637.93C-216.635 -637.064 -214.265 -636.075 -211.646 -634.962V-634.838H-211.521C-209.65 -634.096 -207.78 -633.231 -205.784 -632.365L-158.393 -609.611L110.367 -480.755L124.585 -473.953C126.83 -472.964 129.199 -471.727 131.444 -470.49V-470.367H131.569L132.94 -469.625C134.188 -468.882 135.436 -468.141 136.682 -467.399C142.793 -463.688 148.905 -459.485 154.641 -454.785C156.511 -453.301 158.257 -451.94 159.879 -450.332H160.004C166.863 -444.398 173.348 -437.967 179.459 -431.042V-430.918C180.956 -429.187 182.452 -427.456 183.949 -425.725C184.947 -424.488 185.944 -423.251 186.942 -422.014H187.067C189.312 -419.171 191.557 -416.202 193.677 -413.111H193.801C196.92 -408.783 199.912 -404.207 202.781 -399.755V-399.632C203.529 -398.395 204.277 -397.282 205.026 -396.045V-395.921C206.024 -394.19 207.021 -392.582 208.019 -390.851V-390.728C211.013 -385.41 213.755 -380.092 216.25 -374.528V-374.404H216.375L216.998 -372.92C217.747 -371.189 218.495 -369.458 219.243 -367.726V-367.603C219.742 -366.49 220.24 -365.253 220.74 -364.016V-363.893C222.112 -360.553 223.359 -357.091 224.482 -353.753V-353.505H224.606L225.229 -351.402V-351.279H225.354C226.103 -348.805 226.851 -346.333 227.474 -343.86C227.724 -342.871 227.973 -342.005 228.223 -341.015V-340.891H228.347C228.472 -339.902 228.722 -338.912 228.971 -338.047V-337.923C229.844 -334.214 230.592 -330.504 231.216 -326.918V-326.67C231.965 -322.713 232.463 -318.756 232.712 -314.922V-314.056H232.837C232.962 -312.448 233.087 -310.842 233.087 -309.357L240.195 -142.907L254.786 195.188C254.911 199.393 255.161 203.473 255.285 207.553V207.801C255.535 215.963 255.785 224.001 256.034 231.545V232.286C256.783 260.358 256.783 283.607 256.034 297.086V297.457C255.785 301.043 255.535 303.888 255.285 305.989V306.237C255.036 307.474 254.911 308.339 254.663 308.957H254.538V309.451C254.413 309.823 254.164 309.947 254.039 309.947C253.914 309.947 253.914 309.947 253.789 309.823ZM855.413 -515.751C839.699 -515.751 820.617 -510.062 798.792 -498.068L435.748 -297.363C360.296 -255.812 299.684 -151.192 301.057 -64.9987L309.787 518.937C311.158 605.006 315.273 675 319.139 675C323.006 674.629 339.094 605.006 355.182 520.174L383.119 372.149C383.119 372.149 383.866 368.192 385.114 360.896L394.093 313.41C395.215 307.597 396.588 301.662 398.209 295.726C398.333 295.602 398.333 295.478 398.333 295.355C399.207 291.026 400.329 286.575 401.202 281.999C405.193 263.574 409.558 242.798 415.17 220.415C420.284 197.908 425.895 173.67 432.755 148.32C438.99 122.721 446.099 95.8865 453.956 68.3092C461.563 40.6086 469.67 12.1669 478.275 -16.6473C480.645 -23.6957 482.765 -30.8687 485.01 -38.1651L486.757 -43.6055L489.001 -50.2828L492.618 -61.1663C495.736 -68.9571 499.602 -78.6025 503.343 -86.1454C507.085 -94.0608 510.951 -101.727 515.316 -109.147C531.903 -139.073 552.231 -165.29 573.184 -189.404C594.136 -213.395 616.21 -234.912 637.786 -254.821C659.487 -274.485 680.687 -292.787 700.892 -309.728C720.846 -326.547 739.803 -342.499 757.013 -357.215C774.099 -372.055 789.439 -385.905 802.284 -398.766C815.005 -411.75 825.98 -423.374 833.838 -434.01C841.694 -444.521 847.556 -453.301 850.923 -459.608C854.415 -466.039 856.286 -469.501 856.286 -469.501C856.286 -469.501 855.912 -465.544 855.163 -458.248C853.916 -450.952 852.046 -440.069 847.307 -426.714C842.567 -413.606 835.833 -397.776 826.105 -380.711C816.626 -363.769 804.404 -345.343 790.187 -326.423C762.002 -288.458 725.585 -247.896 688.545 -205.11C669.962 -183.84 651.38 -161.828 634.045 -139.198C616.709 -116.443 600.496 -93.0705 587.651 -68.9571C584.408 -63.0208 581.539 -56.9614 578.671 -50.9019C575.803 -44.5944 574.057 -40.1429 571.562 -33.7122L567.696 -22.9533L566.199 -18.7497L564.329 -13.308C561.959 -5.88833 559.59 1.28339 557.22 8.45644C547.367 37.146 537.764 65.5889 527.289 92.6705C525.293 97.6178 523.298 102.687 521.303 107.511C533.649 97.2466 546.121 88.0957 558.841 80.7994L667.218 18.2264C741.673 -24.9325 820.367 -128.439 842.068 -211.91L896.445 -422.014C911.909 -481.372 894.075 -515.751 855.537 -515.751H855.413Z" fill="white" fill-opacity="0.02"/>
</g>
<defs>
<clipPath id="clip0_73_165">
<rect y="0.895264" width="300" height="190" rx="15" fill="white"/>
</clipPath>
</defs>
</svg>
