<svg width="300" height="418" viewBox="0 0 300 418" fill="none" xmlns="http://www.w3.org/2000/svg">
<g clip-path="url(#clip0_73_269)">
<rect y="0.895508" width="300" height="417" rx="15" fill="#0C0C0C"/>
<path fill-rule="evenodd" clip-rule="evenodd" d="M277.959 509.813V509.751H277.896C276.756 508.748 273.907 500.412 270.299 487.877L269.539 485.244C268.463 481.421 267.323 477.222 266.121 472.835V472.772C264.474 466.63 262.766 460.049 261.056 453.154L258.081 441.121C258.081 441.121 257.764 439.553 257.321 436.67C256.814 433.787 256.182 429.526 255.105 424.198C254.092 418.87 253.016 412.415 251.433 405.145C249.914 397.811 248.268 389.476 246.242 380.576C244.216 371.675 242.064 362.024 239.785 351.807C239.532 350.93 239.278 349.99 239.088 349.113V349.05L238.709 347.546C238.329 345.979 237.949 344.349 237.569 342.782V342.657H237.506L237.189 341.153C235.543 334.258 233.961 327.176 232.188 319.968C231.681 318.025 231.175 316.082 230.669 314.14V313.951L230.289 312.635V312.447L229.909 311.068V310.943L229.529 309.501V309.438L229.149 307.934C227.44 300.789 225.731 293.456 223.958 286.123C222.565 280.357 221.046 274.591 219.527 268.762C218.957 266.255 218.324 263.685 217.754 261.178V261.115C217.374 259.486 216.995 257.856 216.614 256.227L215.475 251.275C214.019 245.447 212.626 239.555 211.17 233.789L208.701 224.575C208.131 222.131 206.739 217.618 205.409 214.234C200.028 200.508 191.418 189.038 182.302 180.013C173.059 170.987 163.31 164.093 154.068 158.202C144.888 152.373 136.025 147.61 127.858 143.285C112.981 135.513 100.446 129.183 91.2035 124.231V124.169C90.2536 123.73 89.3678 123.229 88.5448 122.727C79.6816 117.838 74.427 114.893 73.7944 114.517C73.9841 114.83 74.8071 115.958 76.3262 118.089C78.1626 120.345 80.7578 123.855 84.4299 127.929C88.1013 131.94 92.5963 137.017 98.0407 142.219C103.548 147.484 109.879 153.25 116.78 159.267C123.617 165.221 130.96 171.677 138.81 178.508L139.633 179.261C144.001 183.335 148.433 187.534 152.548 191.921V192.109H152.738L152.928 192.297V192.485H153.118L153.307 192.736V192.862H153.498L153.688 193.112V193.237H153.814L154.13 193.551V193.614H154.194L154.511 193.927V193.99C154.89 194.365 155.27 194.804 155.65 195.243V195.493H155.84L156.03 195.682V195.87H156.22L156.41 196.058V196.246H156.537L156.79 196.497V196.622H156.853L157.169 196.935V196.998C157.676 197.562 158.182 198.189 158.689 198.753V198.878H158.752L159.068 199.255C159.385 199.63 159.638 200.006 159.955 200.383C160.588 201.134 161.158 201.887 161.728 202.639C162.36 203.516 162.994 204.394 163.627 205.271V205.334C164.133 206.023 164.64 206.776 165.146 207.527V207.59H165.209C165.463 207.904 165.652 208.28 165.906 208.655V208.719C166.286 209.282 166.666 209.909 167.045 210.536V210.598H167.109C168.185 212.353 169.197 214.171 170.084 216.051V216.239H170.211L170.464 216.803V216.991H170.59L170.843 217.618V217.744H170.907L171.224 218.433V218.496H171.287C171.54 219.06 171.793 219.687 171.983 220.251V220.376H172.047C172.3 221.003 172.553 221.567 172.743 222.194V222.256H172.806L173.123 223.259V223.384H173.186C173.312 223.698 173.439 224.074 173.566 224.387V224.575C173.693 224.952 173.819 225.327 173.946 225.704C174.642 227.96 175.022 229.213 175.781 232.598L177.554 241.122C178.694 247.201 180.213 253.218 181.542 259.298C183.315 267.508 185.341 275.656 187.62 283.679C181.922 279.166 176.098 275.28 170.337 272.46L111.715 243.002L111.019 242.626C109.879 242.062 108.74 241.435 107.6 240.809V240.745H107.536C105.954 239.805 104.308 238.803 102.662 237.737H102.599L101.522 236.985H101.46L100.383 236.233C99.4969 235.606 98.6105 234.979 97.724 234.353H97.6606C96.6479 233.601 95.6351 232.849 94.6218 232.096C93.9892 231.595 93.3559 231.094 92.7226 230.592C91.2035 229.402 89.6845 228.085 88.1647 226.832C83.7331 223.009 79.365 218.809 75.1866 214.359C74.0476 213.106 72.9078 211.915 71.7683 210.598C70.3122 208.969 68.9828 207.402 67.59 205.71H67.5267C64.6146 202.138 61.8291 198.502 59.2335 194.804V194.742H59.1702C57.904 192.862 56.6379 191.044 55.3718 189.164V189.101C53.7891 186.594 52.2698 184.087 50.8137 181.58V181.517C49.8641 179.887 48.9778 178.258 48.1548 176.629L47.775 175.876L47.3951 175.124C46.5721 173.494 45.8125 171.865 45.1161 170.236C44.1032 167.979 43.2168 165.723 42.4572 163.467V163.403H42.3938C42.2039 162.714 41.9507 162.025 41.6975 161.335L9.9807 62.6834C9.72748 61.9314 9.47425 61.2419 9.28433 60.4898V60.4271C9.15771 59.9884 9.0311 59.5496 8.90449 59.1109V58.9229H8.84118C8.71456 58.4842 8.65126 58.1081 8.52465 57.6694V57.4186H8.46134C8.33472 56.9173 8.27142 56.4786 8.1448 55.9771V55.9145C8.01819 55.2877 7.89158 54.6609 7.76496 54.0968V54.0342C7.63835 53.2194 7.51173 52.4673 7.38512 51.6525V50.6497H7.25851C6.81535 46.6384 6.94197 43.1286 7.63835 40.0574H7.76496V39.4933C7.82827 39.18 7.95488 38.8666 8.01819 38.5533H8.1448V38.1145C8.46134 37.2371 8.77787 36.3596 9.22102 35.5448H9.28433V35.3567C9.41094 35.1688 9.47425 34.9807 9.60086 34.7926H9.66417V34.6673C9.85409 34.2913 10.1073 33.9779 10.2972 33.6645H10.4239V33.4765C10.867 32.8497 11.3102 32.2856 11.8166 31.7842H11.9432V31.5962L12.1964 31.4082H12.3231V31.2201L12.5763 31.0321H12.7029V30.9068L13.0194 30.5934H13.0827V30.5307C13.5892 30.1547 14.0956 29.8413 14.6021 29.4652C15.0453 29.2145 15.4884 28.9638 15.9315 28.7131H16.1215V28.6504C16.3747 28.5251 16.5646 28.4624 16.7545 28.3371H16.8812V28.2744C17.1977 28.2117 17.4509 28.0863 17.7674 27.961H18.084V27.8983C18.907 27.5849 19.73 27.3969 20.6796 27.2089H21.5026V27.0835C22.5155 26.9582 23.5917 26.8955 24.6679 26.8955C26.6305 26.8955 28.7829 27.0835 30.9986 27.5849H31.2518C31.8216 27.7103 32.3281 27.8356 32.8978 27.961C33.7841 28.2117 34.6704 28.4624 35.5567 28.7131H35.62C35.9999 28.8385 36.3797 28.9638 36.7595 29.0892H36.8229C37.1394 29.2145 37.5192 29.3399 37.899 29.4652C39.1652 29.9039 40.368 30.4054 41.6975 30.9694V31.0321H41.7608C42.7104 31.4082 43.66 31.8469 44.6729 32.2856L68.7295 43.818L205.156 109.126L212.373 112.573C213.513 113.075 214.715 113.702 215.855 114.328V114.391H215.918L216.614 114.767C217.248 115.143 217.881 115.519 218.514 115.895C221.616 117.776 224.718 119.906 227.63 122.288C228.579 123.041 229.466 123.73 230.289 124.545H230.352C233.834 127.553 237.126 130.812 240.228 134.322V134.384C240.988 135.262 241.747 136.139 242.507 137.017C243.014 137.644 243.52 138.271 244.026 138.897H244.09C245.229 140.339 246.369 141.843 247.445 143.41H247.508C249.091 145.603 250.61 147.923 252.067 150.179V150.241C252.446 150.868 252.826 151.433 253.206 152.059V152.122C253.713 152.999 254.219 153.814 254.725 154.692V154.754C256.245 157.449 257.637 160.145 258.904 162.965V163.028H258.967L259.283 163.78C259.663 164.657 260.043 165.535 260.423 166.412V166.475C260.676 167.039 260.929 167.666 261.183 168.293V168.355C261.879 170.048 262.512 171.802 263.082 173.494V173.62H263.145L263.462 174.685V174.748H263.525C263.905 176.002 264.285 177.255 264.601 178.508C264.728 179.01 264.854 179.448 264.981 179.95V180.013H265.044C265.108 180.514 265.234 181.016 265.361 181.455V181.517C265.804 183.397 266.184 185.278 266.5 187.095V187.221C266.88 189.226 267.134 191.232 267.26 193.175V193.614H267.323C267.387 194.428 267.45 195.243 267.45 195.995L271.058 280.357L278.465 451.713C278.529 453.844 278.656 455.912 278.718 457.98V458.106C278.845 462.243 278.972 466.316 279.098 470.14V470.515C279.479 484.743 279.479 496.526 279.098 503.358V503.546C278.972 505.363 278.845 506.805 278.718 507.87V507.996C278.592 508.623 278.529 509.061 278.402 509.374H278.339V509.625C278.275 509.813 278.149 509.876 278.086 509.876C278.022 509.876 278.022 509.876 277.959 509.813ZM583.352 91.389C575.375 91.389 565.689 94.2723 554.61 100.351L370.324 202.074C332.023 223.134 301.256 276.158 301.953 319.843L306.384 615.799C307.08 659.421 309.169 694.896 311.132 694.896C313.094 694.707 321.261 659.421 329.427 616.425L343.609 541.402C343.609 541.402 343.988 539.396 344.621 535.699L349.179 511.631C349.749 508.685 350.446 505.677 351.269 502.669C351.331 502.606 351.331 502.543 351.331 502.48C351.775 500.287 352.345 498.031 352.788 495.711C354.814 486.373 357.03 475.843 359.878 464.499C362.474 453.092 365.322 440.807 368.805 427.959C371.97 414.985 375.578 401.384 379.566 387.407C383.428 373.368 387.543 358.953 391.911 344.349C393.114 340.777 394.191 337.141 395.33 333.443L396.217 330.686L397.356 327.302L399.192 321.785C400.774 317.837 402.737 312.948 404.636 309.125C406.535 305.114 408.498 301.228 410.714 297.468C419.134 282.3 429.452 269.012 440.088 256.791C450.724 244.632 461.929 233.726 472.881 223.635C483.897 213.67 494.659 204.394 504.915 195.807C515.044 187.283 524.666 179.198 533.403 171.739C542.075 164.218 549.862 157.199 556.383 150.68C562.84 144.1 568.411 138.208 572.4 132.818C576.388 127.49 579.363 123.041 581.073 119.844C582.845 116.585 583.795 114.83 583.795 114.83C583.795 114.83 583.605 116.835 583.225 120.533C582.592 124.231 581.643 129.747 579.237 136.516C576.831 143.159 573.413 151.182 568.475 159.831C563.663 168.418 557.459 177.757 550.242 187.346C535.935 206.587 517.449 227.145 498.647 248.831C489.214 259.611 479.782 270.767 470.982 282.237C462.182 293.77 453.952 305.615 447.432 317.837C445.786 320.846 444.33 323.917 442.873 326.988C441.418 330.185 440.531 332.441 439.265 335.7L437.303 341.153L436.543 343.283L435.593 346.041C434.39 349.802 433.188 353.437 431.985 357.072C426.983 371.613 422.109 386.029 416.791 399.754C415.778 402.262 414.765 404.831 413.753 407.276C420.02 402.074 426.351 397.436 432.808 393.738L487.821 362.024C525.616 340.15 565.562 287.69 576.578 245.384L604.18 138.897C612.03 108.813 602.977 91.389 583.415 91.389H583.352Z" fill="white" fill-opacity="0.02"/>
</g>
<defs>
<clipPath id="clip0_73_269">
<rect y="0.895508" width="300" height="417" rx="15" fill="white"/>
</clipPath>
</defs>
</svg>
