<svg width="56" height="55" viewBox="0 0 56 55" fill="none" xmlns="http://www.w3.org/2000/svg">
<path d="M28 54.9357C43.1701 54.9357 55.4679 42.6379 55.4679 27.4679C55.4679 12.2978 43.1701 0 28 0C12.83 0 0.532166 12.2978 0.532166 27.4679C0.532166 42.6379 12.83 54.9357 28 54.9357Z" fill="#1F1F1F"/>
<path d="M26.4942 25.9939C30.0519 25.9939 33.6416 25.9939 37.1993 25.9939C37.3275 25.9939 37.4237 25.9939 37.5519 25.9939C38.0006 26.026 38.257 26.2823 38.2249 26.7311C38.1929 27.2439 38.0968 27.7567 38.0647 28.2375C38.0647 28.3336 38.0646 28.4298 38.0967 28.558C38.1928 28.558 38.321 28.558 38.3851 28.4939C39.2505 28.1093 40.148 27.8528 41.1095 27.9169C42.2954 27.981 43.289 28.7503 43.6736 29.9042C44.1865 31.4426 43.7698 32.7247 42.7441 33.8785C41.8147 34.9362 40.6608 35.7054 39.4108 36.4106C37.6159 37.4362 35.6929 38.2054 33.7378 38.8785C33.5455 38.9426 33.3531 39.0707 33.2249 39.231C32.4878 40.0002 31.6865 40.7375 30.757 41.3144C30.5647 41.4426 30.3083 41.5067 30.0839 41.5067C27.648 41.5067 25.1801 41.5067 22.7443 41.5067C22.5199 41.5067 22.2634 41.4426 22.0711 41.3144C20.5006 40.3208 19.2507 38.9746 18.225 37.4361C16.7186 35.2246 15.7571 32.7888 15.2122 30.1926C14.9879 29.1029 14.8276 27.9811 14.6673 26.8593C14.6032 26.3785 14.8597 26.058 15.3404 26.0259C15.5969 26.0259 15.8853 26.0259 16.1417 26.0259C19.5712 26.0259 23.0006 26.0259 26.4301 26.0259L26.4942 25.9939ZM35.6609 35.8657C35.6609 35.8657 35.8211 35.8657 35.8532 35.8657C37.4878 35.1605 39.0583 34.3913 40.4365 33.2695C40.9813 32.8208 41.4942 32.308 41.7506 31.6029C42.039 30.7696 41.5262 30.0003 40.7249 30.0323C40.4044 30.0323 40.1159 30.1285 39.8275 30.2246C38.9941 30.5131 38.257 30.9939 37.5519 31.5387C37.4237 31.6669 37.2954 31.8272 37.2313 31.9875C36.7826 33.0772 36.3659 34.199 35.9172 35.2888C35.8531 35.4811 35.757 35.6413 35.6609 35.8657Z" fill="url(#paint0_linear_201_422)"/>
<path d="M26.4938 42.3718C30.404 42.3718 34.3142 42.3718 38.2245 42.3718C38.577 42.3718 38.6411 42.5001 38.5129 42.8206C38.3527 43.2052 38.0322 43.4295 37.6797 43.5577C37.1027 43.75 36.5258 43.9744 35.9168 44.0385C34.3463 44.1987 32.7437 44.359 31.1732 44.3911C27.8399 44.4552 24.4746 44.3911 21.1413 44.3911C19.5067 44.3911 17.9041 44.2629 16.3015 43.9103C15.8207 43.8142 15.3721 43.6218 14.9233 43.3975C14.699 43.2693 14.5066 43.0129 14.3784 42.7885C14.2182 42.5321 14.3144 42.4039 14.6349 42.4039C15.1798 42.4039 15.7246 42.4039 16.2374 42.4039C19.6349 42.4039 23.0643 42.4039 26.4618 42.4039L26.4938 42.3718Z" fill="url(#paint1_linear_201_422)"/>
<path d="M25.9812 8.26953C26.5582 8.55799 26.9749 9.0387 27.2634 9.61562C27.9685 11.0259 27.7441 12.4041 27.0069 13.7182C26.6543 14.3592 26.1416 14.9041 25.6608 15.481C25.0198 16.2182 24.3467 16.9554 23.8979 17.8528C23.4813 18.6541 23.3851 19.5194 23.4813 20.4168C23.4813 20.4809 23.4813 20.5771 23.4813 20.6412C23.4813 20.7053 23.4172 20.7694 23.4172 20.8335C23.3531 20.8335 23.289 20.8015 23.2249 20.7374C22.7441 20.2566 22.3916 19.7118 22.2313 19.0708C21.8467 17.6605 22.2313 16.3784 23.0005 15.1925C23.3531 14.6476 23.7697 14.1669 24.1864 13.6861C24.7954 13.013 25.4043 12.34 25.7889 11.4746C26.1736 10.6093 26.1735 9.74386 25.9812 8.84643C25.9492 8.65412 25.9172 8.46177 25.8531 8.30152C25.8852 8.30152 25.9172 8.30158 25.9493 8.26953H25.9812Z" fill="url(#paint2_linear_201_422)"/>
<path d="M30.5643 14.6478C30.5002 16.026 29.9232 17.1478 29.0899 18.1735C28.6091 18.7504 28.0642 19.2952 27.5835 19.8722C26.6219 20.9939 26.1412 22.308 26.3976 23.8144C26.3976 23.9105 26.3656 24.0067 26.3335 24.1028C26.2374 24.0387 26.1411 24.0067 26.077 23.9426C24.8591 22.6285 24.7629 21.1221 25.3719 19.5195C25.7245 18.5901 26.3014 17.8209 26.9745 17.0837C27.6155 16.4107 28.2245 15.7375 28.6412 14.9042C29.122 13.9106 29.154 12.917 28.8335 11.8914C28.8014 11.7952 28.8335 11.6671 28.8335 11.5709C28.9296 11.603 29.0579 11.603 29.154 11.6671C30.1797 12.4042 30.5963 13.4299 30.6283 14.6478H30.5643Z" fill="url(#paint3_linear_201_422)"/>
<defs>
<linearGradient id="paint0_linear_201_422" x1="14.3067" y1="26.6401" x2="44.3067" y2="26.6401" gradientUnits="userSpaceOnUse">
<stop stop-color="#AD8153"/>
<stop offset="0.25" stop-color="#E2B36C"/>
<stop offset="0.5" stop-color="#FDECD6"/>
<stop offset="0.75" stop-color="#DCAC64"/>
<stop offset="1" stop-color="#AF8352"/>
</linearGradient>
<linearGradient id="paint1_linear_201_422" x1="14.3067" y1="26.6401" x2="44.3067" y2="26.6401" gradientUnits="userSpaceOnUse">
<stop stop-color="#AD8153"/>
<stop offset="0.25" stop-color="#E2B36C"/>
<stop offset="0.5" stop-color="#FDECD6"/>
<stop offset="0.75" stop-color="#DCAC64"/>
<stop offset="1" stop-color="#AF8352"/>
</linearGradient>
<linearGradient id="paint2_linear_201_422" x1="14.3067" y1="26.6401" x2="44.3067" y2="26.6401" gradientUnits="userSpaceOnUse">
<stop stop-color="#AD8153"/>
<stop offset="0.25" stop-color="#E2B36C"/>
<stop offset="0.5" stop-color="#FDECD6"/>
<stop offset="0.75" stop-color="#DCAC64"/>
<stop offset="1" stop-color="#AF8352"/>
</linearGradient>
<linearGradient id="paint3_linear_201_422" x1="14.3067" y1="26.6401" x2="44.3067" y2="26.6401" gradientUnits="userSpaceOnUse">
<stop stop-color="#AD8153"/>
<stop offset="0.25" stop-color="#E2B36C"/>
<stop offset="0.5" stop-color="#FDECD6"/>
<stop offset="0.75" stop-color="#DCAC64"/>
<stop offset="1" stop-color="#AF8352"/>
</linearGradient>
</defs>
</svg>
