<svg width="1160" height="255" viewBox="0 0 1160 255" fill="none" xmlns="http://www.w3.org/2000/svg">
<g clip-path="url(#clip0_65_83)">
<rect width="1160" height="255" rx="20" fill="#0C0C0C"/>
<path fill-rule="evenodd" clip-rule="evenodd" d="M679.789 971.822V971.699H679.665C677.42 969.721 671.807 953.274 664.698 928.541L663.202 923.346C661.082 915.803 658.837 907.518 656.468 898.861V898.738C653.224 886.619 649.858 873.634 646.49 860.031L640.629 836.289C640.629 836.289 640.005 833.196 639.133 827.507C638.134 821.819 636.888 813.411 634.768 802.9C632.771 792.387 630.651 779.65 627.534 765.306C624.541 750.836 621.299 734.39 617.307 716.83C613.316 699.269 609.076 680.226 604.587 660.068C604.088 658.337 603.588 656.482 603.214 654.751V654.628L602.467 651.66C601.718 648.568 600.969 645.352 600.222 642.261V642.013H600.097L599.473 639.046C596.23 625.442 593.113 611.469 589.62 597.247C588.623 593.414 587.625 589.58 586.628 585.747V585.376L585.879 582.779V582.408L585.131 579.688V579.44L584.382 576.595V576.472L583.634 573.504C580.267 559.407 576.9 544.938 573.407 530.469C570.663 519.093 567.671 507.716 564.678 496.215C563.556 491.269 562.308 486.198 561.186 481.251V481.128C560.437 477.913 559.689 474.697 558.94 471.482L556.695 461.712C553.828 450.212 551.084 438.588 548.215 427.211L543.351 409.033C542.229 404.21 539.485 395.306 536.866 388.628C526.266 361.546 509.304 338.915 491.345 321.108C473.137 303.301 453.931 289.698 435.723 278.074C417.639 266.573 400.178 257.175 384.09 248.642C354.782 233.307 330.089 220.818 311.881 211.048V210.925C310.01 210.059 308.265 209.07 306.643 208.08C289.183 198.434 278.831 192.623 277.585 191.881C277.959 192.498 279.58 194.724 282.573 198.929C286.19 203.38 291.303 210.306 298.537 218.344C305.77 226.258 314.625 236.275 325.35 246.539C336.2 256.927 348.672 268.304 362.266 280.176C375.735 291.924 390.202 304.661 405.666 318.14L407.287 319.625C415.893 327.662 424.623 335.947 432.729 344.604V344.975H433.103L433.478 345.346V345.717H433.852L434.226 346.212V346.46H434.601L434.974 346.954V347.201H435.223L435.847 347.82V347.943H435.972L436.596 348.561V348.685C437.343 349.426 438.092 350.292 438.841 351.158V351.652H439.215L439.588 352.023V352.395H439.963L440.337 352.766V353.137H440.587L441.086 353.631V353.879H441.21L441.833 354.497V354.62C442.831 355.734 443.828 356.971 444.827 358.083V358.331H444.951L445.575 359.073C446.199 359.814 446.697 360.557 447.321 361.299C448.569 362.782 449.691 364.267 450.814 365.75C452.06 367.482 453.307 369.213 454.555 370.944V371.068C455.553 372.428 456.55 373.912 457.548 375.396V375.52H457.673C458.171 376.138 458.545 376.881 459.044 377.622V377.746C459.793 378.858 460.541 380.095 461.289 381.332V381.455H461.414C463.534 384.918 465.529 388.505 467.275 392.214V392.585H467.525L468.024 393.698V394.069H468.273L468.772 395.306V395.554H468.897L469.52 396.914V397.037H469.645C470.144 398.15 470.643 399.387 471.017 400.499V400.747H471.142C471.641 401.984 472.139 403.096 472.513 404.333V404.457H472.638L473.262 406.436V406.682H473.387C473.636 407.301 473.886 408.044 474.134 408.661V409.033C474.384 409.775 474.633 410.516 474.883 411.258C476.254 415.71 477.003 418.184 478.499 424.861L481.992 441.679C484.237 453.675 487.23 465.546 489.849 477.542C493.341 493.741 497.331 509.817 501.821 525.647C490.597 516.742 479.123 509.076 467.774 503.511L352.288 445.39L350.917 444.647C348.672 443.534 346.427 442.298 344.182 441.061V440.937H344.057C340.939 439.082 337.697 437.104 334.454 435.002H334.329L332.209 433.517H332.085L329.964 432.034C328.219 430.797 326.473 429.56 324.726 428.323H324.601C322.606 426.84 320.611 425.357 318.615 423.872C317.369 422.883 316.121 421.894 314.874 420.904C311.881 418.555 308.888 415.958 305.895 413.484C297.164 405.941 288.559 397.656 280.328 388.875C278.084 386.403 275.838 384.052 273.594 381.455C270.725 378.241 268.106 375.149 265.362 371.81H265.238C259.501 364.762 254.013 357.588 248.9 350.292V350.169H248.775C246.281 346.46 243.787 342.872 241.292 339.163V339.039C238.174 334.093 235.181 329.147 232.313 324.2V324.076C230.442 320.86 228.696 317.646 227.075 314.431L226.327 312.946L225.578 311.463C223.957 308.247 222.461 305.032 221.089 301.817C219.093 297.365 217.347 292.913 215.851 288.462V288.337H215.726C215.352 286.977 214.853 285.617 214.354 284.257L151.872 89.611C151.373 88.1271 150.874 86.7669 150.5 85.2828V85.1591C150.251 84.2935 150.001 83.4278 149.752 82.5622V82.1913H149.627C149.378 81.3256 149.253 80.5837 149.004 79.718V79.2233H148.879C148.629 78.2341 148.505 77.3685 148.255 76.3791V76.2555C148.006 75.0188 147.756 73.7822 147.507 72.6692V72.5455C147.258 70.9379 147.008 69.454 146.759 67.8464V65.8677H146.509C145.636 57.9534 145.886 51.0282 147.258 44.9687H147.507V43.8557C147.632 43.2374 147.881 42.6191 148.006 42.0009H148.255V41.1352C148.879 39.4039 149.502 37.6726 150.375 36.065H150.5V35.694C150.75 35.3231 150.874 34.952 151.124 34.581H151.248V34.3337C151.623 33.5918 152.121 32.9734 152.496 32.3551H152.745V31.9841C153.618 30.7475 154.491 29.6345 155.489 28.6452H155.738V28.2742L156.237 27.9032H156.486V27.5323L156.985 27.1613H157.235V26.9139L157.858 26.2956H157.983V26.172C158.981 25.43 159.978 24.8117 160.976 24.0697C161.849 23.575 162.722 23.0804 163.595 22.5857H163.969V22.4621C164.468 22.2148 164.842 22.0911 165.216 21.8438H165.466V21.7201C166.089 21.5964 166.588 21.3491 167.212 21.1018H167.836V20.9781C169.457 20.3598 171.078 19.9888 172.949 19.6178H174.57V19.3705C176.566 19.1232 178.686 18.9995 180.806 18.9995C184.672 18.9995 188.912 19.3705 193.277 20.3598H193.776C194.899 20.6071 195.896 20.8545 197.019 21.1018C198.765 21.5964 200.511 22.0911 202.257 22.5857H202.381C203.13 22.8331 203.878 23.0804 204.626 23.3277H204.751C205.375 23.575 206.123 23.8224 206.871 24.0697C209.365 24.9353 211.735 25.9246 214.354 27.0376V27.1613H214.479C216.35 27.9032 218.22 28.7689 220.216 29.6345L267.607 52.3885L536.367 181.245L550.585 188.047C552.83 189.036 555.199 190.273 557.444 191.509V191.633H557.569L558.94 192.375C560.188 193.117 561.436 193.858 562.682 194.601C568.793 198.311 574.905 202.515 580.641 207.214C582.511 208.699 584.257 210.059 585.879 211.667H586.004C592.863 217.602 599.348 224.033 605.459 230.958V231.081C606.956 232.812 608.452 234.544 609.949 236.275C610.947 237.512 611.944 238.749 612.942 239.985H613.067C615.312 242.829 617.557 245.797 619.677 248.888H619.801C622.92 253.217 625.912 257.793 628.781 262.244V262.368C629.529 263.604 630.277 264.718 631.026 265.955V266.078C632.024 267.809 633.021 269.417 634.019 271.149V271.272C637.013 276.589 639.755 281.908 642.25 287.471V287.596H642.375L642.998 289.079C643.747 290.811 644.495 292.542 645.243 294.273V294.396C645.742 295.51 646.24 296.747 646.74 297.984V298.107C648.112 301.446 649.359 304.909 650.482 308.247V308.495H650.606L651.229 310.597V310.72H651.354C652.103 313.194 652.851 315.666 653.474 318.14C653.724 319.129 653.973 319.995 654.223 320.985V321.108H654.347C654.472 322.097 654.722 323.087 654.971 323.953V324.076C655.844 327.785 656.592 331.496 657.216 335.082V335.33C657.965 339.287 658.463 343.244 658.712 347.077V347.943H658.837C658.962 349.551 659.087 351.158 659.087 352.642L666.195 519.093L680.786 857.187C680.911 861.392 681.161 865.472 681.285 869.553V869.801C681.535 877.963 681.785 886 682.034 893.544V894.285C682.783 922.357 682.783 945.606 682.034 959.085V959.457C681.785 963.042 681.535 965.887 681.285 967.988V968.236C681.036 969.473 680.911 970.339 680.663 970.956H680.538V971.451C680.413 971.822 680.164 971.947 680.039 971.947C679.914 971.947 679.914 971.947 679.789 971.822ZM1281.41 146.249C1265.7 146.249 1246.62 151.938 1224.79 163.932L861.748 364.637C786.296 406.188 725.684 510.808 727.057 597.001L735.787 1180.94C737.158 1267.01 741.273 1337 745.139 1337C749.006 1336.63 765.094 1267.01 781.182 1182.17L809.119 1034.15C809.119 1034.15 809.866 1030.19 811.114 1022.9L820.093 975.409C821.215 969.596 822.588 963.661 824.209 957.725C824.333 957.602 824.333 957.477 824.333 957.354C825.207 953.026 826.329 948.574 827.202 943.998C831.193 925.573 835.558 904.798 841.17 882.414C846.284 859.907 851.895 835.669 858.755 810.319C864.99 784.721 872.099 757.886 879.956 730.309C887.563 702.608 895.67 674.166 904.275 645.352C906.645 638.304 908.765 631.131 911.01 623.834L912.757 618.394L915 611.717L918.618 600.833C921.736 593.042 925.602 583.397 929.343 575.854C933.085 567.939 936.951 560.273 941.316 552.853C957.903 522.927 978.231 496.709 999.184 472.596C1020.14 448.604 1042.21 427.088 1063.79 407.178C1085.49 387.515 1106.69 369.213 1126.89 352.271C1146.85 335.453 1165.8 319.5 1183.01 304.784C1200.1 289.945 1215.44 276.095 1228.28 263.233C1241 250.25 1251.98 238.625 1259.84 227.99C1267.69 217.479 1273.56 208.699 1276.92 202.392C1280.41 195.961 1282.29 192.498 1282.29 192.498C1282.29 192.498 1281.91 196.455 1281.16 203.752C1279.92 211.048 1278.05 221.93 1273.31 235.286C1268.57 248.394 1261.83 264.223 1252.11 281.288C1242.63 298.23 1230.4 316.657 1216.19 335.576C1188 373.541 1151.58 414.103 1114.54 456.89C1095.96 478.16 1077.38 500.172 1060.04 522.802C1042.71 545.557 1026.5 568.929 1013.65 593.042C1010.41 598.979 1007.54 605.038 1004.67 611.098C1001.8 617.405 1000.06 621.857 997.562 628.287L993.696 639.046L992.199 643.25L990.329 648.692C987.959 656.111 985.59 663.283 983.22 670.456C973.367 699.146 963.764 727.588 953.289 754.67C951.293 759.617 949.298 764.687 947.303 769.511C959.649 759.246 972.121 750.095 984.841 742.799L1093.22 680.226C1167.67 637.067 1246.37 533.561 1268.07 450.089L1322.44 239.985C1337.91 180.627 1320.07 146.249 1281.54 146.249H1281.41Z" fill="white" fill-opacity="0.02"/>
</g>
<defs>
<clipPath id="clip0_65_83">
<rect width="1160" height="255" rx="20" fill="white"/>
</clipPath>
</defs>
</svg>
