<svg width="162" height="36" viewBox="0 0 162 36" fill="none" xmlns="http://www.w3.org/2000/svg">
<path d="M89.4778 24.3532V12.34H94.3165C96.7525 12.34 97.9705 13.4125 97.9705 15.5575C97.9705 17.893 96.3048 19.3183 92.9733 19.8336L92.6563 18.523C95.1035 18.159 96.327 17.1929 96.327 15.6247C96.327 14.2918 95.6096 13.6253 94.1747 13.6253H91.0212V24.3532H89.4778Z" fill="#2D2D2D"/>
<path d="M100.415 24.3532H98.8131L103.877 12.34H105.587L110.676 24.3532H108.966L107.423 20.5728H103.477L103.902 19.3127H106.905L104.678 13.8689L100.415 24.3532Z" fill="#2D2D2D"/>
<path d="M112.303 24.3532V12.34H117.392C119.661 12.34 120.796 13.3005 120.796 15.2215C120.796 16.784 119.686 17.9406 117.467 18.691L121.563 24.3532H119.528L115.732 18.9515V17.935C118.012 17.5709 119.152 16.6888 119.152 15.2887C119.152 14.1798 118.518 13.6253 117.25 13.6253H113.846V24.3532H112.303Z" fill="#2D2D2D"/>
<path d="M124.742 12.34V24.3532H123.198V12.34H124.742ZM133.134 12.34L127.762 18.0106L133.251 24.3532H131.107L126.243 18.5734V17.6325L131.182 12.34H133.134Z" fill="#2D2D2D"/>
<path d="M136.671 12.34V24.3532H135.128V12.34H136.671Z" fill="#2D2D2D"/>
<path d="M139.767 24.3532V12.34H141.31L148.61 22.0178V12.34H150.07V24.3532H148.526L141.227 14.5914V24.3532H139.767Z" fill="#2D2D2D"/>
<path d="M161.924 23.8828C160.962 24.2524 159.925 24.4372 158.813 24.4372C154.491 24.4372 152.33 22.351 152.33 18.1786C152.33 14.2302 154.416 12.256 158.587 12.256C159.783 12.256 160.895 12.424 161.924 12.76V14.1042C160.895 13.7121 159.839 13.5161 158.754 13.5161C155.501 13.5161 153.874 15.0703 153.874 18.1786C153.874 21.5109 155.476 23.1771 158.679 23.1771C159.191 23.1771 159.758 23.1099 160.381 22.9755V18.8927H161.924V23.8828Z" fill="#2D2D2D"/>
<path d="M34.9827 24.2989V12.1176H40.3716C42.8303 12.1176 44.0596 13.2619 44.0596 15.5505C44.0596 18.0322 42.3784 19.5343 39.0159 20.0567L38.696 18.0464C40.7168 17.6773 41.7272 16.868 41.7272 15.6186C41.7272 14.6078 41.2276 14.1024 40.2284 14.1024H37.214V24.2989H34.9827Z" fill="#2D2D2D"/>
<path d="M45.5416 24.2818V12.1176H51.0147C53.4733 12.1176 54.7027 13.2051 54.7027 15.3801C54.7027 16.851 53.7456 18.0691 51.8314 19.0345L55.6457 24.2989H52.8334L49.1706 18.9919V17.9612C51.3037 17.5921 52.3703 16.7544 52.3703 15.4483C52.3703 14.551 51.8707 14.1024 50.8715 14.1024H47.815V24.2818H45.5416Z" fill="#2D2D2D"/>
<path d="M58.938 12.1176V24.2989H56.7067V12.1176H58.938Z" fill="#2D2D2D"/>
<path d="M61.4725 24.2989V12.1176H63.788L67.8718 21.36L71.8714 12.1176H74.1027V24.2989H72.0398V15.8146L68.7728 24.2989H66.8698L63.5354 15.8146V24.2989H61.4725Z" fill="#2D2D2D"/>
<path d="M84.8721 12.1176V14.0598H78.8433V17.1264H84.5858V19.1453H78.818V22.3396H84.99V24.2989H76.6288V12.1176H84.8721Z" fill="#2D2D2D"/>
<path fill-rule="evenodd" clip-rule="evenodd" d="M13.3653 25.5542V25.5509H13.3623C13.3082 25.4978 13.1729 25.0567 13.0016 24.3934L12.9655 24.2541C12.9144 24.0518 12.8603 23.8296 12.8032 23.5974V23.5941C12.725 23.2691 12.6439 22.9208 12.5627 22.556L12.4215 21.9192C12.4215 21.9192 12.4064 21.8363 12.3854 21.6837C12.3613 21.5312 12.3313 21.3057 12.2802 21.0238C12.2321 20.7418 12.181 20.4002 12.1058 20.0155C12.0337 19.6275 11.9556 19.1864 11.8594 18.7154C11.7632 18.2444 11.661 17.7337 11.5528 17.1931C11.5408 17.1467 11.5287 17.0969 11.5197 17.0505V17.0472L11.5017 16.9676C11.4836 16.8847 11.4656 16.7984 11.4476 16.7155V16.7089H11.4446L11.4295 16.6293C11.3514 16.2645 11.2762 15.8897 11.1921 15.5083C11.168 15.4055 11.144 15.3026 11.1199 15.1999V15.1899L11.1019 15.1203V15.1103L11.0839 15.0374V15.0307L11.0658 14.9544V14.9511L11.0478 14.8715C10.9666 14.4934 10.8855 14.1054 10.8013 13.7173C10.7352 13.4122 10.663 13.1071 10.5909 12.7986C10.5639 12.666 10.5338 12.53 10.5067 12.3973V12.394C10.4887 12.3078 10.4707 12.2216 10.4526 12.1353L10.3985 11.8733C10.3294 11.5649 10.2633 11.2531 10.1941 10.948L10.0769 10.4605C10.0498 10.3311 9.98371 10.0923 9.92059 9.91324C9.66511 9.18689 9.2563 8.57997 8.82345 8.10238C8.3846 7.6248 7.92171 7.25999 7.48286 6.94823C7.047 6.63977 6.62617 6.38773 6.23842 6.15888C5.53203 5.7476 4.93688 5.41266 4.49804 5.15063V5.14733C4.45293 5.12411 4.41088 5.09759 4.3718 5.07103C3.95097 4.81235 3.70148 4.65648 3.67144 4.63657C3.68045 4.65314 3.71953 4.71283 3.79165 4.82561C3.87884 4.94499 4.00207 5.13072 4.17642 5.34632C4.35074 5.55857 4.56417 5.82721 4.82267 6.10249C5.08418 6.38109 5.38477 6.6862 5.71241 7.00461C6.03704 7.31969 6.38572 7.66128 6.75843 8.02278L6.79751 8.0626C7.00491 8.27816 7.21533 8.50037 7.41071 8.73253V8.74248H7.41971L7.42875 8.75243V8.76239H7.43776L7.44677 8.77565V8.7823H7.45581L7.46482 8.79556V8.80217H7.47081L7.48585 8.81878V8.82208H7.48886L7.50389 8.83865V8.84199C7.52191 8.86187 7.53996 8.88508 7.558 8.9083V8.92156H7.56701L7.57602 8.93152V8.94147H7.58506L7.59407 8.95143V8.96138H7.60009L7.61211 8.97464V8.98129H7.6151L7.63013 8.99786V9.00116C7.65417 9.03103 7.67821 9.0642 7.70229 9.09403V9.10068H7.70527L7.7203 9.12059C7.73534 9.14046 7.74736 9.16037 7.76239 9.18028C7.79246 9.22006 7.81952 9.25988 7.84657 9.29967C7.87661 9.3461 7.90668 9.39253 7.93675 9.43896V9.44227C7.96079 9.47875 7.98483 9.51857 8.00887 9.55835V9.56169H8.01188C8.02391 9.57826 8.03291 9.59817 8.04493 9.61804V9.62139C8.06298 9.65121 8.08103 9.68439 8.09904 9.71756V9.72086H8.10206C8.15315 9.81373 8.20124 9.90993 8.24333 10.0094V10.0194H8.24936L8.26138 10.0492V10.0591H8.26737L8.27939 10.0923V10.099H8.2824L8.29744 10.1354V10.1388H8.30045C8.31247 10.1686 8.32449 10.2018 8.3335 10.2316V10.2383H8.33652C8.34854 10.2714 8.36056 10.3013 8.36957 10.3344V10.3377H8.37258L8.38761 10.3908V10.3974H8.39063C8.39662 10.414 8.40265 10.4339 8.40864 10.4505V10.4605C8.41467 10.4804 8.42066 10.5003 8.42669 10.5202C8.45974 10.6396 8.47779 10.7059 8.51385 10.885L8.59803 11.336C8.65214 11.6578 8.72427 11.9761 8.78738 12.2978C8.87156 12.7323 8.96773 13.1635 9.07595 13.588C8.80543 13.3492 8.52888 13.1436 8.25535 12.9943L5.47193 11.4355L5.43888 11.4156C5.38477 11.3858 5.33066 11.3526 5.27655 11.3195V11.3161H5.27354C5.1984 11.2664 5.12024 11.2133 5.04209 11.157H5.03908L4.98798 11.1171H4.985L4.93387 11.0774C4.89181 11.0442 4.84972 11.011 4.80763 10.9778H4.80462C4.75654 10.9381 4.70845 10.8983 4.66034 10.8585C4.6303 10.8319 4.60023 10.8054 4.57016 10.7788C4.49804 10.7158 4.42591 10.6462 4.35375 10.5799C4.14334 10.3776 3.93594 10.1554 3.73754 9.91985C3.68346 9.85355 3.62934 9.79051 3.57524 9.72086C3.5061 9.63465 3.44298 9.55174 3.37685 9.46218H3.37385C3.23558 9.27314 3.10332 9.08077 2.98008 8.88508V8.88178H2.97707C2.91696 8.7823 2.85684 8.68609 2.79672 8.58662V8.58327C2.72158 8.45063 2.64944 8.31798 2.5803 8.18529V8.18199C2.53521 8.09574 2.49313 8.00952 2.45406 7.9233L2.41799 7.8437C2.37891 7.75745 2.34284 7.67123 2.30977 7.58502C2.26168 7.46559 2.2196 7.34621 2.18353 7.22682V7.22348H2.18052C2.1715 7.187 2.15948 7.15052 2.14746 7.11405L0.641526 1.89376C0.629502 1.85396 0.617479 1.81748 0.608461 1.77768V1.77436C0.602449 1.75115 0.596438 1.72793 0.590426 1.70472V1.69477H0.58742C0.581409 1.67155 0.578403 1.65165 0.572391 1.62844V1.61517H0.569385C0.563374 1.58864 0.560368 1.56542 0.554356 1.53889V1.53557C0.548344 1.50241 0.542333 1.46924 0.536321 1.43939V1.43607C0.530309 1.39296 0.524297 1.35316 0.518286 1.31005V1.25698H0.512274C0.491233 1.04472 0.497245 0.858992 0.530309 0.696479H0.536321V0.666629C0.539327 0.650047 0.545339 0.633465 0.548344 0.616884H0.554356V0.593667C0.569385 0.547235 0.584414 0.500803 0.605455 0.457688H0.608461V0.447737C0.614473 0.437789 0.617479 0.427838 0.623491 0.417886H0.626497V0.411256C0.635514 0.391357 0.647537 0.374771 0.656555 0.358189H0.662567V0.34824C0.683608 0.315074 0.704649 0.285225 0.728695 0.258692H0.734707V0.248743L0.74673 0.238793H0.752742V0.228844L0.764766 0.218894H0.770777V0.212261L0.785805 0.195678H0.788812V0.192361C0.81286 0.172462 0.836906 0.155879 0.860954 0.13598C0.881995 0.122713 0.903034 0.109447 0.924075 0.0961804H0.933093V0.0928641C0.945117 0.0862309 0.954134 0.0829142 0.963152 0.0762811H0.969165V0.0729647C0.984193 0.069648 0.996217 0.0630148 1.01125 0.0563817H1.02628V0.053065C1.06535 0.0364823 1.10443 0.0265326 1.14952 0.0165829H1.18859V0.00994972C1.23669 0.00331657 1.28779 0 1.33888 0C1.43207 0 1.53426 0.00994972 1.63947 0.0364823H1.65149C1.67854 0.0431155 1.70259 0.0497486 1.72965 0.0563817C1.77173 0.069648 1.81381 0.0829142 1.85589 0.0961804H1.8589C1.87693 0.102814 1.89497 0.109447 1.913 0.11608H1.91601C1.93104 0.122713 1.94907 0.129346 1.96711 0.13598C2.02722 0.159195 2.08433 0.185728 2.14746 0.215577V0.218894H2.15046C2.19555 0.238793 2.24064 0.262009 2.28873 0.285225L10.2513 4.53375C10.3054 4.56028 10.3625 4.59345 10.4166 4.62662V4.62992H10.4196L10.4526 4.64983C10.4827 4.66974 10.5128 4.68962 10.5428 4.70953C10.6901 4.80904 10.8374 4.92178 10.9757 5.04781C11.0207 5.08763 11.0628 5.12411 11.1019 5.16724H11.1049C11.2702 5.32641 11.4265 5.49887 11.5738 5.6846V5.68791C11.6099 5.73434 11.6459 5.78077 11.682 5.82721C11.7061 5.86038 11.7301 5.89355 11.7542 5.92672H11.7572C11.8113 6.00298 11.8654 6.08258 11.9165 6.16549H11.9195C11.9946 6.28157 12.0668 6.4043 12.1359 6.52369V6.527C12.1539 6.56017 12.172 6.59003 12.19 6.6232V6.62651C12.2141 6.67294 12.2381 6.71607 12.2622 6.7625V6.7658C12.3343 6.90841 12.4004 7.05105 12.4605 7.20026V7.2036H12.4636L12.4786 7.24339C12.4966 7.28982 12.5147 7.33625 12.5327 7.38269V7.38599C12.5447 7.41586 12.5567 7.44903 12.5688 7.4822V7.4855C12.6018 7.57506 12.6319 7.66793 12.6589 7.75745V7.7641H12.6619L12.677 7.82048V7.82379H12.68C12.698 7.89013 12.716 7.95644 12.7311 8.02278C12.7371 8.0493 12.7431 8.07252 12.7491 8.09908V8.10238H12.7521C12.7551 8.12891 12.7611 8.15547 12.7671 8.17868V8.18199C12.7882 8.28146 12.8062 8.38098 12.8212 8.47715V8.4838C12.8393 8.58992 12.8513 8.69605 12.8573 8.79887V8.82208H12.8603C12.8633 8.86521 12.8663 8.9083 12.8663 8.94812L13.3893 22.4797C13.3924 22.5925 13.3984 22.7019 13.4014 22.8114V22.818C13.4074 23.0369 13.4134 23.2525 13.4194 23.4548V23.4747C13.4375 24.2275 13.4375 24.8511 13.4194 25.2126V25.2225C13.4134 25.3187 13.4074 25.395 13.4014 25.4514V25.458C13.3954 25.4912 13.3924 25.5144 13.3864 25.531H13.3833V25.5442C13.3803 25.5542 13.3743 25.5575 13.3713 25.5575C13.3683 25.5575 13.3683 25.5575 13.3653 25.5542ZM27.8656 3.41275C27.4868 3.41275 27.0269 3.56532 26.5009 3.88701L17.7508 9.2698C15.9323 10.3842 14.4715 13.19 14.5045 15.5017L14.7149 31.1625C14.748 33.4708 14.8472 35.348 14.9404 35.348C15.0336 35.3381 15.4213 33.4708 15.8091 31.1957L16.4824 27.2257C16.4824 27.2257 16.5004 27.1196 16.5305 26.9239L16.7469 25.6504C16.7739 25.4945 16.807 25.3353 16.8461 25.1761C16.8491 25.1728 16.8491 25.1695 16.8491 25.1661C16.8701 25.0501 16.8972 24.9307 16.9182 24.808C17.0144 24.3138 17.1196 23.7566 17.2549 23.1563C17.3781 22.5527 17.5134 21.9026 17.6787 21.2228C17.829 20.5362 18.0003 19.8165 18.1897 19.0769C18.373 18.334 18.5684 17.5712 18.7758 16.7984C18.833 16.6094 18.8841 16.417 18.9382 16.2213L18.9803 16.0754L19.0343 15.8963L19.1215 15.6045C19.1967 15.3955 19.2898 15.1368 19.38 14.9345C19.4702 14.7222 19.5634 14.5166 19.6686 14.3177C20.0684 13.515 20.5583 12.8119 21.0633 12.1652C21.5683 11.5218 22.1003 10.9447 22.6203 10.4107C23.1434 9.88338 23.6543 9.39253 24.1413 8.93816C24.6222 8.4871 25.0791 8.05926 25.4939 7.66459C25.9057 7.2666 26.2755 6.89515 26.5851 6.55021C26.8916 6.20201 27.1562 5.89024 27.3455 5.605C27.5349 5.3231 27.6762 5.08763 27.7573 4.91847C27.8415 4.746 27.8866 4.65314 27.8866 4.65314C27.8866 4.65314 27.8776 4.75927 27.8595 4.95495C27.8295 5.15063 27.7844 5.44249 27.6702 5.80068C27.5559 6.15223 27.3936 6.57677 27.1592 7.03444C26.9307 7.48881 26.6361 7.983 26.2935 8.49041C25.6142 9.50861 24.7364 10.5965 23.8437 11.744C23.3958 12.3144 22.948 12.9048 22.5302 13.5117C22.1123 14.122 21.7216 14.7488 21.412 15.3955C21.3338 15.5547 21.2647 15.7172 21.1955 15.8797C21.1264 16.0489 21.0843 16.1683 21.0242 16.3408L20.931 16.6293L20.895 16.742L20.8499 16.888C20.7928 17.087 20.7357 17.2793 20.6785 17.4717C20.4411 18.2411 20.2096 19.004 19.9572 19.7303C19.909 19.863 19.861 19.9989 19.8129 20.1283C20.1104 19.853 20.411 19.6076 20.7176 19.4119L23.3297 17.7337C25.1242 16.5762 27.0209 13.8002 27.5439 11.5616L28.8545 5.92672C29.2272 4.33476 28.7974 3.41275 27.8685 3.41275H27.8656Z" fill="#2D2D2D"/>
</svg>
